<svg width="2003" height="249" viewBox="0 0 2003 249" fill="none" xmlns="http://www.w3.org/2000/svg">
<path d="M134.367 175.226C133.385 176.6 131.457 176.794 129.756 176.762C127.534 176.729 125.278 176.499 123.088 176.075C121.682 175.813 120.048 175.291 119.621 173.917C119.423 173.263 119.556 172.576 119.916 171.989C120.143 171.532 120.538 171.14 120.962 170.845C121.944 170.191 123.185 169.996 124.361 169.799L126.617 169.014C128.677 168.949 130.9 168.917 132.699 169.964C133.321 170.323 133.875 170.913 134.267 171.532C134.986 172.676 135.184 174.114 134.367 175.226Z" fill="white"/>
<path d="M134.367 175.226C133.385 176.6 131.457 176.795 129.756 176.762C127.534 176.73 125.278 176.5 123.088 176.075C121.682 175.813 120.048 175.291 119.621 173.917C119.423 173.263 119.556 172.576 119.916 171.989C121.811 173.82 124.426 174.866 127.077 174.834C129.789 174.769 132.472 173.525 134.27 171.532C134.986 172.676 135.184 174.115 134.367 175.226Z" fill="white"/>
<path d="M160.184 168.686C158.58 170.06 155.429 170.254 152.649 170.222C149.017 170.189 145.329 169.959 141.75 169.535C139.453 169.272 136.779 168.751 136.087 167.377C135.765 166.722 135.98 166.036 136.567 165.449C136.942 164.992 137.581 164.6 138.277 164.305C139.881 163.651 141.912 163.456 143.834 163.258L147.522 162.474C150.889 162.409 154.521 162.377 157.46 163.423C158.474 163.783 159.385 164.373 160.025 164.992C161.198 166.136 161.52 167.574 160.184 168.686Z" fill="white"/>
<path d="M160.184 168.686C158.58 170.06 155.429 170.254 152.649 170.222C149.017 170.19 145.329 169.96 141.75 169.535C139.453 169.273 136.779 168.751 136.087 167.377C135.765 166.723 135.98 166.036 136.567 165.449C139.666 167.28 143.94 168.326 148.268 168.294C152.705 168.229 157.086 166.985 160.022 164.992C161.198 166.136 161.52 167.575 160.184 168.686Z" fill="white"/>
<path d="M729.049 185.033C727.446 186.407 724.294 186.602 721.514 186.569C717.882 186.537 714.194 186.307 710.615 185.882C708.319 185.62 705.648 185.098 704.952 183.725C704.63 183.07 704.846 182.383 705.432 181.796C705.804 181.339 706.447 180.947 707.142 180.653C708.746 179.998 710.777 179.804 712.699 179.606L716.384 178.822C719.751 178.757 723.386 178.725 726.322 179.771C727.337 180.131 728.248 180.72 728.887 181.339C730.064 182.483 730.385 183.922 729.049 185.033Z" fill="white"/>
<path d="M729.049 185.034C727.446 186.408 724.294 186.602 721.514 186.57C717.882 186.537 714.194 186.307 710.615 185.883C708.319 185.62 705.648 185.099 704.952 183.725C704.63 183.07 704.846 182.383 705.432 181.797C708.531 183.628 712.806 184.674 717.133 184.642C721.57 184.577 725.951 183.333 728.887 181.34C730.064 182.484 730.385 183.922 729.049 185.034Z" fill="white"/>
<path d="M282.489 242.958C281.446 244.128 279.394 244.293 277.587 244.267C275.222 244.24 272.822 244.042 270.494 243.683C268.999 243.459 267.259 243.014 266.808 241.843C266.599 241.286 266.738 240.702 267.121 240.201C267.363 239.812 267.781 239.476 268.232 239.225C269.276 238.668 270.597 238.5 271.85 238.335L274.249 237.666C276.44 237.61 278.804 237.583 280.717 238.474C281.378 238.78 281.97 239.281 282.386 239.812C283.15 240.785 283.359 242.011 282.489 242.958Z" fill="white"/>
<path d="M282.489 242.957C281.446 244.127 279.394 244.293 277.587 244.266C275.222 244.239 272.822 244.042 270.494 243.682C268.999 243.458 267.259 243.013 266.808 241.843C266.599 241.286 266.738 240.702 267.121 240.201C269.137 241.76 271.92 242.651 274.736 242.624C277.622 242.568 280.473 241.51 282.386 239.812C283.15 240.784 283.359 242.011 282.489 242.957Z" fill="white"/>
<path d="M262.31 246.419C260.223 248.35 256.119 248.627 252.502 248.58C247.773 248.533 242.973 248.211 238.315 247.613C235.326 247.244 231.847 246.51 230.942 244.576C230.524 243.657 230.804 242.69 231.57 241.861C232.057 241.219 232.891 240.667 233.796 240.251C235.883 239.332 238.528 239.055 241.031 238.78L245.83 237.678C250.214 237.586 254.943 237.539 258.766 239.01C260.087 239.517 261.272 240.346 262.103 241.218C263.631 242.831 264.049 244.856 262.31 246.419Z" fill="white"/>
<path d="M262.31 246.418C260.223 248.349 256.119 248.626 252.502 248.579C247.773 248.532 242.973 248.211 238.315 247.612C235.326 247.244 231.847 246.51 230.942 244.576C230.524 243.656 230.804 242.689 231.57 241.861C235.603 244.437 241.166 245.908 246.8 245.861C252.572 245.77 258.274 244.021 262.101 241.215C263.631 242.83 264.049 244.856 262.31 246.418Z" fill="white"/>
<path d="M69.929 191.9C67.2817 194.648 63.0305 194.94 59.2039 195.04C42.9217 195.529 26.607 196.022 10.3277 196.479C7.84252 196.576 5.26001 196.608 3.06958 195.497C1.56606 194.713 0.324922 193.209 0.0625436 191.606C-0.0671718 190.886 -0.00231767 190.134 0.324919 189.448C1.17397 187.584 3.39682 186.833 5.39267 186.275C12.2263 184.477 19.2221 183.333 26.2827 182.909C29.2574 182.714 32.232 182.646 35.2095 182.714C31.3181 182.649 39.1983 172.579 40.3746 171.957C42.4353 170.878 45.3126 170.388 48.2223 170.323C50.7724 170.258 53.2901 170.518 55.2505 170.978C58.1279 171.665 62.2139 173.658 65.6809 176.34C71.1702 180.556 75.0941 186.57 69.929 191.9Z" fill="white"/>
<path d="M69.929 191.901C67.2816 194.648 63.0305 194.94 59.2039 195.04C42.9216 195.53 26.607 196.022 10.3277 196.479C7.84248 196.576 5.25996 196.609 3.06954 195.497C1.56602 194.713 0.324879 193.21 0.0625 191.606C1.59845 192.095 3.26706 192.358 4.83544 192.523C19.3193 193.897 33.933 193.112 48.352 191.214C53.1898 190.592 58.4551 189.578 61.527 185.787C63.6201 183.172 64.2392 179.705 65.5481 176.6C65.5806 176.503 65.613 176.435 65.6778 176.338C71.1701 180.557 75.094 186.571 69.929 191.901Z" fill="white"/>
<path d="M48.2189 170.324C48.0214 170.357 47.8592 170.454 47.6971 170.554C45.2443 171.896 43.2514 174.021 42.0073 176.503C41.4177 177.615 41.0256 178.859 41.0256 180.133C41.0256 181.341 41.4177 182.683 40.7632 183.729C40.0439 184.938 38.3428 185.103 36.9366 185.038C33.3075 184.876 29.6784 184.157 26.2793 182.913C29.2539 182.718 32.2285 182.65 35.2061 182.718C31.3146 182.653 39.1948 172.583 40.3711 171.96C42.4318 170.879 45.3091 170.389 48.2189 170.324Z" fill="white"/>
<path d="M270.212 145.114C267.269 146.75 263.183 146.682 259.946 146.063C258.051 145.703 249.584 139.722 249.584 139.686C242.75 141.322 235.819 142.434 228.824 143.02C227.288 143.15 225.719 143.218 224.281 142.628C222.874 142.071 221.698 140.568 221.993 139.064C222.058 138.704 222.223 138.377 222.417 138.05C222.842 137.396 223.529 136.841 224.216 136.449C224.608 136.219 225 136.025 225.424 135.86C229.151 134.126 233.532 134.356 237.686 134.223C242.296 134.061 247.429 133.144 250.109 129.386C251.385 127.62 252.105 125.235 254.097 124.383C256.191 123.469 258.576 124.742 260.374 126.149C262.14 127.555 264.003 129.256 266.291 129.321C266.518 129.321 266.715 129.321 266.913 129.288C268.646 129.091 270.279 128.145 272.013 128.145C274.595 128.112 276.099 128.961 276.753 130.303C279.038 134.391 273.906 143.088 270.212 145.114Z" fill="white"/>
<path d="M270.212 145.114C267.269 146.75 263.183 146.682 259.946 146.063C258.051 145.704 249.584 139.722 249.584 139.687C242.75 141.323 235.819 142.434 228.824 143.021C227.288 143.151 225.719 143.218 224.281 142.629C222.874 142.072 221.698 140.568 221.993 139.065C222.058 138.705 222.223 138.378 222.417 138.05C231.442 141.485 242.099 140.601 250.371 135.533C251.32 134.943 252.659 134.357 253.411 135.141C253.77 135.533 253.868 136.09 254 136.579C254.622 139.259 256.845 141.485 259.492 142.104C262.172 142.726 265.147 141.712 266.88 139.619C268.646 137.493 269.136 134.519 270.966 132.458C272.405 130.857 274.628 129.973 276.753 130.3C279.038 134.392 273.906 143.089 270.212 145.114Z" fill="white"/>
<path d="M266.91 129.291C266.453 129.716 265.864 130.043 265.242 130.241C263.641 130.73 261.875 130.338 260.339 129.683C258.605 128.932 256.84 127.82 254.976 128.212C253.34 128.54 252.232 129.978 250.988 131.09C246.999 134.751 241.277 135.568 235.917 136.222C232.418 136.647 228.724 137.039 225.422 135.863C229.148 134.129 233.529 134.359 237.683 134.226C242.294 134.064 247.426 133.147 250.106 129.389C251.383 127.623 252.102 125.238 254.095 124.386C256.188 123.472 258.573 124.745 260.371 126.152C262.137 127.558 264 129.259 266.288 129.324C266.515 129.324 266.713 129.324 266.91 129.291Z" fill="white"/>
<path d="M699.576 153.254C687.969 157.012 674.959 156.328 663.81 151.293C660.54 149.822 657.271 147.959 653.706 147.894C647.07 147.699 640.629 153.616 634.45 151.196C630.885 149.79 628.76 145.506 629.806 141.812C630.231 140.309 631.148 139.032 632.356 138.086C634.122 136.647 636.475 135.928 638.698 136.32C637.849 131.385 640.334 127.461 644.355 124.746C652.168 119.351 665.77 118.502 671.654 123.404C676.132 127.131 677.963 133.802 676.003 139.294C683.391 137.366 691.303 137.496 698.662 139.654C698.662 139.654 698.662 139.654 698.694 139.654C699.478 139.884 700.23 140.144 700.985 140.406C702.978 141.125 705.071 142.172 706.117 143.905C706.412 144.33 706.61 144.787 706.739 145.312C707.618 149.135 703.302 152.045 699.576 153.254Z" fill="white"/>
<path d="M699.576 153.254C687.969 157.013 674.959 156.329 663.81 151.293C660.54 149.822 657.271 147.959 653.706 147.894C647.07 147.7 640.629 153.616 634.45 151.196C630.885 149.79 628.76 145.506 629.806 141.812C630.231 140.309 631.148 139.032 632.356 138.086C632.551 138.216 632.749 138.348 632.946 138.543C634.155 139.719 634.647 141.42 635.299 142.989C635.953 144.557 636.932 146.193 638.536 146.715C640.531 147.369 642.557 146.093 644.42 145.147C649.225 142.597 654.815 141.647 660.177 142.399C665.67 143.216 670.738 145.733 675.903 147.697C681.1 149.69 686.79 151.164 692.152 149.79C695.162 149.006 697.875 147.369 700.655 145.966C702.388 145.117 704.219 144.333 706.114 143.905C706.409 144.33 706.607 144.787 706.736 145.312C707.618 149.135 703.302 152.045 699.576 153.254Z" fill="white"/>
<path d="M698.658 139.654C697.547 139.949 696.335 140.014 695.224 140.046C689.207 140.144 683.16 140.276 677.143 140.373C676.359 140.406 675.542 140.406 674.823 140.079C673.417 139.392 672.96 137.593 673.089 136.025C673.187 134.489 673.676 132.953 673.546 131.382C673.284 128.177 670.342 125.825 667.335 124.713C660.077 122.098 652.034 124.713 644.352 124.746C652.164 119.351 665.766 118.502 671.651 123.404C676.129 127.131 677.96 133.802 675.999 139.294C683.39 137.366 691.303 137.496 698.658 139.654Z" fill="white"/>
<path d="M1854.68 128.072C1854.68 135.168 1837.95 140.919 1817.35 140.919C1808.96 140.919 1801.26 139.969 1795.03 138.36C1791.23 139.996 1786.88 140.919 1782.24 140.919C1777.46 140.919 1773 139.943 1769.15 138.228C1768.78 139.204 1768.34 140.154 1767.78 141.051C1763.32 148.754 1753.43 154.109 1741.96 154.109C1730.01 154.109 1719.8 148.305 1715.6 140.101C1712.89 140.629 1710.09 140.919 1707.19 140.919C1703.1 140.919 1699.22 140.365 1695.58 139.389C1687.22 152.79 1669.76 162.022 1649.47 162.022C1635.07 162.022 1622.04 157.353 1612.72 149.835C1606.74 158.646 1594.92 164.66 1581.28 164.66C1570.99 164.66 1561.73 161.205 1555.24 155.718C1543.85 169.224 1524.35 178.114 1502.19 178.114C1484.84 178.114 1469.11 172.653 1457.64 163.79C1448.85 169.277 1437.77 172.574 1425.67 172.574C1404.19 172.574 1385.83 162.234 1378.16 147.54C1374.12 146.511 1370.43 144.955 1367.16 142.95C1360.96 151.207 1349.56 156.747 1336.48 156.747C1320.99 156.747 1307.86 148.965 1302.98 138.123C1298.31 139.917 1293.08 140.919 1287.54 140.919C1275.81 140.919 1265.44 136.461 1258.95 129.602C1254.12 133.348 1247.5 135.643 1240.19 135.643C1235.26 135.643 1230.67 134.588 1226.71 132.768C1224.31 132.926 1221.86 133.005 1219.33 133.005C1210.46 133.005 1202.34 131.95 1195.95 130.182C1187.43 127.808 1182 124.194 1182 120.158C1182 113.563 1196.51 108.129 1215.16 107.417C1218.93 99.4241 1228.69 93.6998 1240.19 93.6998C1246.63 93.6998 1252.54 95.4936 1257.15 98.4744C1263.3 90.5606 1274.33 85.2319 1286.96 85.0737C1286.94 84.8099 1286.91 84.5725 1286.91 84.335C1286.91 72.0158 1299.63 62.0445 1315.3 62.0445C1322.95 62.0445 1329.88 64.4186 1334.97 68.27C1340.49 65.5529 1346.98 63.9438 1353.97 63.9438C1361.8 63.9438 1369.03 65.9486 1374.89 69.2988C1385.17 52.627 1406.96 41.0992 1432.16 41.0992C1432.92 41.0992 1433.69 41.1255 1434.45 41.1519C1439.73 17.7798 1465.71 0 1497.02 0C1528.81 0 1555.14 18.3338 1559.83 42.2599C1576.14 45.0297 1590.09 52.6797 1599.09 63.1788C1604.94 61.3586 1611.33 60.3297 1618 60.3297C1632.11 60.3297 1644.88 64.8142 1654.17 72.0422C1660.6 67.0301 1669.44 63.9438 1679.2 63.9438C1696.08 63.9438 1710.17 73.1766 1713.84 85.5485C1718.74 86.2872 1723.28 87.7908 1727.24 89.9011C1731.98 82.7523 1741.48 77.8721 1752.43 77.8721C1767.62 77.8721 1780 87.2632 1780.76 99.0284C1781.26 99.002 1781.74 98.9757 1782.24 98.9757C1795.11 98.9757 1805.85 106.124 1808.38 115.621C1811.25 115.384 1814.24 115.252 1817.35 115.252C1837.95 115.252 1854.68 121.002 1854.68 128.072Z" fill="white"/>
<path d="M1281.91 91.2895C1285.2 90.7197 1288.62 90.3768 1292.17 90.3399C1292.16 90.0972 1292.11 89.8598 1292.11 89.6145C1292.11 88.7994 1292.19 87.9974 1292.32 87.2061C1288.53 88.2349 1285.05 89.625 1281.91 91.2895Z" fill="white"/>
<path d="M1186.21 114.756C1191.99 113.653 1198.71 112.92 1205.96 112.688C1206.84 111.131 1208.07 109.696 1209.46 108.338C1199.19 109.575 1190.9 111.875 1186.21 114.756Z" fill="white"/>
<path d="M1470.92 41.668C1459.65 42.7706 1449.2 45.4983 1440.11 49.4578C1448.33 47.4794 1457.21 46.3873 1466.48 46.3873C1467.4 46.3873 1468.31 46.411 1469.23 46.4321C1469.67 44.8124 1470.25 43.2296 1470.92 41.668Z" fill="white"/>
<path d="M1236.03 98.9741C1243.76 98.9741 1250.86 100.765 1256.39 103.749C1259.13 100.81 1262.68 98.2329 1266.83 96.141C1262.36 94.5925 1257.27 93.6982 1251.86 93.6982C1243.38 93.6982 1235.69 95.8692 1229.97 99.3909C1231.93 99.1429 1233.94 98.9741 1236.03 98.9741Z" fill="white"/>
<path d="M1258.88 135.128C1258.78 135.038 1258.66 134.959 1258.55 134.869C1258.34 135.009 1258.09 135.133 1257.87 135.27C1258.21 135.228 1258.55 135.178 1258.88 135.128Z" fill="white"/>
<path d="M1326.2 67.3198C1335.38 67.3198 1343.69 69.7018 1349.81 73.5559C1356.42 70.8203 1364.23 69.2138 1372.62 69.2138C1382.02 69.2138 1390.69 71.2239 1397.74 74.5873C1399.92 71.646 1402.55 68.8762 1405.53 66.291C1400.3 64.7874 1394.54 63.938 1388.46 63.938C1380.06 63.938 1372.25 65.5445 1365.65 68.28C1359.52 64.426 1351.21 62.0439 1342.04 62.0439C1333.27 62.0439 1325.3 64.2281 1319.26 67.7841C1321.5 67.4834 1323.82 67.3198 1326.2 67.3198Z" fill="white"/>
<path d="M1885.24 141.052C1879.89 148.754 1868.01 154.109 1854.24 154.109C1839.89 154.109 1827.64 148.306 1822.6 140.102C1819.34 140.63 1815.98 140.92 1812.5 140.92C1807.59 140.92 1802.93 140.366 1798.56 139.39C1788.53 152.79 1767.56 162.023 1743.21 162.023C1725.92 162.023 1710.27 157.354 1699.09 149.836C1691.9 158.647 1677.72 164.661 1661.34 164.661C1648.99 164.661 1637.88 161.205 1630.09 155.719C1616.4 169.225 1593 178.115 1566.4 178.115C1545.56 178.115 1526.69 172.654 1512.91 163.791C1502.36 169.278 1489.06 172.575 1474.53 172.575C1448.75 172.575 1426.71 162.234 1417.49 147.541C1412.65 146.512 1408.21 144.956 1404.29 142.951C1396.84 151.208 1383.16 156.747 1367.45 156.747C1348.86 156.747 1333.09 148.965 1327.23 138.124C1321.63 139.917 1315.36 140.92 1308.71 140.92C1294.62 140.92 1282.17 136.462 1274.38 129.603C1268.58 133.349 1260.63 135.644 1251.86 135.644C1245.94 135.644 1240.43 134.589 1235.68 132.769C1232.8 132.927 1218.05 131.5 1215.01 131.5C1204.37 131.5 1189.8 129.5 1185.6 125.5C1204.73 127.004 1238.18 124.96 1249.46 111.876C1270.9 125.488 1302.56 126.754 1325.46 114.857C1345.32 132.135 1380.47 135.248 1404.29 121.874C1423.22 132.215 1446.31 137.2 1468.92 135.776C1506.58 159.992 1564.69 158.673 1600.76 132.795C1622.9 147.277 1657.76 145.879 1678.1 129.656C1694.78 142.634 1724.08 141.869 1739.75 128.02C1761.57 138.414 1791.25 135.723 1809.9 121.663C1822.06 135.486 1848.57 138.44 1864.69 127.783C1869.47 134.035 1876.88 138.598 1885.24 141.052Z" fill="white"/>
<path d="M2002.23 98.9754C2002.23 101.27 1999.5 103.328 1995.13 104.752C1991.17 106.071 1985.89 106.889 1980.06 106.889C1979.77 106.889 1979.52 106.889 1979.24 106.863C1967.36 106.731 1957.89 103.249 1957.89 98.9754C1957.89 97.9993 1958.37 97.076 1959.25 96.2319C1960.96 94.5963 1964.13 93.1983 1968.21 92.3014C1971.64 91.51 1975.69 91.0615 1980.06 91.0615C1992.31 91.0615 2002.23 94.5964 2002.23 98.9754Z" fill="white"/>
<path d="M2002.23 98.9754C2002.23 101.27 1999.5 103.328 1995.13 104.752C1993.42 101.402 1990.6 98.4477 1986.99 96.3901C1981.61 93.2774 1974.61 92.1958 1968.28 93.4621L1968.21 92.3014C1971.64 91.51 1975.69 91.0615 1980.06 91.0615C1992.31 91.0615 2002.23 94.5964 2002.23 98.9754Z" fill="white"/>
<path d="M1979.24 106.863C1967.36 106.731 1957.89 103.249 1957.89 98.9759C1957.89 97.9999 1958.37 97.0766 1959.25 96.2324C1959.03 97.9998 1960.01 99.8991 1961.53 101.218C1963.5 102.906 1966.19 103.83 1968.88 104.595C1972.27 105.571 1975.72 106.336 1979.24 106.863Z" fill="white"/>
<path d="M1239.01 151.734C1239.01 154.029 1236.28 156.087 1231.91 157.511C1227.95 158.83 1222.67 159.648 1216.84 159.648C1216.55 159.648 1216.3 159.648 1216.01 159.622C1204.14 159.49 1194.67 156.008 1194.67 151.734C1194.67 150.758 1195.14 149.835 1196.03 148.991C1197.74 147.355 1200.91 145.957 1204.99 145.06C1208.41 144.269 1212.47 143.82 1216.84 143.82C1229.09 143.82 1239.01 147.355 1239.01 151.734Z" fill="white"/>
<path d="M1239.01 151.734C1239.01 154.029 1236.28 156.087 1231.91 157.511C1230.2 154.161 1227.38 151.207 1223.77 149.149C1218.39 146.036 1211.39 144.955 1205.06 146.221L1204.99 145.06C1208.41 144.269 1212.47 143.82 1216.84 143.82C1229.09 143.82 1239.01 147.355 1239.01 151.734Z" fill="white"/>
<path d="M1216.01 159.622C1204.14 159.49 1194.67 156.008 1194.67 151.735C1194.67 150.759 1195.14 149.835 1196.03 148.991C1195.81 150.759 1196.79 152.658 1198.31 153.977C1200.28 155.665 1202.97 156.588 1205.66 157.353C1209.05 158.329 1212.5 159.095 1216.01 159.622Z" fill="white"/>
<path d="M1299.18 73.8448C1299.18 75.7784 1296.07 77.5115 1291.07 78.7092C1286.55 79.8197 1280.5 80.5083 1273.84 80.5083C1273.52 80.5083 1273.23 80.5082 1272.9 80.4871C1259.33 80.3763 1248.51 77.443 1248.51 73.8448C1248.51 73.0244 1249.05 72.2462 1250.06 71.534C1252.02 70.157 1255.64 68.9804 1260.3 68.2233C1264.21 67.5559 1268.85 67.1787 1273.84 67.1787C1287.85 67.1813 1299.18 70.157 1299.18 73.8448Z" fill="white"/>
<path d="M1299.18 73.8448C1299.18 75.7784 1296.06 77.5115 1291.07 78.7092C1289.11 75.8892 1285.89 73.399 1281.77 71.6685C1275.61 69.0464 1267.62 68.1363 1260.38 69.202L1260.3 68.2233C1264.21 67.5559 1268.85 67.1787 1273.84 67.1787C1287.85 67.1813 1299.18 70.157 1299.18 73.8448Z" fill="white"/>
<path d="M1272.9 80.4863C1259.33 80.3755 1248.51 77.4422 1248.51 73.8441C1248.51 73.0237 1249.05 72.2454 1250.06 71.5332C1249.81 73.021 1250.93 74.6223 1252.67 75.7328C1254.91 77.1547 1257.99 77.9328 1261.06 78.5765C1264.94 79.3969 1268.88 80.0405 1272.9 80.4863Z" fill="white"/>
<path d="M1476.52 32.9578C1476.52 34.5089 1474.02 35.8991 1470.02 36.8593C1466.39 37.7509 1461.54 38.3022 1456.2 38.3022C1455.94 38.3022 1455.71 38.3022 1455.45 38.2837C1444.56 38.194 1435.88 35.8436 1435.88 32.9551C1435.88 32.2956 1436.32 31.6731 1437.13 31.1033C1438.7 29.998 1441.6 29.0536 1445.35 28.4495C1448.48 27.914 1452.2 27.6133 1456.2 27.6133C1467.43 27.6133 1476.52 30.0006 1476.52 32.9578Z" fill="white"/>
<path d="M1476.52 32.9578C1476.52 34.5089 1474.03 35.8991 1470.02 36.8593C1468.45 34.5959 1465.87 32.6016 1462.56 31.2114C1457.63 29.109 1451.21 28.3782 1445.4 29.2329L1445.35 28.4495C1448.48 27.914 1452.2 27.6133 1456.2 27.6133C1467.44 27.6133 1476.52 30.0006 1476.52 32.9578Z" fill="white"/>
<path d="M1455.45 38.2869C1444.56 38.1972 1435.88 35.8468 1435.88 32.9583C1435.88 32.2988 1436.31 31.6762 1437.13 31.1064C1436.93 32.3014 1437.83 33.5834 1439.22 34.475C1441.02 35.6146 1443.49 36.2399 1445.95 36.7569C1449.06 37.4111 1452.22 37.9281 1455.45 38.2869Z" fill="white"/>
<path d="M1912.19 66.871C1911.21 67.4514 1910.14 67.8998 1909 68.1636C1903.93 69.377 1898.51 68.0845 1893.48 66.8183C1890.63 72.8064 1881.06 75.8136 1874.16 72.8591C1870.49 71.3027 1867.38 68.2955 1863.27 68.2691C1860.1 68.2691 1857.37 70.0102 1854.49 71.039C1848.16 73.2549 1840.18 71.7249 1835.68 67.3986C1832.04 63.8902 1830.9 58.7726 1832.48 54.3672C1832.83 53.312 1833.34 52.3096 1834.03 51.3599C1837.84 46.1104 1845.56 44.897 1851.9 42.6547H1851.93C1851.99 42.6283 1852.09 42.602 1852.15 42.5756C1859.37 39.964 1866.75 38.645 1874.29 41.4149C1881.44 44.0528 1886.8 49.8299 1888.03 56.2401C1894.02 53.0746 1901.62 52.0986 1908.49 53.6286C1911.62 54.3144 1914.82 55.7126 1916.15 58.1658C1916.28 58.4296 1916.37 58.667 1916.47 58.9308C1917.45 61.8589 1915.36 65.0508 1912.19 66.871Z" fill="white"/>
<path d="M1916.47 58.9308H1916.44C1914.6 58.7725 1912.86 58.1922 1911.08 57.7438C1904.02 55.95 1896.17 56.3984 1889.49 58.9836C1888.79 59.2474 1888.03 59.5376 1887.3 59.3001C1886.38 58.9836 1886.19 58.0076 1886.03 57.1634C1885.11 52.2568 1881 47.9834 1875.84 45.4773C1870.67 42.9713 1864.53 42.1008 1858.58 42.1799C1856.33 42.2063 1854.11 42.3909 1851.93 42.6547C1851.99 42.6283 1852.08 42.602 1852.15 42.5756C1859.37 39.964 1866.75 38.645 1874.28 41.4149C1881.44 44.0528 1886.79 49.8299 1888.03 56.2401C1894.01 53.0746 1901.61 52.0986 1908.49 53.6286C1911.62 54.3144 1914.82 55.7126 1916.15 58.1658C1916.28 58.4296 1916.37 58.667 1916.47 58.9308Z" fill="white"/>
<path d="M1912.19 66.871C1911.21 67.4514 1910.14 67.8998 1909 68.1636C1903.93 69.377 1898.51 68.0845 1893.48 66.8183C1890.63 72.8064 1881.06 75.8136 1874.16 72.8591C1870.49 71.3027 1867.38 68.2955 1863.27 68.2691C1860.1 68.2691 1857.37 70.0102 1854.49 71.039C1848.16 73.2549 1840.18 71.7249 1835.68 67.3986C1832.04 63.8902 1830.9 58.7726 1832.48 54.3672C1833.65 54.6837 1834.73 55.2113 1835.56 56.0027C1837.61 57.9548 1838.06 60.962 1840.59 62.4393C1842.65 63.6 1845.47 63.3626 1847.68 62.4657C1849.9 61.5688 1851.74 60.1179 1853.7 58.9045C1855.7 57.6646 1857.98 56.5831 1860.45 56.6095C1864.18 56.6358 1867.19 59.1419 1869.35 61.7007C1871.47 64.2858 1873.34 67.1876 1876.57 68.7703C1879.57 70.274 1883.6 70.3004 1886.67 68.8759C1889.74 67.425 1891.77 64.576 1891.8 61.6215C1897.44 65.4993 1904.94 67.3986 1912.19 66.871Z" fill="white"/>
<path d="M1337.54 195.225C1337.02 195.56 1336.48 195.86 1335.95 196.164C1330.51 198.91 1323.15 198.934 1317.72 196.132C1316.45 200.163 1312.52 203.553 1307.7 204.766C1302.88 205.953 1297.38 204.924 1293.64 202.123C1290.23 199.546 1288.12 195.541 1283.81 194.198C1278.76 192.605 1273.18 195.38 1267.81 194.945C1264.16 194.65 1260.73 192.692 1259.08 189.967C1258.85 189.601 1258.66 189.239 1258.51 188.857C1257.18 185.57 1258.52 181.631 1261.82 179.476C1269.27 174.625 1281.13 180.26 1289.38 176.888C1289.85 176.709 1290.3 176.498 1290.76 176.234C1294.23 174.274 1296.89 170.425 1301.02 170.866C1305.06 171.291 1307.64 175.844 1311.63 175.258C1314.88 174.799 1316.36 171.454 1318.94 170.001C1321.48 168.566 1325.5 167.634 1328.58 168.144C1334.61 169.164 1341.43 174.696 1343.31 179.416C1343.82 180.732 1344.09 182.111 1344.09 183.494C1344.2 187.949 1341.78 192.465 1337.54 195.225Z" fill="white"/>
<path d="M1344.1 183.488C1344 183.253 1343.9 183.042 1343.76 182.829C1341.94 179.771 1338.81 177.358 1335.25 175.646C1332.64 174.387 1329.62 173.453 1326.64 173.883C1323.41 174.374 1320.83 176.316 1318.21 177.925C1315.55 179.552 1312.24 180.948 1309.09 180.101C1305.29 179.046 1303.04 174.96 1299.02 175.028C1296.32 175.052 1294.1 177.089 1291.4 177.194C1290.71 177.223 1289.99 177.112 1289.38 176.885C1289.85 176.706 1290.3 176.495 1290.76 176.231C1294.23 174.271 1296.89 170.423 1301.02 170.863C1305.06 171.288 1307.64 175.841 1311.63 175.255C1314.88 174.796 1316.36 171.451 1318.94 169.998C1321.48 168.563 1325.5 167.632 1328.58 168.141C1334.61 169.162 1341.43 174.693 1343.31 179.413C1343.82 180.729 1344.09 182.106 1344.1 183.488Z" fill="white"/>
<path d="M1335.95 196.163C1330.51 198.909 1323.15 198.933 1317.72 196.132C1316.45 200.162 1312.52 203.552 1307.7 204.766C1302.88 205.953 1297.38 204.924 1293.64 202.122C1290.23 199.545 1288.12 195.541 1283.81 194.198C1278.76 192.605 1273.18 195.38 1267.81 194.945C1264.15 194.649 1260.73 192.692 1259.08 189.967C1260.81 190.273 1262.66 190.302 1264.42 190.151C1268.61 189.793 1272.68 188.624 1276.88 188.59C1281.47 188.55 1286.04 189.888 1289.58 192.354C1291.98 194.032 1293.85 196.179 1296.29 197.812C1298.73 199.471 1302.06 200.571 1305 199.698C1307.76 198.875 1309.41 196.564 1311.13 194.567C1312.82 192.565 1315.27 190.542 1318.2 190.753C1320.37 190.898 1322.11 192.259 1323.94 193.262C1326.39 194.625 1329.26 195.419 1332.21 195.578C1333.49 195.638 1334.86 195.63 1335.95 196.163Z" fill="white"/>
<path d="M744.675 137.072C744.675 144.168 727.951 149.919 707.349 149.919C698.96 149.919 691.257 148.969 685.031 147.36C681.233 148.996 676.88 149.919 672.237 149.919C667.463 149.919 663.005 148.943 659.153 147.228C658.784 148.204 658.336 149.154 657.782 150.051C653.323 157.754 643.431 163.109 631.956 163.109C620.006 163.109 609.797 157.305 605.603 149.101C602.886 149.629 600.09 149.919 597.188 149.919C593.099 149.919 589.221 149.365 585.581 148.389C577.219 161.79 559.756 171.022 539.47 171.022C525.067 171.022 512.035 166.353 502.723 158.835C496.735 167.646 484.917 173.66 471.279 173.66C460.991 173.66 451.732 170.205 445.242 164.718C433.847 178.224 414.352 187.114 392.193 187.114C374.836 187.114 359.114 181.653 347.639 172.79C338.854 178.277 327.775 181.574 315.667 181.574C294.194 181.574 275.834 171.234 268.157 156.54C264.121 155.511 260.428 153.955 257.157 151.95C250.958 160.207 239.562 165.747 226.478 165.747C210.993 165.747 197.856 157.965 192.976 147.123C188.307 148.917 183.084 149.919 177.544 149.919C165.805 149.919 155.438 145.461 148.949 138.602C144.121 142.348 137.5 144.643 130.193 144.643C125.26 144.643 120.67 143.588 116.713 141.768C114.313 141.926 111.859 142.005 109.327 142.005C100.463 142.005 92.3385 140.95 85.9547 139.182C77.4342 136.808 72 133.194 72 129.158C72 122.563 86.5087 117.129 105.159 116.417C108.931 108.424 118.692 102.7 130.193 102.7C136.63 102.7 142.539 104.494 147.155 107.474C153.301 99.5606 164.328 94.2319 176.964 94.0737C176.937 93.8099 176.911 93.5725 176.911 93.335C176.911 81.0158 189.626 71.0445 205.295 71.0445C212.945 71.0445 219.883 73.4186 224.974 77.27C230.488 74.5529 236.977 72.9438 243.967 72.9438C251.802 72.9438 259.03 74.9486 264.886 78.2988C275.174 61.627 296.964 50.0992 322.156 50.0992C322.921 50.0992 323.686 50.1255 324.451 50.1519C329.727 26.7798 355.711 9 387.023 9C418.81 9 445.137 27.3338 449.833 51.2599C466.135 54.0297 480.09 61.6797 489.085 72.1788C494.941 70.3586 501.325 69.3297 507.999 69.3297C522.112 69.3297 534.88 73.8142 544.165 81.0422C550.602 76.0301 559.439 72.9438 569.199 72.9438C586.082 72.9438 600.169 82.1766 603.836 94.5485C608.742 95.2872 613.279 96.7908 617.236 98.9011C621.985 91.7523 631.481 86.8721 642.429 86.8721C657.623 86.8721 669.995 96.2632 670.76 108.028C671.261 108.002 671.736 107.976 672.237 107.976C685.111 107.976 695.847 115.124 698.38 124.621C701.255 124.384 704.236 124.252 707.349 124.252C727.951 124.252 744.675 130.002 744.675 137.072Z" fill="white"/>
<path d="M373.823 14.2849C405.611 14.2849 431.948 32.6028 436.643 56.529C452.927 59.3015 466.89 66.9621 475.893 77.4664C481.752 75.6383 488.12 74.6041 494.81 74.6041C508.918 74.6041 521.688 79.0755 530.966 86.3087C534.358 83.6708 538.436 81.5815 542.952 80.1808C533.786 73.4699 521.524 69.3309 508 69.3309C501.313 69.3309 494.942 70.365 489.083 72.1931C480.077 61.6888 466.117 54.0256 449.833 51.2558C445.138 27.3323 418.8 9.01172 387.013 9.01172C374.048 9.01172 362.021 12.0955 351.971 17.3292C358.787 15.3666 366.142 14.2849 373.823 14.2849Z" fill="white"/>
<path d="M155.225 100.29C157.96 99.7197 160.812 99.3768 163.766 99.3399C163.756 99.0972 163.719 98.8598 163.719 98.6145C163.719 97.7994 163.782 96.9974 163.89 96.2061C160.738 97.2349 157.839 98.625 155.225 100.29Z" fill="white"/>
<path d="M75.5039 123.756C80.3234 122.653 85.9159 121.92 91.9594 121.688C92.6927 120.131 93.7136 118.696 94.869 117.338C86.3195 118.575 79.4133 120.875 75.5039 123.756Z" fill="white"/>
<path d="M312.663 50.668C303.274 51.7706 294.572 54.4983 286.998 58.4578C293.844 56.4794 301.238 55.3873 308.959 55.3873C309.727 55.3873 310.489 55.411 311.251 55.4321C311.618 53.8124 312.106 52.2296 312.663 50.668Z" fill="white"/>
<path d="M556.012 78.2124C572.889 78.2124 586.992 87.4453 590.65 99.8225C595.546 100.551 600.089 102.057 604.054 104.186C606.014 101.226 608.823 98.6855 612.184 96.6886C609.554 95.7283 606.771 94.9845 603.84 94.5466C600.181 82.1694 586.079 72.9365 569.201 72.9365C560.691 72.9365 552.888 75.2869 546.766 79.199C549.717 78.5738 552.807 78.2124 556.012 78.2124Z" fill="white"/>
<path d="M707.333 124.242C704.238 124.242 701.249 124.387 698.374 124.63C695.836 115.12 685.097 107.974 672.232 107.974C671.736 107.974 671.251 108.011 670.763 108.032C670.006 96.248 657.634 86.8701 642.439 86.8701C635.108 86.8701 628.477 89.086 623.443 92.6683C625.324 92.3597 627.25 92.146 629.249 92.146C644.447 92.146 656.816 101.524 657.573 113.308C658.064 113.286 658.546 113.25 659.042 113.25C671.91 113.25 682.649 120.393 685.184 129.906C688.06 129.663 691.049 129.518 694.143 129.518C714.764 129.518 731.483 135.268 731.483 142.359C731.483 144.301 730.193 146.137 727.948 147.788C738.022 145.488 744.673 141.555 744.673 137.083C744.673 129.99 727.953 124.242 707.333 124.242Z" fill="white"/>
<path d="M117.001 107.974C123.443 107.974 129.355 109.765 133.969 112.749C136.251 109.81 139.208 107.233 142.661 105.141C138.936 103.592 134.699 102.698 130.191 102.698C123.124 102.698 116.724 104.869 111.955 108.391C113.593 108.143 115.268 107.974 117.001 107.974Z" fill="white"/>
<path d="M136.041 144.128C135.954 144.038 135.853 143.959 135.766 143.869C135.587 144.009 135.384 144.133 135.199 144.27C135.481 144.228 135.761 144.178 136.041 144.128Z" fill="white"/>
<path d="M192.115 76.3198C199.757 76.3198 206.679 78.7018 211.784 82.5559C217.286 79.8203 223.789 78.2138 230.785 78.2138C238.614 78.2138 245.832 80.2239 251.709 83.5873C253.521 80.646 255.708 77.8762 258.19 75.291C253.838 73.7874 249.039 72.938 243.974 72.938C236.979 72.938 230.476 74.5445 224.973 77.28C219.869 73.426 212.947 71.0439 205.305 71.0439C198 71.0439 191.363 73.2281 186.33 76.7841C188.198 76.4834 190.131 76.3198 192.115 76.3198Z" fill="white"/>
<path d="M657.782 150.052C653.324 157.754 643.432 163.109 631.956 163.109C620.007 163.109 609.798 157.306 605.603 149.102C602.886 149.63 600.09 149.92 597.188 149.92C593.1 149.92 589.222 149.366 585.581 148.39C577.219 161.79 559.756 171.023 539.47 171.023C525.067 171.023 512.036 166.354 502.724 158.836C496.736 167.647 484.918 173.661 471.279 173.661C460.991 173.661 451.732 170.205 445.243 164.719C433.847 178.225 414.353 187.115 392.194 187.115C374.836 187.115 359.114 181.654 347.639 172.791C338.855 178.278 327.775 181.575 315.667 181.575C294.194 181.575 275.834 171.234 268.158 156.541C264.122 155.512 260.429 153.956 257.158 151.951C250.958 160.208 239.562 165.747 226.478 165.747C210.994 165.747 197.857 157.965 192.976 147.124C188.307 148.917 183.084 149.92 177.544 149.92C165.806 149.92 155.438 145.462 148.949 138.603C144.122 142.349 137.5 144.644 130.193 144.644C125.26 144.644 120.67 143.589 116.713 141.769C114.313 141.927 102.032 140.5 99.5 140.5C90.6365 140.5 78.5 138.5 75 134.5C90.9332 136.004 118.797 133.96 128.189 120.876C146.047 134.488 172.427 135.754 191.499 123.857C208.039 141.135 237.32 144.248 257.158 130.874C272.932 141.215 292.163 146.2 310.998 144.776C342.363 168.992 390.769 167.673 420.816 141.795C439.255 156.277 468.299 154.879 485.234 138.656C499.136 151.634 523.537 150.869 536.595 137.02C554.77 147.414 579.488 144.723 595.025 130.663C605.155 144.486 627.235 147.44 640.662 136.783C644.645 143.035 650.818 147.598 657.782 150.052Z" fill="white"/>
<path d="M1326.68 137.072C1326.68 144.168 1309.95 149.919 1289.35 149.919C1280.96 149.919 1273.26 148.969 1267.03 147.36C1263.23 148.996 1258.88 149.919 1254.24 149.919C1249.46 149.919 1245 148.943 1241.15 147.228C1240.78 148.204 1240.34 149.154 1239.78 150.051C1235.32 157.754 1225.43 163.109 1213.96 163.109C1202.01 163.109 1191.8 157.305 1187.6 149.101C1184.89 149.629 1182.09 149.919 1179.19 149.919C1175.1 149.919 1171.22 149.365 1167.58 148.389C1159.22 161.79 1141.76 171.022 1121.47 171.022C1107.07 171.022 1094.04 166.353 1084.72 158.835C1078.74 167.646 1066.92 173.66 1053.28 173.66C1042.99 173.66 1033.73 170.205 1027.24 164.718C1015.85 178.224 996.352 187.114 974.193 187.114C956.836 187.114 941.114 181.653 929.639 172.79C920.854 178.277 909.775 181.574 897.667 181.574C876.194 181.574 857.834 171.234 850.157 156.54C846.121 155.511 842.428 153.955 839.157 151.95C832.958 160.207 821.562 165.747 808.478 165.747C792.993 165.747 779.856 157.965 774.976 147.123C770.307 148.917 765.084 149.919 759.544 149.919C747.805 149.919 737.438 145.461 730.949 138.602C726.121 142.348 719.5 144.643 712.193 144.643C707.26 144.643 702.67 143.588 698.713 141.768C696.313 141.926 693.859 142.005 691.327 142.005C682.463 142.005 674.339 140.95 667.955 139.182C659.434 136.808 654 133.194 654 129.158C654 122.563 668.509 117.129 687.159 116.417C690.931 108.424 700.692 102.7 712.193 102.7C718.63 102.7 724.539 104.494 729.155 107.474C735.301 99.5606 746.328 94.2319 758.964 94.0737C758.937 93.8099 758.911 93.5725 758.911 93.335C758.911 81.0158 771.626 71.0445 787.295 71.0445C794.945 71.0445 801.883 73.4186 806.974 77.27C812.488 74.5529 818.977 72.9438 825.967 72.9438C833.802 72.9438 841.03 74.9486 846.886 78.2988C857.174 61.627 878.964 50.0992 904.156 50.0992C904.921 50.0992 905.686 50.1255 906.451 50.1519C911.727 26.7798 937.711 9 969.023 9C1000.81 9 1027.14 27.3338 1031.83 51.2599C1048.14 54.0297 1062.09 61.6797 1071.09 72.1788C1076.94 70.3586 1083.33 69.3297 1090 69.3297C1104.11 69.3297 1116.88 73.8142 1126.17 81.0422C1132.6 76.0301 1141.44 72.9438 1151.2 72.9438C1168.08 72.9438 1182.17 82.1766 1185.84 94.5485C1190.74 95.2872 1195.28 96.7908 1199.24 98.9011C1203.98 91.7523 1213.48 86.8721 1224.43 86.8721C1239.62 86.8721 1252 96.2632 1252.76 108.028C1253.26 108.002 1253.74 107.976 1254.24 107.976C1267.11 107.976 1277.85 115.124 1280.38 124.621C1283.25 124.384 1286.24 124.252 1289.35 124.252C1309.95 124.252 1326.68 130.002 1326.68 137.072Z" fill="white"/>
<path d="M967.49 14.2849C1000.51 14.2849 1027.86 32.6028 1032.74 56.529C1049.65 59.3015 1064.15 66.9621 1073.51 77.4664C1079.59 75.6383 1086.2 74.6041 1093.15 74.6041C1107.81 74.6041 1121.07 79.0755 1130.71 86.3087C1134.23 83.6708 1138.47 81.5815 1143.16 80.1808C1133.64 73.4699 1120.9 69.3309 1106.85 69.3309C1099.91 69.3309 1093.29 70.365 1087.2 72.1931C1077.85 61.6888 1063.35 54.0256 1046.44 51.2558C1041.56 27.3323 1014.21 9.01172 981.19 9.01172C967.723 9.01172 955.232 12.0955 944.793 17.3292C951.873 15.3666 959.512 14.2849 967.49 14.2849Z" fill="white"/>
<path d="M740.443 100.29C743.285 99.7197 746.246 99.3768 749.315 99.3399C749.304 99.0972 749.266 98.8598 749.266 98.6145C749.266 97.7994 749.332 96.9974 749.444 96.2061C746.17 97.2349 743.159 98.625 740.443 100.29Z" fill="white"/>
<path d="M657.641 123.756C662.646 122.653 668.455 121.92 674.732 121.688C675.494 120.131 676.554 118.696 677.754 117.338C668.874 118.575 661.701 120.875 657.641 123.756Z" fill="white"/>
<path d="M903.967 50.668C894.216 51.7706 885.177 54.4983 877.311 58.4578C884.421 56.4794 892.101 55.3873 900.12 55.3873C900.918 55.3873 901.709 55.411 902.501 55.4321C902.882 53.8124 903.389 52.2296 903.967 50.668Z" fill="white"/>
<path d="M1156.72 78.2124C1174.25 78.2124 1188.9 87.4453 1192.7 99.8225C1197.78 100.551 1202.5 102.057 1206.62 104.186C1208.66 101.226 1211.57 98.6855 1215.06 96.6886C1212.33 95.7283 1209.44 94.9845 1206.4 94.5466C1202.6 82.1694 1187.95 72.9365 1170.42 72.9365C1161.58 72.9365 1153.48 75.2869 1147.12 79.199C1150.18 78.5738 1153.39 78.2124 1156.72 78.2124Z" fill="white"/>
<path d="M1313.89 124.243C1310.68 124.243 1307.57 124.388 1304.58 124.631C1301.95 115.121 1290.79 107.975 1277.43 107.975C1276.92 107.975 1276.41 108.012 1275.91 108.033C1275.12 96.249 1262.27 86.8711 1246.49 86.8711C1238.87 86.8711 1231.99 89.087 1226.76 92.6693C1228.71 92.3606 1230.71 92.147 1232.79 92.147C1248.57 92.147 1261.42 101.525 1262.21 113.309C1262.72 113.287 1263.22 113.251 1263.73 113.251C1277.1 113.251 1288.25 120.394 1290.89 129.906C1293.87 129.664 1296.98 129.519 1300.19 129.519C1321.61 129.519 1338.97 135.269 1338.97 142.36C1338.97 144.302 1337.63 146.138 1335.3 147.789C1345.77 145.489 1352.67 141.556 1352.67 137.084C1352.67 129.991 1335.31 124.243 1313.89 124.243Z" fill="white"/>
<path d="M700.741 107.974C707.432 107.974 713.572 109.765 718.364 112.749C720.735 109.81 723.806 107.233 727.392 105.141C723.524 103.592 719.123 102.698 714.441 102.698C707.101 102.698 700.454 104.869 695.5 108.391C697.201 108.143 698.941 107.974 700.741 107.974Z" fill="white"/>
<path d="M720.519 144.128C720.428 144.038 720.324 143.959 720.234 143.869C720.047 144.009 719.836 144.133 719.645 144.27C719.938 144.228 720.228 144.178 720.519 144.128Z" fill="white"/>
<path d="M778.759 76.3198C786.696 76.3198 793.886 78.7018 799.187 82.5559C804.903 79.8203 811.657 78.2138 818.923 78.2138C827.055 78.2138 834.551 80.2239 840.656 83.5873C842.538 80.646 844.809 77.8762 847.388 75.291C842.867 73.7874 837.883 72.938 832.622 72.938C825.356 72.938 818.602 74.5445 812.887 77.28C807.585 73.426 800.396 71.0439 792.458 71.0439C784.871 71.0439 777.978 73.2281 772.75 76.7841C774.69 76.4834 776.698 76.3198 778.759 76.3198Z" fill="white"/>
<path d="M1262.42 150.052C1257.79 157.754 1247.52 163.109 1235.6 163.109C1223.19 163.109 1212.58 157.306 1208.23 149.102C1205.41 149.63 1202.5 149.92 1199.49 149.92C1195.24 149.92 1191.21 149.366 1187.43 148.39C1178.75 161.79 1160.61 171.023 1139.54 171.023C1124.58 171.023 1111.04 166.354 1101.37 158.836C1095.15 167.647 1082.88 173.661 1068.71 173.661C1058.03 173.661 1048.41 170.205 1041.67 164.719C1029.83 178.225 1009.58 187.115 986.569 187.115C968.541 187.115 952.211 181.654 940.292 172.791C931.168 178.278 919.661 181.575 907.085 181.575C884.782 181.575 865.712 171.234 857.739 156.541C853.547 155.512 849.711 153.956 846.313 151.951C839.875 160.208 828.038 165.747 814.448 165.747C798.365 165.747 784.72 157.965 779.652 147.124C774.802 148.917 769.377 149.92 763.623 149.92C751.431 149.92 740.663 145.462 733.923 138.603C728.909 142.349 722.031 144.644 714.442 144.644C709.318 144.644 704.551 143.589 700.441 141.769C697.948 141.927 685.193 140.5 682.562 140.5C673.356 140.5 660.751 138.5 657.115 134.5C673.664 136.004 702.606 133.96 712.36 120.876C730.909 134.488 758.308 135.754 778.117 123.857C795.296 141.135 825.709 144.248 846.313 130.874C862.698 141.215 882.672 146.2 902.235 144.776C934.812 168.992 985.09 167.673 1016.3 141.795C1035.45 156.277 1065.62 154.879 1083.21 138.656C1097.64 151.634 1122.99 150.869 1136.55 137.02C1155.43 147.414 1181.1 144.723 1197.24 130.663C1207.76 144.486 1230.69 147.44 1244.64 136.783C1248.78 143.035 1255.19 147.598 1262.42 150.052Z" fill="white"/>
<path d="M725.226 132.975C725.226 135.27 722.958 137.328 719.317 138.752C716.02 140.071 711.614 140.889 706.761 140.889C706.523 140.889 706.312 140.889 706.075 140.863C696.182 140.731 688.295 137.249 688.295 132.975C688.295 131.999 688.691 131.076 689.429 130.232C690.854 128.596 693.492 127.198 696.895 126.301C699.744 125.51 703.12 125.062 706.761 125.062C716.969 125.062 725.226 128.596 725.226 132.975Z" fill="white"/>
<path d="M725.226 132.975C725.226 135.27 722.957 137.328 719.317 138.752C717.893 135.402 715.545 132.448 712.538 130.39C708.053 127.277 702.223 126.196 696.947 127.462L696.895 126.301C699.744 125.51 703.12 125.062 706.76 125.062C716.969 125.062 725.226 128.596 725.226 132.975Z" fill="white"/>
<path d="M706.075 140.863C696.182 140.731 688.295 137.249 688.295 132.976C688.295 132 688.691 131.077 689.429 130.232C689.245 132 690.062 133.899 691.329 135.218C692.964 136.906 695.206 137.83 697.449 138.595C700.271 139.571 703.147 140.336 706.075 140.863Z" fill="white"/>
<path d="M89.4839 185.734C89.4839 188.029 87.2153 190.087 83.5749 191.511C80.2775 192.83 75.8721 193.648 71.0183 193.648C70.7809 193.648 70.5699 193.648 70.3325 193.622C60.4402 193.49 52.5527 190.008 52.5527 185.734C52.5527 184.758 52.9484 183.835 53.687 182.991C55.1115 181.355 57.7495 179.957 61.1524 179.06C64.0014 178.269 67.378 177.82 71.0183 177.82C81.2272 177.82 89.4839 181.355 89.4839 185.734Z" fill="white"/>
<path d="M89.4839 185.734C89.4839 188.029 87.2152 190.087 83.5749 191.511C82.1504 188.161 79.8026 185.207 76.7953 183.149C72.3108 180.036 66.481 178.955 61.2051 180.221L61.1523 179.06C64.0013 178.269 67.3779 177.82 71.0183 177.82C81.2271 177.82 89.4839 181.355 89.4839 185.734Z" fill="white"/>
<path d="M70.3325 193.622C60.4402 193.49 52.5527 190.008 52.5527 185.735C52.5527 184.759 52.9484 183.835 53.687 182.991C53.5024 184.759 54.3202 186.658 55.5864 187.977C57.2219 189.665 59.4641 190.588 61.7064 191.353C64.529 192.329 67.4044 193.095 70.3325 193.622Z" fill="white"/>
<path d="M139.604 107.846C139.604 109.779 137.01 111.513 132.85 112.71C129.081 113.821 124.048 114.509 118.5 114.509C118.228 114.509 117.988 114.509 117.717 114.488C106.41 114.377 97.3965 111.444 97.3965 107.846C97.3965 107.025 97.8476 106.247 98.6917 105.535C100.319 104.158 103.334 102.981 107.223 102.224C110.478 101.557 114.337 101.18 118.497 101.18C130.168 101.182 139.604 104.158 139.604 107.846Z" fill="white"/>
<path d="M139.603 107.846C139.603 109.779 137.01 111.513 132.85 112.71C131.222 109.89 128.539 107.4 125.102 105.669C119.976 103.047 113.316 102.137 107.285 103.203L107.225 102.224C110.48 101.557 114.339 101.18 118.499 101.18C130.167 101.182 139.603 104.158 139.603 107.846Z" fill="white"/>
<path d="M117.717 114.488C106.41 114.377 97.3965 111.444 97.3965 107.846C97.3965 107.026 97.8476 106.247 98.6917 105.535C98.4807 107.023 99.4145 108.624 100.863 109.735C102.733 111.157 105.294 111.935 107.856 112.578C111.082 113.399 114.369 114.042 117.717 114.488Z" fill="white"/>
<path d="M287.327 66.9578C287.327 68.5089 285.248 69.8991 281.911 70.8593C278.888 71.7509 274.849 72.3022 270.402 72.3022C270.183 72.3022 269.99 72.3022 269.774 72.2837C260.705 72.194 253.477 69.8436 253.477 66.9551C253.477 66.2956 253.838 65.6731 254.516 65.1033C255.822 63.998 258.241 63.0536 261.359 62.4495C263.97 61.914 267.067 61.6133 270.402 61.6133C279.758 61.6133 287.327 64.0006 287.327 66.9578Z" fill="white"/>
<path d="M287.329 66.9578C287.329 68.5089 285.251 69.8991 281.914 70.8593C280.608 68.5959 278.455 66.6016 275.699 65.2114C271.589 63.109 266.244 62.3782 261.409 63.2329L261.361 62.4495C263.973 61.914 267.07 61.6133 270.404 61.6133C279.761 61.6133 287.329 64.0006 287.329 66.9578Z" fill="white"/>
<path d="M269.772 72.2869C260.703 72.1972 253.475 69.8468 253.475 66.9583C253.475 66.2988 253.836 65.6762 254.514 65.1064C254.345 66.3014 255.094 67.5834 256.255 68.475C257.753 69.6146 259.811 70.2399 261.866 70.7569C264.451 71.4111 267.086 71.9281 269.772 72.2869Z" fill="white"/>
<path d="M650.231 100.871C649.413 101.451 648.516 101.9 647.566 102.164C643.346 103.377 638.835 102.085 634.64 100.818C632.266 106.806 624.3 109.814 618.549 106.859C615.489 105.303 612.904 102.296 609.474 102.269C606.837 102.269 604.568 104.01 602.167 105.039C596.891 107.255 590.244 105.725 586.498 101.399C583.464 97.8902 582.515 92.7726 583.834 88.3672C584.124 87.312 584.546 86.3096 585.126 85.3599C588.292 80.1104 594.728 78.897 600.004 76.6547H600.031C600.083 76.6283 600.163 76.602 600.215 76.5756C606.23 73.964 612.376 72.645 618.655 75.4149C624.616 78.0528 629.074 83.8299 630.103 90.2401C635.089 87.0746 641.42 86.0986 647.144 87.6286C649.756 88.3144 652.42 89.7126 653.528 92.1658C653.634 92.4296 653.713 92.667 653.792 92.9308C654.61 95.8589 652.869 99.0508 650.231 100.871Z" fill="white"/>
<path d="M653.791 92.9308H653.764C652.234 92.7725 650.783 92.1922 649.306 91.7438C643.423 89.95 636.881 90.3984 631.315 92.9836C630.735 93.2474 630.102 93.5376 629.495 93.3001C628.73 92.9836 628.572 92.0076 628.44 91.1634C627.675 86.2568 624.246 81.9834 619.946 79.4773C615.646 76.9713 610.528 76.1008 605.569 76.1799C603.696 76.2063 601.849 76.3909 600.029 76.6547C600.082 76.6283 600.161 76.602 600.214 76.5756C606.228 73.964 612.375 72.645 618.653 75.4149C624.615 78.0528 629.073 83.8299 630.102 90.2401C635.088 87.0746 641.419 86.0986 647.143 87.6286C649.755 88.3144 652.419 89.7126 653.527 92.1658C653.632 92.4296 653.711 92.667 653.791 92.9308Z" fill="white"/>
<path d="M650.231 100.871C649.413 101.451 648.516 101.9 647.566 102.164C643.346 103.377 638.835 102.084 634.64 100.818C632.266 106.806 624.3 109.814 618.549 106.859C615.489 105.303 612.904 102.295 609.474 102.269C606.837 102.269 604.568 104.01 602.167 105.039C596.891 107.255 590.244 105.725 586.498 101.399C583.464 97.8902 582.515 92.7726 583.834 88.3672C584.81 88.6837 585.707 89.2113 586.392 90.0027C588.107 91.9548 588.476 94.962 590.587 96.4393C592.301 97.6 594.649 97.3626 596.496 96.4657C598.342 95.5688 599.872 94.1179 601.508 92.9045C603.17 91.6646 605.069 90.5831 607.127 90.6095C610.239 90.6358 612.746 93.1419 614.539 95.7007C616.307 98.2858 617.863 101.188 620.554 102.77C623.06 104.274 626.41 104.3 628.969 102.876C631.528 101.425 633.216 98.576 633.242 95.6215C637.938 99.4993 644.19 101.399 650.231 100.871Z" fill="white"/>
<path d="M704.109 192.392C704.575 192.291 705.059 192.22 705.542 192.147C710.403 191.628 716.721 193.482 721.193 196.803C722.568 194.336 726.179 192.988 730.403 193.374C734.62 193.776 739.274 195.887 742.294 198.778C745.048 201.431 746.584 204.74 750.193 206.766C754.422 209.154 759.405 208.651 763.989 210.318C767.108 211.452 769.916 213.678 771.145 215.985C771.313 216.296 771.451 216.595 771.558 216.899C772.476 219.514 771.045 221.898 768.067 222.553C761.331 224.017 751.529 217.099 744.215 217.337C743.797 217.341 743.396 217.373 742.981 217.438C739.867 217.913 737.318 219.903 733.798 218.547C730.354 217.224 728.457 213.417 724.983 212.806C722.16 212.297 720.661 214.238 718.346 214.589C716.063 214.936 712.541 214.557 709.931 213.422C704.828 211.183 699.35 205.618 698.063 201.873C697.713 200.831 697.577 199.807 697.667 198.848C697.885 195.736 700.275 193.224 704.109 192.392Z" fill="white"/>
<path d="M706.955 189.972C711.72 189.595 717.906 191.18 722.279 193.952C723.634 191.94 727.176 190.869 731.315 191.227C735.446 191.6 740.001 193.38 742.951 195.784C745.642 197.99 747.137 200.723 750.668 202.422C754.805 204.426 759.689 204.062 764.176 205.477C767.23 206.439 769.975 208.295 771.172 210.202C769.734 209.651 768.186 209.234 766.692 208.936C763.14 208.228 759.641 208.008 756.107 207.115C752.242 206.139 748.492 204.386 745.684 202.215C743.787 200.741 742.357 199.113 740.421 197.656C738.488 196.184 735.76 194.834 733.227 194.691C730.847 194.559 729.301 195.513 727.712 196.273C726.15 197.042 723.953 197.66 721.501 196.902C719.687 196.348 718.322 195.198 716.847 194.229C714.881 192.922 712.526 191.848 710.057 191.117C708.982 190.804 707.831 190.511 706.955 189.972Z" fill="white"/>
<rect width="2002" height="115" fill="white"/>
</svg>
