<svg width="1974" height="108" viewBox="0 0 1974 108" fill="none" xmlns="http://www.w3.org/2000/svg">
<rect width="1973.89" height="52" fill="white"/>
<path fill-rule="evenodd" clip-rule="evenodd" d="M641.529 69.367C662.394 69.367 679.331 63.394 679.331 56.0236C679.331 54.6218 678.714 53.2699 677.57 52H0C2.31296 54.4611 6.60445 56.6109 12.2194 58.2155C18.6845 60.0512 26.9129 61.1472 35.8893 61.1472C38.454 61.1472 40.9385 61.065 43.3696 60.9006C47.377 62.7912 52.0254 63.8871 57.0212 63.8871C64.4214 63.8871 71.127 61.5034 76.0159 57.6127C82.588 64.7365 93.0871 69.367 104.976 69.367C110.586 69.367 115.875 68.3258 120.604 66.4627C125.546 77.7238 138.851 85.8066 154.533 85.8066C167.784 85.8066 179.325 80.0527 185.603 71.4767C188.916 73.559 192.656 75.1757 196.743 76.2442C204.517 91.5056 223.111 102.246 244.858 102.246C257.12 102.246 268.341 98.8212 277.237 93.1221C288.858 102.328 304.781 108 322.359 108C344.8 108 364.543 98.7664 376.084 84.7379C382.656 90.437 392.033 94.0263 402.452 94.0263C416.264 94.0263 428.233 87.7793 434.297 78.628C443.728 86.4368 456.925 91.2864 471.512 91.2864C492.056 91.2864 509.742 81.6966 518.211 67.7778C521.897 68.7916 525.824 69.367 529.965 69.367C532.904 69.367 535.736 69.0656 538.488 68.5176C542.735 77.0388 553.074 83.0666 565.176 83.0666C576.798 83.0666 586.816 77.5046 591.331 69.504C591.892 68.5724 592.346 67.586 592.72 66.5722C596.621 68.3532 601.135 69.367 605.971 69.367C610.673 69.367 615.081 68.408 618.928 66.7093C625.233 68.3806 633.034 69.367 641.529 69.367Z" fill="white"/>
<path fill-rule="evenodd" clip-rule="evenodd" d="M1307.59 69.367C1328.45 69.367 1345.39 63.394 1345.39 56.0236C1345.39 54.6218 1344.77 53.2699 1343.63 52H666.061C668.374 54.4611 672.665 56.6109 678.28 58.2155C684.745 60.0512 692.973 61.1472 701.95 61.1472C704.515 61.1472 706.999 61.065 709.43 60.9006C713.438 62.7912 718.086 63.8871 723.082 63.8871C730.482 63.8871 737.188 61.5034 742.076 57.6127C748.649 64.7365 759.148 69.367 771.036 69.367C776.646 69.367 781.936 68.3258 786.665 66.4627C791.607 77.7238 804.911 85.8066 820.593 85.8066C833.844 85.8066 845.385 80.0527 851.663 71.4767C854.976 73.559 858.716 75.1757 862.804 76.2442C870.578 91.5056 889.172 102.246 910.918 102.246C923.181 102.246 934.401 98.8212 943.298 93.1221C954.919 102.328 970.841 108 988.42 108C1010.86 108 1030.6 98.7664 1042.14 84.7379C1048.72 90.437 1058.09 94.0263 1068.51 94.0263C1082.32 94.0263 1094.29 87.7793 1100.36 78.628C1109.79 86.4368 1122.99 91.2864 1137.57 91.2864C1158.12 91.2864 1175.8 81.6966 1184.27 67.7778C1187.96 68.7916 1191.89 69.367 1196.03 69.367C1198.96 69.367 1201.8 69.0656 1204.55 68.5176C1208.8 77.0388 1219.13 83.0666 1231.24 83.0666C1242.86 83.0666 1252.88 77.5046 1257.39 69.504C1257.95 68.5724 1258.41 67.586 1258.78 66.5722C1262.68 68.3532 1267.2 69.367 1272.03 69.367C1276.73 69.367 1281.14 68.408 1284.99 66.7093C1291.29 68.3806 1299.09 69.367 1307.59 69.367Z" fill="white"/>
<path fill-rule="evenodd" clip-rule="evenodd" d="M1936.2 69.367C1957.06 69.367 1974 63.394 1974 56.0236C1974 54.6218 1973.38 53.2699 1972.24 52H1294.67C1296.98 54.4611 1301.27 56.6109 1306.89 58.2155C1313.35 60.0512 1321.58 61.1472 1330.56 61.1472C1333.12 61.1472 1335.61 61.065 1338.04 60.9006C1342.05 62.7912 1346.69 63.8871 1351.69 63.8871C1359.09 63.8871 1365.8 61.5034 1370.68 57.6127C1377.26 64.7365 1387.76 69.367 1399.64 69.367C1405.25 69.367 1410.54 68.3258 1415.27 66.4627C1420.21 77.7238 1433.52 85.8066 1449.2 85.8066C1462.45 85.8066 1473.99 80.0527 1480.27 71.4767C1483.58 73.559 1487.32 75.1757 1491.41 76.2442C1499.19 91.5056 1517.78 102.246 1539.53 102.246C1551.79 102.246 1563.01 98.8212 1571.91 93.1221C1583.53 102.328 1599.45 108 1617.03 108C1639.47 108 1659.21 98.7664 1670.75 84.7379C1677.32 90.437 1686.7 94.0263 1697.12 94.0263C1710.93 94.0263 1722.9 87.7793 1728.97 78.628C1738.4 86.4368 1751.59 91.2864 1766.18 91.2864C1786.72 91.2864 1804.41 81.6966 1812.88 67.7778C1816.57 68.7916 1820.49 69.367 1824.63 69.367C1827.57 69.367 1830.4 69.0656 1833.16 68.5176C1837.4 77.0388 1847.74 83.0666 1859.84 83.0666C1871.47 83.0666 1881.48 77.5046 1886 69.504C1886.56 68.5724 1887.01 67.586 1887.39 66.5722C1891.29 68.3532 1895.8 69.367 1900.64 69.367C1905.34 69.367 1909.75 68.408 1913.6 66.7093C1919.9 68.3806 1927.7 69.367 1936.2 69.367Z" fill="white"/>
</svg>
