<svg width="356" height="99" viewBox="0 0 356 99" fill="none" xmlns="http://www.w3.org/2000/svg">
<mask id="path-1-inside-1_1360_62267" fill="white">
<path fill-rule="evenodd" clip-rule="evenodd" d="M355.587 0H177.794L29.3874 3.33786e-06L0 98.4478H177.794H326.2L355.587 0Z"/>
</mask>
<path fill-rule="evenodd" clip-rule="evenodd" d="M355.587 0H177.794L29.3874 3.33786e-06L0 98.4478H177.794H326.2L355.587 0Z" fill="white"/>
<path d="M177.794 0V-2.93874V0ZM355.587 0L358.403 0.840584L359.532 -2.93874H355.587V0ZM29.3874 3.33786e-06V-2.93874H27.1978L26.5714 -0.84058L29.3874 3.33786e-06ZM0 98.4478L-2.81596 97.6072L-3.94411 101.386H0V98.4478ZM326.2 98.4478V101.386H328.39L329.016 99.2883L326.2 98.4478ZM177.794 2.93874H355.587V-2.93874H177.794V2.93874ZM29.3874 2.93874L177.794 2.93874V-2.93874L29.3874 -2.93874V2.93874ZM2.81596 99.2883L32.2033 0.840587L26.5714 -0.84058L-2.81596 97.6072L2.81596 99.2883ZM177.794 95.509H0V101.386H177.794V95.509ZM326.2 95.509H177.794V101.386H326.2V95.509ZM352.771 -0.840584L323.384 97.6072L329.016 99.2883L358.403 0.840584L352.771 -0.840584Z" fill="#FFC102" mask="url(#path-1-inside-1_1360_62267)"/>
</svg>
