<svg width="1519" height="1417" viewBox="0 0 1600 1417" fill="none" xmlns="http://www.w3.org/2000/svg">
<path d="M507.049 1352.03C505.446 1353.41 502.294 1353.6 499.514 1353.57C495.882 1353.54 492.194 1353.31 488.615 1352.88C486.319 1352.62 483.648 1352.1 482.952 1350.72C482.63 1350.07 482.846 1349.38 483.432 1348.8C483.804 1348.34 484.447 1347.95 485.142 1347.65C486.746 1347 488.777 1346.8 490.699 1346.61L494.384 1345.82C497.751 1345.76 501.386 1345.72 504.322 1346.77C505.337 1347.13 506.248 1347.72 506.887 1348.34C508.064 1349.48 508.385 1350.92 507.049 1352.03Z" fill="white"/>
<path d="M507.049 1352.03C505.446 1353.41 502.294 1353.6 499.514 1353.57C495.882 1353.54 492.194 1353.31 488.615 1352.88C486.319 1352.62 483.648 1352.1 482.952 1350.72C482.63 1350.07 482.846 1349.38 483.432 1348.8C486.531 1350.63 490.806 1351.67 495.133 1351.64C499.57 1351.58 503.951 1350.33 506.887 1348.34C508.064 1349.48 508.385 1350.92 507.049 1352.03Z" fill="white"/>
<path d="M60.4892 1409.96C59.4456 1411.13 57.3937 1411.29 55.5866 1411.27C53.2222 1411.24 50.8225 1411.04 48.4935 1410.68C46.9988 1410.46 45.2595 1410.01 44.8084 1408.84C44.5991 1408.29 44.7377 1407.7 45.1209 1407.2C45.3627 1406.81 45.7813 1406.48 46.2323 1406.23C47.276 1405.67 48.5967 1405.5 49.8496 1405.34L52.2494 1404.67C54.4398 1404.61 56.8041 1404.58 58.7174 1405.47C59.3778 1405.78 59.9704 1406.28 60.386 1406.81C61.1496 1407.78 61.3589 1409.01 60.4892 1409.96Z" fill="white"/>
<path d="M60.4892 1409.96C59.4456 1411.13 57.3937 1411.29 55.5866 1411.27C53.2222 1411.24 50.8225 1411.04 48.4935 1410.68C46.9988 1410.46 45.2595 1410.01 44.8084 1408.84C44.5991 1408.29 44.7377 1407.7 45.1209 1407.2C47.1374 1408.76 49.9204 1409.65 52.7358 1409.62C55.622 1409.57 58.4727 1408.51 60.386 1406.81C61.1496 1407.78 61.3589 1409.01 60.4892 1409.96Z" fill="white"/>
<path d="M40.3098 1413.42C38.2226 1415.35 34.1189 1415.63 30.5016 1415.58C25.7729 1415.53 20.9734 1415.21 16.3154 1414.61C13.3261 1414.24 9.84736 1413.51 8.9423 1411.58C8.52368 1410.66 8.80373 1409.69 9.57023 1408.86C10.0567 1408.22 10.891 1407.67 11.796 1407.25C13.8833 1406.33 16.5277 1406.05 19.0306 1405.78L23.8301 1404.68C28.2139 1404.59 32.9426 1404.54 36.7662 1406.01C38.087 1406.52 39.2721 1407.35 40.1035 1408.22C41.6306 1409.83 42.0492 1411.86 40.3098 1413.42Z" fill="white"/>
<path d="M40.3098 1413.42C38.2226 1415.35 34.1189 1415.63 30.5016 1415.58C25.7729 1415.53 20.9734 1415.21 16.3154 1414.61C13.3261 1414.24 9.84736 1413.51 8.9423 1411.58C8.52368 1410.66 8.80373 1409.69 9.57024 1408.86C13.6032 1411.44 19.1662 1412.91 24.8 1412.86C30.5723 1412.77 36.2739 1411.02 40.1005 1408.21C41.6306 1409.83 42.0492 1411.86 40.3098 1413.42Z" fill="white"/>
<path d="M48.2117 1312.11C45.2695 1313.75 41.1834 1313.68 37.9465 1313.06C36.0508 1312.7 27.584 1306.72 27.584 1306.69C20.7503 1308.32 13.8194 1309.43 6.82361 1310.02C5.28766 1310.15 3.71928 1310.22 2.28062 1309.63C0.874389 1309.07 -0.301897 1307.57 -0.00708947 1306.06C0.0577682 1305.7 0.222875 1305.38 0.417448 1305.05C0.841971 1304.4 1.52887 1303.84 2.21578 1303.45C2.60787 1303.22 2.99995 1303.02 3.42448 1302.86C7.15085 1301.13 11.5317 1301.36 15.6855 1301.22C20.2963 1301.06 25.4289 1300.14 28.1087 1296.39C29.3852 1294.62 30.1046 1292.23 32.0975 1291.38C34.1906 1290.47 36.5756 1291.74 38.3739 1293.15C40.1398 1294.55 42.003 1296.26 44.2907 1296.32C44.5177 1296.32 44.7152 1296.32 44.9128 1296.29C46.6462 1296.09 48.2795 1295.14 50.0129 1295.14C52.5955 1295.11 54.099 1295.96 54.7535 1297.3C57.0382 1301.39 51.9056 1310.09 48.2117 1312.11Z" fill="white"/>
<path d="M48.2117 1312.11C45.2695 1313.75 41.1834 1313.68 37.9465 1313.06C36.0508 1312.7 27.584 1306.72 27.584 1306.69C20.7503 1308.32 13.8194 1309.43 6.82361 1310.02C5.28766 1310.15 3.71928 1310.22 2.28062 1309.63C0.874389 1309.07 -0.301897 1307.57 -0.00708947 1306.06C0.0577682 1305.7 0.222875 1305.38 0.417448 1305.05C9.44151 1308.48 20.0988 1307.6 28.3711 1302.53C29.3204 1301.94 30.6588 1301.36 31.4106 1302.14C31.7703 1302.53 31.8675 1303.09 32.0002 1303.58C32.6222 1306.26 34.8451 1308.48 37.4925 1309.1C40.1723 1309.73 43.1469 1308.71 44.8804 1306.62C46.6462 1304.49 47.1356 1301.52 48.9664 1299.46C50.405 1297.86 52.6279 1296.97 54.7535 1297.3C57.0382 1301.39 51.9056 1310.09 48.2117 1312.11Z" fill="white"/>
<path d="M44.9102 1296.29C44.4532 1296.72 43.8636 1297.04 43.2416 1297.24C41.6408 1297.73 39.8749 1297.34 38.3389 1296.68C36.6054 1295.93 34.8395 1294.82 32.9764 1295.21C31.3402 1295.54 30.2317 1296.98 28.9876 1298.09C24.9988 1301.75 19.2766 1302.57 13.917 1303.22C10.4177 1303.65 6.72372 1304.04 3.42188 1302.86C7.14824 1301.13 11.5291 1301.36 15.6829 1301.23C20.2937 1301.06 25.4263 1300.15 28.1061 1296.39C29.3826 1294.62 30.102 1292.24 32.0949 1291.39C34.188 1290.47 36.573 1291.75 38.3713 1293.15C40.1372 1294.56 42.0004 1296.26 44.2881 1296.32C44.5151 1296.32 44.7126 1296.32 44.9102 1296.29Z" fill="white"/>
<path d="M477.576 1320.25C465.969 1324.01 452.959 1323.33 441.81 1318.29C438.54 1316.82 435.271 1314.96 431.706 1314.89C425.07 1314.7 418.629 1320.62 412.45 1318.2C408.885 1316.79 406.76 1312.51 407.806 1308.81C408.231 1307.31 409.148 1306.03 410.356 1305.09C412.122 1303.65 414.475 1302.93 416.698 1303.32C415.849 1298.38 418.334 1294.46 422.355 1291.75C430.168 1286.35 443.77 1285.5 449.654 1290.4C454.132 1294.13 455.963 1300.8 454.003 1306.29C461.391 1304.37 469.303 1304.5 476.662 1306.65C476.662 1306.65 476.662 1306.65 476.694 1306.65C477.478 1306.88 478.23 1307.14 478.985 1307.41C480.978 1308.13 483.071 1309.17 484.117 1310.91C484.412 1311.33 484.61 1311.79 484.739 1312.31C485.618 1316.14 481.302 1319.04 477.576 1320.25Z" fill="white"/>
<path d="M477.576 1320.25C465.969 1324.01 452.959 1323.33 441.81 1318.29C438.54 1316.82 435.271 1314.96 431.706 1314.89C425.07 1314.7 418.629 1320.62 412.45 1318.2C408.885 1316.79 406.76 1312.51 407.806 1308.81C408.231 1307.31 409.148 1306.03 410.356 1305.09C410.551 1305.22 410.749 1305.35 410.946 1305.54C412.155 1306.72 412.647 1308.42 413.299 1309.99C413.953 1311.56 414.932 1313.19 416.536 1313.71C418.531 1314.37 420.557 1313.09 422.42 1312.15C427.225 1309.6 432.815 1308.65 438.177 1309.4C443.67 1310.22 448.737 1312.73 453.903 1314.7C459.1 1316.69 464.79 1318.16 470.152 1316.79C473.162 1316.01 475.875 1314.37 478.655 1312.97C480.388 1312.12 482.219 1311.33 484.114 1310.91C484.409 1311.33 484.607 1311.79 484.736 1312.31C485.618 1316.14 481.302 1319.05 477.576 1320.25Z" fill="white"/>
<path d="M476.658 1306.65C475.547 1306.95 474.335 1307.01 473.224 1307.05C467.207 1307.14 461.16 1307.28 455.143 1307.37C454.359 1307.41 453.542 1307.41 452.823 1307.08C451.417 1306.39 450.96 1304.59 451.089 1303.03C451.187 1301.49 451.676 1299.95 451.546 1298.38C451.284 1295.18 448.342 1292.82 445.335 1291.71C438.077 1289.1 430.034 1291.71 422.352 1291.75C430.164 1286.35 443.766 1285.5 449.651 1290.4C454.129 1294.13 455.96 1300.8 453.999 1306.29C461.39 1304.37 469.303 1304.5 476.658 1306.65Z" fill="white"/>
<path d="M1632.68 1295.07C1632.68 1302.17 1615.95 1307.92 1595.35 1307.92C1586.96 1307.92 1579.26 1306.97 1573.03 1305.36C1569.23 1307 1564.88 1307.92 1560.24 1307.92C1555.46 1307.92 1551 1306.94 1547.15 1305.23C1546.78 1306.2 1546.34 1307.15 1545.78 1308.05C1541.32 1315.75 1531.43 1321.11 1519.96 1321.11C1508.01 1321.11 1497.8 1315.31 1493.6 1307.1C1490.89 1307.63 1488.09 1307.92 1485.19 1307.92C1481.1 1307.92 1477.22 1307.36 1473.58 1306.39C1465.22 1319.79 1447.76 1329.02 1427.47 1329.02C1413.07 1329.02 1400.04 1324.35 1390.72 1316.84C1384.74 1325.65 1372.92 1331.66 1359.28 1331.66C1348.99 1331.66 1339.73 1328.2 1333.24 1322.72C1321.85 1336.22 1302.35 1345.11 1280.19 1345.11C1262.84 1345.11 1247.11 1339.65 1235.64 1330.79C1226.85 1336.28 1215.77 1339.57 1203.67 1339.57C1182.19 1339.57 1163.83 1329.23 1156.16 1314.54C1152.12 1313.51 1148.43 1311.95 1145.16 1309.95C1138.96 1318.21 1127.56 1323.75 1114.48 1323.75C1098.99 1323.75 1085.86 1315.96 1080.98 1305.12C1076.31 1306.92 1071.08 1307.92 1065.54 1307.92C1053.81 1307.92 1043.44 1303.46 1036.95 1296.6C1032.12 1300.35 1025.5 1302.64 1018.19 1302.64C1013.26 1302.64 1008.67 1301.59 1004.71 1299.77C1002.31 1299.93 999.859 1300.01 997.327 1300.01C988.463 1300.01 980.339 1298.95 973.955 1297.18C965.434 1294.81 960 1291.19 960 1287.16C960 1280.56 974.509 1275.13 993.159 1274.42C996.931 1266.42 1006.69 1260.7 1018.19 1260.7C1024.63 1260.7 1030.54 1262.49 1035.15 1265.47C1041.3 1257.56 1052.33 1252.23 1064.96 1252.07C1064.94 1251.81 1064.91 1251.57 1064.91 1251.34C1064.91 1239.02 1077.63 1229.04 1093.3 1229.04C1100.95 1229.04 1107.88 1231.42 1112.97 1235.27C1118.49 1232.55 1124.98 1230.94 1131.97 1230.94C1139.8 1230.94 1147.03 1232.95 1152.89 1236.3C1163.17 1219.63 1184.96 1208.1 1210.16 1208.1C1210.92 1208.1 1211.69 1208.13 1212.45 1208.15C1217.73 1184.78 1243.71 1167 1275.02 1167C1306.81 1167 1333.14 1185.33 1337.83 1209.26C1354.14 1212.03 1368.09 1219.68 1377.09 1230.18C1382.94 1228.36 1389.33 1227.33 1396 1227.33C1410.11 1227.33 1422.88 1231.81 1432.17 1239.04C1438.6 1234.03 1447.44 1230.94 1457.2 1230.94C1474.08 1230.94 1488.17 1240.18 1491.84 1252.55C1496.74 1253.29 1501.28 1254.79 1505.24 1256.9C1509.98 1249.75 1519.48 1244.87 1530.43 1244.87C1545.62 1244.87 1558 1254.26 1558.76 1266.03C1559.26 1266 1559.74 1265.98 1560.24 1265.98C1573.11 1265.98 1583.85 1273.12 1586.38 1282.62C1589.25 1282.38 1592.24 1282.25 1595.35 1282.25C1615.95 1282.25 1632.68 1288 1632.68 1295.07Z" fill="white"/>
<path d="M1322.34 1172.28C1360.51 1172.28 1392.12 1190.6 1397.76 1214.53C1417.31 1217.3 1434.07 1224.96 1444.88 1235.47C1451.91 1233.64 1459.56 1232.6 1467.59 1232.6C1484.53 1232.6 1499.86 1237.08 1511 1244.31C1515.07 1241.67 1519.96 1239.58 1525.39 1238.18C1514.38 1231.47 1499.66 1227.33 1483.43 1227.33C1475.4 1227.33 1467.75 1228.36 1460.72 1230.19C1449.9 1219.69 1433.14 1212.03 1413.6 1209.26C1407.96 1185.33 1376.34 1167.01 1338.18 1167.01C1322.61 1167.01 1308.18 1170.1 1296.11 1175.33C1304.29 1173.37 1313.12 1172.28 1322.34 1172.28Z" fill="white"/>
<path d="M1059.91 1258.29C1063.2 1257.72 1066.62 1257.38 1070.17 1257.34C1070.16 1257.1 1070.11 1256.86 1070.11 1256.61C1070.11 1255.8 1070.19 1255 1070.32 1254.21C1066.53 1255.23 1063.05 1256.62 1059.91 1258.29Z" fill="white"/>
<path d="M964.207 1281.76C969.993 1280.65 976.707 1279.92 983.962 1279.69C984.843 1278.13 986.068 1276.7 987.455 1275.34C977.191 1276.58 968.9 1278.88 964.207 1281.76Z" fill="white"/>
<path d="M1248.92 1208.67C1237.65 1209.77 1227.2 1212.5 1218.11 1216.46C1226.33 1214.48 1235.21 1213.39 1244.48 1213.39C1245.4 1213.39 1246.31 1213.41 1247.23 1213.43C1247.67 1211.81 1248.25 1210.23 1248.92 1208.67Z" fill="white"/>
<path d="M1541.06 1236.21C1561.33 1236.21 1578.26 1245.45 1582.65 1257.82C1588.53 1258.55 1593.98 1260.06 1598.74 1262.19C1601.09 1259.23 1604.47 1256.69 1608.5 1254.69C1605.34 1253.73 1602 1252.98 1598.48 1252.55C1594.09 1240.17 1577.16 1230.94 1556.9 1230.94C1546.68 1230.94 1537.32 1233.29 1529.96 1237.2C1533.51 1236.57 1537.22 1236.21 1541.06 1236.21Z" fill="white"/>
<path d="M1014.03 1265.97C1021.76 1265.97 1028.86 1267.77 1034.39 1270.75C1037.13 1267.81 1040.68 1265.23 1044.83 1263.14C1040.36 1261.59 1035.27 1260.7 1029.86 1260.7C1021.38 1260.7 1013.69 1262.87 1007.97 1266.39C1009.93 1266.14 1011.94 1265.97 1014.03 1265.97Z" fill="white"/>
<path d="M1036.88 1302.13C1036.78 1302.04 1036.66 1301.96 1036.55 1301.87C1036.34 1302.01 1036.09 1302.13 1035.87 1302.27C1036.21 1302.23 1036.55 1302.18 1036.88 1302.13Z" fill="white"/>
<path d="M1104.2 1234.32C1113.38 1234.32 1121.69 1236.7 1127.81 1240.56C1134.42 1237.82 1142.23 1236.21 1150.62 1236.21C1160.02 1236.21 1168.69 1238.22 1175.74 1241.59C1177.92 1238.65 1180.55 1235.88 1183.53 1233.29C1178.3 1231.79 1172.54 1230.94 1166.46 1230.94C1158.06 1230.94 1150.25 1232.54 1143.65 1235.28C1137.52 1231.43 1129.21 1229.04 1120.04 1229.04C1111.27 1229.04 1103.3 1231.23 1097.26 1234.78C1099.5 1234.48 1101.82 1234.32 1104.2 1234.32Z" fill="white"/>
<path d="M1663.24 1308.05C1657.89 1315.75 1646.01 1321.11 1632.24 1321.11C1617.89 1321.11 1605.64 1315.31 1600.6 1307.1C1597.34 1307.63 1593.98 1307.92 1590.5 1307.92C1585.59 1307.92 1580.93 1307.37 1576.56 1306.39C1566.53 1319.79 1545.56 1329.02 1521.21 1329.02C1503.92 1329.02 1488.27 1324.35 1477.09 1316.84C1469.9 1325.65 1455.72 1331.66 1439.34 1331.66C1426.99 1331.66 1415.88 1328.21 1408.09 1322.72C1394.4 1336.22 1371 1345.11 1344.4 1345.11C1323.56 1345.11 1304.69 1339.65 1290.91 1330.79C1280.36 1336.28 1267.06 1339.58 1252.53 1339.58C1226.75 1339.58 1204.71 1329.23 1195.49 1314.54C1190.65 1313.51 1186.21 1311.96 1182.29 1309.95C1174.84 1318.21 1161.16 1323.75 1145.45 1323.75C1126.86 1323.75 1111.09 1315.97 1105.23 1305.12C1099.63 1306.92 1093.36 1307.92 1086.71 1307.92C1072.62 1307.92 1060.17 1303.46 1052.38 1296.6C1046.58 1300.35 1038.63 1302.64 1029.86 1302.64C1023.94 1302.64 1018.43 1301.59 1013.68 1299.77C1010.8 1299.93 996.055 1298.5 993.014 1298.5C982.373 1298.5 967.803 1296.5 963.602 1292.5C982.73 1294 1016.18 1291.96 1027.46 1278.88C1048.9 1292.49 1080.56 1293.75 1103.46 1281.86C1123.32 1299.14 1158.47 1302.25 1182.29 1288.87C1201.22 1299.21 1224.31 1304.2 1246.92 1302.78C1284.58 1326.99 1342.69 1325.67 1378.76 1299.79C1400.9 1314.28 1435.76 1312.88 1456.1 1296.66C1472.78 1309.63 1502.08 1308.87 1517.75 1295.02C1539.57 1305.41 1569.25 1302.72 1587.9 1288.66C1600.06 1302.49 1626.57 1305.44 1642.69 1294.78C1647.47 1301.03 1654.88 1305.6 1663.24 1308.05Z" fill="white"/>
<path d="M1017.01 1318.73C1017.01 1321.03 1014.28 1323.09 1009.91 1324.51C1005.95 1325.83 1000.67 1326.65 994.838 1326.65C994.553 1326.65 994.3 1326.65 994.015 1326.62C982.139 1326.49 972.67 1323.01 972.67 1318.73C972.67 1317.76 973.145 1316.83 974.032 1315.99C975.742 1314.36 978.909 1312.96 982.994 1312.06C986.414 1311.27 990.468 1310.82 994.838 1310.82C1007.09 1310.82 1017.01 1314.36 1017.01 1318.73Z" fill="white"/>
<path d="M1017.01 1318.73C1017.01 1321.03 1014.28 1323.09 1009.91 1324.51C1008.2 1321.16 1005.38 1318.21 1001.77 1316.15C996.39 1313.04 989.391 1311.95 983.057 1313.22L982.994 1312.06C986.414 1311.27 990.468 1310.82 994.838 1310.82C1007.09 1310.82 1017.01 1314.36 1017.01 1318.73Z" fill="white"/>
<path d="M994.015 1326.62C982.139 1326.49 972.67 1323.01 972.67 1318.73C972.67 1317.76 973.145 1316.84 974.032 1315.99C973.81 1317.76 974.792 1319.66 976.312 1320.98C978.275 1322.67 980.967 1323.59 983.659 1324.35C987.048 1325.33 990.5 1326.09 994.015 1326.62Z" fill="white"/>
<path d="M1077.18 1240.84C1077.18 1242.78 1074.07 1244.51 1069.07 1245.71C1064.55 1246.82 1058.5 1247.51 1051.84 1247.51C1051.52 1247.51 1051.23 1247.51 1050.9 1247.49C1037.33 1247.38 1026.51 1244.44 1026.51 1240.84C1026.51 1240.02 1027.05 1239.25 1028.06 1238.53C1030.02 1237.16 1033.64 1235.98 1038.3 1235.22C1042.21 1234.56 1046.85 1234.18 1051.84 1234.18C1065.85 1234.18 1077.18 1237.16 1077.18 1240.84Z" fill="white"/>
<path d="M1077.18 1240.84C1077.18 1242.78 1074.06 1244.51 1069.07 1245.71C1067.11 1242.89 1063.89 1240.4 1059.77 1238.67C1053.61 1236.05 1045.62 1235.14 1038.38 1236.2L1038.3 1235.22C1042.21 1234.56 1046.85 1234.18 1051.84 1234.18C1065.85 1234.18 1077.18 1237.16 1077.18 1240.84Z" fill="white"/>
<path d="M1050.9 1247.49C1037.33 1247.38 1026.51 1244.44 1026.51 1240.84C1026.51 1240.02 1027.05 1239.25 1028.06 1238.53C1027.81 1240.02 1028.93 1241.62 1030.67 1242.73C1032.91 1244.15 1035.99 1244.93 1039.06 1245.58C1042.94 1246.4 1046.88 1247.04 1050.9 1247.49Z" fill="white"/>
<path d="M1254.52 1199.96C1254.52 1201.51 1252.02 1202.9 1248.02 1203.86C1244.39 1204.75 1239.54 1205.3 1234.2 1205.3C1233.94 1205.3 1233.71 1205.3 1233.45 1205.28C1222.56 1205.19 1213.88 1202.84 1213.88 1199.96C1213.88 1199.3 1214.32 1198.67 1215.13 1198.1C1216.7 1197 1219.6 1196.05 1223.35 1195.45C1226.48 1194.91 1230.2 1194.61 1234.2 1194.61C1245.43 1194.61 1254.52 1197 1254.52 1199.96Z" fill="white"/>
<path d="M1254.52 1199.96C1254.52 1201.51 1252.03 1202.9 1248.02 1203.86C1246.45 1201.6 1243.87 1199.6 1240.56 1198.21C1235.63 1196.11 1229.21 1195.38 1223.4 1196.23L1223.35 1195.45C1226.48 1194.91 1230.2 1194.61 1234.2 1194.61C1245.44 1194.61 1254.52 1197 1254.52 1199.96Z" fill="white"/>
<path d="M1233.45 1205.29C1222.56 1205.2 1213.88 1202.85 1213.88 1199.96C1213.88 1199.3 1214.31 1198.68 1215.13 1198.11C1214.93 1199.3 1215.83 1200.58 1217.22 1201.48C1219.02 1202.61 1221.49 1203.24 1223.95 1203.76C1227.06 1204.41 1230.22 1204.93 1233.45 1205.29Z" fill="white"/>
<path d="M1115.54 1362.22C1115.02 1362.56 1114.48 1362.86 1113.95 1363.16C1108.51 1365.91 1101.15 1365.93 1095.72 1363.13C1094.45 1367.16 1090.52 1370.55 1085.7 1371.77C1080.88 1372.95 1075.38 1371.92 1071.64 1369.12C1068.23 1366.55 1066.12 1362.54 1061.81 1361.2C1056.76 1359.61 1051.18 1362.38 1045.81 1361.95C1042.16 1361.65 1038.73 1359.69 1037.08 1356.97C1036.85 1356.6 1036.66 1356.24 1036.51 1355.86C1035.18 1352.57 1036.52 1348.63 1039.82 1346.48C1047.27 1341.62 1059.13 1347.26 1067.38 1343.89C1067.85 1343.71 1068.3 1343.5 1068.76 1343.23C1072.23 1341.27 1074.89 1337.43 1079.02 1337.87C1083.06 1338.29 1085.64 1342.84 1089.63 1342.26C1092.88 1341.8 1094.36 1338.45 1096.94 1337C1099.48 1335.57 1103.5 1334.63 1106.58 1335.14C1112.61 1336.16 1119.43 1341.7 1121.31 1346.42C1121.82 1347.73 1122.09 1349.11 1122.09 1350.49C1122.2 1354.95 1119.78 1359.47 1115.54 1362.22Z" fill="white"/>
<path d="M1122.1 1350.49C1122 1350.25 1121.9 1350.04 1121.76 1349.83C1119.94 1346.77 1116.81 1344.36 1113.25 1342.65C1110.64 1341.39 1107.62 1340.45 1104.64 1340.88C1101.41 1341.37 1098.83 1343.32 1096.21 1344.92C1093.55 1346.55 1090.24 1347.95 1087.09 1347.1C1083.29 1346.05 1081.04 1341.96 1077.02 1342.03C1074.32 1342.05 1072.1 1344.09 1069.4 1344.19C1068.71 1344.22 1067.99 1344.11 1067.38 1343.89C1067.85 1343.71 1068.3 1343.5 1068.76 1343.23C1072.23 1341.27 1074.89 1337.42 1079.02 1337.86C1083.06 1338.29 1085.64 1342.84 1089.63 1342.26C1092.88 1341.8 1094.36 1338.45 1096.94 1337C1099.48 1335.56 1103.5 1334.63 1106.58 1335.14C1112.61 1336.16 1119.43 1341.69 1121.31 1346.41C1121.82 1347.73 1122.09 1349.11 1122.1 1350.49Z" fill="white"/>
<path d="M1113.95 1363.16C1108.51 1365.91 1101.15 1365.93 1095.72 1363.13C1094.45 1367.16 1090.52 1370.55 1085.7 1371.77C1080.88 1372.95 1075.38 1371.92 1071.64 1369.12C1068.23 1366.55 1066.12 1362.54 1061.81 1361.2C1056.76 1359.6 1051.18 1362.38 1045.81 1361.94C1042.15 1361.65 1038.73 1359.69 1037.08 1356.97C1038.81 1357.27 1040.66 1357.3 1042.42 1357.15C1046.61 1356.79 1050.68 1355.62 1054.88 1355.59C1059.47 1355.55 1064.04 1356.89 1067.58 1359.35C1069.98 1361.03 1071.85 1363.18 1074.29 1364.81C1076.73 1366.47 1080.06 1367.57 1083 1366.7C1085.76 1365.88 1087.41 1363.56 1089.13 1361.57C1090.82 1359.57 1093.27 1357.54 1096.2 1357.75C1098.37 1357.9 1100.11 1359.26 1101.94 1360.26C1104.39 1361.63 1107.26 1362.42 1110.21 1362.58C1111.49 1362.64 1112.86 1362.63 1113.95 1363.16Z" fill="white"/>
<path d="M522.675 1304.07C522.675 1311.17 505.951 1316.92 485.349 1316.92C476.96 1316.92 469.257 1315.97 463.031 1314.36C459.233 1316 454.88 1316.92 450.237 1316.92C445.463 1316.92 441.005 1315.94 437.153 1314.23C436.784 1315.2 436.336 1316.15 435.782 1317.05C431.323 1324.75 421.431 1330.11 409.956 1330.11C398.006 1330.11 387.797 1324.31 383.603 1316.1C380.886 1316.63 378.09 1316.92 375.188 1316.92C371.099 1316.92 367.221 1316.36 363.581 1315.39C355.219 1328.79 337.756 1338.02 317.47 1338.02C303.067 1338.02 290.035 1333.35 280.723 1325.84C274.735 1334.65 262.917 1340.66 249.279 1340.66C238.991 1340.66 229.732 1337.2 223.242 1331.72C211.847 1345.22 192.352 1354.11 170.193 1354.11C152.836 1354.11 137.114 1348.65 125.639 1339.79C116.854 1345.28 105.775 1348.57 93.6668 1348.57C72.1939 1348.57 53.8338 1338.23 46.1574 1323.54C42.1214 1322.51 38.4283 1320.95 35.1572 1318.95C28.958 1327.21 17.5621 1332.75 4.47794 1332.75C-11.0068 1332.75 -24.1437 1324.96 -29.0239 1314.12C-33.6931 1315.92 -38.9162 1316.92 -44.4559 1316.92C-56.1948 1316.92 -66.5619 1312.46 -73.0512 1305.6C-77.8787 1309.35 -84.4999 1311.64 -91.807 1311.64C-96.7399 1311.64 -101.33 1310.59 -105.287 1308.77C-107.687 1308.93 -110.141 1309.01 -112.673 1309.01C-121.537 1309.01 -129.661 1307.95 -136.045 1306.18C-144.566 1303.81 -150 1300.19 -150 1296.16C-150 1289.56 -135.491 1284.13 -116.841 1283.42C-113.069 1275.42 -103.308 1269.7 -91.807 1269.7C-85.3704 1269.7 -79.4614 1271.49 -74.845 1274.47C-68.6986 1266.56 -57.672 1261.23 -45.0363 1261.07C-45.0626 1260.81 -45.089 1260.57 -45.089 1260.34C-45.089 1248.02 -32.3741 1238.04 -16.7047 1238.04C-9.0547 1238.04 -2.11693 1240.42 2.9743 1244.27C8.48761 1241.55 14.9769 1239.94 21.9675 1239.94C29.8022 1239.94 37.0301 1241.95 42.8864 1245.3C53.1743 1228.63 74.9638 1217.1 100.156 1217.1C100.921 1217.1 101.686 1217.13 102.451 1217.15C107.727 1193.78 133.711 1176 165.023 1176C196.81 1176 223.137 1194.33 227.833 1218.26C244.135 1221.03 258.09 1228.68 267.085 1239.18C272.941 1237.36 279.325 1236.33 285.999 1236.33C300.112 1236.33 312.88 1240.81 322.165 1248.04C328.602 1243.03 337.439 1239.94 347.199 1239.94C364.082 1239.94 378.169 1249.18 381.836 1261.55C386.742 1262.29 391.279 1263.79 395.236 1265.9C399.985 1258.75 409.481 1253.87 420.429 1253.87C435.623 1253.87 447.995 1263.26 448.76 1275.03C449.261 1275 449.736 1274.98 450.237 1274.98C463.111 1274.98 473.847 1282.12 476.38 1291.62C479.255 1291.38 482.236 1291.25 485.349 1291.25C505.951 1291.25 522.675 1297 522.675 1304.07Z" fill="white"/>
<path d="M151.823 1181.28C183.611 1181.28 209.948 1199.6 214.643 1223.53C230.927 1226.3 244.89 1233.96 253.893 1244.47C259.752 1242.64 266.12 1241.6 272.81 1241.6C286.918 1241.6 299.688 1246.08 308.966 1253.31C312.358 1250.67 316.436 1248.58 320.952 1247.18C311.786 1240.47 299.524 1236.33 286 1236.33C279.313 1236.33 272.942 1237.36 267.083 1239.19C258.077 1228.69 244.117 1221.03 227.833 1218.26C223.138 1194.33 196.8 1176.01 165.013 1176.01C152.048 1176.01 140.021 1179.1 129.971 1184.33C136.787 1182.37 144.142 1181.28 151.823 1181.28Z" fill="white"/>
<path d="M90.6626 1217.67C81.2741 1218.77 72.5716 1221.5 64.998 1225.46C71.8435 1223.48 79.2377 1222.39 86.9589 1222.39C87.7266 1222.39 88.4889 1222.41 89.2513 1222.43C89.618 1220.81 90.106 1219.23 90.6626 1217.67Z" fill="white"/>
<path d="M334.012 1245.21C350.889 1245.21 364.992 1254.45 368.65 1266.82C373.546 1267.55 378.089 1269.06 382.054 1271.19C384.014 1268.23 386.823 1265.69 390.184 1263.69C387.554 1262.73 384.771 1261.98 381.84 1261.55C378.181 1249.17 364.079 1239.94 347.201 1239.94C338.691 1239.94 330.888 1242.29 324.766 1246.2C327.717 1245.57 330.807 1245.21 334.012 1245.21Z" fill="white"/>
<path d="M485.333 1291.24C482.238 1291.24 479.249 1291.39 476.374 1291.63C473.836 1282.12 463.097 1274.97 450.232 1274.97C449.736 1274.97 449.251 1275.01 448.763 1275.03C448.006 1263.25 435.634 1253.87 420.439 1253.87C413.108 1253.87 406.477 1256.09 401.443 1259.67C403.324 1259.36 405.25 1259.15 407.249 1259.15C422.447 1259.15 434.816 1268.52 435.573 1280.31C436.064 1280.29 436.546 1280.25 437.042 1280.25C449.91 1280.25 460.649 1287.39 463.184 1296.91C466.06 1296.66 469.049 1296.52 472.143 1296.52C492.764 1296.52 509.483 1302.27 509.483 1309.36C509.483 1311.3 508.193 1313.14 505.948 1314.79C516.022 1312.49 522.673 1308.55 522.673 1304.08C522.673 1296.99 505.953 1291.24 485.333 1291.24Z" fill="white"/>
<path d="M-29.8849 1243.32C-22.2428 1243.32 -15.3208 1245.7 -10.2164 1249.56C-4.71366 1246.82 1.78886 1245.21 8.78468 1245.21C16.6141 1245.21 23.8315 1247.22 29.7088 1250.59C31.5211 1247.65 33.708 1244.88 36.1903 1242.29C31.8377 1240.79 27.0392 1239.94 21.9744 1239.94C14.9786 1239.94 8.47606 1241.54 2.97331 1244.28C-2.13111 1240.43 -9.05308 1238.04 -16.6952 1238.04C-23.9997 1238.04 -30.6367 1240.23 -35.6699 1243.78C-33.8023 1243.48 -31.8686 1243.32 -29.8849 1243.32Z" fill="white"/>
<path d="M435.782 1317.05C431.324 1324.75 421.432 1330.11 409.956 1330.11C398.007 1330.11 387.798 1324.31 383.603 1316.1C380.886 1316.63 378.09 1316.92 375.188 1316.92C371.1 1316.92 367.222 1316.37 363.581 1315.39C355.219 1328.79 337.756 1338.02 317.47 1338.02C303.067 1338.02 290.036 1333.35 280.724 1325.84C274.736 1334.65 262.918 1340.66 249.279 1340.66C238.991 1340.66 229.732 1337.21 223.243 1331.72C211.847 1345.22 192.353 1354.11 170.194 1354.11C152.836 1354.11 137.114 1348.65 125.639 1339.79C116.855 1345.28 105.775 1348.58 93.6671 1348.58C72.1943 1348.58 53.8342 1338.23 46.1578 1323.54C42.1217 1322.51 38.4286 1320.96 35.1575 1318.95C28.9584 1327.21 17.5625 1332.75 4.47829 1332.75C-11.0064 1332.75 -24.1434 1324.97 -29.0236 1314.12C-33.6928 1315.92 -38.9159 1316.92 -44.4556 1316.92C-56.1944 1316.92 -66.5615 1312.46 -73.0509 1305.6C-77.8783 1309.35 -84.4995 1311.64 -91.8066 1311.64C-96.7396 1311.64 -101.33 1310.59 -105.287 1308.77C-107.687 1308.93 -119.968 1307.5 -122.5 1307.5C-131.363 1307.5 -143.5 1305.5 -147 1301.5C-131.067 1303 -103.203 1300.96 -93.8115 1287.88C-75.9526 1301.49 -49.5732 1302.75 -30.5008 1290.86C-13.9609 1308.14 15.3202 1311.25 35.1575 1297.87C50.9324 1308.21 70.1631 1313.2 88.998 1311.78C120.363 1335.99 168.769 1334.67 198.816 1308.79C217.255 1323.28 246.299 1321.88 263.234 1305.66C277.136 1318.63 301.537 1317.87 314.595 1304.02C332.77 1314.41 357.488 1311.72 373.025 1297.66C383.155 1311.49 405.235 1314.44 418.662 1303.78C422.645 1310.03 428.818 1314.6 435.782 1317.05Z" fill="white"/>
<path d="M1104.68 1304.07C1104.68 1311.17 1087.95 1316.92 1067.35 1316.92C1058.96 1316.92 1051.26 1315.97 1045.03 1314.36C1041.23 1316 1036.88 1316.92 1032.24 1316.92C1027.46 1316.92 1023 1315.94 1019.15 1314.23C1018.78 1315.2 1018.34 1316.15 1017.78 1317.05C1013.32 1324.75 1003.43 1330.11 991.956 1330.11C980.006 1330.11 969.797 1324.31 965.603 1316.1C962.886 1316.63 960.09 1316.92 957.188 1316.92C953.099 1316.92 949.221 1316.36 945.581 1315.39C937.219 1328.79 919.756 1338.02 899.47 1338.02C885.067 1338.02 872.035 1333.35 862.723 1325.84C856.735 1334.65 844.917 1340.66 831.279 1340.66C820.991 1340.66 811.732 1337.2 805.242 1331.72C793.847 1345.22 774.352 1354.11 752.193 1354.11C734.836 1354.11 719.114 1348.65 707.639 1339.79C698.854 1345.28 687.775 1348.57 675.667 1348.57C654.194 1348.57 635.834 1338.23 628.157 1323.54C624.121 1322.51 620.428 1320.95 617.157 1318.95C610.958 1327.21 599.562 1332.75 586.478 1332.75C570.993 1332.75 557.856 1324.96 552.976 1314.12C548.307 1315.92 543.084 1316.92 537.544 1316.92C525.805 1316.92 515.438 1312.46 508.949 1305.6C504.121 1309.35 497.5 1311.64 490.193 1311.64C485.26 1311.64 480.67 1310.59 476.713 1308.77C474.313 1308.93 471.859 1309.01 469.327 1309.01C460.463 1309.01 452.339 1307.95 445.955 1306.18C437.434 1303.81 432 1300.19 432 1296.16C432 1289.56 446.509 1284.13 465.159 1283.42C468.931 1275.42 478.692 1269.7 490.193 1269.7C496.63 1269.7 502.539 1271.49 507.155 1274.47C513.301 1266.56 524.328 1261.23 536.964 1261.07C536.937 1260.81 536.911 1260.57 536.911 1260.34C536.911 1248.02 549.626 1238.04 565.295 1238.04C572.945 1238.04 579.883 1240.42 584.974 1244.27C590.488 1241.55 596.977 1239.94 603.967 1239.94C611.802 1239.94 619.03 1241.95 624.886 1245.3C635.174 1228.63 656.964 1217.1 682.156 1217.1C682.921 1217.1 683.686 1217.13 684.451 1217.15C689.727 1193.78 715.711 1176 747.023 1176C778.81 1176 805.137 1194.33 809.833 1218.26C826.135 1221.03 840.09 1228.68 849.085 1239.18C854.941 1237.36 861.325 1236.33 867.999 1236.33C882.112 1236.33 894.88 1240.81 904.165 1248.04C910.602 1243.03 919.439 1239.94 929.199 1239.94C946.082 1239.94 960.169 1249.18 963.836 1261.55C968.742 1262.29 973.279 1263.79 977.236 1265.9C981.985 1258.75 991.481 1253.87 1002.43 1253.87C1017.62 1253.87 1030 1263.26 1030.76 1275.03C1031.26 1275 1031.74 1274.98 1032.24 1274.98C1045.11 1274.98 1055.85 1282.12 1058.38 1291.62C1061.25 1291.38 1064.24 1291.25 1067.35 1291.25C1087.95 1291.25 1104.68 1297 1104.68 1304.07Z" fill="white"/>
<path d="M745.49 1181.28C778.506 1181.28 805.861 1199.6 810.738 1223.53C827.652 1226.3 842.154 1233.96 851.505 1244.47C857.591 1242.64 864.205 1241.6 871.153 1241.6C885.806 1241.6 899.07 1246.08 908.706 1253.31C912.23 1250.67 916.466 1248.58 921.157 1247.18C911.635 1240.47 898.9 1236.33 884.853 1236.33C877.907 1236.33 871.29 1237.36 865.205 1239.19C855.851 1228.69 841.351 1221.03 824.438 1218.26C819.561 1194.33 792.206 1176.01 759.19 1176.01C745.723 1176.01 733.232 1179.1 722.793 1184.33C729.873 1182.37 737.512 1181.28 745.49 1181.28Z" fill="white"/>
<path d="M518.443 1267.29C521.285 1266.72 524.246 1266.38 527.315 1266.34C527.304 1266.1 527.266 1265.86 527.266 1265.61C527.266 1264.8 527.332 1264 527.444 1263.21C524.17 1264.23 521.159 1265.62 518.443 1267.29Z" fill="white"/>
<path d="M435.641 1290.76C440.646 1289.65 446.455 1288.92 452.732 1288.69C453.494 1287.13 454.554 1285.7 455.754 1284.34C446.874 1285.58 439.701 1287.88 435.641 1290.76Z" fill="white"/>
<path d="M681.967 1217.67C672.216 1218.77 663.177 1221.5 655.311 1225.46C662.421 1223.48 670.101 1222.39 678.12 1222.39C678.918 1222.39 679.709 1222.41 680.501 1222.43C680.882 1220.81 681.389 1219.23 681.967 1217.67Z" fill="white"/>
<path d="M934.721 1245.21C952.25 1245.21 966.898 1254.45 970.698 1266.82C975.783 1267.55 980.502 1269.06 984.62 1271.19C986.655 1268.23 989.573 1265.69 993.064 1263.69C990.332 1262.73 987.442 1261.98 984.398 1261.55C980.597 1249.17 965.95 1239.94 948.42 1239.94C939.581 1239.94 931.477 1242.29 925.117 1246.2C928.183 1245.57 931.392 1245.21 934.721 1245.21Z" fill="white"/>
<path d="M1091.89 1291.24C1088.68 1291.24 1085.57 1291.39 1082.58 1291.63C1079.95 1282.12 1068.79 1274.97 1055.43 1274.97C1054.92 1274.97 1054.41 1275.01 1053.91 1275.03C1053.12 1263.25 1040.27 1253.87 1024.49 1253.87C1016.87 1253.87 1009.99 1256.09 1004.76 1259.67C1006.71 1259.36 1008.71 1259.15 1010.79 1259.15C1026.57 1259.15 1039.42 1268.52 1040.21 1280.31C1040.72 1280.29 1041.22 1280.25 1041.73 1280.25C1055.1 1280.25 1066.25 1287.39 1068.89 1296.91C1071.87 1296.66 1074.98 1296.52 1078.19 1296.52C1099.61 1296.52 1116.97 1302.27 1116.97 1309.36C1116.97 1311.3 1115.63 1313.14 1113.3 1314.79C1123.77 1312.49 1130.67 1308.56 1130.67 1304.08C1130.67 1296.99 1113.31 1291.24 1091.89 1291.24Z" fill="white"/>
<path d="M478.741 1274.97C485.432 1274.97 491.572 1276.77 496.364 1279.75C498.735 1276.81 501.806 1274.23 505.392 1272.14C501.524 1270.59 497.123 1269.7 492.441 1269.7C485.101 1269.7 478.454 1271.87 473.5 1275.39C475.201 1275.14 476.941 1274.97 478.741 1274.97Z" fill="white"/>
<path d="M498.519 1311.13C498.428 1311.04 498.324 1310.96 498.234 1310.87C498.047 1311.01 497.836 1311.13 497.645 1311.27C497.938 1311.23 498.228 1311.18 498.519 1311.13Z" fill="white"/>
<path d="M556.759 1243.32C564.696 1243.32 571.886 1245.7 577.187 1249.56C582.903 1246.82 589.657 1245.21 596.923 1245.21C605.055 1245.21 612.551 1247.22 618.656 1250.59C620.538 1247.65 622.809 1244.88 625.388 1242.29C620.867 1240.79 615.883 1239.94 610.622 1239.94C603.356 1239.94 596.602 1241.54 590.887 1244.28C585.585 1240.43 578.396 1238.04 570.458 1238.04C562.871 1238.04 555.978 1240.23 550.75 1243.78C552.69 1243.48 554.698 1243.32 556.759 1243.32Z" fill="white"/>
<path d="M1040.42 1317.05C1035.79 1324.75 1025.52 1330.11 1013.6 1330.11C1001.19 1330.11 990.584 1324.31 986.227 1316.1C983.405 1316.63 980.501 1316.92 977.487 1316.92C973.24 1316.92 969.213 1316.37 965.431 1315.39C956.746 1328.79 938.608 1338.02 917.538 1338.02C902.578 1338.02 889.043 1333.35 879.371 1325.84C873.152 1334.65 860.877 1340.66 846.711 1340.66C836.026 1340.66 826.409 1337.21 819.669 1331.72C807.832 1345.22 787.584 1354.11 764.569 1354.11C746.541 1354.11 730.211 1348.65 718.292 1339.79C709.168 1345.28 697.661 1348.58 685.085 1348.58C662.782 1348.58 643.712 1338.23 635.739 1323.54C631.547 1322.51 627.711 1320.96 624.313 1318.95C617.875 1327.21 606.038 1332.75 592.448 1332.75C576.365 1332.75 562.72 1324.97 557.652 1314.12C552.802 1315.92 547.377 1316.92 541.623 1316.92C529.431 1316.92 518.663 1312.46 511.923 1305.6C506.909 1309.35 500.031 1311.64 492.442 1311.64C487.318 1311.64 482.551 1310.59 478.441 1308.77C475.948 1308.93 463.193 1307.5 460.562 1307.5C451.356 1307.5 438.751 1305.5 435.115 1301.5C451.664 1303 480.606 1300.96 490.36 1287.88C508.909 1301.49 536.308 1302.75 556.117 1290.86C573.296 1308.14 603.709 1311.25 624.313 1297.87C640.698 1308.21 660.672 1313.2 680.235 1311.78C712.812 1335.99 763.09 1334.67 794.297 1308.79C813.449 1323.28 843.615 1321.88 861.206 1305.66C875.645 1318.63 900.989 1317.87 914.551 1304.02C933.429 1314.41 959.102 1311.72 975.24 1297.66C985.762 1311.49 1008.69 1314.44 1022.64 1303.78C1026.78 1310.03 1033.19 1314.6 1040.42 1317.05Z" fill="white"/>
<path d="M503.226 1299.98C503.226 1302.27 500.958 1304.33 497.317 1305.75C494.02 1307.07 489.614 1307.89 484.761 1307.89C484.523 1307.89 484.312 1307.89 484.075 1307.86C474.182 1307.73 466.295 1304.25 466.295 1299.98C466.295 1299 466.691 1298.08 467.429 1297.23C468.854 1295.6 471.492 1294.2 474.895 1293.3C477.744 1292.51 481.12 1292.06 484.761 1292.06C494.969 1292.06 503.226 1295.6 503.226 1299.98Z" fill="white"/>
<path d="M503.226 1299.98C503.226 1302.27 500.957 1304.33 497.317 1305.75C495.893 1302.4 493.545 1299.45 490.538 1297.39C486.053 1294.28 480.223 1293.2 474.947 1294.46L474.895 1293.3C477.744 1292.51 481.12 1292.06 484.76 1292.06C494.969 1292.06 503.226 1295.6 503.226 1299.98Z" fill="white"/>
<path d="M484.075 1307.86C474.182 1307.73 466.295 1304.25 466.295 1299.98C466.295 1299 466.691 1298.08 467.429 1297.23C467.245 1299 468.062 1300.9 469.329 1302.22C470.964 1303.91 473.206 1304.83 475.449 1305.59C478.271 1306.57 481.147 1307.34 484.075 1307.86Z" fill="white"/>
<path d="M65.3266 1233.96C65.3266 1235.51 63.248 1236.9 59.911 1237.86C56.8879 1238.75 52.8492 1239.3 48.4016 1239.3C48.1827 1239.3 47.9901 1239.3 47.7738 1239.28C38.7045 1239.19 31.4766 1236.84 31.4766 1233.96C31.4766 1233.3 31.838 1232.67 32.5159 1232.1C33.8217 1231 36.2407 1230.05 39.3588 1229.45C41.9703 1228.91 45.0672 1228.61 48.4016 1228.61C57.7584 1228.61 65.3266 1231 65.3266 1233.96Z" fill="white"/>
<path d="M65.3292 1233.96C65.3292 1235.51 63.2505 1236.9 59.9135 1237.86C58.6078 1235.6 56.4552 1233.6 53.6985 1232.21C49.5886 1230.11 44.2442 1229.38 39.4088 1230.23L39.3613 1229.45C41.9729 1228.91 45.0698 1228.61 48.4042 1228.61C57.761 1228.61 65.3292 1231 65.3292 1233.96Z" fill="white"/>
<path d="M47.7718 1239.29C38.7026 1239.2 31.4746 1236.85 31.4746 1233.96C31.4746 1233.3 31.836 1232.68 32.514 1232.11C32.3451 1233.3 33.0943 1234.58 34.255 1235.48C35.7534 1236.61 37.8109 1237.24 39.8659 1237.76C42.4511 1238.41 45.0864 1238.93 47.7718 1239.29Z" fill="white"/>
<path d="M428.231 1267.87C427.413 1268.45 426.516 1268.9 425.566 1269.16C421.346 1270.38 416.835 1269.08 412.64 1267.82C410.266 1273.81 402.3 1276.81 396.549 1273.86C393.489 1272.3 390.904 1269.3 387.474 1269.27C384.837 1269.27 382.568 1271.01 380.167 1272.04C374.891 1274.25 368.244 1272.72 364.498 1268.4C361.464 1264.89 360.515 1259.77 361.834 1255.37C362.124 1254.31 362.546 1253.31 363.126 1252.36C366.292 1247.11 372.728 1245.9 378.004 1243.65H378.031C378.083 1243.63 378.163 1243.6 378.215 1243.58C384.23 1240.96 390.376 1239.65 396.654 1242.41C402.616 1245.05 407.074 1250.83 408.103 1257.24C413.089 1254.07 419.42 1253.1 425.144 1254.63C427.756 1255.31 430.42 1256.71 431.528 1259.17C431.634 1259.43 431.713 1259.67 431.792 1259.93C432.61 1262.86 430.869 1266.05 428.231 1267.87Z" fill="white"/>
<path d="M431.791 1259.93H431.764C430.234 1259.77 428.783 1259.19 427.306 1258.74C421.423 1256.95 414.881 1257.4 409.315 1259.98C408.735 1260.25 408.102 1260.54 407.495 1260.3C406.73 1259.98 406.572 1259.01 406.44 1258.16C405.675 1253.26 402.246 1248.98 397.946 1246.48C393.646 1243.97 388.528 1243.1 383.569 1243.18C381.696 1243.21 379.849 1243.39 378.029 1243.65C378.082 1243.63 378.161 1243.6 378.214 1243.58C384.228 1240.96 390.375 1239.65 396.653 1242.41C402.615 1245.05 407.073 1250.83 408.102 1257.24C413.088 1254.07 419.419 1253.1 425.143 1254.63C427.755 1255.31 430.419 1256.71 431.527 1259.17C431.632 1259.43 431.711 1259.67 431.791 1259.93Z" fill="white"/>
<path d="M428.231 1267.87C427.413 1268.45 426.516 1268.9 425.566 1269.16C421.346 1270.38 416.835 1269.08 412.64 1267.82C410.266 1273.81 402.3 1276.81 396.549 1273.86C393.489 1272.3 390.904 1269.3 387.474 1269.27C384.837 1269.27 382.568 1271.01 380.167 1272.04C374.891 1274.25 368.244 1272.72 364.498 1268.4C361.464 1264.89 360.515 1259.77 361.834 1255.37C362.81 1255.68 363.707 1256.21 364.392 1257C366.107 1258.95 366.476 1261.96 368.587 1263.44C370.301 1264.6 372.649 1264.36 374.496 1263.47C376.342 1262.57 377.872 1261.12 379.508 1259.9C381.17 1258.66 383.069 1257.58 385.127 1257.61C388.239 1257.64 390.746 1260.14 392.539 1262.7C394.307 1265.29 395.863 1268.19 398.554 1269.77C401.06 1271.27 404.41 1271.3 406.969 1269.88C409.528 1268.43 411.216 1265.58 411.242 1262.62C415.938 1266.5 422.19 1268.4 428.231 1267.87Z" fill="white"/>
<path d="M482.109 1359.39C482.575 1359.29 483.059 1359.22 483.542 1359.15C488.403 1358.63 494.721 1360.48 499.193 1363.8C500.568 1361.34 504.179 1359.99 508.403 1360.37C512.62 1360.78 517.274 1362.89 520.294 1365.78C523.048 1368.43 524.584 1371.74 528.193 1373.77C532.422 1376.15 537.405 1375.65 541.989 1377.32C545.108 1378.45 547.916 1380.68 549.145 1382.99C549.313 1383.3 549.451 1383.59 549.558 1383.9C550.476 1386.51 549.045 1388.9 546.067 1389.55C539.331 1391.02 529.529 1384.1 522.215 1384.34C521.797 1384.34 521.396 1384.37 520.981 1384.44C517.867 1384.91 515.318 1386.9 511.798 1385.55C508.354 1384.22 506.457 1380.42 502.983 1379.81C500.16 1379.3 498.661 1381.24 496.346 1381.59C494.063 1381.94 490.541 1381.56 487.931 1380.42C482.828 1378.18 477.35 1372.62 476.063 1368.87C475.713 1367.83 475.577 1366.81 475.667 1365.85C475.885 1362.74 478.275 1360.22 482.109 1359.39Z" fill="white"/>
<path d="M475.664 1372.29C475.731 1372.46 475.805 1372.61 475.905 1372.78C477.232 1375.08 479.719 1377.29 482.611 1379.17C484.733 1380.55 487.229 1381.83 489.782 1382.25C492.545 1382.7 494.868 1382.1 497.199 1381.72C499.564 1381.33 502.463 1381.24 505.067 1382.49C508.213 1384.02 509.834 1387.06 513.241 1387.95C515.532 1388.56 517.553 1387.82 519.842 1388.38C520.428 1388.52 521.029 1388.75 521.536 1389.04C521.124 1389.04 520.729 1389.06 520.319 1389.12C517.247 1389.52 514.731 1391.28 511.263 1390.05C507.868 1388.85 506.004 1385.45 502.58 1384.88C499.797 1384.41 498.316 1386.13 496.033 1386.43C493.78 1386.73 490.308 1386.37 487.737 1385.34C482.708 1383.32 477.317 1378.33 476.054 1374.99C475.709 1374.06 475.576 1373.15 475.664 1372.29Z" fill="white"/>
<path d="M484.955 1356.97C489.72 1356.59 495.906 1358.18 500.279 1360.95C501.634 1358.94 505.176 1357.87 509.315 1358.23C513.446 1358.6 518.001 1360.38 520.951 1362.78C523.642 1364.99 525.137 1367.72 528.668 1369.42C532.805 1371.43 537.689 1371.06 542.176 1372.48C545.23 1373.44 547.975 1375.3 549.172 1377.2C547.734 1376.65 546.186 1376.23 544.692 1375.94C541.14 1375.23 537.641 1375.01 534.107 1374.11C530.242 1373.14 526.492 1371.39 523.684 1369.21C521.787 1367.74 520.357 1366.11 518.421 1364.66C516.488 1363.18 513.76 1361.83 511.227 1361.69C508.847 1361.56 507.301 1362.51 505.712 1363.27C504.15 1364.04 501.953 1364.66 499.501 1363.9C497.687 1363.35 496.322 1362.2 494.847 1361.23C492.881 1359.92 490.526 1358.85 488.057 1358.12C486.982 1357.8 485.831 1357.51 484.955 1356.97Z" fill="white"/>
<path d="M1811.68 181.072C1811.68 188.168 1794.95 193.919 1774.35 193.919C1765.96 193.919 1758.26 192.969 1752.03 191.36C1748.23 192.996 1743.88 193.919 1739.24 193.919C1734.46 193.919 1730 192.943 1726.15 191.228C1725.78 192.204 1725.34 193.154 1724.78 194.051C1720.32 201.754 1710.43 207.109 1698.96 207.109C1687.01 207.109 1676.8 201.305 1672.6 193.101C1669.89 193.629 1667.09 193.919 1664.19 193.919C1660.1 193.919 1656.22 193.365 1652.58 192.389C1644.22 205.79 1626.76 215.022 1606.47 215.022C1592.07 215.022 1579.04 210.353 1569.72 202.835C1563.74 211.646 1551.92 217.66 1538.28 217.66C1527.99 217.66 1518.73 214.205 1512.24 208.718C1500.85 222.224 1481.35 231.114 1459.19 231.114C1441.84 231.114 1426.11 225.653 1414.64 216.79C1405.85 222.277 1394.77 225.574 1382.67 225.574C1361.19 225.574 1342.83 215.234 1335.16 200.54C1331.12 199.511 1327.43 197.955 1324.16 195.95C1317.96 204.207 1306.56 209.747 1293.48 209.747C1277.99 209.747 1264.86 201.965 1259.98 191.123C1255.31 192.917 1250.08 193.919 1244.54 193.919C1232.81 193.919 1222.44 189.461 1215.95 182.602C1211.12 186.348 1204.5 188.643 1197.19 188.643C1192.26 188.643 1187.67 187.588 1183.71 185.768C1181.31 185.926 1178.86 186.005 1176.33 186.005C1167.46 186.005 1159.34 184.95 1152.95 183.182C1144.43 180.808 1139 177.194 1139 173.158C1139 166.563 1153.51 161.129 1172.16 160.417C1175.93 152.424 1185.69 146.7 1197.19 146.7C1203.63 146.7 1209.54 148.494 1214.15 151.474C1220.3 143.561 1231.33 138.232 1243.96 138.074C1243.94 137.81 1243.91 137.572 1243.91 137.335C1243.91 125.016 1256.63 115.044 1272.3 115.044C1279.95 115.044 1286.88 117.419 1291.97 121.27C1297.49 118.553 1303.98 116.944 1310.97 116.944C1318.8 116.944 1326.03 118.949 1331.89 122.299C1342.17 105.627 1363.96 94.0992 1389.16 94.0992C1389.92 94.0992 1390.69 94.1255 1391.45 94.1519C1396.73 70.7798 1422.71 53 1454.02 53C1485.81 53 1512.14 71.3338 1516.83 95.2599C1533.14 98.0297 1547.09 105.68 1556.09 116.179C1561.94 114.359 1568.33 113.33 1575 113.33C1589.11 113.33 1601.88 117.814 1611.17 125.042C1617.6 120.03 1626.44 116.944 1636.2 116.944C1653.08 116.944 1667.17 126.177 1670.84 138.549C1675.74 139.287 1680.28 140.791 1684.24 142.901C1688.98 135.752 1698.48 130.872 1709.43 130.872C1724.62 130.872 1737 140.263 1737.76 152.028C1738.26 152.002 1738.74 151.976 1739.24 151.976C1752.11 151.976 1762.85 159.124 1765.38 168.621C1768.25 168.384 1771.24 168.252 1774.35 168.252C1794.95 168.252 1811.68 174.002 1811.68 181.072Z" fill="white"/>
<path d="M1440.82 58.2849C1472.61 58.2849 1498.95 76.6028 1503.64 100.529C1519.93 103.301 1533.89 110.962 1542.89 121.466C1548.75 119.638 1555.12 118.604 1561.81 118.604C1575.92 118.604 1588.69 123.075 1597.97 130.309C1601.36 127.671 1605.44 125.582 1609.95 124.181C1600.79 117.47 1588.52 113.331 1575 113.331C1568.31 113.331 1561.94 114.365 1556.08 116.193C1547.08 105.689 1533.12 98.0256 1516.83 95.2558C1512.14 71.3323 1485.8 53.0117 1454.01 53.0117C1441.05 53.0117 1429.02 56.0955 1418.97 61.3292C1425.79 59.3666 1433.14 58.2849 1440.82 58.2849Z" fill="white"/>
<path d="M1222.22 144.29C1224.96 143.72 1227.81 143.377 1230.77 143.34C1230.76 143.098 1230.72 142.86 1230.72 142.615C1230.72 141.8 1230.78 140.998 1230.89 140.207C1227.74 141.235 1224.84 142.625 1222.22 144.29Z" fill="white"/>
<path d="M1142.5 167.757C1147.32 166.654 1152.92 165.92 1158.96 165.688C1159.69 164.132 1160.71 162.697 1161.87 161.338C1153.32 162.576 1146.41 164.876 1142.5 167.757Z" fill="white"/>
<path d="M1379.66 94.668C1370.27 95.7706 1361.57 98.4983 1354 102.458C1360.84 100.479 1368.24 99.3873 1375.96 99.3873C1376.73 99.3873 1377.49 99.411 1378.25 99.4321C1378.62 97.8124 1379.11 96.2296 1379.66 94.668Z" fill="white"/>
<path d="M1184 151.974C1190.44 151.974 1196.35 153.765 1200.97 156.749C1203.25 153.81 1206.21 151.233 1209.66 149.141C1205.94 147.592 1201.7 146.698 1197.19 146.698C1190.12 146.698 1183.72 148.869 1178.96 152.391C1180.59 152.143 1182.27 151.974 1184 151.974Z" fill="white"/>
<path d="M1203.04 188.128C1202.95 188.038 1202.85 187.959 1202.77 187.869C1202.59 188.009 1202.38 188.133 1202.2 188.27C1202.48 188.228 1202.76 188.178 1203.04 188.128Z" fill="white"/>
<path d="M1259.12 120.319C1266.76 120.319 1273.68 122.701 1278.78 126.555C1284.29 123.82 1290.79 122.213 1297.78 122.213C1305.61 122.213 1312.83 124.223 1318.71 127.587C1320.52 124.646 1322.71 121.876 1325.19 119.291C1320.84 117.787 1316.04 116.937 1310.97 116.937C1303.98 116.937 1297.48 118.544 1291.97 121.28C1286.87 117.425 1279.95 115.043 1272.3 115.043C1265 115.043 1258.36 117.228 1253.33 120.784C1255.2 120.483 1257.13 120.319 1259.12 120.319Z" fill="white"/>
<path d="M1724.78 194.051C1720.32 201.754 1710.43 207.109 1698.96 207.109C1687.01 207.109 1676.8 201.306 1672.6 193.102C1669.89 193.629 1667.09 193.919 1664.19 193.919C1660.1 193.919 1656.22 193.365 1652.58 192.389C1644.22 205.79 1626.76 215.023 1606.47 215.023C1592.07 215.023 1579.04 210.354 1569.72 202.836C1563.74 211.646 1551.92 217.661 1538.28 217.661C1527.99 217.661 1518.73 214.205 1512.24 208.718C1500.85 222.224 1481.35 231.114 1459.19 231.114C1441.84 231.114 1426.11 225.654 1414.64 216.79C1405.85 222.277 1394.78 225.575 1382.67 225.575C1361.19 225.575 1342.83 215.234 1335.16 200.541C1331.12 199.512 1327.43 197.955 1324.16 195.95C1317.96 204.207 1306.56 209.747 1293.48 209.747C1277.99 209.747 1264.86 201.965 1259.98 191.123C1255.31 192.917 1250.08 193.919 1244.54 193.919C1232.81 193.919 1222.44 189.461 1215.95 182.602C1211.12 186.348 1204.5 188.643 1197.19 188.643C1192.26 188.643 1187.67 187.588 1183.71 185.768C1181.31 185.926 1169.03 184.5 1166.5 184.5C1157.64 184.5 1145.5 182.5 1142 178.5C1157.93 180.004 1185.8 177.96 1195.19 164.875C1213.05 178.487 1239.43 179.753 1258.5 167.856C1275.04 185.135 1304.32 188.248 1324.16 174.873C1339.93 185.214 1359.16 190.2 1378 188.775C1409.36 212.992 1457.77 211.673 1487.82 185.794C1506.25 200.277 1535.3 198.879 1552.23 182.655C1566.14 195.634 1590.54 194.869 1603.59 181.02C1621.77 191.413 1646.49 188.722 1662.03 174.662C1672.15 188.485 1694.23 191.44 1707.66 180.782C1711.64 187.034 1717.82 191.598 1724.78 194.051Z" fill="white"/>
<path d="M1186.48 204.734C1186.48 207.029 1184.22 209.086 1180.57 210.511C1177.28 211.83 1172.87 212.647 1168.02 212.647C1167.78 212.647 1167.57 212.647 1167.33 212.621C1157.44 212.489 1149.55 209.007 1149.55 204.734C1149.55 203.758 1149.95 202.834 1150.69 201.99C1152.11 200.355 1154.75 198.957 1158.15 198.06C1161 197.268 1164.38 196.82 1168.02 196.82C1178.23 196.82 1186.48 200.355 1186.48 204.734Z" fill="white"/>
<path d="M1186.48 204.734C1186.48 207.029 1184.22 209.086 1180.57 210.511C1179.15 207.161 1176.8 204.206 1173.8 202.148C1169.31 199.036 1163.48 197.954 1158.21 199.22L1158.15 198.06C1161 197.268 1164.38 196.82 1168.02 196.82C1178.23 196.82 1186.48 200.355 1186.48 204.734Z" fill="white"/>
<path d="M1167.33 212.621C1157.44 212.489 1149.55 209.007 1149.55 204.734C1149.55 203.758 1149.95 202.834 1150.69 201.99C1150.5 203.758 1151.32 205.657 1152.59 206.976C1154.22 208.664 1156.46 209.587 1158.71 210.352C1161.53 211.329 1164.4 212.094 1167.33 212.621Z" fill="white"/>
<path d="M1236.61 126.845C1236.61 128.779 1234.01 130.512 1229.85 131.71C1226.08 132.82 1221.05 133.509 1215.5 133.509C1215.23 133.509 1214.99 133.509 1214.72 133.488C1203.41 133.377 1194.4 130.443 1194.4 126.845C1194.4 126.025 1194.85 125.247 1195.69 124.534C1197.32 123.157 1200.34 121.981 1204.22 121.224C1207.48 120.556 1211.34 120.179 1215.5 120.179C1227.17 120.182 1236.61 123.157 1236.61 126.845Z" fill="white"/>
<path d="M1236.6 126.845C1236.6 128.779 1234.01 130.512 1229.85 131.71C1228.22 128.89 1225.54 126.399 1222.1 124.669C1216.98 122.047 1210.32 121.137 1204.29 122.202L1204.23 121.224C1207.48 120.556 1211.34 120.179 1215.5 120.179C1227.17 120.182 1236.6 123.157 1236.6 126.845Z" fill="white"/>
<path d="M1214.72 133.487C1203.41 133.377 1194.4 130.443 1194.4 126.845C1194.4 126.025 1194.85 125.246 1195.69 124.534C1195.48 126.022 1196.42 127.623 1197.86 128.734C1199.73 130.156 1202.3 130.934 1204.86 131.577C1208.08 132.398 1211.37 133.041 1214.72 133.487Z" fill="white"/>
<path d="M1384.33 85.9578C1384.33 87.5089 1382.25 88.8991 1378.91 89.8593C1375.89 90.7509 1371.85 91.3022 1367.4 91.3022C1367.18 91.3022 1366.99 91.3022 1366.78 91.2837C1357.71 91.194 1350.48 88.8436 1350.48 85.9551C1350.48 85.2956 1350.84 84.6731 1351.52 84.1033C1352.82 82.998 1355.24 82.0536 1358.36 81.4495C1360.97 80.914 1364.07 80.6133 1367.4 80.6133C1376.76 80.6133 1384.33 83.0006 1384.33 85.9578Z" fill="white"/>
<path d="M1384.33 85.9578C1384.33 87.5089 1382.25 88.8991 1378.92 89.8593C1377.61 87.5959 1375.46 85.6016 1372.7 84.2114C1368.59 82.109 1363.25 81.3782 1358.41 82.2329L1358.36 81.4495C1360.97 80.914 1364.07 80.6133 1367.41 80.6133C1376.76 80.6133 1384.33 83.0006 1384.33 85.9578Z" fill="white"/>
<path d="M1366.77 91.2869C1357.7 91.1972 1350.48 88.8468 1350.48 85.9583C1350.48 85.2988 1350.84 84.6762 1351.52 84.1064C1351.35 85.3014 1352.1 86.5834 1353.26 87.475C1354.76 88.6146 1356.81 89.2399 1358.87 89.7569C1361.45 90.4111 1364.09 90.9281 1366.77 91.2869Z" fill="white"/>
<path d="M1260.18 228.845C1259.75 229.18 1259.31 229.481 1258.86 229.784C1254.33 232.53 1248.2 232.554 1243.68 229.752C1242.61 233.783 1239.34 237.173 1235.33 238.386C1231.32 239.573 1226.73 238.544 1223.62 235.743C1220.78 233.166 1219.02 229.161 1215.43 227.819C1211.22 226.225 1206.58 229 1202.1 228.565C1199.06 228.27 1196.2 226.312 1194.83 223.587C1194.64 223.221 1194.48 222.859 1194.35 222.477C1193.24 219.19 1194.37 215.251 1197.11 213.096C1203.32 208.245 1213.2 213.88 1220.07 210.508C1220.46 210.329 1220.83 210.118 1221.22 209.854C1224.11 207.894 1226.32 204.045 1229.76 204.486C1233.13 204.911 1235.28 209.464 1238.61 208.878C1241.31 208.419 1242.54 205.074 1244.69 203.621C1246.81 202.186 1250.16 201.255 1252.72 201.764C1257.74 202.785 1263.42 208.316 1264.99 213.036C1265.41 214.352 1265.64 215.732 1265.64 217.114C1265.73 221.569 1263.72 226.086 1260.18 228.845Z" fill="white"/>
<path d="M1265.65 217.109C1265.57 216.874 1265.48 216.663 1265.37 216.449C1263.85 213.392 1261.24 210.978 1258.28 209.266C1256.11 208.008 1253.59 207.074 1251.1 207.504C1248.42 207.995 1246.27 209.936 1244.08 211.545C1241.87 213.173 1239.11 214.568 1236.49 213.722C1233.32 212.666 1231.45 208.58 1228.1 208.649C1225.85 208.673 1224 210.709 1221.75 210.815C1221.18 210.844 1220.58 210.733 1220.07 210.506C1220.46 210.327 1220.83 210.116 1221.22 209.852C1224.11 207.892 1226.32 204.043 1229.76 204.484C1233.13 204.908 1235.28 209.461 1238.61 208.876C1241.31 208.417 1242.54 205.072 1244.69 203.618C1246.81 202.183 1250.16 201.252 1252.72 201.761C1257.74 202.782 1263.42 208.314 1264.99 213.033C1265.42 214.35 1265.64 215.727 1265.65 217.109Z" fill="white"/>
<path d="M1258.86 229.784C1254.33 232.53 1248.2 232.554 1243.68 229.752C1242.61 233.783 1239.34 237.173 1235.33 238.386C1231.32 239.573 1226.73 238.544 1223.62 235.743C1220.77 233.166 1219.02 229.161 1215.43 227.819C1211.22 226.225 1206.57 229 1202.1 228.565C1199.06 228.27 1196.2 226.312 1194.83 223.587C1196.27 223.893 1197.81 223.922 1199.28 223.772C1202.77 223.413 1206.16 222.245 1209.65 222.21C1213.48 222.171 1217.28 223.508 1220.24 225.975C1222.23 227.652 1223.8 229.8 1225.83 231.433C1227.86 233.092 1230.63 234.192 1233.08 233.319C1235.38 232.496 1236.75 230.185 1238.19 228.188C1239.6 226.186 1241.63 224.162 1244.08 224.373C1245.88 224.518 1247.33 225.88 1248.86 226.882C1250.9 228.246 1253.29 229.04 1255.74 229.198C1256.81 229.259 1257.95 229.251 1258.86 229.784Z" fill="white"/>
<path d="M1173.6 182.255H570.092C570.197 181.335 570.27 180.448 570.408 179.528C571.223 173.544 572.711 167.845 574.835 162.429C587.121 130.674 620.222 109.538 657.324 110.775C671.804 78.3467 708.411 57.9898 747.885 63.3363C757.337 64.6095 766.187 67.3009 774.294 71.0543C796.986 23.1173 851.79 -6.72535 910.842 1.30921C950.457 6.69198 983.664 27.9691 1003.99 57.1389C1011.21 56.3968 1018.65 56.4661 1026.19 57.4918C1065.02 62.7658 1094.55 91.266 1100.53 125.608C1106.3 124.862 1112.28 124.829 1118.34 125.644C1121.91 126.139 1125.35 126.884 1128.68 127.873C1154.27 135.489 1172.33 157.403 1173.6 182.255Z" fill="white"/>
<path d="M660.862 132.025C675.342 99.5738 711.946 79.2301 751.439 84.5898C760.859 85.8695 769.722 88.5345 777.845 92.2945C800.531 44.3444 855.335 14.5215 914.39 22.5396C953.992 27.9158 987.199 49.1962 1007.54 78.3792C1014.74 77.6239 1022.17 77.6997 1029.72 78.7255C1068.56 83.9994 1098.08 112.496 1104.09 146.864C1109.84 146.122 1115.81 146.073 1121.89 146.897C1144.63 149.984 1162.95 163.939 1171.67 182.255H1173.61C1172.14 154.167 1149.3 129.858 1118.35 125.656C1112.28 124.832 1106.31 124.881 1100.55 125.623C1094.54 91.2556 1065.02 62.7586 1026.18 57.4847C1018.63 56.4589 1011.2 56.3831 1004 57.1384C983.657 27.9553 950.453 6.67825 910.851 1.29878C851.796 -6.7193 796.992 23.1003 774.306 71.0537C766.183 67.2904 757.323 64.6254 747.9 63.3457C708.407 57.9827 671.803 78.3297 657.323 110.781C613.885 109.337 575.965 138.546 570.401 179.53C570.279 180.441 570.196 181.344 570.107 182.251H579.016C591.77 151.327 624.321 130.808 660.862 132.025Z" fill="white"/>
<path d="M1227.53 182.589C1209.55 181.747 1191.54 181.424 1173.52 181.325C1171.84 156.859 1153.95 135.394 1128.68 127.877C1130.55 139.028 1126.02 151.173 1117.14 158.254C1107.22 166.077 1092.49 167.176 1081.55 160.873C1059.71 179.033 1024.24 177.691 1003.84 157.97C973.928 182.328 927.053 182.786 896.679 158.96C888.041 177.865 862.727 186.962 844.036 177.902C831.75 171.919 820.529 159.207 807.323 162.571C797.055 165.157 791.356 176.592 781.55 180.521C780.475 180.953 779.406 181.276 778.341 181.517H769.089C756.107 178.904 743.521 166.477 729.932 161.687C712.442 155.563 693.503 162.608 675.306 165.972C657.11 169.336 634.131 166.467 626.591 149.547C611.013 158.646 592.853 162.964 574.832 162.433C572.707 167.849 571.22 173.548 570.405 179.531C570.306 180.178 570.247 180.811 570.181 181.447C562.945 181.622 555.721 181.939 548.531 182.539C546.546 182.704 546.592 185.88 548.574 186.048C570.534 187.889 592.791 187.044 614.813 187.061C636.934 187.077 659.056 187.061 681.177 187.061H1153.85C1178.44 187.061 1203.01 187.134 1227.57 185.986C1229.49 185.897 1229.46 182.678 1227.53 182.589Z" fill="white"/>
<path d="M623.16 81.2856C623.054 81.4274 622.912 81.5692 622.771 81.7111C612.15 92.7932 594.132 95.9794 580.394 89.1454C577.561 87.7304 574.837 85.9229 571.684 85.4282C567.258 84.7553 562.94 86.8102 558.586 87.8359C550.621 89.6764 542.052 87.6248 535.469 82.8787C531.963 80.4017 529.024 77.1792 527.042 73.3566C521.27 62.3107 523.925 47.5114 533.203 39.1932C542.441 30.8387 557.419 29.7041 567.792 36.6106C568.039 31.5115 568.606 26.2376 571.083 21.775C581.137 3.96772 621.141 26.3761 628.19 39.0513C635.551 52.2543 633.427 70.1342 623.16 81.2856Z" fill="white"/>
<path d="M911.16 1405.12C911.054 1405.27 910.912 1405.41 910.771 1405.55C900.15 1416.63 882.132 1419.82 868.394 1412.98C865.561 1411.57 862.837 1409.76 859.684 1409.27C855.258 1408.59 850.94 1410.65 846.586 1411.67C838.621 1413.52 830.052 1411.46 823.469 1406.72C819.963 1404.24 817.024 1401.02 815.042 1397.2C809.27 1386.15 811.925 1371.35 821.203 1363.03C830.441 1354.68 845.419 1353.54 855.792 1360.45C856.039 1355.35 856.606 1350.08 859.083 1345.61C869.137 1327.81 909.141 1350.21 916.19 1362.89C923.551 1376.09 921.427 1393.97 911.16 1405.12Z" fill="white"/>
<path d="M628.204 39.0355C621.149 26.3636 581.135 3.96841 571.095 21.7922C568.591 26.2383 568.03 31.499 567.803 36.5981C557.42 29.7245 542.436 30.8394 533.184 39.1774C525.945 45.7013 522.815 56.1601 524.526 65.6954C525.651 59.6398 528.603 53.9272 533.184 49.7978C542.436 41.4598 557.417 40.3416 567.803 47.2185C568.03 42.1194 568.588 36.8587 571.095 32.4126C581.135 14.5888 621.149 36.984 628.204 49.6559C630.285 53.3929 631.581 57.5058 632.175 61.7276C633.267 53.9701 632.02 45.886 628.204 39.0355Z" fill="white"/>
<path d="M623.162 81.2862C623.056 81.428 622.914 81.5698 622.772 81.7116C612.152 92.7938 594.134 95.9799 580.396 89.1459C577.563 87.731 574.839 85.9235 571.686 85.4288C567.259 84.7559 562.942 86.8108 558.588 87.8365C550.623 89.6769 542.054 87.6254 535.471 82.8792C540.286 83.9776 545.385 83.8687 550.128 82.4537C558.908 79.8679 566.237 72.9317 569.318 64.3628C573.886 75.1976 583.902 83.5851 595.374 86.1709C604.787 88.262 614.982 86.3853 623.162 81.2862Z" fill="white"/>
<path d="M1128.05 106.973C1128.12 107.058 1128.21 107.147 1128.29 107.233C1134.79 114.008 1145.8 115.957 1154.2 111.778C1155.93 110.911 1157.6 109.809 1159.53 109.506C1162.23 109.093 1164.88 110.35 1167.54 110.977C1172.41 112.101 1177.65 110.848 1181.67 107.946C1183.82 106.428 1185.61 104.459 1186.83 102.121C1190.35 95.366 1188.73 86.3188 1183.06 81.2329C1177.41 76.1239 1168.25 75.4312 1161.91 79.653C1161.76 76.5362 1161.41 73.3105 1159.9 70.5828C1153.75 59.6952 1129.29 73.3962 1124.98 81.1471C1120.48 89.2246 1121.77 100.155 1128.05 106.973Z" fill="white"/>
<path d="M1124.97 81.1381C1129.28 73.3905 1153.75 59.6961 1159.89 70.5968C1161.42 73.3146 1161.76 76.5304 1161.9 79.6506C1168.25 75.4486 1177.41 76.1313 1183.07 81.2271C1187.49 85.2147 1189.41 91.6101 1188.36 97.4414C1187.67 93.7407 1185.87 90.2446 1183.07 87.7214C1177.41 82.6223 1168.25 81.9396 1161.9 86.1448C1161.76 83.028 1161.42 79.8122 1159.89 77.0911C1153.75 66.1936 1129.28 79.8881 1124.97 87.6357C1123.7 89.9214 1122.9 92.4346 1122.54 95.0172C1121.87 90.2743 1122.63 85.3302 1124.97 81.1381Z" fill="white"/>
<path d="M1128.05 106.973C1128.12 107.059 1128.21 107.148 1128.29 107.234C1134.79 114.008 1145.8 115.957 1154.2 111.779C1155.93 110.911 1157.6 109.809 1159.53 109.506C1162.23 109.094 1164.88 110.35 1167.54 110.977C1172.41 112.102 1177.65 110.848 1181.67 107.946C1178.73 108.616 1175.61 108.553 1172.71 107.685C1167.34 106.106 1162.86 101.864 1160.98 96.623C1158.19 103.246 1152.06 108.378 1145.05 109.958C1139.29 111.238 1133.05 110.093 1128.05 106.973Z" fill="white"/>
<path d="M629.001 188.73C629.001 190.072 628.544 191.345 627.76 192.589H-14.8002C-15.4546 191.935 -16.0767 191.316 -16.6633 190.597C-17.4475 191.316 -18.2995 191.97 -19.181 192.589H-80.2858C-92.1223 189.809 -100.064 184.742 -100.064 178.925C-100.064 178.044 -99.8994 177.192 -99.5426 176.375C-97.8416 172.224 -92.0545 168.627 -83.8825 166.24C-80.4833 165.193 -76.6567 164.409 -72.5058 163.852C-69.8231 163.492 -67.046 163.262 -64.1362 163.132C-60.0502 153.194 -49.4578 146.131 -36.9992 146.131C-30.0034 146.131 -23.5943 148.353 -18.5943 152.047C-11.9258 142.207 0.00801849 135.603 13.6753 135.406C13.6753 135.111 13.6429 134.816 13.6429 134.524C13.6429 119.256 27.4075 106.898 44.4061 106.898C52.7108 106.898 60.196 109.84 65.7236 114.613C71.7053 111.214 78.7364 109.218 86.3218 109.218C96.5222 109.218 105.741 112.814 112.639 118.601C125.095 107.452 142.259 100.553 161.253 100.553C165.404 100.553 169.461 100.945 173.384 101.568C172.827 98.3954 172.468 95.1613 172.468 91.8565C172.468 57.6913 203.299 30 241.352 30C275.812 30 304.255 52.7208 309.356 82.3431C327.044 85.7747 342.212 95.2586 351.988 108.301C358.329 106.046 365.228 104.769 372.486 104.769C387.786 104.769 401.616 110.294 411.686 119.253C418.65 113.074 428.228 109.215 438.823 109.215C457.099 109.215 472.399 120.692 476.355 136.025C481.65 136.906 486.588 138.772 490.872 141.42C496.004 132.561 506.302 126.511 518.203 126.511C534.68 126.511 548.085 138.118 548.902 152.731C549.424 152.699 549.948 152.667 550.47 152.667C563.645 152.667 574.73 160.547 578.259 171.334C578.489 171.956 578.651 172.643 578.816 173.294C581.923 172.999 585.192 172.805 588.527 172.805C610.888 172.808 629.001 179.936 629.001 188.73Z" fill="white"/>
<path d="M-83.8825 172.776C-80.4833 171.729 -76.6567 170.945 -72.5058 170.388C-69.8231 170.028 -67.046 169.798 -64.1362 169.668C-60.0502 159.731 -49.4578 152.667 -36.9992 152.667C-30.0034 152.667 -23.5943 154.89 -18.5943 158.584C-11.9258 148.743 0.00801849 142.139 13.6753 141.942C13.6753 141.647 13.6429 141.352 13.6429 141.06C13.6429 125.792 27.4075 113.434 44.4061 113.434C52.7108 113.434 60.196 116.376 65.7236 121.149C71.7053 117.75 78.7364 115.754 86.3218 115.754C96.5222 115.754 105.741 119.351 112.639 125.138C125.095 113.988 142.259 107.09 161.253 107.09C165.404 107.09 169.461 107.482 173.384 108.104C173.004 105.928 172.768 103.708 172.624 101.471C168.933 100.916 165.142 100.551 161.253 100.551C142.259 100.551 125.095 107.449 112.639 118.599C105.741 112.812 96.5222 109.215 86.3218 109.215C78.7364 109.215 71.7082 111.208 65.7236 114.61C60.1989 109.837 52.7108 106.895 44.4061 106.895C27.4045 106.895 13.6429 119.253 13.6429 134.522C13.6429 134.816 13.6753 135.111 13.6753 135.403C0.00801849 135.597 -11.9228 142.204 -18.5943 152.045C-23.5943 148.351 -30.0034 146.128 -36.9992 146.128C-49.4548 146.128 -60.0473 153.189 -64.1362 163.13C-67.046 163.259 -69.826 163.489 -72.5058 163.849C-76.6567 164.406 -80.4833 165.19 -83.8825 166.237C-92.0545 168.625 -97.8416 172.219 -99.5426 176.372C-99.9023 177.189 -100.064 178.041 -100.064 178.923C-100.064 180.06 -99.7519 181.166 -99.1771 182.233C-97.1488 178.371 -91.6035 175.031 -83.8825 172.776Z" fill="white"/>
<path d="M241.354 36.5417C275.814 36.5417 304.257 59.2626 309.357 88.8849C327.045 92.3164 342.213 101.797 351.989 114.843C358.33 112.587 365.229 111.311 372.487 111.311C387.787 111.311 401.617 116.836 411.688 125.795C418.651 119.616 428.229 115.757 438.825 115.757C457.1 115.757 472.4 127.233 476.357 142.566C481.651 143.448 486.589 145.314 490.873 147.961C496.005 139.102 506.303 133.053 518.205 133.053C534.681 133.053 548.086 144.66 548.903 159.273C549.425 159.241 549.949 159.208 550.471 159.208C563.646 159.208 574.731 167.089 578.26 177.876C578.49 178.498 578.652 179.182 578.817 179.836C581.924 179.541 585.194 179.347 588.528 179.347C607.962 179.347 624.17 184.733 628.085 191.914C628.631 190.882 629.002 189.833 629.002 188.73C629.002 179.936 610.889 172.808 588.528 172.808C585.194 172.808 581.924 173.002 578.817 173.297C578.655 172.643 578.49 171.956 578.26 171.337C574.728 160.547 563.646 152.669 550.471 152.669C549.949 152.669 549.425 152.702 548.903 152.734C548.086 138.121 534.681 126.514 518.205 126.514C506.303 126.514 496.005 132.564 490.873 141.423C486.589 138.775 481.654 136.912 476.357 136.028C472.4 120.695 457.1 109.218 438.825 109.218C428.232 109.218 418.651 113.077 411.688 119.256C401.617 110.297 387.787 104.772 372.487 104.772C365.229 104.772 358.33 106.046 351.989 108.304C342.213 95.2586 327.045 85.7776 309.357 82.3461C304.257 52.7267 275.814 30.0029 241.354 30.0029C203.3 30.0029 172.469 57.6942 172.469 91.8595C172.469 93.0151 172.563 94.1531 172.643 95.291C174.456 62.5792 204.467 36.5417 241.354 36.5417Z" fill="white"/>
<path d="M588.526 172.808C585.192 172.808 581.922 173.003 578.815 173.297C578.653 172.643 578.488 171.956 578.258 171.337C563.971 185.429 539.877 189.81 522.418 179.315C508.884 185.199 492.015 182.422 481.06 172.513C464.091 184.872 438.363 183.203 423.159 168.722C397.953 184.055 362.677 180.264 341.327 159.896C324.62 176.994 294.803 179.02 275.938 164.341C257.728 173.855 234.615 173.233 216.927 162.74C194.663 178.89 165.076 179.512 137.547 179.48C108.514 179.447 79.4491 179.447 50.3869 179.415C10.2429 179.371 -29.8155 178.091 -69.9359 177.578C-80.0272 177.448 -88.3378 178.147 -97.0789 183.745C-97.244 183.967 -97.4267 184.173 -97.5859 184.397C-94.3666 187.846 -88.2052 190.732 -80.2866 192.593H-19.1818C-18.3003 191.971 -17.4483 191.319 -16.6642 190.6C-16.0745 191.319 -15.4555 191.941 -14.801 192.593H627.759C628.543 191.352 629 190.075 629 188.734C629 179.936 610.887 172.808 588.526 172.808Z" fill="white"/>
<path d="M9.18419 129.686C7.58044 131.06 4.42895 131.255 1.64891 131.222C-1.98312 131.19 -5.67116 130.96 -9.25013 130.535C-11.5467 130.273 -14.2206 129.751 -14.9134 128.377C-15.2347 127.723 -15.0195 127.036 -14.4329 126.449C-14.0585 125.992 -13.4187 125.6 -12.723 125.305C-11.1192 124.651 -9.08801 124.456 -7.16586 124.259L-3.47779 123.475C-0.11109 123.41 3.52093 123.377 6.46016 124.424C7.4743 124.784 8.38526 125.373 9.02499 125.992C10.1983 127.136 10.5197 128.575 9.18419 129.686Z" fill="white"/>
<path d="M9.18419 129.687C7.58044 131.06 4.42895 131.255 1.64891 131.223C-1.98312 131.19 -5.67116 130.96 -9.25013 130.536C-11.5467 130.273 -14.2206 129.751 -14.9134 128.378C-15.2347 127.723 -15.0195 127.036 -14.4329 126.45C-11.3344 128.28 -7.05971 129.327 -2.73193 129.295C1.70492 129.23 6.08576 127.986 9.02205 125.993C10.1983 127.137 10.5197 128.575 9.18419 129.687Z" fill="white"/>
<path d="M578.049 146.033C576.446 147.407 573.294 147.601 570.514 147.569C566.882 147.536 563.194 147.307 559.615 146.882C557.319 146.62 554.648 146.098 553.952 144.724C553.63 144.07 553.846 143.383 554.432 142.796C554.804 142.339 555.447 141.947 556.142 141.652C557.746 140.998 559.777 140.803 561.699 140.606L565.384 139.821C568.751 139.757 572.386 139.724 575.322 140.771C576.337 141.13 577.248 141.72 577.887 142.339C579.064 143.483 579.385 144.922 578.049 146.033Z" fill="white"/>
<path d="M578.049 146.034C576.446 147.408 573.294 147.602 570.514 147.57C566.882 147.537 563.194 147.307 559.615 146.883C557.319 146.62 554.648 146.099 553.952 144.725C553.63 144.07 553.846 143.383 554.432 142.797C557.531 144.628 561.806 145.674 566.133 145.642C570.57 145.577 574.951 144.333 577.887 142.34C579.064 143.484 579.385 144.922 578.049 146.034Z" fill="white"/>
<path d="M131.489 203.958C130.446 205.128 128.394 205.293 126.587 205.267C124.222 205.24 121.822 205.042 119.494 204.683C117.999 204.459 116.259 204.014 115.808 202.843C115.599 202.286 115.738 201.702 116.121 201.201C116.363 200.812 116.781 200.476 117.232 200.225C118.276 199.668 119.597 199.5 120.85 199.335L123.249 198.666C125.44 198.61 127.804 198.583 129.717 199.474C130.378 199.78 130.97 200.281 131.386 200.812C132.15 201.785 132.359 203.011 131.489 203.958Z" fill="white"/>
<path d="M131.489 203.957C130.446 205.127 128.394 205.293 126.587 205.266C124.222 205.239 121.822 205.042 119.494 204.682C117.999 204.458 116.259 204.013 115.808 202.843C115.599 202.286 115.738 201.702 116.121 201.201C118.137 202.76 120.92 203.651 123.736 203.624C126.622 203.568 129.473 202.51 131.386 200.812C132.15 201.784 132.359 203.011 131.489 203.957Z" fill="white"/>
<path d="M111.31 207.418C109.223 209.349 105.119 209.627 101.502 209.579C96.7729 209.532 91.9734 209.211 87.3154 208.612C84.3261 208.244 80.8474 207.51 79.9423 205.576C79.5237 204.656 79.8037 203.689 80.5702 202.861C81.0567 202.218 81.891 201.667 82.796 201.251C84.8833 200.331 87.5277 200.054 90.0306 199.78L94.8301 198.677C99.2139 198.586 103.943 198.539 107.766 200.01C109.087 200.517 110.272 201.345 111.103 202.218C112.631 203.831 113.049 205.856 111.31 207.418Z" fill="white"/>
<path d="M111.31 207.418C109.223 209.349 105.119 209.626 101.502 209.579C96.7729 209.532 91.9734 209.211 87.3154 208.612C84.3261 208.244 80.8474 207.51 79.9423 205.576C79.5237 204.656 79.8037 203.689 80.5702 202.861C84.6032 205.437 90.1662 206.908 95.8 206.861C101.572 206.77 107.274 205.021 111.101 202.215C112.631 203.83 113.049 205.856 111.31 207.418Z" fill="white"/>
<path d="M119.212 106.113C116.269 107.749 112.183 107.682 108.946 107.062C107.051 106.703 98.584 100.721 98.584 100.686C91.7503 102.322 84.8194 103.433 77.8236 104.02C76.2877 104.15 74.7193 104.218 73.2806 103.628C71.8744 103.071 70.6981 101.567 70.9929 100.064C71.0578 99.704 71.2229 99.3768 71.4174 99.0495C71.842 98.3951 72.5289 97.8408 73.2158 97.4487C73.6079 97.2188 74 97.0242 74.4245 96.8591C78.1508 95.1256 82.5317 95.3556 86.6855 95.2229C91.2963 95.0608 96.4289 94.144 99.1087 90.3852C100.385 88.6193 101.105 86.2343 103.097 85.3823C105.191 84.4684 107.576 85.742 109.374 87.1482C111.14 88.5544 113.003 90.2554 115.291 90.3203C115.518 90.3203 115.715 90.3203 115.913 90.2879C117.646 90.0904 119.279 89.144 121.013 89.144C123.595 89.1116 125.099 89.9606 125.753 91.302C128.038 95.391 122.906 104.088 119.212 106.113Z" fill="white"/>
<path d="M119.212 106.114C116.269 107.75 112.183 107.682 108.946 107.063C107.051 106.703 98.584 100.722 98.584 100.686C91.7503 102.322 84.8194 103.434 77.8236 104.02C76.2877 104.15 74.7193 104.218 73.2806 103.628C71.8744 103.071 70.6981 101.568 70.9929 100.064C71.0578 99.7044 71.2229 99.3772 71.4174 99.05C80.4415 102.484 91.0988 101.6 99.3711 96.5323C100.32 95.9427 101.659 95.356 102.411 96.1402C102.77 96.5323 102.868 97.0895 103 97.5789C103.622 100.259 105.845 102.484 108.492 103.104C111.172 103.726 114.147 102.712 115.88 100.618C117.646 98.4928 118.136 95.5182 119.966 93.4575C121.405 91.8567 123.628 90.9723 125.753 91.2995C128.038 95.3914 122.906 104.088 119.212 106.114Z" fill="white"/>
<path d="M115.91 90.2908C115.453 90.7153 114.864 91.0426 114.242 91.2402C112.641 91.7296 110.875 91.3374 109.339 90.6829C107.605 89.9311 105.84 88.8197 103.976 89.2118C102.34 89.5391 101.232 90.9778 99.9876 92.0892C95.9988 95.7507 90.2766 96.5673 84.917 97.2218C81.4177 97.6463 77.7237 98.0384 74.4219 96.8621C78.1482 95.1286 82.5291 95.3586 86.6829 95.2259C91.2937 95.0638 96.4263 94.147 99.1061 90.3882C100.383 88.6223 101.102 86.2372 103.095 85.3852C105.188 84.4713 107.573 85.7449 109.371 87.1511C111.137 88.5573 113 90.2584 115.288 90.3233C115.515 90.3233 115.713 90.3233 115.91 90.2908Z" fill="white"/>
<path d="M548.576 114.254C536.969 118.012 523.959 117.328 512.81 112.293C509.54 110.822 506.271 108.959 502.706 108.894C496.07 108.699 489.629 114.616 483.45 112.196C479.885 110.79 477.76 106.506 478.806 102.812C479.231 101.309 480.148 100.032 481.356 99.0857C483.122 97.6471 485.475 96.9277 487.698 97.3198C486.849 92.3848 489.334 88.4609 493.355 85.7457C501.168 80.3507 514.77 79.5017 520.654 84.4044C525.132 88.1307 526.963 94.8022 525.003 100.294C532.391 98.3664 540.303 98.4962 547.662 100.654C547.662 100.654 547.662 100.654 547.694 100.654C548.478 100.884 549.23 101.144 549.985 101.406C551.978 102.125 554.071 103.172 555.117 104.905C555.412 105.33 555.61 105.787 555.739 106.312C556.618 110.135 552.302 113.045 548.576 114.254Z" fill="white"/>
<path d="M548.576 114.254C536.969 118.013 523.959 117.329 512.81 112.293C509.54 110.822 506.271 108.959 502.706 108.894C496.07 108.7 489.629 114.616 483.45 112.196C479.885 110.79 477.76 106.506 478.806 102.812C479.231 101.309 480.148 100.032 481.356 99.0859C481.551 99.2157 481.749 99.3483 481.946 99.5429C483.155 100.719 483.647 102.42 484.299 103.989C484.953 105.557 485.932 107.193 487.536 107.715C489.531 108.369 491.557 107.093 493.42 106.147C498.225 103.597 503.815 102.647 509.177 103.399C514.67 104.216 519.737 106.733 524.903 108.697C530.1 110.69 535.79 112.164 541.152 110.79C544.162 110.006 546.875 108.369 549.655 106.966C551.388 106.117 553.219 105.333 555.114 104.905C555.409 105.33 555.607 105.787 555.736 106.312C556.618 110.135 552.302 113.045 548.576 114.254Z" fill="white"/>
<path d="M547.658 100.654C546.547 100.949 545.335 101.014 544.224 101.046C538.207 101.144 532.16 101.276 526.143 101.373C525.359 101.406 524.542 101.406 523.823 101.079C522.417 100.392 521.96 98.5934 522.089 97.025C522.187 95.4891 522.676 93.9532 522.546 92.3818C522.284 89.1773 519.342 86.8247 516.335 85.7133C509.077 83.0984 501.034 85.7133 493.352 85.7457C501.164 80.3507 514.766 79.5017 520.651 84.4044C525.129 88.1307 526.96 94.8022 524.999 100.294C532.39 98.3664 540.303 98.4962 547.658 100.654Z" fill="white"/>
<rect y="182" width="1600" height="1101" fill="white"/>
</svg>
