<svg width="361" height="1595" viewBox="0 0 361 1595" fill="none" xmlns="http://www.w3.org/2000/svg">
<path d="M360.948 70.9277H129.393C129.433 70.5746 129.461 70.2342 129.514 69.8811C129.827 67.5855 130.397 65.3988 131.212 63.3209C135.926 51.1369 148.627 43.0277 162.862 43.5022C168.417 31.0601 182.463 23.2495 197.608 25.3009C201.235 25.7894 204.63 26.822 207.741 28.2621C216.447 9.86966 237.474 -1.58038 260.132 1.50233C275.331 3.56758 288.072 11.7312 295.87 22.9231C298.641 22.6383 301.494 22.6649 304.386 23.0585C319.287 25.082 330.616 36.017 332.912 49.1931C335.125 48.9071 337.421 48.8944 339.744 49.207C341.116 49.3968 342.433 49.6828 343.711 50.0625C353.531 52.9845 360.46 61.3923 360.948 70.9277Z" fill="white"/>
<path d="M158.219 50.6555C163.775 38.2045 177.819 30.399 192.972 32.4554C196.586 32.9464 199.986 33.9689 203.103 35.4116C211.807 17.0141 232.834 5.57161 255.493 8.64799C270.687 10.7107 283.428 18.8756 291.231 30.0725C293.994 29.7827 296.847 29.8118 299.741 30.2054C314.645 32.2289 325.971 43.1626 328.275 56.3489C330.485 56.0641 332.775 56.0452 335.106 56.3615C343.831 57.546 350.859 62.9002 354.206 69.9274H354.949C354.385 59.1506 345.624 49.8241 333.749 48.2119C331.418 47.8955 329.127 47.9145 326.918 48.1992C324.612 35.0129 313.287 24.0792 298.384 22.0557C295.489 21.6621 292.636 21.633 289.873 21.9228C282.069 10.7259 269.329 2.56231 254.135 0.498316C231.476 -2.57806 210.449 8.86312 201.745 27.2619C198.629 25.818 195.229 24.7955 191.614 24.3045C176.461 22.2468 162.417 30.0535 156.861 42.5046C140.195 41.9503 125.646 53.1573 123.511 68.8822C123.464 69.2314 123.433 69.5782 123.398 69.9262H126.816C131.71 58.0611 144.199 50.1885 158.219 50.6555Z" fill="white"/>
<path d="M354.913 71.7712C348.014 71.4485 361.828 69.6085 354.913 69.5705C354.27 60.1832 347.407 51.9475 337.709 49.0635C338.429 53.3421 336.691 58.0015 333.281 60.7185C329.477 63.7202 323.827 64.1416 319.629 61.7233C311.248 68.691 297.638 68.176 289.813 60.6097C278.336 69.9552 260.351 70.1311 248.697 60.9893C245.383 68.243 235.67 71.7332 228.499 68.257C223.785 65.9614 219.479 61.0842 214.413 62.375C210.473 63.3672 208.286 67.7546 204.524 69.2618C204.112 69.4275 203.702 69.5515 203.293 69.6439H199.743C194.762 68.6417 189.933 63.8734 184.719 62.0359C178.009 59.6859 170.742 62.389 163.761 63.6797C156.779 64.9705 147.962 63.8696 145.069 57.3777C139.093 60.8691 132.125 62.5256 125.21 62.3219C124.395 64.3998 123.825 66.5865 123.512 68.8821C123.474 69.1301 123.451 69.3731 123.426 69.6174C120.65 69.6844 117.878 69.8059 115.119 70.0362C114.358 70.0995 114.375 71.3182 115.136 71.3827C123.561 72.0888 132.101 71.7649 140.55 71.7712C149.038 71.7775 157.526 71.7712 166.013 71.7712H347.367C356.801 71.7712 345.488 72.2116 354.913 71.7712C341.264 71.3599 355.65 71.737 354.913 71.7712Z" fill="white"/>
<rect x="0.71875" y="70" width="360" height="1496" fill="white"/>
<path d="M358.892 1563.71C358.933 1567.47 350.11 1570.61 339.199 1570.73C334.757 1570.78 330.672 1570.32 327.366 1569.5C325.364 1570.39 323.064 1570.9 320.606 1570.93C318.077 1570.96 315.711 1570.47 313.661 1569.58C313.471 1570.1 313.239 1570.61 312.951 1571.08C310.635 1575.19 305.428 1578.08 299.351 1578.15C293.022 1578.22 287.583 1575.21 285.314 1570.89C283.878 1571.18 282.399 1571.35 280.862 1571.37C278.697 1571.39 276.64 1571.12 274.707 1570.62C270.356 1577.77 261.162 1582.76 250.419 1582.88C242.792 1582.96 235.864 1580.56 230.889 1576.64C227.769 1581.34 221.545 1584.59 214.323 1584.67C208.875 1584.73 203.951 1582.95 200.483 1580.09C194.526 1587.3 184.254 1592.13 172.52 1592.25C163.328 1592.36 154.97 1589.56 148.842 1584.93C144.222 1587.88 138.374 1589.7 131.962 1589.77C120.59 1589.89 110.808 1584.52 106.657 1576.78C104.514 1576.26 102.549 1575.46 100.805 1574.42C97.5701 1578.83 91.5674 1581.83 84.6385 1581.9C76.4383 1581.99 69.4362 1577.95 66.7889 1572.23C64.3266 1573.21 61.5665 1573.77 58.6328 1573.8C52.4163 1573.87 46.9004 1571.57 43.424 1567.98C40.8893 1569.99 37.3963 1571.24 33.5267 1571.29C30.9143 1571.31 28.4775 1570.78 26.3715 1569.84C25.1012 1569.94 23.8024 1569.99 22.4613 1570.01C17.7675 1570.06 13.4588 1569.55 10.0678 1568.65C5.54186 1567.44 2.64312 1565.56 2.61968 1563.42C2.58138 1559.93 10.2331 1556.97 20.1055 1556.48C22.0568 1552.23 27.1923 1549.14 33.2831 1549.07C36.6917 1549.04 39.8313 1549.95 42.2933 1551.5C45.5023 1547.28 51.3106 1544.39 58.0012 1544.23C57.9857 1544.09 57.9703 1543.97 57.969 1543.84C57.8974 1537.32 64.5729 1531.96 72.8709 1531.87C76.9221 1531.83 80.6099 1533.05 83.3284 1535.06C86.2323 1533.59 89.6595 1532.7 93.3614 1532.65C97.5104 1532.61 101.35 1533.63 104.47 1535.37C109.822 1526.48 121.294 1520.25 134.635 1520.1C135.04 1520.1 135.445 1520.11 135.85 1520.12C138.509 1507.71 152.166 1498.14 168.748 1497.96C185.581 1497.78 199.629 1507.33 202.255 1519.98C210.904 1521.35 218.338 1525.32 223.163 1530.83C226.254 1529.83 229.628 1529.25 233.163 1529.21C240.636 1529.13 247.424 1531.43 252.383 1535.2C255.763 1532.51 260.425 1530.82 265.593 1530.77C274.534 1530.67 282.047 1535.48 284.061 1542.01C286.664 1542.37 289.075 1543.14 291.183 1544.23C293.656 1540.42 298.657 1537.78 304.454 1537.72C312.5 1537.63 319.107 1542.53 319.58 1548.76C319.845 1548.74 320.097 1548.72 320.362 1548.72C327.179 1548.64 332.907 1552.37 334.303 1557.38C335.824 1557.24 337.402 1557.15 339.05 1557.13C349.961 1557.02 358.851 1559.96 358.892 1563.71Z" fill="white"/>
<path d="M126.73 1481.77C126.73 1481.91 126.588 1482.04 126.36 1482.13C126.153 1482.21 125.877 1482.26 125.573 1482.26C125.558 1482.26 125.545 1482.26 125.53 1482.26C124.91 1482.25 124.416 1482.04 124.416 1481.77C124.416 1481.71 124.441 1481.65 124.487 1481.6C124.576 1481.49 124.742 1481.41 124.955 1481.35C125.133 1481.3 125.345 1481.27 125.573 1481.27C126.212 1481.27 126.73 1481.49 126.73 1481.77Z" fill="white"/>
<path d="M126.73 1481.77C126.73 1481.91 126.588 1482.04 126.36 1482.13C126.271 1481.92 126.124 1481.73 125.935 1481.61C125.654 1481.41 125.289 1481.34 124.958 1481.42L124.955 1481.35C125.134 1481.3 125.345 1481.27 125.573 1481.27C126.213 1481.27 126.73 1481.49 126.73 1481.77Z" fill="white"/>
<path d="M125.53 1482.26C124.91 1482.25 124.416 1482.04 124.416 1481.77C124.416 1481.71 124.441 1481.65 124.487 1481.6C124.476 1481.71 124.527 1481.83 124.606 1481.91C124.709 1482.01 124.849 1482.07 124.989 1482.12C125.166 1482.18 125.346 1482.23 125.53 1482.26Z" fill="white"/>
<path d="M86.9017 1485.07C86.9017 1485.22 86.7595 1485.34 86.5314 1485.43C86.3249 1485.52 86.0489 1485.57 85.7448 1485.57C85.7299 1485.57 85.7167 1485.57 85.7018 1485.57C85.082 1485.56 84.5879 1485.34 84.5879 1485.07C84.5879 1485.01 84.6127 1484.95 84.659 1484.9C84.7482 1484.8 84.9135 1484.71 85.1267 1484.65C85.3052 1484.6 85.5167 1484.58 85.7448 1484.58C86.3844 1484.58 86.9017 1484.8 86.9017 1485.07Z" fill="white"/>
<path d="M86.9019 1485.07C86.9019 1485.22 86.7598 1485.34 86.5317 1485.43C86.4425 1485.22 86.2954 1485.04 86.107 1484.91C85.826 1484.71 85.4608 1484.65 85.1303 1484.73L85.127 1484.65C85.3054 1484.6 85.517 1484.58 85.7451 1484.58C86.3846 1484.58 86.9019 1484.8 86.9019 1485.07Z" fill="white"/>
<path d="M85.7018 1485.57C85.082 1485.56 84.5879 1485.34 84.5879 1485.07C84.5879 1485.01 84.6127 1484.95 84.659 1484.9C84.6474 1485.01 84.6986 1485.13 84.7779 1485.21C84.8804 1485.32 85.0209 1485.38 85.1614 1485.42C85.3382 1485.49 85.5184 1485.53 85.7018 1485.57Z" fill="white"/>
<path d="M90.0408 1480.19C90.0408 1480.31 89.8783 1480.42 89.6177 1480.5C89.3815 1480.57 89.0662 1480.61 88.7186 1480.61C88.7016 1480.61 88.6866 1480.61 88.6695 1480.61C87.9612 1480.6 87.3965 1480.42 87.3965 1480.19C87.3965 1480.14 87.4247 1480.09 87.4776 1480.05C87.5796 1479.96 87.7685 1479.89 88.0121 1479.84C88.2161 1479.8 88.4578 1479.77 88.7185 1479.77C89.4496 1479.77 90.0408 1479.96 90.0408 1480.19Z" fill="white"/>
<path d="M90.0402 1480.19C90.0402 1480.31 89.8778 1480.42 89.6171 1480.5C89.5152 1480.32 89.3471 1480.16 89.1317 1480.06C88.8106 1479.89 88.3933 1479.83 88.0155 1479.9L88.0117 1479.84C88.2157 1479.8 88.4574 1479.77 88.7181 1479.77C89.4491 1479.77 90.0402 1479.96 90.0402 1480.19Z" fill="white"/>
<path d="M88.6695 1480.61C87.9612 1480.6 87.3965 1480.42 87.3965 1480.19C87.3965 1480.14 87.4247 1480.09 87.4776 1480.05C87.4644 1480.14 87.5229 1480.24 87.6136 1480.31C87.7308 1480.4 87.8913 1480.45 88.0518 1480.49C88.2539 1480.54 88.4598 1480.58 88.6695 1480.61Z" fill="white"/>
<path d="M99.2965 1477.63C99.2965 1477.73 99.1663 1477.81 98.9572 1477.87C98.7678 1477.93 98.5148 1477.96 98.2361 1477.96C98.2224 1477.96 98.2104 1477.96 98.1968 1477.96C97.6286 1477.96 97.1758 1477.81 97.1758 1477.63C97.1758 1477.59 97.1984 1477.55 97.2409 1477.51C97.3227 1477.44 97.4743 1477.39 97.6696 1477.35C97.8332 1477.31 98.0272 1477.29 98.2361 1477.29C98.8224 1477.29 99.2965 1477.44 99.2965 1477.63Z" fill="white"/>
<path d="M99.2968 1477.63C99.2968 1477.73 99.1666 1477.81 98.9575 1477.87C98.8757 1477.73 98.7409 1477.61 98.5682 1477.52C98.3107 1477.39 97.9758 1477.34 97.6729 1477.4L97.6699 1477.35C97.8335 1477.31 98.0276 1477.29 98.2365 1477.29C98.8227 1477.29 99.2968 1477.44 99.2968 1477.63Z" fill="white"/>
<path d="M98.1968 1477.96C97.6286 1477.96 97.1758 1477.81 97.1758 1477.63C97.1758 1477.59 97.1984 1477.55 97.2409 1477.51C97.2303 1477.59 97.2773 1477.67 97.35 1477.73C97.4438 1477.8 97.5728 1477.84 97.7015 1477.87C97.8635 1477.91 98.0286 1477.94 98.1968 1477.96Z" fill="white"/>
<path d="M122.032 1479.76C121.981 1479.79 121.925 1479.82 121.865 1479.84C121.601 1479.91 121.318 1479.83 121.055 1479.75C120.907 1480.13 120.407 1480.32 120.047 1480.13C119.855 1480.03 119.694 1479.85 119.479 1479.84C119.313 1479.84 119.171 1479.95 119.021 1480.02C118.69 1480.16 118.274 1480.06 118.039 1479.79C117.849 1479.57 117.79 1479.25 117.872 1478.97C117.89 1478.91 117.917 1478.84 117.953 1478.79C118.152 1478.46 118.555 1478.38 118.885 1478.24H118.887C118.89 1478.24 118.895 1478.24 118.899 1478.23C119.275 1478.07 119.66 1477.99 120.054 1478.16C120.427 1478.33 120.707 1478.69 120.771 1479.09C121.083 1478.89 121.48 1478.83 121.839 1478.93C122.002 1478.97 122.169 1479.06 122.239 1479.21C122.245 1479.23 122.25 1479.24 122.255 1479.26C122.306 1479.44 122.197 1479.64 122.032 1479.76Z" fill="white"/>
<path d="M122.255 1479.26H122.253C122.157 1479.25 122.066 1479.21 121.974 1479.18C121.605 1479.07 121.196 1479.1 120.847 1479.26C120.81 1479.28 120.771 1479.3 120.733 1479.28C120.685 1479.26 120.675 1479.2 120.667 1479.15C120.619 1478.84 120.404 1478.57 120.134 1478.42C119.865 1478.26 119.544 1478.2 119.234 1478.21C119.116 1478.21 119.001 1478.22 118.887 1478.24C118.89 1478.24 118.895 1478.24 118.898 1478.23C119.275 1478.07 119.66 1477.99 120.054 1478.16C120.427 1478.33 120.706 1478.69 120.771 1479.09C121.083 1478.89 121.48 1478.83 121.838 1478.93C122.002 1478.97 122.169 1479.06 122.238 1479.21C122.245 1479.23 122.25 1479.24 122.255 1479.26Z" fill="white"/>
<path d="M122.032 1479.76C121.981 1479.79 121.925 1479.82 121.865 1479.84C121.601 1479.91 121.318 1479.83 121.055 1479.75C120.907 1480.13 120.407 1480.32 120.047 1480.13C119.855 1480.03 119.694 1479.85 119.479 1479.84C119.313 1479.84 119.171 1479.95 119.021 1480.02C118.69 1480.16 118.274 1480.06 118.039 1479.79C117.849 1479.57 117.79 1479.25 117.872 1478.97C117.933 1478.99 117.99 1479.03 118.033 1479.08C118.14 1479.2 118.163 1479.39 118.295 1479.48C118.403 1479.55 118.55 1479.54 118.666 1479.48C118.781 1479.42 118.877 1479.33 118.98 1479.26C119.084 1479.18 119.203 1479.11 119.332 1479.11C119.527 1479.12 119.684 1479.27 119.796 1479.43C119.907 1479.6 120.004 1479.78 120.173 1479.88C120.33 1479.97 120.54 1479.97 120.7 1479.88C120.86 1479.79 120.966 1479.61 120.968 1479.43C121.262 1479.67 121.654 1479.79 122.032 1479.76Z" fill="white"/>
<path d="M125.409 1485.49C125.439 1485.48 125.469 1485.48 125.499 1485.47C125.804 1485.44 126.2 1485.56 126.48 1485.76C126.566 1485.61 126.792 1485.53 127.057 1485.55C127.321 1485.58 127.613 1485.71 127.802 1485.89C127.974 1486.05 128.07 1486.26 128.297 1486.39C128.562 1486.54 128.874 1486.51 129.161 1486.61C129.356 1486.68 129.532 1486.82 129.609 1486.97C129.62 1486.99 129.628 1487 129.635 1487.02C129.693 1487.19 129.603 1487.34 129.416 1487.38C128.994 1487.47 128.38 1487.04 127.922 1487.05C127.896 1487.05 127.871 1487.05 127.845 1487.06C127.65 1487.09 127.49 1487.21 127.269 1487.13C127.054 1487.04 126.935 1486.81 126.717 1486.77C126.54 1486.74 126.446 1486.86 126.301 1486.88C126.158 1486.9 125.938 1486.88 125.774 1486.81C125.454 1486.67 125.111 1486.32 125.031 1486.08C125.009 1486.02 125 1485.95 125.006 1485.89C125.019 1485.7 125.169 1485.54 125.409 1485.49Z" fill="white"/>
<path d="M125.005 1486.3C125.009 1486.31 125.013 1486.32 125.02 1486.33C125.103 1486.47 125.259 1486.61 125.44 1486.73C125.573 1486.81 125.729 1486.89 125.889 1486.92C126.062 1486.95 126.208 1486.91 126.354 1486.89C126.502 1486.86 126.684 1486.86 126.847 1486.94C127.044 1487.03 127.145 1487.22 127.359 1487.28C127.502 1487.32 127.629 1487.27 127.772 1487.3C127.809 1487.31 127.847 1487.33 127.878 1487.35C127.853 1487.35 127.828 1487.35 127.802 1487.35C127.61 1487.38 127.452 1487.49 127.235 1487.41C127.022 1487.33 126.905 1487.12 126.691 1487.09C126.517 1487.06 126.424 1487.16 126.281 1487.18C126.14 1487.2 125.922 1487.18 125.761 1487.11C125.446 1486.99 125.108 1486.67 125.029 1486.47C125.007 1486.41 124.999 1486.35 125.005 1486.3Z" fill="white"/>
<path d="M125.586 1485.34C125.885 1485.31 126.272 1485.41 126.546 1485.59C126.631 1485.46 126.853 1485.39 127.112 1485.42C127.371 1485.44 127.657 1485.55 127.841 1485.7C128.01 1485.84 128.104 1486.01 128.325 1486.12C128.584 1486.24 128.89 1486.22 129.171 1486.31C129.363 1486.37 129.535 1486.48 129.61 1486.6C129.519 1486.57 129.422 1486.54 129.329 1486.52C129.106 1486.48 128.887 1486.47 128.666 1486.41C128.424 1486.35 128.189 1486.24 128.013 1486.1C127.894 1486.01 127.804 1485.91 127.683 1485.82C127.562 1485.73 127.391 1485.64 127.232 1485.63C127.083 1485.62 126.986 1485.68 126.887 1485.73C126.789 1485.78 126.651 1485.82 126.498 1485.77C126.384 1485.74 126.298 1485.66 126.206 1485.6C126.083 1485.52 125.935 1485.45 125.781 1485.41C125.713 1485.39 125.641 1485.37 125.586 1485.34Z" fill="white"/>
<path d="M251.199 72.5361C251.199 72.997 251.042 73.4346 250.773 73.862H30.0039C29.779 73.6372 29.5653 73.4244 29.3637 73.1773C29.0943 73.4244 28.8015 73.6493 28.4987 73.862H7.50448C3.43772 72.9069 0.708984 71.1657 0.708984 69.1673C0.708984 68.8644 0.765708 68.5717 0.888268 68.2911C1.47271 66.865 3.46101 65.6292 6.26875 64.8088C7.43662 64.4492 8.75135 64.1798 10.1775 63.9883C11.0992 63.8648 12.0534 63.7858 13.0531 63.7412C14.457 60.3267 18.0963 57.8998 22.3768 57.8998C24.7804 57.8998 26.9824 58.6636 28.7003 59.9327C30.9914 56.5517 35.0916 54.2828 39.7874 54.2149C39.7874 54.1137 39.7762 54.0124 39.7762 53.9121C39.7762 48.6663 44.5054 44.4203 50.3458 44.4203C53.1991 44.4203 55.7708 45.4311 57.67 47.071C59.7251 45.9031 62.1409 45.2174 64.7471 45.2174C68.2517 45.2174 71.419 46.4531 73.7891 48.4414C78.0686 44.6107 83.9657 42.2405 90.4917 42.2405C91.9179 42.2405 93.3116 42.3752 94.6598 42.589C94.4684 41.4991 94.3448 40.3879 94.3448 39.2525C94.3448 27.5141 104.938 18 118.012 18C129.852 18 139.624 25.8064 141.376 35.9839C147.454 37.1629 152.665 40.4214 156.024 44.9024C158.203 44.1275 160.573 43.689 163.066 43.689C168.323 43.689 173.075 45.5871 176.535 48.6653C178.927 46.5423 182.218 45.2164 185.859 45.2164C192.137 45.2164 197.394 49.1596 198.754 54.4276C200.573 54.7305 202.269 55.3717 203.741 56.2812C205.505 53.2375 209.043 51.159 213.132 51.159C218.793 51.159 223.398 55.1468 223.679 60.1677C223.858 60.1566 224.039 60.1454 224.218 60.1454C228.744 60.1454 232.553 62.8529 233.765 66.5591C233.844 66.7728 233.9 67.0088 233.957 67.2326C235.024 67.1313 236.148 67.0645 237.293 67.0645C244.976 67.0655 251.199 69.5147 251.199 72.5361Z" fill="white"/>
<path d="M6.26875 67.0546C7.43662 66.695 8.75135 66.4256 10.1775 66.2341C11.0992 66.1106 12.0534 66.0316 13.0531 65.987C14.457 62.5726 18.0963 60.1457 22.3768 60.1457C24.7804 60.1457 26.9824 60.9094 28.7003 62.1785C30.9914 58.7975 35.0916 56.5286 39.7874 56.4608C39.7874 56.3595 39.7762 56.2582 39.7762 56.1579C39.7762 50.9121 44.5054 46.6661 50.3458 46.6661C53.1991 46.6661 55.7708 47.677 57.67 49.3168C59.7251 48.149 62.1409 47.4632 64.7471 47.4632C68.2517 47.4632 71.419 48.699 73.7891 50.6873C78.0686 46.8565 83.9657 44.4863 90.4917 44.4863C91.9179 44.4863 93.3116 44.6211 94.6598 44.8348C94.5291 44.0873 94.4481 43.3246 94.3985 42.5558C93.1303 42.3654 91.8277 42.2397 90.4917 42.2397C83.9657 42.2397 78.0686 44.6099 73.7891 48.4407C71.419 46.4524 68.2517 45.2166 64.7471 45.2166C62.1409 45.2166 59.7262 45.9014 57.67 47.0702C55.7718 45.4304 53.1991 44.4195 50.3458 44.4195C44.5044 44.4195 39.7762 48.6655 39.7762 53.9113C39.7762 54.0126 39.7874 54.1139 39.7874 54.2141C35.0916 54.281 30.9924 56.5509 28.7003 59.9319C26.9824 58.6628 24.7804 57.899 22.3768 57.899C18.0973 57.899 14.458 60.3249 13.0531 63.7404C12.0534 63.785 11.0982 63.864 10.1775 63.9876C8.75135 64.179 7.43662 64.4484 6.26875 64.808C3.46101 65.6284 1.47271 66.8631 0.888268 68.2903C0.764695 68.5709 0.708984 68.8636 0.708984 69.1665C0.708984 69.5575 0.816353 69.9373 1.01387 70.3039C1.71074 68.9771 3.61599 67.8294 6.26875 67.0546Z" fill="white"/>
<path d="M118.011 20.248C129.851 20.248 139.623 28.0544 141.375 38.232C147.453 39.411 152.664 42.6684 156.023 47.1505C158.202 46.3756 160.572 45.937 163.065 45.937C168.322 45.937 173.074 47.8352 176.534 50.9133C178.926 48.7903 182.217 47.4645 185.858 47.4645C192.136 47.4645 197.393 51.4077 198.753 56.6757C200.572 56.9786 202.268 57.6197 203.74 58.5293C205.504 55.4856 209.042 53.4071 213.131 53.4071C218.792 53.4071 223.397 57.3949 223.678 62.4158C223.857 62.4046 224.038 62.3935 224.217 62.3935C228.743 62.3935 232.552 65.1009 233.764 68.8071C233.843 69.0208 233.899 69.2558 233.956 69.4807C235.023 69.3794 236.147 69.3125 237.292 69.3125C243.969 69.3125 249.538 71.1631 250.883 73.6305C251.071 73.276 251.198 72.9154 251.198 72.5366C251.198 69.5151 244.975 67.066 237.292 67.066C236.147 67.066 235.023 67.1328 233.956 67.2341C233.9 67.0092 233.843 66.7732 233.764 66.5605C232.551 62.8533 228.743 60.1469 224.217 60.1469C224.038 60.1469 223.857 60.158 223.678 60.1692C223.397 55.1483 218.792 51.1605 213.131 51.1605C209.042 51.1605 205.504 53.239 203.74 56.2827C202.268 55.3731 200.573 54.733 198.753 54.4291C197.393 49.1611 192.136 45.2179 185.858 45.2179C182.218 45.2179 178.926 46.5437 176.534 48.6668C173.074 45.5886 168.322 43.6904 163.065 43.6904C160.572 43.6904 158.202 44.128 156.023 44.9039C152.664 40.4218 147.453 37.1644 141.375 35.9854C139.623 25.8088 129.851 18.0015 118.011 18.0015C104.937 18.0015 94.3438 27.5156 94.3438 39.254C94.3438 39.651 94.3762 40.042 94.4035 40.433C95.0264 29.1939 105.338 20.248 118.011 20.248Z" fill="white"/>
<path d="M237.293 67.0659C236.148 67.0659 235.025 67.1327 233.957 67.234C233.901 67.0091 233.845 66.7731 233.766 66.5604C228.857 71.402 220.579 72.9072 214.58 69.3013C209.93 71.3231 204.134 70.3689 200.37 66.9646C194.54 71.2106 185.701 70.6373 180.477 65.662C171.817 70.93 159.697 69.6275 152.361 62.6294C146.621 68.5042 136.377 69.2 129.895 64.1568C123.639 67.4254 115.698 67.2117 109.62 63.6068C101.971 69.1555 91.8057 69.3692 82.3473 69.358C72.3723 69.3469 62.3862 69.3469 52.4011 69.3358C38.6086 69.3206 24.8454 68.881 11.0609 68.7047C7.59382 68.6601 14.0637 71.9399 11.0605 73.8634C11.0038 73.9394 11.1156 68.6277 11.0609 68.7047C12.167 69.8898 4.78405 73.2243 7.50468 73.8634H28.4989C28.8017 73.6497 29.0945 73.4258 29.3639 73.1787C29.5665 73.4258 29.7792 73.6395 30.004 73.8634H250.773C251.042 73.437 251.199 72.9984 251.199 72.5375C251.199 69.515 244.976 67.0659 237.293 67.0659Z" fill="white"/>
<path d="M205.876 71.003C205.226 71.5594 203.95 71.6382 202.824 71.6251C201.352 71.6119 199.859 71.5188 198.409 71.3468C197.479 71.2406 196.397 71.0292 196.115 70.4728C195.985 70.2077 196.072 69.9294 196.31 69.6918C196.46 69.5067 196.721 69.3479 197.002 69.2285C197.652 68.9634 198.475 68.8846 199.253 68.8046L200.746 68.487C202.109 68.4607 203.582 68.4476 204.771 68.8715C205.182 69.0172 205.551 69.256 205.81 69.5067C206.286 69.97 206.417 70.5528 205.876 71.003Z" fill="white"/>
<path d="M205.876 71.0031C205.226 71.5595 203.95 71.6383 202.824 71.6252C201.352 71.6121 199.859 71.5189 198.409 71.347C197.479 71.2407 196.397 71.0293 196.115 70.4729C195.985 70.2078 196.072 69.9295 196.31 69.6919C197.565 70.4335 199.296 70.8574 201.049 70.8443C202.846 70.818 204.621 70.314 205.81 69.5068C206.286 69.9701 206.417 70.5529 205.876 71.0031Z" fill="white"/>
<path d="M193.946 58.1259C189.245 59.6484 183.975 59.3713 179.459 57.3318C178.135 56.736 176.811 55.9813 175.367 55.955C172.679 55.8762 170.07 58.2728 167.567 57.2924C166.123 56.7229 165.262 54.9878 165.686 53.4916C165.858 52.8826 166.23 52.3656 166.719 51.9823C167.435 51.3995 168.387 51.1082 169.288 51.267C168.944 49.2681 169.951 47.6787 171.579 46.579C174.744 44.3938 180.253 44.0499 182.637 46.0357C184.45 47.545 185.192 50.2472 184.398 52.4718C187.39 51.6909 190.595 51.7435 193.576 52.6175C193.576 52.6175 193.576 52.6175 193.589 52.6175C193.907 52.7107 194.211 52.8158 194.517 52.922C195.324 53.2134 196.172 53.6373 196.596 54.3394C196.715 54.5114 196.795 54.6965 196.848 54.909C197.203 56.4578 195.455 57.6363 193.946 58.1259Z" fill="white"/>
<path d="M193.946 58.1261C189.245 59.6486 183.975 59.3715 179.459 57.332C178.135 56.7361 176.811 55.9815 175.367 55.9552C172.679 55.8764 170.07 58.273 167.567 57.2926C166.123 56.723 165.262 54.988 165.686 53.4918C165.858 52.8828 166.23 52.3657 166.719 51.9824C166.798 52.035 166.878 52.0887 166.958 52.1675C167.448 52.644 167.647 53.3329 167.911 53.9682C168.176 54.6035 168.573 55.2662 169.222 55.4775C170.031 55.7426 170.851 55.2256 171.606 54.8423C173.552 53.8094 175.816 53.4249 177.988 53.7294C180.213 54.0602 182.265 55.0799 184.357 55.8752C186.463 56.6824 188.767 57.2794 190.939 56.723C192.158 56.4054 193.257 55.7426 194.383 55.1743C195.085 54.8303 195.827 54.5127 196.594 54.3396C196.714 54.5115 196.794 54.6966 196.846 54.9092C197.203 56.4579 195.455 57.6365 193.946 58.1261Z" fill="white"/>
<path d="M193.575 52.6175C193.124 52.7369 192.634 52.7632 192.183 52.7763C189.746 52.8157 187.297 52.8695 184.86 52.9089C184.542 52.922 184.212 52.922 183.92 52.7895C183.351 52.5112 183.166 51.7828 183.218 51.1476C183.258 50.5255 183.456 49.9033 183.403 49.2669C183.297 47.9689 182.105 47.016 180.887 46.5659C177.947 45.5067 174.69 46.5658 171.578 46.579C174.742 44.3938 180.252 44.0499 182.635 46.0357C184.449 47.545 185.191 50.2472 184.397 52.4718C187.39 51.6909 190.595 51.7435 193.575 52.6175Z" fill="white"/>
</svg>
