<svg width="137" height="191" viewBox="0 0 137 191" fill="none" xmlns="http://www.w3.org/2000/svg">
<path d="M7.112 18.16C6.12 18.16 5.208 17.9147 4.376 17.424C3.55467 16.9333 2.904 16.2507 2.424 15.376C1.944 14.5013 1.704 13.5093 1.704 12.4C1.704 11.2907 1.944 10.2987 2.424 9.424C2.904 8.54933 3.55467 7.86667 4.376 7.376C5.208 6.88533 6.12 6.64 7.112 6.64C8.01867 6.64 8.824 6.83733 9.528 7.232C10.2427 7.616 10.8187 8.12267 11.256 8.752C11.704 9.37067 12.008 10.0373 12.168 10.752H10.056C9.87467 10.1653 9.52267 9.66933 9 9.264C8.488 8.848 7.85867 8.64 7.112 8.64C6.504 8.64 5.944 8.8 5.432 9.12C4.92 9.42933 4.51467 9.872 4.216 10.448C3.928 11.0133 3.784 11.664 3.784 12.4C3.784 13.136 3.928 13.792 4.216 14.368C4.51467 14.9333 4.92 15.376 5.432 15.696C5.944 16.0053 6.504 16.16 7.112 16.16C7.88 16.16 8.52 15.952 9.032 15.536C9.544 15.1093 9.88533 14.5867 10.056 13.968H12.168C12.0187 14.6933 11.7253 15.376 11.288 16.016C10.8507 16.656 10.2747 17.1733 9.56 17.568C8.856 17.9627 8.04 18.16 7.112 18.16ZM18.7995 18.16C17.8075 18.16 16.8955 17.9147 16.0635 17.424C15.2422 16.9333 14.5915 16.2507 14.1115 15.376C13.6315 14.5013 13.3915 13.5093 13.3915 12.4C13.3915 11.2907 13.6315 10.2987 14.1115 9.424C14.5915 8.54933 15.2422 7.86667 16.0635 7.376C16.8955 6.88533 17.8075 6.64 18.7995 6.64C19.7915 6.64 20.6982 6.88533 21.5195 7.376C22.3515 7.86667 23.0075 8.54933 23.4875 9.424C23.9675 10.2987 24.2075 11.2907 24.2075 12.4C24.2075 13.5093 23.9675 14.5013 23.4875 15.376C23.0075 16.2507 22.3515 16.9333 21.5195 17.424C20.6982 17.9147 19.7915 18.16 18.7995 18.16ZM18.7995 16.16C19.4075 16.16 19.9675 16.0053 20.4795 15.696C20.9915 15.376 21.3915 14.9333 21.6795 14.368C21.9782 13.792 22.1275 13.136 22.1275 12.4C22.1275 11.664 21.9782 11.0133 21.6795 10.448C21.3915 9.872 20.9915 9.42933 20.4795 9.12C19.9675 8.8 19.4075 8.64 18.7995 8.64C18.1915 8.64 17.6315 8.8 17.1195 9.12C16.6075 9.42933 16.2022 9.872 15.9035 10.448C15.6155 11.0133 15.4715 11.664 15.4715 12.4C15.4715 13.136 15.6155 13.792 15.9035 14.368C16.2022 14.9333 16.6075 15.376 17.1195 15.696C17.6315 16.0053 18.1915 16.16 18.7995 16.16ZM28.1703 18H26.0903V6.8H28.8423L32.9383 14.624H33.2583V6.8H35.3383V18H32.5703L28.4903 10.176H28.1703V18ZM42.2756 18H40.1956V8.8H36.8676V6.8H45.6036V8.8H42.2756V18ZM55.944 18H53.688L52.84 15.52H48.056L47.208 18H44.952L48.936 6.8H51.96L55.944 18ZM50.296 9.008L48.696 13.664H52.2L50.616 9.008H50.296ZM61.6901 18.16C60.6981 18.16 59.7861 17.9147 58.9541 17.424C58.1328 16.9333 57.4821 16.2507 57.0021 15.376C56.5221 14.5013 56.2821 13.5093 56.2821 12.4C56.2821 11.2907 56.5221 10.2987 57.0021 9.424C57.4821 8.54933 58.1328 7.86667 58.9541 7.376C59.7861 6.88533 60.6981 6.64 61.6901 6.64C62.5968 6.64 63.4021 6.83733 64.1061 7.232C64.8208 7.616 65.3968 8.12267 65.8341 8.752C66.2821 9.37067 66.5861 10.0373 66.7461 10.752H64.6341C64.4528 10.1653 64.1008 9.66933 63.5781 9.264C63.0661 8.848 62.4368 8.64 61.6901 8.64C61.0821 8.64 60.5221 8.8 60.0101 9.12C59.4981 9.42933 59.0928 9.872 58.7941 10.448C58.5061 11.0133 58.3621 11.664 58.3621 12.4C58.3621 13.136 58.5061 13.792 58.7941 14.368C59.0928 14.9333 59.4981 15.376 60.0101 15.696C60.5221 16.0053 61.0821 16.16 61.6901 16.16C62.4581 16.16 63.0981 15.952 63.6101 15.536C64.1221 15.1093 64.4635 14.5867 64.6341 13.968H66.7461C66.5968 14.6933 66.3035 15.376 65.8661 16.016C65.4288 16.656 64.8528 17.1733 64.1381 17.568C63.4341 17.9627 62.6181 18.16 61.6901 18.16ZM72.7131 18H70.6331V8.8H67.3051V6.8H76.0411V8.8H72.7131V18ZM85.4921 18.16C84.5961 18.16 83.7961 17.968 83.0921 17.584C82.3988 17.2 81.8601 16.6507 81.4761 15.936C81.0921 15.2213 80.9001 14.3947 80.9001 13.456V6.8H82.9801V13.456C82.9801 13.9787 83.0868 14.448 83.3001 14.864C83.5241 15.2693 83.8281 15.5893 84.2121 15.824C84.5961 16.048 85.0228 16.16 85.4921 16.16C85.9615 16.16 86.3881 16.048 86.7721 15.824C87.1561 15.5893 87.4601 15.2693 87.6841 14.864C87.9081 14.448 88.0201 13.9787 88.0201 13.456V6.8H90.1001V13.456C90.1001 14.3947 89.9081 15.2213 89.5241 15.936C89.1401 16.6507 88.5961 17.2 87.8921 17.584C87.1988 17.968 86.3988 18.16 85.4921 18.16ZM96.2279 18.16C95.3105 18.16 94.5105 18 93.8279 17.68C93.1559 17.3493 92.6385 16.9067 92.2759 16.352C91.9239 15.7867 91.7479 15.1573 91.7479 14.464H93.8279C93.8279 14.9973 94.0359 15.44 94.4519 15.792C94.8785 16.1333 95.4705 16.304 96.2279 16.304C96.9852 16.304 97.5505 16.1653 97.9239 15.888C98.2972 15.6107 98.4839 15.2533 98.4839 14.816C98.4839 14.4427 98.3452 14.1387 98.0679 13.904C97.7905 13.6587 97.3532 13.4827 96.7559 13.376L94.8519 13.024C93.8812 12.8427 93.1612 12.5067 92.6919 12.016C92.2225 11.5147 91.9879 10.8373 91.9879 9.984C91.9879 9.35467 92.1479 8.78933 92.4679 8.288C92.7985 7.776 93.2679 7.376 93.8759 7.088C94.4945 6.78933 95.2252 6.64 96.0679 6.64C96.9852 6.64 97.7745 6.8 98.4359 7.12C99.1079 7.42933 99.6145 7.86667 99.9559 8.432C100.308 8.98667 100.484 9.62133 100.484 10.336H98.4039C98.4039 9.824 98.1905 9.392 97.7639 9.04C97.3479 8.67733 96.7825 8.496 96.0679 8.496C95.4279 8.496 94.9319 8.64 94.5799 8.928C94.2385 9.20533 94.0679 9.55733 94.0679 9.984C94.0679 10.336 94.1852 10.6187 94.4199 10.832C94.6652 11.0347 95.0599 11.1893 95.6039 11.296L97.3639 11.616C98.4839 11.8187 99.2945 12.176 99.7959 12.688C100.308 13.1893 100.564 13.8987 100.564 14.816C100.564 15.456 100.399 16.032 100.068 16.544C99.7372 17.0453 99.2412 17.44 98.5799 17.728C97.9292 18.016 97.1452 18.16 96.2279 18.16Z" fill="white"/>
<path d="M3.56 58H2.28V46.8H3.56V52.08L8.28 46.8H9.88L4.92 52.32L10.2 58H8.584L3.56 52.56V58ZM13.475 58.16C12.643 58.16 11.9657 57.9307 11.443 57.472C10.931 57.0027 10.675 56.4053 10.675 55.68C10.675 54.88 10.9363 54.256 11.459 53.808C11.9923 53.3493 12.7977 53.12 13.875 53.12H16.035V52.88C16.035 52.2827 15.8643 51.8133 15.523 51.472C15.1817 51.1307 14.7123 50.96 14.115 50.96C13.539 50.96 13.0697 51.0933 12.707 51.36C12.355 51.616 12.1577 51.936 12.115 52.32H10.915C10.947 51.8827 11.091 51.4773 11.347 51.104C11.603 50.72 11.9657 50.416 12.435 50.192C12.915 49.9573 13.475 49.84 14.115 49.84C15.0857 49.84 15.8483 50.112 16.403 50.656C16.9577 51.1893 17.235 51.9307 17.235 52.88V58H16.195L16.035 57.04H15.955C15.7737 57.328 15.459 57.5893 15.011 57.824C14.5737 58.048 14.0617 58.16 13.475 58.16ZM13.475 57.04C14.275 57.04 14.899 56.8213 15.347 56.384C15.8057 55.936 16.035 55.328 16.035 54.56V54.24H13.875C13.1923 54.24 12.6857 54.3733 12.355 54.64C12.035 54.9067 11.875 55.2533 11.875 55.68C11.875 56.0853 12.0137 56.416 12.291 56.672C12.5683 56.9173 12.963 57.04 13.475 57.04ZM22.6794 58.16C22.0714 58.16 21.522 58.0213 21.0314 57.744C20.5514 57.456 20.1727 57.056 19.8954 56.544C19.618 56.032 19.4794 55.4507 19.4794 54.8V50H20.6794V54.8C20.6794 55.216 20.7754 55.5947 20.9674 55.936C21.1594 56.2773 21.4207 56.5493 21.7514 56.752C22.082 56.944 22.4447 57.04 22.8394 57.04C23.2554 57.04 23.6394 56.9387 23.9914 56.736C24.354 56.5227 24.6367 56.2453 24.8394 55.904C25.0527 55.5627 25.1594 55.1947 25.1594 54.8V50H26.3594V58H25.3194L25.1594 57.12H25.0794C24.8554 57.3973 24.53 57.6427 24.1034 57.856C23.6874 58.0587 23.2127 58.16 22.6794 58.16ZM31.1644 58.16C30.5244 58.16 29.959 58.048 29.4684 57.824C28.9884 57.5893 28.615 57.2853 28.3484 56.912C28.0924 56.528 27.9644 56.1173 27.9644 55.68H29.1644C29.1644 56.0533 29.3404 56.3733 29.6924 56.64C30.055 56.9067 30.5457 57.04 31.1644 57.04C31.7724 57.04 32.2417 56.928 32.5724 56.704C32.9137 56.4693 33.0844 56.1813 33.0844 55.84C33.0844 55.52 32.9724 55.264 32.7484 55.072C32.535 54.8693 32.1937 54.7253 31.7244 54.64L30.3644 54.4C28.871 54.144 28.1244 53.3973 28.1244 52.16C28.1244 51.488 28.375 50.9333 28.8764 50.496C29.3884 50.0587 30.1244 49.84 31.0844 49.84C31.703 49.84 32.247 49.9573 32.7164 50.192C33.1964 50.416 33.5644 50.72 33.8204 51.104C34.0764 51.488 34.2044 51.8933 34.2044 52.32H33.0044C33.0044 51.9467 32.8284 51.6267 32.4764 51.36C32.1244 51.0933 31.6604 50.96 31.0844 50.96C30.519 50.96 30.0817 51.0773 29.7724 51.312C29.4737 51.536 29.3244 51.8187 29.3244 52.16C29.3244 52.4587 29.4204 52.6987 29.6124 52.88C29.815 53.0613 30.1457 53.1947 30.6044 53.28L31.9644 53.52C32.7644 53.6587 33.351 53.92 33.7244 54.304C34.0977 54.688 34.2844 55.2 34.2844 55.84C34.2844 56.512 34.0124 57.0667 33.4684 57.504C32.935 57.9413 32.167 58.16 31.1644 58.16ZM36.0438 58V46.8H37.2438V50.88H37.3238C37.5371 50.6133 37.8571 50.3733 38.2838 50.16C38.7104 49.9467 39.1904 49.84 39.7238 49.84C40.3318 49.84 40.8758 49.984 41.3558 50.272C41.8464 50.5493 42.2304 50.944 42.5078 51.456C42.7851 51.968 42.9237 52.5493 42.9237 53.2V58H41.7238V53.2C41.7238 52.784 41.6278 52.4053 41.4358 52.064C41.2438 51.7227 40.9824 51.456 40.6518 51.264C40.3211 51.0613 39.9584 50.96 39.5638 50.96C39.1478 50.96 38.7584 51.0667 38.3958 51.28C38.0438 51.4827 37.7611 51.7547 37.5478 52.096C37.3451 52.4373 37.2438 52.8053 37.2438 53.2V58H36.0438ZM47.6469 58.16C46.8149 58.16 46.1375 57.9307 45.6149 57.472C45.1029 57.0027 44.8469 56.4053 44.8469 55.68C44.8469 54.88 45.1082 54.256 45.6309 53.808C46.1642 53.3493 46.9695 53.12 48.0469 53.12H50.2069V52.88C50.2069 52.2827 50.0362 51.8133 49.6949 51.472C49.3535 51.1307 48.8842 50.96 48.2869 50.96C47.7109 50.96 47.2415 51.0933 46.8789 51.36C46.5269 51.616 46.3295 51.936 46.2869 52.32H45.0869C45.1189 51.8827 45.2629 51.4773 45.5189 51.104C45.7749 50.72 46.1375 50.416 46.6069 50.192C47.0869 49.9573 47.6469 49.84 48.2869 49.84C49.2575 49.84 50.0202 50.112 50.5749 50.656C51.1295 51.1893 51.4069 51.9307 51.4069 52.88V58H50.3669L50.2069 57.04H50.1269C49.9455 57.328 49.6309 57.5893 49.1829 57.824C48.7455 58.048 48.2335 58.16 47.6469 58.16ZM47.6469 57.04C48.4469 57.04 49.0709 56.8213 49.5189 56.384C49.9775 55.936 50.2069 55.328 50.2069 54.56V54.24H48.0469C47.3642 54.24 46.8575 54.3733 46.5269 54.64C46.2069 54.9067 46.0469 55.2533 46.0469 55.68C46.0469 56.0853 46.1855 56.416 46.4629 56.672C46.7402 56.9173 47.1349 57.04 47.6469 57.04ZM54.9313 58H53.7313V46.8H54.9313V58ZM65.66 58H63.74L59.66 46.8H61.02L64.54 56.64H64.86L68.38 46.8H69.74L65.66 58ZM76.0738 50H77.3538L73.7538 60.08C73.6151 60.464 73.4338 60.7467 73.2098 60.928C72.9858 61.1093 72.6604 61.2 72.2338 61.2H70.6338V60.08H72.1538C72.4204 60.08 72.6071 59.92 72.7138 59.6L73.0338 58.64L69.7538 50H71.0338L73.5138 56.64H73.8338L76.0738 50ZM80.9594 58.16C80.1274 58.16 79.45 57.9307 78.9274 57.472C78.4154 57.0027 78.1594 56.4053 78.1594 55.68C78.1594 54.88 78.4207 54.256 78.9434 53.808C79.4767 53.3493 80.282 53.12 81.3594 53.12H83.5194V52.88C83.5194 52.2827 83.3487 51.8133 83.0074 51.472C82.666 51.1307 82.1967 50.96 81.5994 50.96C81.0234 50.96 80.554 51.0933 80.1914 51.36C79.8394 51.616 79.642 51.936 79.5994 52.32H78.3994C78.4314 51.8827 78.5754 51.4773 78.8314 51.104C79.0874 50.72 79.45 50.416 79.9194 50.192C80.3994 49.9573 80.9594 49.84 81.5994 49.84C82.57 49.84 83.3327 50.112 83.8874 50.656C84.442 51.1893 84.7194 51.9307 84.7194 52.88V58H83.6794L83.5194 57.04H83.4394C83.258 57.328 82.9434 57.5893 82.4954 57.824C82.058 58.048 81.546 58.16 80.9594 58.16ZM80.9594 57.04C81.7594 57.04 82.3834 56.8213 82.8314 56.384C83.29 55.936 83.5194 55.328 83.5194 54.56V54.24H81.3594C80.6767 54.24 80.17 54.3733 79.8394 54.64C79.5194 54.9067 79.3594 55.2533 79.3594 55.68C79.3594 56.0853 79.498 56.416 79.7754 56.672C80.0527 56.9173 80.4474 57.04 80.9594 57.04ZM89.5238 58.16C88.8838 58.16 88.3184 58.048 87.8278 57.824C87.3478 57.5893 86.9744 57.2853 86.7078 56.912C86.4518 56.528 86.3238 56.1173 86.3238 55.68H87.5238C87.5238 56.0533 87.6998 56.3733 88.0518 56.64C88.4144 56.9067 88.9051 57.04 89.5238 57.04C90.1318 57.04 90.6011 56.928 90.9318 56.704C91.2731 56.4693 91.4438 56.1813 91.4438 55.84C91.4438 55.52 91.3318 55.264 91.1078 55.072C90.8944 54.8693 90.5531 54.7253 90.0838 54.64L88.7238 54.4C87.2304 54.144 86.4838 53.3973 86.4838 52.16C86.4838 51.488 86.7344 50.9333 87.2358 50.496C87.7478 50.0587 88.4838 49.84 89.4438 49.84C90.0624 49.84 90.6064 49.9573 91.0758 50.192C91.5558 50.416 91.9238 50.72 92.1798 51.104C92.4358 51.488 92.5638 51.8933 92.5638 52.32H91.3638C91.3638 51.9467 91.1878 51.6267 90.8358 51.36C90.4838 51.0933 90.0198 50.96 89.4438 50.96C88.8784 50.96 88.4411 51.0773 88.1318 51.312C87.8331 51.536 87.6838 51.8187 87.6838 52.16C87.6838 52.4587 87.7798 52.6987 87.9718 52.88C88.1744 53.0613 88.5051 53.1947 88.9638 53.28L90.3238 53.52C91.1238 53.6587 91.7104 53.92 92.0838 54.304C92.4571 54.688 92.6438 55.2 92.6438 55.84C92.6438 56.512 92.3718 57.0667 91.8278 57.504C91.2944 57.9413 90.5264 58.16 89.5238 58.16Z" fill="white" fill-opacity="0.6"/>
<mask id="path-3-inside-1_1585_11208" fill="white">
<path fill-rule="evenodd" clip-rule="evenodd" d="M16.7227 72H32.2599L33.8401 74.4701L35.3592 72H119.157V72.0157C119.391 72.0053 119.626 72 119.863 72C128.442 72 135.397 78.9396 135.397 87.5C135.397 96.0604 128.442 103 119.863 103C119.626 103 119.391 102.995 119.157 102.984V103H16.7227V102.999C16.6587 103 16.5947 103 16.5306 103C11.4038 103 6.85711 100.522 4.02789 96.7009L5.49938 94.2395L1.45285 91.2462C1.15445 90.0465 0.996094 88.7917 0.996094 87.5C0.996094 78.9396 7.95112 72 16.5306 72C16.5947 72 16.6587 72.0004 16.7227 72.0012V72Z"/>
</mask>
<path fill-rule="evenodd" clip-rule="evenodd" d="M16.7227 72H32.2599L33.8401 74.4701L35.3592 72H119.157V72.0157C119.391 72.0053 119.626 72 119.863 72C128.442 72 135.397 78.9396 135.397 87.5C135.397 96.0604 128.442 103 119.863 103C119.626 103 119.391 102.995 119.157 102.984V103H16.7227V102.999C16.6587 103 16.5947 103 16.5306 103C11.4038 103 6.85711 100.522 4.02789 96.7009L5.49938 94.2395L1.45285 91.2462C1.15445 90.0465 0.996094 88.7917 0.996094 87.5C0.996094 78.9396 7.95112 72 16.5306 72C16.5947 72 16.6587 72.0004 16.7227 72.0012V72Z" fill="url(#paint0_linear_1585_11208)"/>
<path d="M32.2599 72L33.0168 71.5158L32.7518 71.1014H32.2599V72ZM16.7227 72V71.1014H15.8241V72H16.7227ZM33.8401 74.4701L33.0831 74.9543L33.8551 76.1609L34.6054 74.9408L33.8401 74.4701ZM35.3592 72V71.1014H34.8569L34.5938 71.5293L35.3592 72ZM119.157 72H120.056V71.1014H119.157V72ZM119.157 72.0157H118.259V72.9552L119.197 72.9133L119.157 72.0157ZM119.157 102.984L119.197 102.087L118.259 102.045V102.984H119.157ZM119.157 103V103.899H120.056V103H119.157ZM16.7227 103H15.8241V103.899H16.7227V103ZM16.7227 102.999H17.6212V102.089L16.7118 102.1L16.7227 102.999ZM4.02789 96.7009L3.25664 96.2399L2.94922 96.7541L3.30574 97.2356L4.02789 96.7009ZM5.49938 94.2395L6.27062 94.7006L6.68854 94.0015L6.03375 93.5171L5.49938 94.2395ZM1.45285 91.2462L0.580875 91.4631L0.658836 91.7765L0.918482 91.9685L1.45285 91.2462ZM16.7227 72.0012L16.7118 72.8996L17.6212 72.9106V72.0012H16.7227ZM32.2599 71.1014H16.7227V72.8986H32.2599V71.1014ZM34.597 73.9859L33.0168 71.5158L31.503 72.4842L33.0831 74.9543L34.597 73.9859ZM34.5938 71.5293L33.0747 73.9994L34.6054 74.9408L36.1246 72.4707L34.5938 71.5293ZM119.157 71.1014H35.3592V72.8986H119.157V71.1014ZM120.056 72.0157V72H118.259V72.0157H120.056ZM119.863 71.1014C119.613 71.1014 119.365 71.107 119.117 71.118L119.197 72.9133C119.418 72.9035 119.64 72.8986 119.863 72.8986V71.1014ZM136.296 87.5C136.296 78.4414 128.936 71.1014 119.863 71.1014V72.8986C127.948 72.8986 134.499 79.4377 134.499 87.5H136.296ZM119.863 103.899C128.936 103.899 136.296 96.5586 136.296 87.5H134.499C134.499 95.5623 127.948 102.101 119.863 102.101V103.899ZM119.117 103.882C119.364 103.893 119.613 103.899 119.863 103.899V102.101C119.64 102.101 119.418 102.096 119.197 102.087L119.117 103.882ZM120.056 103V102.984H118.259V103H120.056ZM16.7227 103.899H119.157V102.101H16.7227V103.899ZM15.8241 102.999V103H17.6212V102.999H15.8241ZM16.5306 103.899C16.5983 103.899 16.666 103.898 16.7335 103.897L16.7118 102.1C16.6515 102.101 16.5911 102.101 16.5306 102.101V103.899ZM3.30574 97.2356C6.29742 101.276 11.1075 103.899 16.5306 103.899V102.101C11.7001 102.101 7.4168 99.7679 4.75003 96.1662L3.30574 97.2356ZM4.72813 93.7784L3.25664 96.2399L4.79913 97.162L6.27062 94.7006L4.72813 93.7784ZM0.918482 91.9685L4.965 94.9619L6.03375 93.5171L1.98723 90.5238L0.918482 91.9685ZM0.097543 87.5C0.097543 88.8654 0.264967 90.193 0.580875 91.4631L2.32483 91.0293C2.04394 89.9 1.89464 88.718 1.89464 87.5H0.097543ZM16.5306 71.1014C7.45675 71.1014 0.097543 78.4414 0.097543 87.5H1.89464C1.89464 79.4377 8.44549 72.8986 16.5306 72.8986V71.1014ZM16.7335 71.1027C16.666 71.1019 16.5983 71.1014 16.5306 71.1014V72.8986C16.5911 72.8986 16.6515 72.8989 16.7118 72.8996L16.7335 71.1027ZM15.8241 72V72.0012H17.6212V72H15.8241Z" fill="#70320D" fill-opacity="0.1" mask="url(#path-3-inside-1_1585_11208)"/>
<mask id="path-5-outside-2_1585_11208" maskUnits="userSpaceOnUse" x="-0.00390625" y="71" width="137" height="33" fill="black">
<rect fill="white" x="-0.00390625" y="71" width="137" height="33"/>
<path fill-rule="evenodd" clip-rule="evenodd" d="M16.7227 72H32.2599L33.8401 74.4701L35.3592 72H119.157V72.0099C119.344 72.0033 119.531 72 119.718 72C128.298 72 135.253 78.9396 135.253 87.5C135.253 96.0604 128.298 103 119.718 103C119.531 103 119.344 102.997 119.157 102.99V103H16.7227V102.999C16.6587 103 16.5947 103 16.5306 103C11.4038 103 6.85711 100.522 4.02789 96.7009L5.49938 94.2395L1.45285 91.2462C1.15445 90.0465 0.996094 88.7917 0.996094 87.5C0.996094 78.9396 7.95112 72 16.5306 72C16.5947 72 16.6587 72.0004 16.7227 72.0012V72Z"/>
</mask>
<path d="M32.2599 72L33.0168 71.5158L32.7518 71.1014H32.2599V72ZM16.7227 72V71.1014H15.8241V72H16.7227ZM33.8401 74.4701L33.0831 74.9543L33.8551 76.1609L34.6054 74.9408L33.8401 74.4701ZM35.3592 72V71.1014H34.8569L34.5938 71.5293L35.3592 72ZM119.157 72H120.056V71.1014H119.157V72ZM119.157 72.0099H118.259V72.9408L119.189 72.9079L119.157 72.0099ZM119.157 102.99L119.189 102.092L118.259 102.059V102.99H119.157ZM119.157 103V103.899H120.056V103H119.157ZM16.7227 103H15.8241V103.899H16.7227V103ZM16.7227 102.999H17.6212V102.089L16.7118 102.1L16.7227 102.999ZM4.02789 96.7009L3.25664 96.2399L2.94922 96.7541L3.30574 97.2356L4.02789 96.7009ZM5.49938 94.2395L6.27062 94.7006L6.68854 94.0015L6.03375 93.5171L5.49938 94.2395ZM1.45285 91.2462L0.580875 91.4631L0.658836 91.7765L0.918482 91.9685L1.45285 91.2462ZM16.7227 72.0012L16.7118 72.8996L17.6212 72.9106V72.0012H16.7227ZM32.2599 71.1014H16.7227V72.8986H32.2599V71.1014ZM34.597 73.9859L33.0168 71.5158L31.503 72.4842L33.0831 74.9543L34.597 73.9859ZM34.5938 71.5293L33.0747 73.9994L34.6054 74.9408L36.1246 72.4707L34.5938 71.5293ZM119.157 71.1014H35.3592V72.8986H119.157V71.1014ZM120.056 72.0099V72H118.259V72.0099H120.056ZM119.718 71.1014C119.52 71.1014 119.322 71.105 119.126 71.1119L119.189 72.9079C119.365 72.9017 119.541 72.8986 119.718 72.8986V71.1014ZM136.151 87.5C136.151 78.4414 128.792 71.1014 119.718 71.1014V72.8986C127.803 72.8986 134.354 79.4377 134.354 87.5H136.151ZM119.718 103.899C128.792 103.899 136.151 96.5585 136.151 87.5H134.354C134.354 95.5623 127.803 102.101 119.718 102.101V103.899ZM119.126 103.888C119.322 103.895 119.52 103.899 119.718 103.899V102.101C119.541 102.101 119.365 102.098 119.189 102.092L119.126 103.888ZM120.056 103V102.99H118.259V103H120.056ZM16.7227 103.899H119.157V102.101H16.7227V103.899ZM15.8241 102.999V103H17.6212V102.999H15.8241ZM16.5306 103.899C16.5983 103.899 16.666 103.898 16.7335 103.897L16.7118 102.1C16.6515 102.101 16.5911 102.101 16.5306 102.101V103.899ZM3.30574 97.2356C6.29742 101.276 11.1075 103.899 16.5306 103.899V102.101C11.7001 102.101 7.4168 99.7679 4.75003 96.1662L3.30574 97.2356ZM4.72813 93.7784L3.25664 96.2399L4.79913 97.162L6.27062 94.7006L4.72813 93.7784ZM0.918482 91.9685L4.965 94.9619L6.03375 93.5171L1.98723 90.5238L0.918482 91.9685ZM0.097543 87.5C0.097543 88.8654 0.264967 90.193 0.580875 91.4631L2.32483 91.0293C2.04394 89.9 1.89464 88.718 1.89464 87.5H0.097543ZM16.5306 71.1014C7.45675 71.1014 0.097543 78.4414 0.097543 87.5H1.89464C1.89464 79.4377 8.44549 72.8986 16.5306 72.8986V71.1014ZM16.7335 71.1027C16.666 71.1019 16.5983 71.1014 16.5306 71.1014V72.8986C16.5911 72.8986 16.6515 72.8989 16.7118 72.8996L16.7335 71.1027ZM15.8241 72V72.0012H17.6212V72H15.8241Z" fill="#70320D" mask="url(#path-5-outside-2_1585_11208)"/>
<path d="M15.1481 72.8984C7.42056 72.8984 3.39206 80.0868 2.34375 83.681C5.57853 75.9535 10.4307 73.5724 14.9235 73.5724H32.2206L31.7713 72.8984H15.1481Z" fill="white" fill-opacity="0.45"/>
<path d="M15.2216 102.102C13.1574 102.102 12.24 101.578 11.7812 101.203C47.6761 100.979 119.5 100.979 121.014 100.979C122.528 100.979 124.913 99.4063 126.002 98.957L126.346 99.6309C124.007 101.428 121.931 102.027 121.186 102.102H15.2216Z" fill="white" fill-opacity="0.45"/>
<path d="M28.4062 76.0434L28.7515 75.4144L29.9598 72.8984H120.238C122.709 72.8984 125.319 74.1293 126.459 75.0893C126.603 75.1933 126.718 75.3017 126.798 75.4144C126.707 75.3114 126.593 75.2022 126.459 75.0893C125.101 74.11 121.174 73.5274 120.238 73.5274H30.1324L28.4062 76.0434Z" fill="white" fill-opacity="0.45"/>
<path d="M16.1855 87.751L16.7461 87.2725L16.4932 86.3359L18.0791 86.1924L18.0928 84.21L18.8447 84.1621L19.2959 83.6768L19.7266 83.7041V86.124L21.4492 86.001L21.4766 86.2402L20.9912 86.9102L21.4629 87.4023L21.4219 87.6621L19.6992 88.0586L19.5762 90.3008H18.8174L18.2158 90.2393L18.1201 88.2568L16.2676 88.3662L16.1855 87.751ZM22.208 84.6953C22.2171 84.4082 22.2559 84.1051 22.3242 83.7861C22.3926 83.4626 22.486 83.1504 22.6045 82.8496C22.723 82.5488 22.862 82.2708 23.0215 82.0156C23.1855 81.7604 23.3656 81.5485 23.5615 81.3799C23.7939 81.1839 24.0947 81.0426 24.4639 80.9561C24.833 80.8649 25.2135 80.8216 25.6055 80.8262C25.9974 80.8307 26.3711 80.8763 26.7266 80.9629C27.082 81.0449 27.3532 81.152 27.54 81.2842C27.7087 81.4072 27.859 81.5804 27.9912 81.8037C28.1279 82.027 28.2441 82.2799 28.3398 82.5625C28.4401 82.8451 28.5244 83.1436 28.5928 83.458C28.6657 83.7725 28.7204 84.0778 28.7568 84.374C28.8024 84.7568 28.8343 85.1807 28.8525 85.6455C28.8708 86.1058 28.8639 86.582 28.832 87.0742C28.8001 87.5618 28.7432 88.0518 28.6611 88.5439C28.5837 89.0316 28.4766 89.4896 28.3398 89.918C28.2077 90.3464 28.0391 90.7337 27.834 91.0801C27.6289 91.4264 27.3896 91.6976 27.1162 91.8936C26.9202 92.0348 26.6673 92.1465 26.3574 92.2285C26.0521 92.3151 25.7194 92.3721 25.3594 92.3994C25.0039 92.4268 24.6393 92.4199 24.2656 92.3789C23.8919 92.3424 23.541 92.2786 23.2129 92.1875C23.2493 92.151 23.2926 92.1146 23.3428 92.0781C23.3975 92.0371 23.443 92.0075 23.4795 91.9893L23.1992 91.627L24.293 91.5312L23.2676 90.7725L23.2812 90.7588C23.4772 90.777 23.6846 90.7975 23.9033 90.8203C24.1221 90.8431 24.3408 90.8568 24.5596 90.8613C24.7829 90.8659 24.9993 90.8522 25.209 90.8203C25.4186 90.7884 25.6169 90.7223 25.8037 90.6221C25.9541 90.54 26.084 90.4193 26.1934 90.2598C26.3073 90.1003 26.3984 89.9225 26.4668 89.7266C26.5397 89.5306 26.5944 89.321 26.6309 89.0977C26.6673 88.8698 26.6901 88.6442 26.6992 88.4209C26.3438 88.4756 25.9906 88.5075 25.6396 88.5166C25.2933 88.5257 24.9674 88.5166 24.6621 88.4893C24.3568 88.4619 24.0902 88.4186 23.8623 88.3594C23.6344 88.3001 23.4749 88.2272 23.3838 88.1406C22.9645 87.776 22.6523 87.3044 22.4473 86.7256C22.2422 86.1468 22.1624 85.4701 22.208 84.6953ZM24.2041 83.6221C24.1038 83.891 24.0378 84.1781 24.0059 84.4834C23.974 84.7842 23.9808 85.0986 24.0264 85.4268C24.0719 85.7503 24.1699 86.0671 24.3203 86.377C24.4342 86.6003 24.5915 86.762 24.792 86.8623C24.9971 86.958 25.2135 87.0059 25.4414 87.0059C25.6738 87.0059 25.8926 86.9648 26.0977 86.8828C26.3027 86.7962 26.4622 86.68 26.5762 86.5342C26.7174 86.3382 26.8154 86.0876 26.8701 85.7822C26.9248 85.4769 26.943 85.1579 26.9248 84.8252C26.9066 84.488 26.8587 84.1576 26.7812 83.834C26.7083 83.5059 26.6149 83.2188 26.501 82.9727C26.4463 82.8405 26.3301 82.7402 26.1523 82.6719C25.9746 82.6035 25.7832 82.5648 25.5781 82.5557C25.373 82.5465 25.1748 82.5739 24.9834 82.6377C24.792 82.6969 24.6553 82.7858 24.5732 82.9043C24.432 83.1094 24.3089 83.3486 24.2041 83.6221ZM29.6729 83.3691L32.4893 80.9629L32.8926 81.7422L33.5762 81.3252L33.4941 90.5469L35.0596 90.5332L35.1484 90.957L34.4443 91.4424L35.1211 91.8799L34.752 92.2559L30.3838 92.3242L30.9033 91.8936L30.1309 91.4014L30.5684 91.1348L30.3154 90.6221L31.9014 90.4375L31.6484 83.9023L30.3838 84.5176L30.1514 84.3604L30.6367 83.4102L29.6729 83.3691ZM38.9424 90.5264C38.792 90.0479 38.7282 89.5534 38.751 89.043C38.7783 88.528 38.9014 88.0176 39.1201 87.5117C39.3389 87.0059 39.6715 86.5479 40.1182 86.1377C39.8174 85.7275 39.585 85.2992 39.4209 84.8525C39.2614 84.4059 39.1702 83.9775 39.1475 83.5674C39.1247 83.1527 39.1748 82.7699 39.2979 82.4189C39.4255 82.0635 39.6351 81.7741 39.9268 81.5508C40.1045 81.4095 40.3255 81.2865 40.5898 81.1816C40.8542 81.0723 41.139 80.9902 41.4443 80.9355C41.7542 80.8763 42.0732 80.8444 42.4014 80.8398C42.7295 80.8353 43.0371 80.8649 43.3242 80.9287L43.1875 81.8857L44.0557 81.6328V82.0908L44.7803 81.9814C44.958 82.2822 45.0788 82.6081 45.1426 82.959C45.2109 83.3053 45.2087 83.6608 45.1357 84.0254C45.0674 84.39 44.9238 84.75 44.7051 85.1055C44.4863 85.4609 44.181 85.7913 43.7891 86.0967C44.1536 86.2835 44.4544 86.5319 44.6914 86.8418C44.9284 87.1471 45.1038 87.4844 45.2178 87.8535C45.3363 88.2227 45.4001 88.6055 45.4092 89.002C45.4183 89.3984 45.3818 89.7835 45.2998 90.1572C45.2178 90.5309 45.0924 90.875 44.9238 91.1895C44.7552 91.4993 44.5501 91.7568 44.3086 91.9619C44.1491 92.0941 43.9395 92.2035 43.6797 92.29C43.4245 92.3812 43.1442 92.4473 42.8389 92.4883C42.5381 92.5293 42.2259 92.5475 41.9023 92.543C41.5833 92.5384 41.2757 92.5065 40.9795 92.4473C40.6878 92.388 40.4189 92.3014 40.1729 92.1875C39.9313 92.0736 39.7399 91.9346 39.5986 91.7705C39.3115 91.415 39.0928 91.0003 38.9424 90.5264ZM40.583 88.5918C40.5238 88.8424 40.4964 89.0977 40.501 89.3574C40.5101 89.6126 40.5534 89.8564 40.6309 90.0889C40.7083 90.3213 40.8359 90.5218 41.0137 90.6904C41.0957 90.7725 41.221 90.8454 41.3896 90.9092C41.5583 90.9684 41.7383 91.0026 41.9297 91.0117C42.1211 91.0208 42.3125 90.998 42.5039 90.9434C42.6953 90.8841 42.8571 90.777 42.9893 90.6221C43.1396 90.4352 43.2604 90.2165 43.3516 89.9658C43.4473 89.7106 43.502 89.4508 43.5156 89.1865C43.5293 88.9176 43.5042 88.6556 43.4404 88.4004C43.3812 88.1452 43.2832 87.9196 43.1465 87.7236C43.0234 87.5641 42.8503 87.457 42.627 87.4023C42.4036 87.3431 42.1689 87.3294 41.9229 87.3613C41.6813 87.3887 41.458 87.4525 41.2529 87.5527C41.0479 87.6484 40.9089 87.7692 40.8359 87.915C40.7311 88.111 40.6468 88.3366 40.583 88.5918ZM40.9043 83.3008C40.8496 83.5241 40.8245 83.7565 40.8291 83.998C40.8337 84.2396 40.8678 84.4766 40.9316 84.709C40.9954 84.9368 41.0889 85.11 41.2119 85.2285C41.3805 85.3971 41.6084 85.4997 41.8955 85.5361C42.1872 85.5726 42.4538 85.5225 42.6953 85.3857C42.9004 85.2627 43.0553 85.0804 43.1602 84.8389C43.2695 84.5973 43.3333 84.3421 43.3516 84.0732C43.3698 83.7998 43.3424 83.5423 43.2695 83.3008C43.1966 83.0547 43.0804 82.8678 42.9209 82.7402C42.8161 82.6673 42.6862 82.6081 42.5312 82.5625C42.3809 82.5124 42.2214 82.4873 42.0527 82.4873C41.8841 82.4873 41.7201 82.5101 41.5605 82.5557C41.401 82.6012 41.2712 82.6764 41.1709 82.7812C41.0479 82.9043 40.959 83.0775 40.9043 83.3008ZM46.5029 88.4893C46.4938 88.193 46.4847 87.8558 46.4756 87.4775C46.4665 87.0993 46.471 86.7005 46.4893 86.2812C46.5075 85.8802 46.5371 85.4701 46.5781 85.0508C46.6237 84.627 46.6966 84.2191 46.7969 83.8271C46.888 83.4352 47.0111 83.0752 47.166 82.7471C47.321 82.4144 47.5101 82.125 47.7334 81.8789C47.9613 81.6283 48.2256 81.4277 48.5264 81.2773C48.8317 81.1224 49.1849 81.0267 49.5859 80.9902C50.0599 80.9447 50.5042 80.931 50.9189 80.9492C51.3382 80.9674 51.7051 81.0221 52.0195 81.1133L51.9102 81.3115L52.0879 81.5508L51.042 81.8857L52.1904 82.4326L52.0879 82.5693C51.8828 82.542 51.6777 82.5215 51.4727 82.5078C51.2676 82.4941 51.0625 82.4964 50.8574 82.5146C50.5794 82.5329 50.3014 82.5853 50.0234 82.6719C49.75 82.7539 49.4834 82.8929 49.2236 83.0889C49.055 83.221 48.916 83.376 48.8066 83.5537C48.7018 83.7269 48.613 83.9342 48.54 84.1758C48.4717 84.4128 48.4215 84.6885 48.3896 85.0029C48.3577 85.3128 48.3258 85.6637 48.2939 86.0557C48.7132 85.9235 49.112 85.8392 49.4902 85.8027C49.8685 85.7663 50.2171 85.7617 50.5361 85.7891C50.8551 85.8164 51.1331 85.8734 51.3701 85.96C51.6071 86.042 51.7917 86.1354 51.9238 86.2402C52.0742 86.3542 52.2178 86.5182 52.3545 86.7324C52.4958 86.9421 52.6143 87.1836 52.71 87.457C52.8102 87.7259 52.8809 88.0107 52.9219 88.3115C52.9674 88.6077 52.9652 88.8971 52.915 89.1797C52.8695 89.4987 52.8102 89.7926 52.7373 90.0615C52.6689 90.3304 52.5778 90.5811 52.4639 90.8135C52.3545 91.0459 52.2109 91.2646 52.0332 91.4697C51.8555 91.6702 51.6367 91.8525 51.377 92.0166C51.2083 92.1305 50.96 92.2148 50.6318 92.2695C50.3083 92.3288 49.9665 92.3561 49.6064 92.3516C49.2464 92.347 48.9001 92.306 48.5674 92.2285C48.2393 92.1556 47.9818 92.0439 47.7949 91.8936C47.6628 91.7887 47.5238 91.6406 47.3779 91.4492C47.2367 91.2578 47.1022 91.0208 46.9746 90.7383C46.847 90.4557 46.7376 90.1276 46.6465 89.7539C46.5599 89.3802 46.512 88.9587 46.5029 88.4893ZM48.3828 88.4346C48.3555 88.6761 48.3555 88.9176 48.3828 89.1592C48.4102 89.3962 48.458 89.6217 48.5264 89.8359C48.5993 90.0501 48.6904 90.2279 48.7998 90.3691C48.9229 90.5286 49.0755 90.6403 49.2578 90.7041C49.4401 90.7679 49.6247 90.793 49.8115 90.7793C49.9984 90.7656 50.1693 90.7246 50.3242 90.6562C50.4837 90.5833 50.6068 90.4967 50.6934 90.3965C50.8073 90.2461 50.8984 90.057 50.9668 89.8291C51.0352 89.6012 51.0762 89.362 51.0898 89.1113C51.1035 88.8561 51.0898 88.6055 51.0488 88.3594C51.0078 88.1133 50.9303 87.9014 50.8164 87.7236C50.7344 87.5824 50.5908 87.4707 50.3857 87.3887C50.1807 87.3021 49.9596 87.2542 49.7227 87.2451C49.4902 87.236 49.2692 87.2747 49.0596 87.3613C48.8499 87.4434 48.6927 87.5824 48.5879 87.7783C48.4831 87.9743 48.4147 88.193 48.3828 88.4346ZM54.0771 88.4893C54.068 88.193 54.0589 87.8558 54.0498 87.4775C54.0407 87.0993 54.0452 86.7005 54.0635 86.2812C54.0817 85.8802 54.1113 85.4701 54.1523 85.0508C54.1979 84.627 54.2708 84.2191 54.3711 83.8271C54.4622 83.4352 54.5853 83.0752 54.7402 82.7471C54.8952 82.4144 55.0843 82.125 55.3076 81.8789C55.5355 81.6283 55.7998 81.4277 56.1006 81.2773C56.4059 81.1224 56.7591 81.0267 57.1602 80.9902C57.6341 80.9447 58.0785 80.931 58.4932 80.9492C58.9124 80.9674 59.2793 81.0221 59.5938 81.1133L59.4844 81.3115L59.6621 81.5508L58.6162 81.8857L59.7646 82.4326L59.6621 82.5693C59.457 82.542 59.252 82.5215 59.0469 82.5078C58.8418 82.4941 58.6367 82.4964 58.4316 82.5146C58.1536 82.5329 57.8757 82.5853 57.5977 82.6719C57.3242 82.7539 57.0576 82.8929 56.7979 83.0889C56.6292 83.221 56.4902 83.376 56.3809 83.5537C56.276 83.7269 56.1872 83.9342 56.1143 84.1758C56.0459 84.4128 55.9958 84.6885 55.9639 85.0029C55.932 85.3128 55.9001 85.6637 55.8682 86.0557C56.2874 85.9235 56.6862 85.8392 57.0645 85.8027C57.4427 85.7663 57.7913 85.7617 58.1104 85.7891C58.4294 85.8164 58.7074 85.8734 58.9443 85.96C59.1813 86.042 59.3659 86.1354 59.498 86.2402C59.6484 86.3542 59.792 86.5182 59.9287 86.7324C60.07 86.9421 60.1885 87.1836 60.2842 87.457C60.3844 87.7259 60.4551 88.0107 60.4961 88.3115C60.5417 88.6077 60.5394 88.8971 60.4893 89.1797C60.4437 89.4987 60.3844 89.7926 60.3115 90.0615C60.2432 90.3304 60.152 90.5811 60.0381 90.8135C59.9287 91.0459 59.7852 91.2646 59.6074 91.4697C59.4297 91.6702 59.2109 91.8525 58.9512 92.0166C58.7826 92.1305 58.5342 92.2148 58.2061 92.2695C57.8825 92.3288 57.5407 92.3561 57.1807 92.3516C56.8206 92.347 56.4743 92.306 56.1416 92.2285C55.8135 92.1556 55.556 92.0439 55.3691 91.8936C55.237 91.7887 55.098 91.6406 54.9521 91.4492C54.8109 91.2578 54.6764 91.0208 54.5488 90.7383C54.4212 90.4557 54.3118 90.1276 54.2207 89.7539C54.1341 89.3802 54.0863 88.9587 54.0771 88.4893ZM55.957 88.4346C55.9297 88.6761 55.9297 88.9176 55.957 89.1592C55.9844 89.3962 56.0322 89.6217 56.1006 89.8359C56.1735 90.0501 56.2646 90.2279 56.374 90.3691C56.4971 90.5286 56.6497 90.6403 56.832 90.7041C57.0143 90.7679 57.1989 90.793 57.3857 90.7793C57.5726 90.7656 57.7435 90.7246 57.8984 90.6562C58.0579 90.5833 58.181 90.4967 58.2676 90.3965C58.3815 90.2461 58.4727 90.057 58.541 89.8291C58.6094 89.6012 58.6504 89.362 58.6641 89.1113C58.6777 88.8561 58.6641 88.6055 58.623 88.3594C58.582 88.1133 58.5046 87.9014 58.3906 87.7236C58.3086 87.5824 58.165 87.4707 57.96 87.3887C57.7549 87.3021 57.5339 87.2542 57.2969 87.2451C57.0645 87.236 56.8434 87.2747 56.6338 87.3613C56.4242 87.4434 56.2669 87.5824 56.1621 87.7783C56.0573 87.9743 55.9889 88.193 55.957 88.4346ZM64.4131 90.5264C64.2627 90.0479 64.1989 89.5534 64.2217 89.043C64.249 88.528 64.3721 88.0176 64.5908 87.5117C64.8096 87.0059 65.1423 86.5479 65.5889 86.1377C65.2881 85.7275 65.0557 85.2992 64.8916 84.8525C64.7321 84.4059 64.641 83.9775 64.6182 83.5674C64.5954 83.1527 64.6455 82.7699 64.7686 82.4189C64.8962 82.0635 65.1058 81.7741 65.3975 81.5508C65.5752 81.4095 65.7962 81.2865 66.0605 81.1816C66.3249 81.0723 66.6097 80.9902 66.915 80.9355C67.2249 80.8763 67.5439 80.8444 67.8721 80.8398C68.2002 80.8353 68.5078 80.8649 68.7949 80.9287L68.6582 81.8857L69.5264 81.6328V82.0908L70.251 81.9814C70.4287 82.2822 70.5495 82.6081 70.6133 82.959C70.6816 83.3053 70.6794 83.6608 70.6064 84.0254C70.5381 84.39 70.3945 84.75 70.1758 85.1055C69.957 85.4609 69.6517 85.7913 69.2598 86.0967C69.6243 86.2835 69.9251 86.5319 70.1621 86.8418C70.3991 87.1471 70.5745 87.4844 70.6885 87.8535C70.807 88.2227 70.8708 88.6055 70.8799 89.002C70.889 89.3984 70.8525 89.7835 70.7705 90.1572C70.6885 90.5309 70.5632 90.875 70.3945 91.1895C70.2259 91.4993 70.0208 91.7568 69.7793 91.9619C69.6198 92.0941 69.4102 92.2035 69.1504 92.29C68.8952 92.3812 68.6149 92.4473 68.3096 92.4883C68.0088 92.5293 67.6966 92.5475 67.373 92.543C67.054 92.5384 66.7464 92.5065 66.4502 92.4473C66.1585 92.388 65.8896 92.3014 65.6436 92.1875C65.402 92.0736 65.2106 91.9346 65.0693 91.7705C64.7822 91.415 64.5635 91.0003 64.4131 90.5264ZM66.0537 88.5918C65.9945 88.8424 65.9671 89.0977 65.9717 89.3574C65.9808 89.6126 66.0241 89.8564 66.1016 90.0889C66.179 90.3213 66.3066 90.5218 66.4844 90.6904C66.5664 90.7725 66.6917 90.8454 66.8604 90.9092C67.029 90.9684 67.209 91.0026 67.4004 91.0117C67.5918 91.0208 67.7832 90.998 67.9746 90.9434C68.166 90.8841 68.3278 90.777 68.46 90.6221C68.6104 90.4352 68.7311 90.2165 68.8223 89.9658C68.918 89.7106 68.9727 89.4508 68.9863 89.1865C69 88.9176 68.9749 88.6556 68.9111 88.4004C68.8519 88.1452 68.7539 87.9196 68.6172 87.7236C68.4941 87.5641 68.321 87.457 68.0977 87.4023C67.8743 87.3431 67.6396 87.3294 67.3936 87.3613C67.152 87.3887 66.9287 87.4525 66.7236 87.5527C66.5186 87.6484 66.3796 87.7692 66.3066 87.915C66.2018 88.111 66.1175 88.3366 66.0537 88.5918ZM66.375 83.3008C66.3203 83.5241 66.2952 83.7565 66.2998 83.998C66.3044 84.2396 66.3385 84.4766 66.4023 84.709C66.4661 84.9368 66.5596 85.11 66.6826 85.2285C66.8512 85.3971 67.0791 85.4997 67.3662 85.5361C67.6579 85.5726 67.9245 85.5225 68.166 85.3857C68.3711 85.2627 68.526 85.0804 68.6309 84.8389C68.7402 84.5973 68.804 84.3421 68.8223 84.0732C68.8405 83.7998 68.8132 83.5423 68.7402 83.3008C68.6673 83.0547 68.5511 82.8678 68.3916 82.7402C68.2868 82.6673 68.1569 82.6081 68.002 82.5625C67.8516 82.5124 67.6921 82.4873 67.5234 82.4873C67.3548 82.4873 67.1908 82.5101 67.0312 82.5557C66.8717 82.6012 66.7419 82.6764 66.6416 82.7812C66.5186 82.9043 66.4297 83.0775 66.375 83.3008ZM71.7549 84.6953C71.764 84.4082 71.8027 84.1051 71.8711 83.7861C71.9395 83.4626 72.0329 83.1504 72.1514 82.8496C72.2699 82.5488 72.4089 82.2708 72.5684 82.0156C72.7324 81.7604 72.9124 81.5485 73.1084 81.3799C73.3408 81.1839 73.6416 81.0426 74.0107 80.9561C74.3799 80.8649 74.7604 80.8216 75.1523 80.8262C75.5443 80.8307 75.918 80.8763 76.2734 80.9629C76.6289 81.0449 76.9001 81.152 77.0869 81.2842C77.2555 81.4072 77.4059 81.5804 77.5381 81.8037C77.6748 82.027 77.791 82.2799 77.8867 82.5625C77.987 82.8451 78.0713 83.1436 78.1396 83.458C78.2126 83.7725 78.2673 84.0778 78.3037 84.374C78.3493 84.7568 78.3812 85.1807 78.3994 85.6455C78.4176 86.1058 78.4108 86.582 78.3789 87.0742C78.347 87.5618 78.29 88.0518 78.208 88.5439C78.1305 89.0316 78.0234 89.4896 77.8867 89.918C77.7546 90.3464 77.5859 90.7337 77.3809 91.0801C77.1758 91.4264 76.9365 91.6976 76.6631 91.8936C76.4671 92.0348 76.2142 92.1465 75.9043 92.2285C75.599 92.3151 75.2663 92.3721 74.9062 92.3994C74.5508 92.4268 74.1862 92.4199 73.8125 92.3789C73.4388 92.3424 73.0879 92.2786 72.7598 92.1875C72.7962 92.151 72.8395 92.1146 72.8896 92.0781C72.9443 92.0371 72.9899 92.0075 73.0264 91.9893L72.7461 91.627L73.8398 91.5312L72.8145 90.7725L72.8281 90.7588C73.0241 90.777 73.2314 90.7975 73.4502 90.8203C73.6689 90.8431 73.8877 90.8568 74.1064 90.8613C74.3298 90.8659 74.5462 90.8522 74.7559 90.8203C74.9655 90.7884 75.1637 90.7223 75.3506 90.6221C75.501 90.54 75.6309 90.4193 75.7402 90.2598C75.8542 90.1003 75.9453 89.9225 76.0137 89.7266C76.0866 89.5306 76.1413 89.321 76.1777 89.0977C76.2142 88.8698 76.237 88.6442 76.2461 88.4209C75.8906 88.4756 75.5374 88.5075 75.1865 88.5166C74.8402 88.5257 74.5143 88.5166 74.209 88.4893C73.9036 88.4619 73.637 88.4186 73.4092 88.3594C73.1813 88.3001 73.0218 88.2272 72.9307 88.1406C72.5114 87.776 72.1992 87.3044 71.9941 86.7256C71.7891 86.1468 71.7093 85.4701 71.7549 84.6953ZM73.751 83.6221C73.6507 83.891 73.5846 84.1781 73.5527 84.4834C73.5208 84.7842 73.5277 85.0986 73.5732 85.4268C73.6188 85.7503 73.7168 86.0671 73.8672 86.377C73.9811 86.6003 74.1383 86.762 74.3389 86.8623C74.5439 86.958 74.7604 87.0059 74.9883 87.0059C75.2207 87.0059 75.4395 86.9648 75.6445 86.8828C75.8496 86.7962 76.0091 86.68 76.123 86.5342C76.2643 86.3382 76.3623 86.0876 76.417 85.7822C76.4717 85.4769 76.4899 85.1579 76.4717 84.8252C76.4535 84.488 76.4056 84.1576 76.3281 83.834C76.2552 83.5059 76.1618 83.2188 76.0479 82.9727C75.9932 82.8405 75.877 82.7402 75.6992 82.6719C75.5215 82.6035 75.3301 82.5648 75.125 82.5557C74.9199 82.5465 74.7217 82.5739 74.5303 82.6377C74.3389 82.6969 74.2021 82.7858 74.1201 82.9043C73.9788 83.1094 73.8558 83.3486 73.751 83.6221ZM79.3291 86.8555L79.3838 81.5029L84.2305 81.2842L84.3398 81.6328L83.752 82.1797L84.6064 82.583L84.5381 82.7266L81.373 82.9863C81.3548 83.3327 81.3411 83.679 81.332 84.0254C81.3229 84.3262 81.3252 84.6406 81.3389 84.9688C81.3525 85.2923 81.3822 85.584 81.4277 85.8438C81.7148 85.8164 82.0042 85.8141 82.2959 85.8369C82.5876 85.8597 82.8587 85.8984 83.1094 85.9531C83.3646 86.0033 83.5902 86.0693 83.7861 86.1514C83.9821 86.2288 84.1302 86.3086 84.2305 86.3906C84.39 86.5228 84.5176 86.7074 84.6133 86.9443C84.7135 87.1813 84.7773 87.4456 84.8047 87.7373C84.832 88.0244 84.8275 88.332 84.791 88.6602C84.7546 88.9883 84.6816 89.3096 84.5723 89.624C84.4674 89.9339 84.3262 90.2301 84.1484 90.5127C83.9707 90.7907 83.7611 91.0277 83.5195 91.2236C83.278 91.4196 83 91.5814 82.6855 91.709C82.3711 91.832 82.0521 91.9346 81.7285 92.0166C81.4095 92.0941 81.0973 92.1533 80.792 92.1943C80.4912 92.2354 80.2292 92.265 80.0059 92.2832C80.0241 92.2194 80.0583 92.1442 80.1084 92.0576C80.1585 91.9665 80.2018 91.8981 80.2383 91.8525L79.623 91.7227L80.5049 91.1211L79.5137 90.9297V90.7451C79.6732 90.7178 79.8691 90.679 80.1016 90.6289C80.334 90.5742 80.571 90.5127 80.8125 90.4443C81.0586 90.376 81.2979 90.2939 81.5303 90.1982C81.7627 90.098 81.9587 89.9863 82.1182 89.8633C82.3597 89.6764 82.5488 89.4736 82.6855 89.2549C82.8268 89.0361 82.9111 88.8174 82.9385 88.5986C82.9704 88.3799 82.9362 88.1771 82.8359 87.9902C82.7402 87.8034 82.5762 87.6484 82.3438 87.5254C82.2617 87.4889 82.1204 87.4661 81.9199 87.457C81.724 87.4479 81.5075 87.4479 81.2705 87.457C81.0335 87.4661 80.7943 87.4798 80.5527 87.498C80.3158 87.5163 80.1175 87.5299 79.958 87.5391L80.0879 86.7666L79.3291 86.8555ZM88.5303 91.9756L88.8789 91.5859C88.806 91.4538 88.7354 91.3376 88.667 91.2373C88.6032 91.1325 88.5622 91.0573 88.5439 91.0117C88.6351 90.8613 88.7695 90.638 88.9473 90.3418C89.125 90.041 89.321 89.6969 89.5352 89.3096C89.7493 88.9222 89.9727 88.5052 90.2051 88.0586C90.4421 87.612 90.6676 87.1631 90.8818 86.7119C91.0596 86.3382 91.2282 85.9759 91.3877 85.625C91.5472 85.2695 91.6748 84.9437 91.7705 84.6475C91.8708 84.3467 91.9323 84.0778 91.9551 83.8408C91.9779 83.5993 91.946 83.4079 91.8594 83.2666C91.7956 83.1618 91.6634 83.0934 91.4629 83.0615C91.2624 83.0251 91.0277 83.0091 90.7588 83.0137C90.4945 83.0182 90.2096 83.041 89.9043 83.082C89.6035 83.123 89.3232 83.1663 89.0635 83.2119L89.4531 82.624L88.8789 82.3984L89.2549 81.9131C89.2184 81.8857 89.182 81.8516 89.1455 81.8105C89.109 81.7832 89.0703 81.7536 89.0293 81.7217C88.9928 81.6898 88.9518 81.6556 88.9062 81.6191C89.1934 81.5052 89.5215 81.4004 89.8906 81.3047C90.2598 81.2044 90.638 81.1292 91.0254 81.0791C91.4128 81.029 91.791 81.0107 92.1602 81.0244C92.5293 81.0381 92.8643 81.1042 93.165 81.2227C93.6982 81.4368 94.0286 81.7786 94.1562 82.248C94.2884 82.7129 94.2474 83.2689 94.0332 83.916C93.8464 84.4766 93.6458 85.012 93.4316 85.5225C93.2174 86.0283 92.9873 86.541 92.7412 87.0605C92.4997 87.5846 92.2331 88.1201 91.9414 88.667C91.6543 89.2139 91.333 89.8177 90.9775 90.4785C91.2555 90.4785 91.5449 90.4808 91.8457 90.4854C92.1465 90.4899 92.4336 90.4945 92.707 90.499C92.985 90.5036 93.2357 90.5104 93.459 90.5195C93.6823 90.5286 93.8646 90.5332 94.0059 90.5332L94.1426 90.916L93.1787 91.4424L94.0742 91.7705L93.9033 92.1875H88.7422L88.5303 91.9756ZM95.0791 84.6953C95.0882 84.4082 95.127 84.1051 95.1953 83.7861C95.2637 83.4626 95.3571 83.1504 95.4756 82.8496C95.5941 82.5488 95.7331 82.2708 95.8926 82.0156C96.0566 81.7604 96.2367 81.5485 96.4326 81.3799C96.665 81.1839 96.9658 81.0426 97.335 80.9561C97.7041 80.8649 98.0846 80.8216 98.4766 80.8262C98.8685 80.8307 99.2422 80.8763 99.5977 80.9629C99.9531 81.0449 100.224 81.152 100.411 81.2842C100.58 81.4072 100.73 81.5804 100.862 81.8037C100.999 82.027 101.115 82.2799 101.211 82.5625C101.311 82.8451 101.396 83.1436 101.464 83.458C101.537 83.7725 101.591 84.0778 101.628 84.374C101.674 84.7568 101.705 85.1807 101.724 85.6455C101.742 86.1058 101.735 86.582 101.703 87.0742C101.671 87.5618 101.614 88.0518 101.532 88.5439C101.455 89.0316 101.348 89.4896 101.211 89.918C101.079 90.3464 100.91 90.7337 100.705 91.0801C100.5 91.4264 100.261 91.6976 99.9873 91.8936C99.7913 92.0348 99.5384 92.1465 99.2285 92.2285C98.9232 92.3151 98.5905 92.3721 98.2305 92.3994C97.875 92.4268 97.5104 92.4199 97.1367 92.3789C96.763 92.3424 96.4121 92.2786 96.084 92.1875C96.1204 92.151 96.1637 92.1146 96.2139 92.0781C96.2686 92.0371 96.3141 92.0075 96.3506 91.9893L96.0703 91.627L97.1641 91.5312L96.1387 90.7725L96.1523 90.7588C96.3483 90.777 96.5557 90.7975 96.7744 90.8203C96.9932 90.8431 97.2119 90.8568 97.4307 90.8613C97.654 90.8659 97.8704 90.8522 98.0801 90.8203C98.2897 90.7884 98.488 90.7223 98.6748 90.6221C98.8252 90.54 98.9551 90.4193 99.0645 90.2598C99.1784 90.1003 99.2695 89.9225 99.3379 89.7266C99.4108 89.5306 99.4655 89.321 99.502 89.0977C99.5384 88.8698 99.5612 88.6442 99.5703 88.4209C99.2148 88.4756 98.8617 88.5075 98.5107 88.5166C98.1644 88.5257 97.8385 88.5166 97.5332 88.4893C97.2279 88.4619 96.9613 88.4186 96.7334 88.3594C96.5055 88.3001 96.346 88.2272 96.2549 88.1406C95.8356 87.776 95.5234 87.3044 95.3184 86.7256C95.1133 86.1468 95.0335 85.4701 95.0791 84.6953ZM97.0752 83.6221C96.9749 83.891 96.9089 84.1781 96.877 84.4834C96.8451 84.7842 96.8519 85.0986 96.8975 85.4268C96.943 85.7503 97.041 86.0671 97.1914 86.377C97.3053 86.6003 97.4626 86.762 97.6631 86.8623C97.8682 86.958 98.0846 87.0059 98.3125 87.0059C98.5449 87.0059 98.7637 86.9648 98.9688 86.8828C99.1738 86.7962 99.3333 86.68 99.4473 86.5342C99.5885 86.3382 99.6865 86.0876 99.7412 85.7822C99.7959 85.4769 99.8141 85.1579 99.7959 84.8252C99.7777 84.488 99.7298 84.1576 99.6523 83.834C99.5794 83.5059 99.486 83.2188 99.3721 82.9727C99.3174 82.8405 99.2012 82.7402 99.0234 82.6719C98.8457 82.6035 98.6543 82.5648 98.4492 82.5557C98.2441 82.5465 98.0459 82.5739 97.8545 82.6377C97.6631 82.6969 97.5264 82.7858 97.4443 82.9043C97.3031 83.1094 97.18 83.3486 97.0752 83.6221ZM102.558 91.9756L102.906 91.5859C102.833 91.4538 102.763 91.3376 102.694 91.2373C102.631 91.1325 102.59 91.0573 102.571 91.0117C102.662 90.8613 102.797 90.638 102.975 90.3418C103.152 90.041 103.348 89.6969 103.562 89.3096C103.777 88.9222 104 88.5052 104.232 88.0586C104.469 87.612 104.695 87.1631 104.909 86.7119C105.087 86.3382 105.256 85.9759 105.415 85.625C105.575 85.2695 105.702 84.9437 105.798 84.6475C105.898 84.3467 105.96 84.0778 105.982 83.8408C106.005 83.5993 105.973 83.4079 105.887 83.2666C105.823 83.1618 105.691 83.0934 105.49 83.0615C105.29 83.0251 105.055 83.0091 104.786 83.0137C104.522 83.0182 104.237 83.041 103.932 83.082C103.631 83.123 103.351 83.1663 103.091 83.2119L103.48 82.624L102.906 82.3984L103.282 81.9131C103.246 81.8857 103.209 81.8516 103.173 81.8105C103.136 81.7832 103.098 81.7536 103.057 81.7217C103.02 81.6898 102.979 81.6556 102.934 81.6191C103.221 81.5052 103.549 81.4004 103.918 81.3047C104.287 81.2044 104.665 81.1292 105.053 81.0791C105.44 81.029 105.818 81.0107 106.188 81.0244C106.557 81.0381 106.892 81.1042 107.192 81.2227C107.726 81.4368 108.056 81.7786 108.184 82.248C108.316 82.7129 108.275 83.2689 108.061 83.916C107.874 84.4766 107.673 85.012 107.459 85.5225C107.245 86.0283 107.015 86.541 106.769 87.0605C106.527 87.5846 106.26 88.1201 105.969 88.667C105.682 89.2139 105.36 89.8177 105.005 90.4785C105.283 90.4785 105.572 90.4808 105.873 90.4854C106.174 90.4899 106.461 90.4945 106.734 90.499C107.012 90.5036 107.263 90.5104 107.486 90.5195C107.71 90.5286 107.892 90.5332 108.033 90.5332L108.17 90.916L107.206 91.4424L108.102 91.7705L107.931 92.1875H102.77L102.558 91.9756ZM109.202 85.8984C109.22 85.6113 109.291 85.2627 109.414 84.8525C109.542 84.4424 109.697 84.0345 109.879 83.6289C110.061 83.2233 110.262 82.8542 110.48 82.5215C110.699 82.1888 110.911 81.9564 111.116 81.8242C111.294 81.7103 111.49 81.6146 111.704 81.5371C111.923 81.4596 112.146 81.3981 112.374 81.3525C112.602 81.307 112.83 81.2773 113.058 81.2637C113.285 81.2454 113.507 81.2523 113.721 81.2842L113.529 82.4873L114.521 82.0635L114.616 82.501L115.307 82.3574C115.635 82.7858 115.901 83.3145 116.106 83.9434C116.312 84.5677 116.419 85.2536 116.428 86.001C116.437 86.8213 116.389 87.5824 116.284 88.2842C116.184 88.9814 116.036 89.599 115.84 90.1367C115.644 90.6745 115.402 91.1234 115.115 91.4834C114.833 91.8389 114.514 92.0872 114.158 92.2285C113.908 92.3333 113.627 92.4085 113.317 92.4541C113.007 92.4997 112.693 92.5133 112.374 92.4951C112.06 92.4769 111.754 92.4222 111.458 92.3311C111.166 92.2445 110.904 92.1214 110.672 91.9619C110.02 91.5062 109.59 90.7679 109.38 89.7471C109.17 88.7217 109.111 87.4388 109.202 85.8984ZM110.925 86.7393C110.925 86.8122 110.929 87.0013 110.938 87.3066C110.948 87.612 110.975 87.9515 111.021 88.3252C111.066 88.6989 111.141 89.068 111.246 89.4326C111.355 89.7926 111.504 90.0615 111.69 90.2393C111.813 90.3623 111.955 90.4421 112.114 90.4785C112.274 90.515 112.431 90.5264 112.586 90.5127C112.745 90.499 112.898 90.4671 113.044 90.417C113.19 90.3669 113.308 90.3076 113.399 90.2393C113.559 90.1253 113.702 89.943 113.83 89.6924C113.962 89.4417 114.072 89.1683 114.158 88.8721C114.249 88.5713 114.32 88.2682 114.37 87.9629C114.425 87.653 114.452 87.3818 114.452 87.1494C114.452 86.8395 114.454 86.5273 114.459 86.2129C114.464 85.8939 114.438 85.5885 114.384 85.2969C114.334 85.0007 114.24 84.7204 114.104 84.4561C113.971 84.1872 113.766 83.9456 113.488 83.7314C113.365 83.6403 113.238 83.5833 113.105 83.5605C112.978 83.5332 112.848 83.5264 112.716 83.54C112.584 83.5537 112.456 83.5879 112.333 83.6426C112.215 83.6927 112.103 83.7497 111.998 83.8135C111.811 83.9365 111.652 84.1257 111.52 84.3809C111.392 84.6315 111.285 84.9004 111.198 85.1875C111.116 85.4746 111.052 85.7617 111.007 86.0488C110.961 86.3314 110.934 86.5615 110.925 86.7393Z" fill="white"/>
<path d="M2.28 144.377V133.177H6.04C7.064 133.177 7.98133 133.417 8.792 133.897C9.61333 134.366 10.2533 135.028 10.712 135.881C11.1707 136.734 11.4 137.7 11.4 138.777C11.4 139.854 11.1707 140.82 10.712 141.673C10.2533 142.526 9.61333 143.193 8.792 143.673C7.98133 144.142 7.064 144.377 6.04 144.377H2.28ZM6.04 143.177C6.808 143.177 7.50133 142.996 8.12 142.633C8.73867 142.26 9.224 141.742 9.576 141.081C9.93867 140.409 10.12 139.641 10.12 138.777C10.12 137.913 9.93867 137.15 9.576 136.489C9.224 135.817 8.73867 135.3 8.12 134.937C7.50133 134.564 6.808 134.377 6.04 134.377H3.56V143.177H6.04ZM16.6831 144.537C15.9685 144.537 15.3178 144.361 14.7311 144.009C14.1445 143.657 13.6805 143.166 13.3391 142.537C13.0085 141.908 12.8431 141.188 12.8431 140.377C12.8431 139.566 13.0085 138.846 13.3391 138.217C13.6805 137.588 14.1445 137.097 14.7311 136.745C15.3178 136.393 15.9685 136.217 16.6831 136.217C17.3658 136.217 17.9898 136.382 18.5551 136.713C19.1205 137.044 19.5631 137.502 19.8831 138.089C20.2031 138.665 20.3631 139.321 20.3631 140.057C20.3631 140.484 20.3365 140.777 20.2831 140.937H14.0431C14.1178 141.684 14.4058 142.286 14.9071 142.745C15.4085 143.193 16.0005 143.417 16.6831 143.417C17.1631 143.417 17.5898 143.305 17.9631 143.081C18.3471 142.857 18.6405 142.542 18.8431 142.137H20.1231C19.8458 142.905 19.4085 143.497 18.8111 143.913C18.2245 144.329 17.5151 144.537 16.6831 144.537ZM19.1631 139.817C19.1205 139.092 18.8645 138.5 18.3951 138.041C17.9365 137.572 17.3658 137.337 16.6831 137.337C15.9685 137.337 15.3711 137.572 14.8911 138.041C14.4111 138.5 14.1285 139.092 14.0431 139.817H19.1631ZM25.48 144.537C24.7653 144.537 24.1147 144.361 23.528 144.009C22.9413 143.657 22.4773 143.166 22.136 142.537C21.8053 141.908 21.64 141.188 21.64 140.377C21.64 139.566 21.8053 138.846 22.136 138.217C22.4773 137.588 22.9413 137.097 23.528 136.745C24.1147 136.393 24.7653 136.217 25.48 136.217C26.1627 136.217 26.7867 136.382 27.352 136.713C27.9173 137.044 28.36 137.502 28.68 138.089C29 138.665 29.16 139.321 29.16 140.057C29.16 140.484 29.1333 140.777 29.08 140.937H22.84C22.9147 141.684 23.2027 142.286 23.704 142.745C24.2053 143.193 24.7973 143.417 25.48 143.417C25.96 143.417 26.3867 143.305 26.76 143.081C27.144 142.857 27.4373 142.542 27.64 142.137H28.92C28.6427 142.905 28.2053 143.497 27.608 143.913C27.0213 144.329 26.312 144.537 25.48 144.537ZM27.96 139.817C27.9173 139.092 27.6613 138.5 27.192 138.041C26.7333 137.572 26.1627 137.337 25.48 137.337C24.7653 137.337 24.168 137.572 23.688 138.041C23.208 138.5 22.9253 139.092 22.84 139.817H27.96ZM30.9169 147.577V136.377H31.9569L32.1169 137.497H32.1969C32.5275 137.081 32.9009 136.766 33.3169 136.553C33.7329 136.329 34.2129 136.217 34.7569 136.217C35.4502 136.217 36.0742 136.393 36.6289 136.745C37.1942 137.097 37.6369 137.588 37.9569 138.217C38.2769 138.846 38.4369 139.566 38.4369 140.377C38.4369 141.188 38.2769 141.908 37.9569 142.537C37.6369 143.166 37.1942 143.657 36.6289 144.009C36.0742 144.361 35.4502 144.537 34.7569 144.537C34.2129 144.537 33.7329 144.43 33.3169 144.217C32.9009 143.993 32.5275 143.673 32.1969 143.257H32.1169V147.577H30.9169ZM34.6769 143.417C35.1355 143.417 35.5569 143.289 35.9409 143.033C36.3355 142.777 36.6502 142.42 36.8849 141.961C37.1195 141.502 37.2369 140.974 37.2369 140.377C37.2369 139.78 37.1195 139.252 36.8849 138.793C36.6502 138.334 36.3355 137.977 35.9409 137.721C35.5569 137.465 35.1355 137.337 34.6769 137.337C34.2182 137.337 33.7915 137.465 33.3969 137.721C33.0129 137.977 32.7035 138.334 32.4689 138.793C32.2342 139.252 32.1169 139.78 32.1169 140.377C32.1169 140.974 32.2342 141.502 32.4689 141.961C32.7035 142.42 33.0129 142.777 33.3969 143.033C33.7915 143.289 34.2182 143.417 34.6769 143.417ZM42.7581 144.537C42.1181 144.537 41.5528 144.425 41.0621 144.201C40.5821 143.966 40.2088 143.662 39.9421 143.289C39.6861 142.905 39.5581 142.494 39.5581 142.057H40.7581C40.7581 142.43 40.9341 142.75 41.2861 143.017C41.6488 143.284 42.1395 143.417 42.7581 143.417C43.3661 143.417 43.8355 143.305 44.1661 143.081C44.5075 142.846 44.6781 142.558 44.6781 142.217C44.6781 141.897 44.5661 141.641 44.3421 141.449C44.1288 141.246 43.7875 141.102 43.3181 141.017L41.9581 140.777C40.4648 140.521 39.7181 139.774 39.7181 138.537C39.7181 137.865 39.9688 137.31 40.4701 136.873C40.9821 136.436 41.7181 136.217 42.6781 136.217C43.2968 136.217 43.8408 136.334 44.3101 136.569C44.7901 136.793 45.1581 137.097 45.4141 137.481C45.6701 137.865 45.7981 138.27 45.7981 138.697H44.5981C44.5981 138.324 44.4221 138.004 44.0701 137.737C43.7181 137.47 43.2541 137.337 42.6781 137.337C42.1128 137.337 41.6755 137.454 41.3661 137.689C41.0675 137.913 40.9181 138.196 40.9181 138.537C40.9181 138.836 41.0141 139.076 41.2061 139.257C41.4088 139.438 41.7395 139.572 42.1981 139.657L43.5581 139.897C44.3581 140.036 44.9448 140.297 45.3181 140.681C45.6915 141.065 45.8781 141.577 45.8781 142.217C45.8781 142.889 45.6061 143.444 45.0621 143.881C44.5288 144.318 43.7608 144.537 42.7581 144.537ZM47.6375 144.377V133.177H48.8375V137.257H48.9175C49.1308 136.99 49.4508 136.75 49.8775 136.537C50.3042 136.324 50.7842 136.217 51.3175 136.217C51.9255 136.217 52.4695 136.361 52.9495 136.649C53.4402 136.926 53.8242 137.321 54.1015 137.833C54.3788 138.345 54.5175 138.926 54.5175 139.577V144.377H53.3175V139.577C53.3175 139.161 53.2215 138.782 53.0295 138.441C52.8375 138.1 52.5762 137.833 52.2455 137.641C51.9148 137.438 51.5522 137.337 51.1575 137.337C50.7415 137.337 50.3522 137.444 49.9895 137.657C49.6375 137.86 49.3548 138.132 49.1415 138.473C48.9388 138.814 48.8375 139.182 48.8375 139.577V144.377H47.6375ZM57.9606 144.377H56.7606V136.377H57.9606V144.377ZM58.0566 134.697H56.6966V133.337H58.0566V134.697ZM61.4781 144.377H60.2781V133.177H61.4781V140.057L65.0621 136.377H66.5981L62.7581 140.297L66.7581 144.377H65.2221L61.4781 140.537V144.377ZM67.9656 144.377V133.177H69.1656V137.257H69.2456C69.459 136.99 69.779 136.75 70.2056 136.537C70.6323 136.324 71.1123 136.217 71.6456 136.217C72.2536 136.217 72.7976 136.361 73.2776 136.649C73.7683 136.926 74.1523 137.321 74.4296 137.833C74.707 138.345 74.8456 138.926 74.8456 139.577V144.377H73.6456V139.577C73.6456 139.161 73.5496 138.782 73.3576 138.441C73.1656 138.1 72.9043 137.833 72.5736 137.641C72.243 137.438 71.8803 137.337 71.4856 137.337C71.0696 137.337 70.6803 137.444 70.3176 137.657C69.9656 137.86 69.683 138.132 69.4696 138.473C69.267 138.814 69.1656 139.182 69.1656 139.577V144.377H67.9656ZM79.5688 144.537C78.7368 144.537 78.0594 144.308 77.5368 143.849C77.0248 143.38 76.7688 142.782 76.7688 142.057C76.7688 141.257 77.0301 140.633 77.5528 140.185C78.0861 139.726 78.8914 139.497 79.9688 139.497H82.1288V139.257C82.1288 138.66 81.9581 138.19 81.6168 137.849C81.2754 137.508 80.8061 137.337 80.2088 137.337C79.6328 137.337 79.1634 137.47 78.8008 137.737C78.4488 137.993 78.2514 138.313 78.2088 138.697H77.0088C77.0408 138.26 77.1848 137.854 77.4408 137.481C77.6968 137.097 78.0594 136.793 78.5288 136.569C79.0088 136.334 79.5688 136.217 80.2088 136.217C81.1794 136.217 81.9421 136.489 82.4968 137.033C83.0514 137.566 83.3288 138.308 83.3288 139.257V144.377H82.2888L82.1288 143.417H82.0488C81.8674 143.705 81.5528 143.966 81.1048 144.201C80.6674 144.425 80.1554 144.537 79.5688 144.537ZM79.5688 143.417C80.3688 143.417 80.9928 143.198 81.4408 142.761C81.8994 142.313 82.1288 141.705 82.1288 140.937V140.617H79.9688C79.2861 140.617 78.7794 140.75 78.4488 141.017C78.1288 141.284 77.9688 141.63 77.9688 142.057C77.9688 142.462 78.1074 142.793 78.3848 143.049C78.6621 143.294 79.0568 143.417 79.5688 143.417ZM93.2446 140.057L97.7406 144.377H96.1406L91.6606 140.057H90.7006V144.377H89.4206V133.177H94.3006C94.8873 133.177 95.4206 133.326 95.9006 133.625C96.3913 133.924 96.7806 134.334 97.0686 134.857C97.3566 135.38 97.5006 135.966 97.5006 136.617C97.5006 137.268 97.3566 137.854 97.0686 138.377C96.7806 138.9 96.3913 139.31 95.9006 139.609C95.4206 139.908 94.8873 140.057 94.3006 140.057H93.2446ZM90.7006 138.857H94.3006C94.834 138.857 95.2873 138.649 95.6606 138.233C96.034 137.817 96.2206 137.278 96.2206 136.617C96.2206 135.956 96.034 135.417 95.6606 135.001C95.2873 134.585 94.834 134.377 94.3006 134.377H90.7006V138.857ZM101.663 144.537C100.831 144.537 100.153 144.308 99.6305 143.849C99.1185 143.38 98.8625 142.782 98.8625 142.057C98.8625 141.257 99.1238 140.633 99.6465 140.185C100.18 139.726 100.985 139.497 102.062 139.497H104.223V139.257C104.223 138.66 104.052 138.19 103.711 137.849C103.369 137.508 102.9 137.337 102.303 137.337C101.727 137.337 101.257 137.47 100.895 137.737C100.543 137.993 100.345 138.313 100.303 138.697H99.1025C99.1345 138.26 99.2785 137.854 99.5345 137.481C99.7905 137.097 100.153 136.793 100.623 136.569C101.103 136.334 101.663 136.217 102.303 136.217C103.273 136.217 104.036 136.489 104.591 137.033C105.145 137.566 105.423 138.308 105.423 139.257V144.377H104.383L104.223 143.417H104.143C103.961 143.705 103.647 143.966 103.199 144.201C102.761 144.425 102.249 144.537 101.663 144.537ZM101.663 143.417C102.463 143.417 103.087 143.198 103.535 142.761C103.993 142.313 104.223 141.705 104.223 140.937V140.617H102.062C101.38 140.617 100.873 140.75 100.543 141.017C100.223 141.284 100.062 141.63 100.062 142.057C100.062 142.462 100.201 142.793 100.479 143.049C100.756 143.294 101.151 143.417 101.663 143.417ZM110.871 144.377H108.791L106.631 136.377H107.911L109.671 143.097H109.991L111.751 136.377H113.671L115.431 143.097H115.751L117.511 136.377H118.791L116.631 144.377H114.551L112.871 137.897H112.551L110.871 144.377ZM122.475 144.537C121.643 144.537 120.966 144.308 120.443 143.849C119.931 143.38 119.675 142.782 119.675 142.057C119.675 141.257 119.936 140.633 120.459 140.185C120.992 139.726 121.798 139.497 122.875 139.497H125.035V139.257C125.035 138.66 124.864 138.19 124.523 137.849C124.182 137.508 123.712 137.337 123.115 137.337C122.539 137.337 122.07 137.47 121.707 137.737C121.355 137.993 121.158 138.313 121.115 138.697H119.915C119.947 138.26 120.091 137.854 120.347 137.481C120.603 137.097 120.966 136.793 121.435 136.569C121.915 136.334 122.475 136.217 123.115 136.217C124.086 136.217 124.848 136.489 125.403 137.033C125.958 137.566 126.235 138.308 126.235 139.257V144.377H125.195L125.035 143.417H124.955C124.774 143.705 124.459 143.966 124.011 144.201C123.574 144.425 123.062 144.537 122.475 144.537ZM122.475 143.417C123.275 143.417 123.899 143.198 124.347 142.761C124.806 142.313 125.035 141.705 125.035 140.937V140.617H122.875C122.192 140.617 121.686 140.75 121.355 141.017C121.035 141.284 120.875 141.63 120.875 142.057C120.875 142.462 121.014 142.793 121.291 143.049C121.568 143.294 121.963 143.417 122.475 143.417ZM130.323 144.377C129.886 144.377 129.534 144.254 129.267 144.009C129.011 143.753 128.883 143.422 128.883 143.017V137.497H127.603V136.377H128.883V134.137H130.083V136.377H131.923V137.497H130.083V142.777C130.083 143.097 130.243 143.257 130.563 143.257H131.923V144.377H130.323Z" fill="white" fill-opacity="0.6"/>
<mask id="path-13-inside-3_1585_11208" fill="white">
<path fill-rule="evenodd" clip-rule="evenodd" d="M16.7227 158.377H32.2599L33.8401 160.847L35.3592 158.377H119.157V158.393C119.391 158.382 119.626 158.377 119.863 158.377C128.442 158.377 135.397 165.317 135.397 173.877C135.397 182.437 128.442 189.377 119.863 189.377C119.626 189.377 119.391 189.372 119.157 189.361V189.377H16.7227V189.376C16.6587 189.377 16.5947 189.377 16.5306 189.377C11.4038 189.377 6.85711 186.899 4.02789 183.078L5.49938 180.616L1.45285 177.623C1.15445 176.423 0.996094 175.169 0.996094 173.877C0.996094 165.317 7.95112 158.377 16.5306 158.377C16.5947 158.377 16.6587 158.377 16.7227 158.378V158.377Z"/>
</mask>
<path fill-rule="evenodd" clip-rule="evenodd" d="M16.7227 158.377H32.2599L33.8401 160.847L35.3592 158.377H119.157V158.393C119.391 158.382 119.626 158.377 119.863 158.377C128.442 158.377 135.397 165.317 135.397 173.877C135.397 182.437 128.442 189.377 119.863 189.377C119.626 189.377 119.391 189.372 119.157 189.361V189.377H16.7227V189.376C16.6587 189.377 16.5947 189.377 16.5306 189.377C11.4038 189.377 6.85711 186.899 4.02789 183.078L5.49938 180.616L1.45285 177.623C1.15445 176.423 0.996094 175.169 0.996094 173.877C0.996094 165.317 7.95112 158.377 16.5306 158.377C16.5947 158.377 16.6587 158.377 16.7227 158.378V158.377Z" fill="url(#paint1_linear_1585_11208)"/>
<path d="M32.2599 158.377L33.0168 157.893L32.7518 157.478H32.2599V158.377ZM16.7227 158.377V157.478H15.8241V158.377H16.7227ZM33.8401 160.847L33.0831 161.331L33.8551 162.538L34.6054 161.318L33.8401 160.847ZM35.3592 158.377V157.478H34.8569L34.5938 157.906L35.3592 158.377ZM119.157 158.377H120.056V157.478H119.157V158.377ZM119.157 158.393H118.259V159.332L119.197 159.29L119.157 158.393ZM119.157 189.361L119.197 188.464L118.259 188.422V189.361H119.157ZM119.157 189.377V190.276H120.056V189.377H119.157ZM16.7227 189.377H15.8241V190.276H16.7227V189.377ZM16.7227 189.376H17.6212V188.466L16.7118 188.477L16.7227 189.376ZM4.02789 183.078L3.25664 182.617L2.94922 183.131L3.30574 183.613L4.02789 183.078ZM5.49938 180.616L6.27062 181.078L6.68854 180.378L6.03375 179.894L5.49938 180.616ZM1.45285 177.623L0.580875 177.84L0.658836 178.153L0.918482 178.345L1.45285 177.623ZM16.7227 158.378L16.7118 159.277L17.6212 159.288V158.378H16.7227ZM32.2599 157.478H16.7227V159.276H32.2599V157.478ZM34.597 160.363L33.0168 157.893L31.503 158.861L33.0831 161.331L34.597 160.363ZM34.5938 157.906L33.0747 160.376L34.6054 161.318L36.1246 158.848L34.5938 157.906ZM119.157 157.478H35.3592V159.276H119.157V157.478ZM120.056 158.393V158.377H118.259V158.393H120.056ZM119.863 157.478C119.613 157.478 119.365 157.484 119.117 157.495L119.197 159.29C119.418 159.28 119.64 159.276 119.863 159.276V157.478ZM136.296 173.877C136.296 164.818 128.936 157.478 119.863 157.478V159.276C127.948 159.276 134.499 165.815 134.499 173.877H136.296ZM119.863 190.276C128.936 190.276 136.296 182.936 136.296 173.877H134.499C134.499 181.939 127.948 188.478 119.863 188.478V190.276ZM119.117 190.259C119.364 190.27 119.613 190.276 119.863 190.276V188.478C119.64 188.478 119.418 188.473 119.197 188.464L119.117 190.259ZM120.056 189.377V189.361H118.259V189.377H120.056ZM16.7227 190.276H119.157V188.478H16.7227V190.276ZM15.8241 189.376V189.377H17.6212V189.376H15.8241ZM16.5306 190.276C16.5983 190.276 16.666 190.275 16.7335 190.274L16.7118 188.477C16.6515 188.478 16.5911 188.478 16.5306 188.478V190.276ZM3.30574 183.613C6.29742 187.653 11.1075 190.276 16.5306 190.276V188.478C11.7001 188.478 7.4168 186.145 4.75003 182.543L3.30574 183.613ZM4.72813 180.155L3.25664 182.617L4.79913 183.539L6.27062 181.078L4.72813 180.155ZM0.918482 178.345L4.965 181.339L6.03375 179.894L1.98723 176.901L0.918482 178.345ZM0.097543 173.877C0.097543 175.242 0.264967 176.57 0.580875 177.84L2.32483 177.406C2.04394 176.277 1.89464 175.095 1.89464 173.877H0.097543ZM16.5306 157.478C7.45675 157.478 0.097543 164.818 0.097543 173.877H1.89464C1.89464 165.815 8.44549 159.276 16.5306 159.276V157.478ZM16.7335 157.48C16.666 157.479 16.5983 157.478 16.5306 157.478V159.276C16.5911 159.276 16.6515 159.276 16.7118 159.277L16.7335 157.48ZM15.8241 158.377V158.378H17.6212V158.377H15.8241Z" fill="#70320D" fill-opacity="0.1" mask="url(#path-13-inside-3_1585_11208)"/>
<mask id="path-15-outside-4_1585_11208" maskUnits="userSpaceOnUse" x="-0.00390625" y="157.377" width="137" height="33" fill="black">
<rect fill="white" x="-0.00390625" y="157.377" width="137" height="33"/>
<path fill-rule="evenodd" clip-rule="evenodd" d="M16.7227 158.377H32.2599L33.8401 160.847L35.3592 158.377H119.157V158.387C119.344 158.38 119.531 158.377 119.718 158.377C128.298 158.377 135.253 165.317 135.253 173.877C135.253 182.437 128.298 189.377 119.718 189.377C119.531 189.377 119.344 189.374 119.157 189.367V189.377H16.7227V189.376C16.6587 189.377 16.5947 189.377 16.5306 189.377C11.4038 189.377 6.85711 186.899 4.02789 183.078L5.49938 180.616L1.45285 177.623C1.15445 176.423 0.996094 175.169 0.996094 173.877C0.996094 165.317 7.95112 158.377 16.5306 158.377C16.5947 158.377 16.6587 158.377 16.7227 158.378V158.377Z"/>
</mask>
<path d="M32.2599 158.377L33.0168 157.893L32.7518 157.478H32.2599V158.377ZM16.7227 158.377V157.478H15.8241V158.377H16.7227ZM33.8401 160.847L33.0831 161.331L33.8551 162.538L34.6054 161.318L33.8401 160.847ZM35.3592 158.377V157.478H34.8569L34.5938 157.906L35.3592 158.377ZM119.157 158.377H120.056V157.478H119.157V158.377ZM119.157 158.387H118.259V159.318L119.189 159.285L119.157 158.387ZM119.157 189.367L119.189 188.469L118.259 188.436V189.367H119.157ZM119.157 189.377V190.276H120.056V189.377H119.157ZM16.7227 189.377H15.8241V190.276H16.7227V189.377ZM16.7227 189.376H17.6212V188.466L16.7118 188.477L16.7227 189.376ZM4.02789 183.078L3.25664 182.617L2.94922 183.131L3.30574 183.613L4.02789 183.078ZM5.49938 180.616L6.27062 181.078L6.68854 180.378L6.03375 179.894L5.49938 180.616ZM1.45285 177.623L0.580875 177.84L0.658836 178.153L0.918482 178.345L1.45285 177.623ZM16.7227 158.378L16.7118 159.277L17.6212 159.288V158.378H16.7227ZM32.2599 157.478H16.7227V159.276H32.2599V157.478ZM34.597 160.363L33.0168 157.893L31.503 158.861L33.0831 161.331L34.597 160.363ZM34.5938 157.906L33.0747 160.376L34.6054 161.318L36.1246 158.848L34.5938 157.906ZM119.157 157.478H35.3592V159.276H119.157V157.478ZM120.056 158.387V158.377H118.259V158.387H120.056ZM119.718 157.478C119.52 157.478 119.322 157.482 119.126 157.489L119.189 159.285C119.365 159.279 119.541 159.276 119.718 159.276V157.478ZM136.151 173.877C136.151 164.818 128.792 157.478 119.718 157.478V159.276C127.803 159.276 134.354 165.815 134.354 173.877H136.151ZM119.718 190.276C128.792 190.276 136.151 182.936 136.151 173.877H134.354C134.354 181.939 127.803 188.478 119.718 188.478V190.276ZM119.126 190.265C119.322 190.272 119.52 190.276 119.718 190.276V188.478C119.541 188.478 119.365 188.475 119.189 188.469L119.126 190.265ZM120.056 189.377V189.367H118.259V189.377H120.056ZM16.7227 190.276H119.157V188.478H16.7227V190.276ZM15.8241 189.376V189.377H17.6212V189.376H15.8241ZM16.5306 190.276C16.5983 190.276 16.666 190.275 16.7335 190.274L16.7118 188.477C16.6515 188.478 16.5911 188.478 16.5306 188.478V190.276ZM3.30574 183.613C6.29742 187.653 11.1075 190.276 16.5306 190.276V188.478C11.7001 188.478 7.4168 186.145 4.75003 182.543L3.30574 183.613ZM4.72813 180.155L3.25664 182.617L4.79913 183.539L6.27062 181.078L4.72813 180.155ZM0.918482 178.345L4.965 181.339L6.03375 179.894L1.98723 176.901L0.918482 178.345ZM0.097543 173.877C0.097543 175.242 0.264967 176.57 0.580875 177.84L2.32483 177.406C2.04394 176.277 1.89464 175.095 1.89464 173.877H0.097543ZM16.5306 157.478C7.45675 157.478 0.097543 164.818 0.097543 173.877H1.89464C1.89464 165.815 8.44549 159.276 16.5306 159.276V157.478ZM16.7335 157.48C16.666 157.479 16.5983 157.478 16.5306 157.478V159.276C16.5911 159.276 16.6515 159.276 16.7118 159.277L16.7335 157.48ZM15.8241 158.377V158.378H17.6212V158.377H15.8241Z" fill="#70320D" mask="url(#path-15-outside-4_1585_11208)"/>
<path d="M15.1481 159.275C7.42056 159.275 3.39206 166.464 2.34375 170.058C5.57853 162.33 10.4307 159.949 14.9235 159.949H32.2206L31.7713 159.275H15.1481Z" fill="white" fill-opacity="0.45"/>
<path d="M15.2216 188.479C13.1574 188.479 12.24 187.955 11.7812 187.58C47.6761 187.356 119.5 187.356 121.014 187.356C122.528 187.356 124.913 185.783 126.002 185.334L126.346 186.008C124.007 187.805 121.931 188.404 121.186 188.479H15.2216Z" fill="white" fill-opacity="0.45"/>
<path d="M28.4062 162.42L28.7515 161.791L29.9598 159.275H120.238C122.709 159.275 125.319 160.506 126.459 161.466C126.603 161.57 126.718 161.679 126.798 161.791C126.707 161.688 126.593 161.579 126.459 161.466C125.101 160.487 121.174 159.904 120.238 159.904H30.1324L28.4062 162.42Z" fill="white" fill-opacity="0.45"/>
<path d="M15.8486 174.128L16.4092 173.649L16.1562 172.713L17.7422 172.569L17.7559 170.587L18.5078 170.539L18.959 170.054L19.3896 170.081V172.501L21.1123 172.378L21.1396 172.617L20.6543 173.287L21.126 173.779L21.085 174.039L19.3623 174.436L19.2393 176.678H18.4805L17.8789 176.616L17.7832 174.634L15.9307 174.743L15.8486 174.128ZM21.8711 171.072C21.8802 170.785 21.9189 170.482 21.9873 170.163C22.0557 169.84 22.1491 169.527 22.2676 169.227C22.3861 168.926 22.5251 168.648 22.6846 168.393C22.8486 168.137 23.0286 167.925 23.2246 167.757C23.457 167.561 23.7578 167.42 24.127 167.333C24.4961 167.242 24.8766 167.199 25.2686 167.203C25.6605 167.208 26.0342 167.253 26.3896 167.34C26.7451 167.422 27.0163 167.529 27.2031 167.661C27.3717 167.784 27.5221 167.957 27.6543 168.181C27.791 168.404 27.9072 168.657 28.0029 168.939C28.1032 169.222 28.1875 169.521 28.2559 169.835C28.3288 170.149 28.3835 170.455 28.4199 170.751C28.4655 171.134 28.4974 171.558 28.5156 172.022C28.5339 172.483 28.527 172.959 28.4951 173.451C28.4632 173.939 28.4062 174.429 28.3242 174.921C28.2467 175.409 28.1396 175.867 28.0029 176.295C27.8708 176.723 27.7021 177.111 27.4971 177.457C27.292 177.803 27.0527 178.075 26.7793 178.271C26.5833 178.412 26.3304 178.523 26.0205 178.605C25.7152 178.692 25.3825 178.749 25.0225 178.776C24.667 178.804 24.3024 178.797 23.9287 178.756C23.555 178.719 23.2041 178.656 22.876 178.564C22.9124 178.528 22.9557 178.492 23.0059 178.455C23.0605 178.414 23.1061 178.384 23.1426 178.366L22.8623 178.004L23.9561 177.908L22.9307 177.149L22.9443 177.136C23.1403 177.154 23.3477 177.174 23.5664 177.197C23.7852 177.22 24.0039 177.234 24.2227 177.238C24.446 177.243 24.6624 177.229 24.8721 177.197C25.0817 177.165 25.2799 177.099 25.4668 176.999C25.6172 176.917 25.7471 176.796 25.8564 176.637C25.9704 176.477 26.0615 176.299 26.1299 176.104C26.2028 175.908 26.2575 175.698 26.2939 175.475C26.3304 175.247 26.3532 175.021 26.3623 174.798C26.0068 174.853 25.6536 174.884 25.3027 174.894C24.9564 174.903 24.6305 174.894 24.3252 174.866C24.0199 174.839 23.7533 174.796 23.5254 174.736C23.2975 174.677 23.138 174.604 23.0469 174.518C22.6276 174.153 22.3154 173.681 22.1104 173.103C21.9053 172.524 21.8255 171.847 21.8711 171.072ZM23.8672 169.999C23.7669 170.268 23.7008 170.555 23.6689 170.86C23.637 171.161 23.6439 171.476 23.6895 171.804C23.735 172.127 23.833 172.444 23.9834 172.754C24.0973 172.977 24.2546 173.139 24.4551 173.239C24.6602 173.335 24.8766 173.383 25.1045 173.383C25.3369 173.383 25.5557 173.342 25.7607 173.26C25.9658 173.173 26.1253 173.057 26.2393 172.911C26.3805 172.715 26.4785 172.465 26.5332 172.159C26.5879 171.854 26.6061 171.535 26.5879 171.202C26.5697 170.865 26.5218 170.535 26.4443 170.211C26.3714 169.883 26.278 169.596 26.1641 169.35C26.1094 169.217 25.9932 169.117 25.8154 169.049C25.6377 168.98 25.4463 168.942 25.2412 168.933C25.0361 168.924 24.8379 168.951 24.6465 169.015C24.4551 169.074 24.3184 169.163 24.2363 169.281C24.0951 169.486 23.972 169.726 23.8672 169.999ZM29.3359 169.746L32.1523 167.34L32.5557 168.119L33.2393 167.702L33.1572 176.924L34.7227 176.91L34.8115 177.334L34.1074 177.819L34.7842 178.257L34.415 178.633L30.0469 178.701L30.5664 178.271L29.7939 177.778L30.2314 177.512L29.9785 176.999L31.5645 176.814L31.3115 170.279L30.0469 170.895L29.8145 170.737L30.2998 169.787L29.3359 169.746ZM38.6465 174.866C38.6374 174.57 38.6283 174.233 38.6191 173.854C38.61 173.476 38.6146 173.077 38.6328 172.658C38.651 172.257 38.6807 171.847 38.7217 171.428C38.7673 171.004 38.8402 170.596 38.9404 170.204C39.0316 169.812 39.1546 169.452 39.3096 169.124C39.4645 168.791 39.6536 168.502 39.877 168.256C40.1048 168.005 40.3691 167.805 40.6699 167.654C40.9753 167.499 41.3285 167.404 41.7295 167.367C42.2035 167.322 42.6478 167.308 43.0625 167.326C43.4818 167.344 43.8486 167.399 44.1631 167.49L44.0537 167.688L44.2314 167.928L43.1855 168.263L44.334 168.81L44.2314 168.946C44.0264 168.919 43.8213 168.898 43.6162 168.885C43.4111 168.871 43.2061 168.873 43.001 168.892C42.723 168.91 42.445 168.962 42.167 169.049C41.8936 169.131 41.627 169.27 41.3672 169.466C41.1986 169.598 41.0596 169.753 40.9502 169.931C40.8454 170.104 40.7565 170.311 40.6836 170.553C40.6152 170.79 40.5651 171.065 40.5332 171.38C40.5013 171.69 40.4694 172.041 40.4375 172.433C40.8568 172.3 41.2555 172.216 41.6338 172.18C42.012 172.143 42.3607 172.139 42.6797 172.166C42.9987 172.193 43.2767 172.25 43.5137 172.337C43.7507 172.419 43.9352 172.512 44.0674 172.617C44.2178 172.731 44.3613 172.895 44.498 173.109C44.6393 173.319 44.7578 173.561 44.8535 173.834C44.9538 174.103 45.0244 174.388 45.0654 174.688C45.111 174.985 45.1087 175.274 45.0586 175.557C45.013 175.876 44.9538 176.17 44.8809 176.438C44.8125 176.707 44.7214 176.958 44.6074 177.19C44.498 177.423 44.3545 177.642 44.1768 177.847C43.999 178.047 43.7803 178.229 43.5205 178.394C43.3519 178.507 43.1035 178.592 42.7754 178.646C42.4518 178.706 42.11 178.733 41.75 178.729C41.39 178.724 41.0436 178.683 40.7109 178.605C40.3828 178.533 40.1253 178.421 39.9385 178.271C39.8063 178.166 39.6673 178.018 39.5215 177.826C39.3802 177.635 39.2458 177.398 39.1182 177.115C38.9906 176.833 38.8812 176.505 38.79 176.131C38.7035 175.757 38.6556 175.336 38.6465 174.866ZM40.5264 174.812C40.499 175.053 40.499 175.295 40.5264 175.536C40.5537 175.773 40.6016 175.999 40.6699 176.213C40.7428 176.427 40.834 176.605 40.9434 176.746C41.0664 176.906 41.2191 177.017 41.4014 177.081C41.5837 177.145 41.7682 177.17 41.9551 177.156C42.1419 177.143 42.3128 177.102 42.4678 177.033C42.6273 176.96 42.7503 176.874 42.8369 176.773C42.9508 176.623 43.042 176.434 43.1104 176.206C43.1787 175.978 43.2197 175.739 43.2334 175.488C43.2471 175.233 43.2334 174.982 43.1924 174.736C43.1514 174.49 43.0739 174.278 42.96 174.101C42.8779 173.959 42.7344 173.848 42.5293 173.766C42.3242 173.679 42.1032 173.631 41.8662 173.622C41.6338 173.613 41.4128 173.652 41.2031 173.738C40.9935 173.82 40.8363 173.959 40.7314 174.155C40.6266 174.351 40.5583 174.57 40.5264 174.812ZM46.1523 177.84L46.2344 177.56C46.5352 177.514 46.8542 177.446 47.1914 177.354C47.5332 177.263 47.8682 177.154 48.1963 177.026C48.5244 176.894 48.8252 176.742 49.0986 176.568C49.3766 176.395 49.5931 176.201 49.748 175.987C49.9076 175.773 49.9941 175.543 50.0078 175.297C50.0215 175.051 49.9303 174.782 49.7344 174.49C49.6706 174.399 49.5635 174.328 49.4131 174.278C49.2627 174.224 49.0964 174.183 48.9141 174.155C48.7363 174.128 48.5472 174.112 48.3467 174.107C48.1462 174.103 47.9661 174.101 47.8066 174.101L47.9297 173.69L47.6357 173.451L48.1689 173.034L47.499 172.604C47.777 172.453 48.0618 172.271 48.3535 172.057C48.6497 171.842 48.9004 171.61 49.1055 171.359C49.3105 171.104 49.4359 170.835 49.4814 170.553C49.5316 170.266 49.4495 169.979 49.2354 169.691C49.0485 169.45 48.8161 169.304 48.5381 169.254C48.2646 169.199 47.9958 169.181 47.7314 169.199C47.5446 169.217 47.3441 169.24 47.1299 169.268C46.9157 169.295 46.6969 169.327 46.4736 169.363L46.8838 168.823L46.3096 168.611L46.8838 168.222L46.4736 167.757C46.82 167.652 47.196 167.575 47.6016 167.524C48.0072 167.474 48.4036 167.447 48.791 167.442C49.1784 167.438 49.5316 167.451 49.8506 167.483C50.1742 167.515 50.4202 167.565 50.5889 167.634C50.9899 167.793 51.2861 168.058 51.4775 168.427C51.6689 168.791 51.7396 169.217 51.6895 169.705C51.6393 170.188 51.4661 170.71 51.1699 171.271C50.8783 171.831 50.4476 172.382 49.8779 172.925C50.5114 173.139 50.9967 173.387 51.334 173.67C51.6712 173.948 51.8809 174.185 51.9629 174.381C52.0951 174.709 52.1383 175.049 52.0928 175.399C52.0518 175.746 51.9424 176.083 51.7646 176.411C51.5869 176.735 51.359 177.042 51.0811 177.334C50.8031 177.621 50.4954 177.867 50.1582 178.072C49.6751 178.373 49.1305 178.599 48.5244 178.749C47.9229 178.904 47.3555 179.007 46.8223 179.057C46.8314 179.029 46.8473 178.995 46.8701 178.954L46.9248 178.845L46.9795 178.735L46.6172 178.592L47.3418 177.99L46.1523 177.84ZM53.043 171.072C53.0521 170.785 53.0908 170.482 53.1592 170.163C53.2275 169.84 53.321 169.527 53.4395 169.227C53.5579 168.926 53.6969 168.648 53.8564 168.393C54.0205 168.137 54.2005 167.925 54.3965 167.757C54.6289 167.561 54.9297 167.42 55.2988 167.333C55.668 167.242 56.0485 167.199 56.4404 167.203C56.8324 167.208 57.2061 167.253 57.5615 167.34C57.917 167.422 58.1882 167.529 58.375 167.661C58.5436 167.784 58.694 167.957 58.8262 168.181C58.9629 168.404 59.0791 168.657 59.1748 168.939C59.2751 169.222 59.3594 169.521 59.4277 169.835C59.5007 170.149 59.5553 170.455 59.5918 170.751C59.6374 171.134 59.6693 171.558 59.6875 172.022C59.7057 172.483 59.6989 172.959 59.667 173.451C59.6351 173.939 59.5781 174.429 59.4961 174.921C59.4186 175.409 59.3115 175.867 59.1748 176.295C59.0426 176.723 58.874 177.111 58.6689 177.457C58.4639 177.803 58.2246 178.075 57.9512 178.271C57.7552 178.412 57.5023 178.523 57.1924 178.605C56.887 178.692 56.5544 178.749 56.1943 178.776C55.8389 178.804 55.4743 178.797 55.1006 178.756C54.7269 178.719 54.376 178.656 54.0479 178.564C54.0843 178.528 54.1276 178.492 54.1777 178.455C54.2324 178.414 54.278 178.384 54.3145 178.366L54.0342 178.004L55.1279 177.908L54.1025 177.149L54.1162 177.136C54.3122 177.154 54.5195 177.174 54.7383 177.197C54.957 177.22 55.1758 177.234 55.3945 177.238C55.6178 177.243 55.8343 177.229 56.0439 177.197C56.2536 177.165 56.4518 177.099 56.6387 176.999C56.7891 176.917 56.9189 176.796 57.0283 176.637C57.1423 176.477 57.2334 176.299 57.3018 176.104C57.3747 175.908 57.4294 175.698 57.4658 175.475C57.5023 175.247 57.5251 175.021 57.5342 174.798C57.1787 174.853 56.8255 174.884 56.4746 174.894C56.1283 174.903 55.8024 174.894 55.4971 174.866C55.1917 174.839 54.9251 174.796 54.6973 174.736C54.4694 174.677 54.3099 174.604 54.2188 174.518C53.7995 174.153 53.4873 173.681 53.2822 173.103C53.0771 172.524 52.9974 171.847 53.043 171.072ZM55.0391 169.999C54.9388 170.268 54.8727 170.555 54.8408 170.86C54.8089 171.161 54.8158 171.476 54.8613 171.804C54.9069 172.127 55.0049 172.444 55.1553 172.754C55.2692 172.977 55.4264 173.139 55.627 173.239C55.832 173.335 56.0485 173.383 56.2764 173.383C56.5088 173.383 56.7275 173.342 56.9326 173.26C57.1377 173.173 57.2972 173.057 57.4111 172.911C57.5524 172.715 57.6504 172.465 57.7051 172.159C57.7598 171.854 57.778 171.535 57.7598 171.202C57.7415 170.865 57.6937 170.535 57.6162 170.211C57.5433 169.883 57.4499 169.596 57.3359 169.35C57.2812 169.217 57.165 169.117 56.9873 169.049C56.8096 168.98 56.6182 168.942 56.4131 168.933C56.208 168.924 56.0098 168.951 55.8184 169.015C55.627 169.074 55.4902 169.163 55.4082 169.281C55.2669 169.486 55.1439 169.726 55.0391 169.999ZM63.3926 176.903C63.2422 176.425 63.1784 175.93 63.2012 175.42C63.2285 174.905 63.3516 174.395 63.5703 173.889C63.7891 173.383 64.1217 172.925 64.5684 172.515C64.2676 172.104 64.0352 171.676 63.8711 171.229C63.7116 170.783 63.6204 170.354 63.5977 169.944C63.5749 169.53 63.625 169.147 63.748 168.796C63.8757 168.44 64.0853 168.151 64.377 167.928C64.5547 167.786 64.7757 167.663 65.04 167.559C65.3044 167.449 65.5892 167.367 65.8945 167.312C66.2044 167.253 66.5234 167.221 66.8516 167.217C67.1797 167.212 67.4873 167.242 67.7744 167.306L67.6377 168.263L68.5059 168.01V168.468L69.2305 168.358C69.4082 168.659 69.529 168.985 69.5928 169.336C69.6611 169.682 69.6589 170.038 69.5859 170.402C69.5176 170.767 69.374 171.127 69.1553 171.482C68.9365 171.838 68.6312 172.168 68.2393 172.474C68.6038 172.66 68.9046 172.909 69.1416 173.219C69.3786 173.524 69.554 173.861 69.668 174.23C69.7865 174.6 69.8503 174.982 69.8594 175.379C69.8685 175.775 69.832 176.16 69.75 176.534C69.668 176.908 69.5426 177.252 69.374 177.566C69.2054 177.876 69.0003 178.134 68.7588 178.339C68.5993 178.471 68.3896 178.58 68.1299 178.667C67.8747 178.758 67.5944 178.824 67.2891 178.865C66.9883 178.906 66.6761 178.924 66.3525 178.92C66.0335 178.915 65.7259 178.883 65.4297 178.824C65.138 178.765 64.8691 178.678 64.623 178.564C64.3815 178.451 64.1901 178.312 64.0488 178.147C63.7617 177.792 63.543 177.377 63.3926 176.903ZM65.0332 174.969C64.974 175.219 64.9466 175.475 64.9512 175.734C64.9603 175.99 65.0036 176.233 65.0811 176.466C65.1585 176.698 65.2861 176.899 65.4639 177.067C65.5459 177.149 65.6712 177.222 65.8398 177.286C66.0085 177.345 66.1885 177.38 66.3799 177.389C66.5713 177.398 66.7627 177.375 66.9541 177.32C67.1455 177.261 67.3073 177.154 67.4395 176.999C67.5898 176.812 67.7106 176.593 67.8018 176.343C67.8975 176.088 67.9521 175.828 67.9658 175.563C67.9795 175.295 67.9544 175.033 67.8906 174.777C67.8314 174.522 67.7334 174.297 67.5967 174.101C67.4736 173.941 67.3005 173.834 67.0771 173.779C66.8538 173.72 66.6191 173.706 66.373 173.738C66.1315 173.766 65.9082 173.829 65.7031 173.93C65.498 174.025 65.359 174.146 65.2861 174.292C65.1813 174.488 65.097 174.714 65.0332 174.969ZM65.3545 169.678C65.2998 169.901 65.2747 170.133 65.2793 170.375C65.2839 170.617 65.318 170.854 65.3818 171.086C65.4456 171.314 65.5391 171.487 65.6621 171.605C65.8307 171.774 66.0586 171.877 66.3457 171.913C66.6374 171.95 66.904 171.899 67.1455 171.763C67.3506 171.64 67.5055 171.457 67.6104 171.216C67.7197 170.974 67.7835 170.719 67.8018 170.45C67.82 170.177 67.7926 169.919 67.7197 169.678C67.6468 169.432 67.5306 169.245 67.3711 169.117C67.2663 169.044 67.1364 168.985 66.9814 168.939C66.8311 168.889 66.6715 168.864 66.5029 168.864C66.3343 168.864 66.1702 168.887 66.0107 168.933C65.8512 168.978 65.7214 169.053 65.6211 169.158C65.498 169.281 65.4092 169.454 65.3545 169.678ZM70.8164 167.982L70.8438 167.757L75.6152 167.395L75.4785 168.119L76.2783 168.051L76.2305 168.652L76.668 168.68L73.1953 178.353L72.833 178.161L72.5254 178.353L72.4844 177.443L71.4316 178.633L71.3223 178.578L74.1592 169.548H71.4453L71.6572 169.145L71.0967 168.851L71.9375 168.249L70.8164 167.982ZM77.0098 171.072C77.0189 170.785 77.0576 170.482 77.126 170.163C77.1943 169.84 77.2878 169.527 77.4062 169.227C77.5247 168.926 77.6637 168.648 77.8232 168.393C77.9873 168.137 78.1673 167.925 78.3633 167.757C78.5957 167.561 78.8965 167.42 79.2656 167.333C79.6348 167.242 80.0153 167.199 80.4072 167.203C80.7992 167.208 81.1729 167.253 81.5283 167.34C81.8838 167.422 82.1549 167.529 82.3418 167.661C82.5104 167.784 82.6608 167.957 82.793 168.181C82.9297 168.404 83.0459 168.657 83.1416 168.939C83.2419 169.222 83.3262 169.521 83.3945 169.835C83.4674 170.149 83.5221 170.455 83.5586 170.751C83.6042 171.134 83.6361 171.558 83.6543 172.022C83.6725 172.483 83.6657 172.959 83.6338 173.451C83.6019 173.939 83.5449 174.429 83.4629 174.921C83.3854 175.409 83.2783 175.867 83.1416 176.295C83.0094 176.723 82.8408 177.111 82.6357 177.457C82.4307 177.803 82.1914 178.075 81.918 178.271C81.722 178.412 81.4691 178.523 81.1592 178.605C80.8538 178.692 80.5212 178.749 80.1611 178.776C79.8057 178.804 79.4411 178.797 79.0674 178.756C78.6937 178.719 78.3428 178.656 78.0146 178.564C78.0511 178.528 78.0944 178.492 78.1445 178.455C78.1992 178.414 78.2448 178.384 78.2812 178.366L78.001 178.004L79.0947 177.908L78.0693 177.149L78.083 177.136C78.279 177.154 78.4863 177.174 78.7051 177.197C78.9238 177.22 79.1426 177.234 79.3613 177.238C79.5846 177.243 79.8011 177.229 80.0107 177.197C80.2204 177.165 80.4186 177.099 80.6055 176.999C80.7559 176.917 80.8857 176.796 80.9951 176.637C81.109 176.477 81.2002 176.299 81.2686 176.104C81.3415 175.908 81.3962 175.698 81.4326 175.475C81.4691 175.247 81.4919 175.021 81.501 174.798C81.1455 174.853 80.7923 174.884 80.4414 174.894C80.0951 174.903 79.7692 174.894 79.4639 174.866C79.1585 174.839 78.8919 174.796 78.6641 174.736C78.4362 174.677 78.2767 174.604 78.1855 174.518C77.7663 174.153 77.4541 173.681 77.249 173.103C77.0439 172.524 76.9642 171.847 77.0098 171.072ZM79.0059 169.999C78.9056 170.268 78.8395 170.555 78.8076 170.86C78.7757 171.161 78.7826 171.476 78.8281 171.804C78.8737 172.127 78.9717 172.444 79.1221 172.754C79.236 172.977 79.3932 173.139 79.5938 173.239C79.7988 173.335 80.0153 173.383 80.2432 173.383C80.4756 173.383 80.6943 173.342 80.8994 173.26C81.1045 173.173 81.264 173.057 81.3779 172.911C81.5192 172.715 81.6172 172.465 81.6719 172.159C81.7266 171.854 81.7448 171.535 81.7266 171.202C81.7083 170.865 81.6605 170.535 81.583 170.211C81.5101 169.883 81.4167 169.596 81.3027 169.35C81.248 169.217 81.1318 169.117 80.9541 169.049C80.7764 168.98 80.585 168.942 80.3799 168.933C80.1748 168.924 79.9766 168.951 79.7852 169.015C79.5938 169.074 79.457 169.163 79.375 169.281C79.2337 169.486 79.1107 169.726 79.0059 169.999ZM87.332 177.84L87.4141 177.56C87.7148 177.514 88.0339 177.446 88.3711 177.354C88.7129 177.263 89.0479 177.154 89.376 177.026C89.7041 176.894 90.0049 176.742 90.2783 176.568C90.5563 176.395 90.7728 176.201 90.9277 175.987C91.0872 175.773 91.1738 175.543 91.1875 175.297C91.2012 175.051 91.11 174.782 90.9141 174.49C90.8503 174.399 90.7432 174.328 90.5928 174.278C90.4424 174.224 90.276 174.183 90.0938 174.155C89.916 174.128 89.7269 174.112 89.5264 174.107C89.3258 174.103 89.1458 174.101 88.9863 174.101L89.1094 173.69L88.8154 173.451L89.3486 173.034L88.6787 172.604C88.9567 172.453 89.2415 172.271 89.5332 172.057C89.8294 171.842 90.0801 171.61 90.2852 171.359C90.4902 171.104 90.6156 170.835 90.6611 170.553C90.7113 170.266 90.6292 169.979 90.415 169.691C90.2282 169.45 89.9958 169.304 89.7178 169.254C89.4443 169.199 89.1755 169.181 88.9111 169.199C88.7243 169.217 88.5238 169.24 88.3096 169.268C88.0954 169.295 87.8766 169.327 87.6533 169.363L88.0635 168.823L87.4893 168.611L88.0635 168.222L87.6533 167.757C87.9997 167.652 88.3757 167.575 88.7812 167.524C89.1868 167.474 89.5833 167.447 89.9707 167.442C90.3581 167.438 90.7113 167.451 91.0303 167.483C91.3538 167.515 91.5999 167.565 91.7686 167.634C92.1696 167.793 92.4658 168.058 92.6572 168.427C92.8486 168.791 92.9193 169.217 92.8691 169.705C92.819 170.188 92.6458 170.71 92.3496 171.271C92.0579 171.831 91.6273 172.382 91.0576 172.925C91.6911 173.139 92.1764 173.387 92.5137 173.67C92.8509 173.948 93.0605 174.185 93.1426 174.381C93.2747 174.709 93.318 175.049 93.2725 175.399C93.2314 175.746 93.1221 176.083 92.9443 176.411C92.7666 176.735 92.5387 177.042 92.2607 177.334C91.9827 177.621 91.6751 177.867 91.3379 178.072C90.8548 178.373 90.3102 178.599 89.7041 178.749C89.1025 178.904 88.5352 179.007 88.002 179.057C88.0111 179.029 88.027 178.995 88.0498 178.954L88.1045 178.845L88.1592 178.735L87.7969 178.592L88.5215 177.99L87.332 177.84ZM94.2021 174.784L94.667 167.784L94.749 167.757L95.002 168.652L95.5762 168.064L95.7334 168.543L96.1367 168.399L95.8975 173.314L98.3379 173.075V167.688L98.4062 167.634L98.9531 168.598L99.6777 167.688L99.958 167.716L99.999 173.157L100.97 173.034L100.983 173.342L100.013 174.039L100.826 174.354L100.505 174.812L100.717 175.092L99.958 175.201L99.999 178.619L99.6777 178.688L99.2061 178.113L98.9531 178.995L98.502 178.913L98.3379 175.263L94.8652 175.468V174.743L94.2021 174.784ZM101.79 174.784L102.255 167.784L102.337 167.757L102.59 168.652L103.164 168.064L103.321 168.543L103.725 168.399L103.485 173.314L105.926 173.075V167.688L105.994 167.634L106.541 168.598L107.266 167.688L107.546 167.716L107.587 173.157L108.558 173.034L108.571 173.342L107.601 174.039L108.414 174.354L108.093 174.812L108.305 175.092L107.546 175.201L107.587 178.619L107.266 178.688L106.794 178.113L106.541 178.995L106.09 178.913L105.926 175.263L102.453 175.468V174.743L101.79 174.784ZM109.48 167.982L109.508 167.757L114.279 167.395L114.143 168.119L114.942 168.051L114.895 168.652L115.332 168.68L111.859 178.353L111.497 178.161L111.189 178.353L111.148 177.443L110.096 178.633L109.986 178.578L112.823 169.548H110.109L110.321 169.145L109.761 168.851L110.602 168.249L109.48 167.982Z" fill="white"/>
<defs>
<linearGradient id="paint0_linear_1585_11208" x1="0.996094" y1="103" x2="168.441" y2="69.0945" gradientUnits="userSpaceOnUse">
<stop stop-color="#FEA018"/>
<stop offset="1" stop-color="#FEB71E"/>
</linearGradient>
<linearGradient id="paint1_linear_1585_11208" x1="0.996094" y1="189.377" x2="168.441" y2="155.471" gradientUnits="userSpaceOnUse">
<stop stop-color="#FEA018"/>
<stop offset="1" stop-color="#FEB71E"/>
</linearGradient>
</defs>
</svg>
