<svg width="29" height="31" viewBox="0 0 29 31" fill="none" xmlns="http://www.w3.org/2000/svg">
<g clip-path="url(#clip0_299_364)">
<path d="M28.9166 17.0664C28.9084 20.5336 27.5993 23.8714 25.2481 26.4196C22.8969 28.9677 19.6749 30.5406 16.2196 30.8271C16.2196 30.8271 7.10823 31.0493 4.08192 30.7996C3.53478 30.7354 3.01409 30.5286 2.57196 30.1999C2.12982 29.8713 1.78173 29.4323 1.5625 28.9269C1.98304 29.1297 2.43614 29.2565 2.90087 29.3015C3.89965 29.3864 5.5776 29.4288 7.92723 29.4288C11.378 29.4288 15.1284 29.3339 15.1684 29.3339H15.2333C18.6685 29.0499 21.9014 27.5928 24.3893 25.2072C26.8772 22.8216 28.4687 19.6526 28.8966 16.2324C28.9091 16.4946 28.9166 16.7768 28.9166 17.0664Z" fill="white"/>
<path d="M27.7846 14.0368C27.7777 17.5048 26.4691 20.8438 24.1178 23.3931C21.7664 25.9423 18.5438 27.5159 15.0876 27.8024C15.0876 27.8024 5.97874 28.0322 2.95743 27.7725C1.33441 27.6252 0.123392 26.1095 0.0859375 24.4366L0.135876 3.50212C0.180822 1.83416 1.39933 0.321006 3.02235 0.188668C6.04616 -0.0610275 15.155 0.218631 15.155 0.218631C18.6086 0.520809 21.8228 2.10847 24.1616 4.6674C26.5005 7.22633 27.7934 10.57 27.7846 14.0368Z" fill="white"/>
</g>
<defs>
<clipPath id="clip0_299_364">
<rect width="28.8298" height="30.8273" fill="white" transform="translate(0.0859375 0.0869141)"/>
</clipPath>
</defs>
</svg>
