<svg width="215" height="121" viewBox="0 0 215 121" fill="none" xmlns="http://www.w3.org/2000/svg">
<g filter="url(#filter0_d_221_385)">
<path d="M142.509 48.6148C143.16 68.5018 129.921 85.0688 112.935 85.6248C95.9512 86.1818 81.6552 70.5108 81.0042 50.6288C80.3542 30.7388 93.1512 0.564803 110.134 0.00780343C127.122 -0.548197 141.862 28.7298 142.509 48.6148Z" fill="white"/>
<path opacity="0.3" d="M110.134 0.00780343C93.1512 0.564803 80.3542 30.7388 81.0042 50.6288C81.6542 70.5108 95.9512 86.1818 112.935 85.6248C129.921 85.0688 143.161 68.5018 142.509 48.6148C141.862 28.7298 127.122 -0.548197 110.134 0.00780343ZM108.419 70.3698C94.6582 70.8188 83.1182 59.4188 82.6452 44.9078C82.1692 30.3968 92.6132 8.34082 106.374 7.88982C120.13 7.43982 131.994 28.7678 132.47 43.2778C132.944 57.7918 122.175 69.9168 108.419 70.3698Z" fill="white"/>
<path opacity="0.5" d="M87.4609 55.8538C88.9749 58.8638 91.4199 62.3838 95.2899 65.0918C95.2899 65.0918 92.2229 61.3197 90.0919 54.7188C89.2199 55.1098 88.3439 55.4908 87.4609 55.8538Z" fill="#B1C2D9"/>
<g opacity="0.7">
<path opacity="0.4" d="M86.9075 55.3296C86.7275 54.9036 86.4935 54.7486 86.1475 54.5146C85.7365 54.2336 85.1255 54.1406 84.6625 54.0876C83.9385 54.0056 83.2605 54.3706 82.8455 55.0276C82.5245 55.5346 82.3985 56.3086 82.4905 56.9936C82.2585 57.7656 82.1445 58.8256 82.8755 59.2196C83.3535 59.4806 84.0225 59.3926 84.5035 59.2326C85.5515 58.8856 86.4165 58.0776 86.8535 56.9366C87.0335 56.4616 87.1175 55.8226 86.9075 55.3296Z" fill="#007C8B"/>
<path opacity="0.4" d="M95.1383 56.0961C95.0973 56.0311 95.0473 55.9701 95.0013 55.9081C94.9903 55.8841 94.9813 55.861 94.9713 55.836C94.9603 55.771 94.9453 55.706 94.9133 55.651C94.7343 55.323 94.4193 55.3061 94.1283 55.4601C93.8503 55.6071 93.6183 55.8821 93.5113 56.2051C93.5073 56.2041 93.5073 56.2041 93.5053 56.2041C93.5013 56.2261 93.4953 56.242 93.4903 56.262C93.4883 56.269 93.4883 56.2751 93.4843 56.2821C93.4423 56.4501 93.4113 56.6101 93.4423 56.7901C93.4593 56.9051 93.4903 57.028 93.5393 57.134C93.5443 57.142 93.5493 57.1541 93.5543 57.1621C93.5773 57.2611 93.6063 57.36 93.6353 57.456C93.6763 57.587 93.7753 57.6401 93.8863 57.6481C93.9213 57.6781 93.9583 57.7081 94.0033 57.7261C94.1263 57.7731 94.2493 57.7791 94.3723 57.7431C94.7693 57.6591 95.0683 57.2941 95.2203 56.8941C95.2733 56.7491 95.2953 56.5981 95.2873 56.4461C95.2773 56.3081 95.2273 56.1911 95.1383 56.0961Z" fill="#355675"/>
<path opacity="0.4" d="M96.3774 45.6501C96.2304 45.5291 96.0714 45.4341 95.9184 45.3721C95.1234 45.0331 94.1224 46.0791 94.0574 46.9291C93.9384 48.3451 94.1674 51.5321 95.9774 51.4781C97.3694 51.4351 98.6844 49.8111 98.9594 48.3801C99.2384 46.9091 97.6704 45.1241 96.3774 45.6501Z" fill="#355675"/>
<path opacity="0.4" d="M94.0573 62.8839C94.0413 62.4099 93.5083 62.6669 93.3463 62.8419C93.3293 62.8659 93.3073 62.8879 93.2883 62.9089C92.5173 63.7649 94.0984 64.1279 94.0614 62.9549C94.0604 62.9289 94.0573 62.9069 94.0573 62.8839Z" fill="#355675"/>
<path opacity="0.4" d="M105.977 50.8188C105.61 50.0528 105.008 49.0688 104.201 48.8798C103.149 48.6338 102.313 49.5378 101.873 50.5138C101.325 51.7308 101.191 53.7778 101.747 55.0688C101.769 55.2088 101.801 55.3538 101.837 55.5048C102.103 56.5058 102.984 56.8808 103.825 56.7148C104.962 56.4928 105.979 55.1038 106.34 53.9538C106.675 52.8708 106.448 51.7968 105.977 50.8188Z" fill="#355675"/>
<path opacity="0.4" d="M110.035 63.8371C109.982 63.6991 109.885 63.6671 109.764 63.6451C109.732 63.6411 109.701 63.6321 109.668 63.6271C109.539 63.5981 109.366 63.7001 109.27 63.7831C109.137 63.8911 109.026 64.0421 108.966 64.2151C108.922 64.3481 108.9 64.5081 108.953 64.6451C109.03 64.8271 109.209 64.8721 109.368 64.8321C109.406 64.8241 109.439 64.8141 109.475 64.8061C109.722 64.7461 109.933 64.5131 110.026 64.2571C110.069 64.1241 110.089 63.9681 110.035 63.8371Z" fill="#355675"/>
<path opacity="0.4" d="M117.076 50.0416C116.844 49.7596 116.491 49.3696 116.155 49.2706C115.403 49.0496 114.706 49.8266 114.56 50.6036C114.463 51.1196 114.444 51.6196 114.506 52.1246C114.46 52.3956 114.477 52.6706 114.596 52.9186C115.508 54.8216 117.742 53.0596 117.691 51.3656C117.679 50.8516 117.368 50.4056 117.076 50.0416Z" fill="#355675"/>
<path opacity="0.4" d="M108.785 46.5535C108.779 46.5295 108.777 46.5035 108.77 46.4775C108.791 46.3165 108.768 46.1525 108.658 46.0355C108.496 45.8615 108.245 45.9025 108.062 46.0005C107.825 46.1235 107.623 46.3625 107.525 46.6415C107.451 46.8565 107.435 47.1245 107.595 47.3025C107.709 47.4325 107.859 47.4515 108.009 47.4795C108.207 47.5155 108.432 47.3335 108.555 47.1865C108.681 47.0375 108.828 46.7695 108.785 46.5535Z" fill="#355675"/>
<path opacity="0.4" d="M84.7016 45.388C84.6956 45.378 84.6886 45.366 84.6856 45.354C84.5996 45.154 84.4646 45.013 84.2816 44.929C84.0836 44.855 83.8826 44.845 83.6806 44.901C83.4356 44.929 83.1616 45.14 82.9626 45.279C82.7636 45.416 82.5356 45.72 82.4086 45.934C82.2756 46.159 82.1926 46.402 82.1466 46.665C82.1076 46.915 82.1356 47.072 82.2066 47.309C82.2366 47.402 82.3106 47.477 82.3636 47.556C82.3916 47.598 82.4316 47.626 82.4706 47.652C82.6826 47.848 83.0266 47.856 83.2666 47.798C83.5356 47.73 83.7336 47.582 83.9606 47.421C84.2746 47.2 84.5376 46.789 84.6726 46.408C84.7766 46.111 84.8446 45.69 84.7016 45.388Z" fill="#355675"/>
<path opacity="0.4" d="M98.9914 43.085C98.9494 43.062 98.9054 43.053 98.8624 43.046C98.8404 43.04 98.8224 43.032 98.8004 43.029C98.6234 43.008 98.4104 43.116 98.2814 43.236C98.0714 43.423 97.8854 43.679 97.8444 43.99C97.8174 44.201 97.8534 44.344 97.9724 44.509C98.0704 44.645 98.2894 44.655 98.4224 44.616C98.4344 44.612 98.4404 44.609 98.4494 44.607C98.7814 44.508 99.0594 44.225 99.1874 43.868C99.2334 43.745 99.2504 43.611 99.2404 43.478C99.2244 43.284 99.1354 43.178 98.9914 43.085Z" fill="#355675"/>
<path opacity="0.4" d="M90.6735 66.7187C90.6105 66.0457 90.1315 65.4547 89.6995 65.0277C89.4505 64.7807 89.1365 64.5347 88.8055 64.4487C88.1585 64.2807 87.5005 64.6957 87.1495 65.2997C87.0795 65.4177 86.8795 65.8317 87.0775 65.4477C86.9505 65.6937 86.9565 65.7067 86.8905 65.9707C86.8565 66.1037 86.8655 66.2487 86.8635 66.3877C86.8575 66.5807 86.8905 66.7817 86.9345 66.9767C86.9085 67.0487 86.8875 67.1277 86.8655 67.2127C86.7835 67.5637 86.8465 67.9827 86.9575 68.3197C87.1465 68.8847 87.6555 69.1657 88.1495 69.2547C89.3985 69.4847 90.8025 68.1587 90.6735 66.7187Z" fill="#007C8B"/>
<path opacity="0.4" d="M95.4947 69.7008C95.3637 69.5648 95.1867 69.6128 95.0407 69.6748C95.0047 69.6908 94.9707 69.7078 94.9337 69.7218C94.7247 69.8138 94.5467 70.0548 94.4667 70.2828C94.4017 70.4638 94.3847 70.7128 94.5237 70.8608C94.8537 71.2068 95.4157 70.6918 95.5137 70.3298C95.5237 70.2898 95.5367 70.2477 95.5467 70.2077C95.5937 70.0397 95.6267 69.8418 95.4947 69.7008Z" fill="#355675"/>
<path opacity="0.4" d="M95.6527 75.0835C95.6497 75.0575 95.6497 75.0315 95.6467 75.0055C95.6467 75.0025 95.6467 75.0015 95.6467 75.0015C95.6787 74.4565 95.5007 73.9355 94.9397 73.9105C94.4307 73.8855 94.0277 74.2175 93.7047 74.6205C93.6217 74.6865 93.5447 74.7635 93.4737 74.8475C93.3997 74.9375 93.3317 75.0415 93.2707 75.1545C93.2427 75.1965 93.2107 75.2445 93.1737 75.3015C93.0817 75.4345 93.0197 75.5915 92.9587 75.7425C92.7767 76.1695 92.8417 76.7665 93.2697 76.9685C93.3737 77.0205 93.4727 77.0435 93.5717 77.0525C93.6987 77.1405 93.8547 77.1945 94.0267 77.2125C94.7527 77.2945 95.4677 76.4205 95.6037 75.6775C95.6527 75.4825 95.6737 75.2995 95.6527 75.0835Z" fill="#355675"/>
<path opacity="0.4" d="M104.653 74.1696C104.655 74.1796 104.656 74.1906 104.659 74.2036C104.626 74.1086 104.567 74.0476 104.482 74.0186C104.493 74.0186 104.504 74.0206 104.513 74.0186C104.275 73.8726 103.96 74.0896 103.799 74.2806C103.624 74.4906 103.438 74.9306 103.673 75.1796C103.912 75.4306 104.289 75.1906 104.467 74.9796C104.624 74.7916 104.799 74.4276 104.653 74.1696Z" fill="#355675"/>
<path opacity="0.4" d="M102.699 78.6899L102.686 78.5669C102.625 78.0289 102.288 77.6669 101.803 77.6369L101.649 77.6259C100.791 77.5709 99.9668 78.3149 99.5278 79.0769C99.1528 79.7379 98.8928 80.7829 99.4728 81.4159C99.4818 81.4239 99.4848 81.4309 99.4918 81.4379C99.9228 81.9049 100.616 81.7859 101.099 81.5299C101.723 81.1989 102.322 80.5389 102.548 79.7949C102.664 79.4229 102.745 79.0849 102.699 78.6899Z" fill="#355675"/>
<path opacity="0.4" d="M103.455 63.8235C102.365 62.8895 101.253 63.5705 100.068 63.6485C99.2373 63.6995 98.5393 64.2195 98.0933 65.0025C97.7193 65.6515 97.5563 66.5475 98.0093 67.1105C98.0183 67.1485 98.0233 67.1805 98.0233 67.1835C98.0333 67.2915 98.0463 67.3915 98.0553 67.4945C98.0663 67.6525 98.1093 67.7745 98.1723 67.8705C98.1603 68.0955 98.1723 68.3225 98.2293 68.5315C98.5103 69.5985 99.8033 69.8745 100.644 69.9145C102.109 69.9885 103.619 68.8725 104.123 67.3245C104.513 66.1335 104.428 64.6605 103.455 63.8235ZM100.653 67.5095C100.702 67.5485 100.744 67.5725 100.728 67.5405C100.877 67.8265 100.697 67.7725 100.653 67.5095Z" fill="#355675"/>
<path opacity="0.4" d="M115.573 65.6738C115.566 65.6598 115.556 65.6478 115.549 65.6358C115.542 65.6228 115.536 65.6138 115.53 65.6018C115.449 65.4738 115.366 65.3448 115.282 65.2138C115.056 64.9888 114.791 64.8728 114.487 64.8668C113.749 64.8338 113.043 65.3228 112.554 65.9048C112.07 66.4858 111.675 67.3098 111.752 68.1348C111.781 68.4728 111.898 68.7618 112.113 69.0008C112.339 69.2258 112.604 69.3418 112.905 69.3508C113.679 69.4738 114.386 68.8828 114.903 68.3268C115.291 67.9108 115.581 67.2718 115.667 66.6768C115.722 66.3308 115.692 65.9938 115.573 65.6738Z" fill="#355675"/>
<g opacity="0.4">
<path d="M109.253 79.4606C109.19 79.3036 109.079 79.2236 108.952 79.1796C108.488 79.0466 108.081 79.4236 107.829 79.8206C107.673 80.0656 107.579 80.4516 107.698 80.7396C107.806 81.0026 108.104 81.1196 108.344 81.0286C108.526 80.9596 108.61 80.9356 108.768 80.8056C108.978 80.6326 109.116 80.4115 109.229 80.1515C109.231 80.1475 109.231 80.1426 109.236 80.1356C109.302 79.9216 109.343 79.6766 109.253 79.4606Z" fill="#355675"/>
<path d="M108.951 79.1797H108.953C108.967 79.1827 108.976 79.1827 108.986 79.1877C108.975 79.1837 108.963 79.1807 108.951 79.1797Z" fill="#355675"/>
<path d="M108.805 79.1455C108.854 79.1565 108.901 79.1685 108.951 79.1785C108.907 79.1635 108.862 79.1555 108.811 79.1475C108.811 79.1475 108.807 79.1475 108.805 79.1455Z" fill="#355675"/>
</g>
<path opacity="0.4" d="M123.177 47.1311C123.026 46.3891 122.542 46.0231 121.861 46.1971C121.613 46.2581 121.383 46.373 121.175 46.522C121.041 46.491 120.897 46.49 120.758 46.523C120.066 46.699 119.512 47.411 119.376 48.178C119.193 49.209 119.72 50.4681 120.772 50.4591C122.163 50.4491 123.492 48.6851 123.177 47.1311Z" fill="#355675"/>
<path opacity="0.4" d="M123.157 68.0013C122.562 68.0183 121.898 69.4132 122.669 69.3872C123.264 69.3682 123.926 67.9783 123.157 68.0013Z" fill="#355675"/>
<path opacity="0.4" d="M115.46 73.3046C115.292 72.7536 114.651 72.6226 114.221 72.7466C114.05 72.7926 113.893 72.8596 113.738 72.9436C113.697 72.8126 113.633 72.6946 113.542 72.6006C113.427 72.4786 113.284 72.4096 113.132 72.3796C112.819 72.2636 112.428 72.3436 112.151 72.4926C111.894 72.6316 111.671 72.8176 111.474 73.0526C111.384 73.1806 111.296 73.3106 111.205 73.4376C111.059 73.6886 110.964 73.9586 110.919 74.2516C110.912 74.2806 110.905 74.3126 110.899 74.3396C110.807 74.7626 110.98 75.4076 111.406 75.5336C111.485 75.5566 111.553 75.5756 111.615 75.5906C111.585 75.8246 111.607 76.0626 111.702 76.2786C112.167 77.3446 113.285 76.7266 113.986 76.2196C114.027 76.1996 114.074 76.1816 114.118 76.1536C114.173 76.1196 114.224 76.0856 114.275 76.0496C114.4 75.9856 114.523 75.9036 114.637 75.8096C115.373 75.2926 115.738 74.2176 115.46 73.3046Z" fill="#355675"/>
<path opacity="0.4" d="M133.745 57.6356C133.603 57.2976 133.278 57.0596 132.941 57.0686C132.517 57.0846 132.151 57.2356 131.812 57.5146C131.435 57.8206 131.127 58.2466 130.957 58.7326C130.824 59.1126 130.764 59.5696 130.924 59.9556C131.061 60.2936 131.39 60.5336 131.722 60.5226C132.148 60.5076 132.517 60.3596 132.858 60.0776C133.231 59.7696 133.54 59.3456 133.71 58.8596C133.841 58.4806 133.902 58.0206 133.745 57.6356Z" fill="#355675"/>
<path opacity="0.4" d="M130.386 51.1374C129.849 51.1134 129.327 51.7124 129.248 52.2804C129.247 52.2934 129.244 52.3024 129.244 52.3104C129.202 52.5964 129.289 52.8784 129.537 53.0014C129.762 53.1134 130.041 53.0834 130.256 52.9634C130.444 52.8614 130.598 52.6844 130.674 52.4644C130.689 52.4214 130.703 52.3704 130.711 52.3184C130.745 52.2554 130.774 52.1864 130.804 52.1124C130.958 51.7084 130.845 51.1584 130.386 51.1374Z" fill="#355675"/>
<path opacity="0.4" d="M141.535 48.9312C141.39 48.5782 141.05 48.3282 140.699 48.3392C140.261 48.3552 139.873 48.5112 139.516 48.8062C139.128 49.1262 138.805 49.5682 138.628 50.0762C138.489 50.4702 138.425 50.9472 138.591 51.3522C138.736 51.7062 139.076 51.9552 139.428 51.9432C139.867 51.9292 140.253 51.7702 140.609 51.4782C140.999 51.1592 141.322 50.7122 141.501 50.2062C141.638 49.8132 141.701 49.3342 141.535 48.9312Z" fill="#355675"/>
<path opacity="0.4" d="M138.831 62.5612C138.696 62.3332 138.403 62.3562 138.207 62.4622C137.978 62.5812 137.816 62.7842 137.716 63.0302C137.701 63.0572 137.683 63.0842 137.667 63.1072C137.459 63.4482 137.384 64.0252 137.787 64.2302L137.808 64.2402C137.973 64.3262 138.194 64.2632 138.349 64.1822C138.57 64.0652 138.721 63.8832 138.865 63.6652C138.873 63.6552 138.88 63.6432 138.885 63.6342C139.005 63.4532 139.075 63.1852 139.054 62.9572C139.038 62.7682 138.958 62.6552 138.831 62.5612Z" fill="#355675"/>
<path opacity="0.4" d="M133.637 69.2611C132.965 69.2821 132.377 69.8361 132.135 70.5231C131.949 71.0481 132.052 71.9021 132.714 71.8781C133.385 71.8571 133.974 71.3031 134.219 70.6181C134.402 70.0921 134.303 69.2411 133.637 69.2611Z" fill="#355675"/>
<path opacity="0.4" d="M128.724 74.009C128.695 73.919 128.636 73.835 128.59 73.743C128.582 73.611 128.561 73.497 128.51 73.311C128.472 73.171 128.402 73.071 128.31 73.001C128.425 72.749 128.508 72.487 128.55 72.205C128.609 71.811 128.566 71.647 128.459 71.278C128.35 71.013 128.172 70.829 127.93 70.72C127.502 70.535 127.106 70.689 126.704 70.853C126.327 71.005 126.046 71.294 125.799 71.623C125.19 72.111 124.704 73.066 124.782 73.909C124.789 73.966 124.8 74.026 124.812 74.084C124.817 74.112 124.827 74.143 124.833 74.173C124.839 74.189 124.839 74.207 124.847 74.224C124.893 74.366 124.961 74.5 125.056 74.615C125.058 74.616 125.063 74.62 125.063 74.622C125.073 74.636 125.085 74.651 125.095 74.666C125.108 74.677 125.12 74.683 125.131 74.697C125.164 74.725 125.197 74.755 125.235 74.78C125.246 74.791 125.261 74.801 125.274 74.809C125.319 74.839 125.364 74.864 125.415 74.885C125.421 74.887 125.43 74.889 125.438 74.893C125.454 74.9 125.468 74.903 125.488 74.91C125.533 74.926 125.578 74.938 125.623 74.947C125.641 74.952 125.658 74.954 125.675 74.956C125.725 74.967 125.773 74.968 125.823 74.969C125.765 75.184 125.719 75.408 125.676 75.629C125.663 75.804 125.661 75.979 125.663 76.158C125.667 76.489 125.837 76.673 125.997 76.921C126.287 77.382 127.07 77.198 127.422 77.014C127.986 76.718 128.471 76.118 128.701 75.469C128.867 74.983 128.885 74.506 128.724 74.009Z" fill="#355675"/>
<path opacity="0.4" d="M129.533 65.2683C129.532 65.2533 129.528 65.2373 129.526 65.2213C129.476 64.9593 129.357 64.8333 129.12 64.7963L129.078 64.7903C128.493 64.6983 127.606 65.8563 128.143 66.4213C128.675 66.9813 129.653 65.9173 129.533 65.2683Z" fill="#355675"/>
<path opacity="0.4" d="M121.535 60.9129C121.52 60.8979 121.504 60.8869 121.491 60.8749C121.425 60.7549 121.351 60.6449 121.274 60.5359C121.208 60.4109 121.113 60.3189 120.987 60.2629C120.962 60.2539 120.938 60.2459 120.911 60.2399C120.919 60.2309 120.927 60.2199 120.931 60.2089C121.203 59.7519 121.377 59.2499 121.464 58.7089C121.581 58.0119 121.42 57.3719 120.978 56.7999C120.829 56.6329 120.653 56.5159 120.46 56.4479C119.989 56.2679 119.664 56.2979 119.181 56.3949C118.689 56.5299 118.244 56.7669 117.841 57.1069C117.185 57.6429 116.647 58.3879 116.348 59.2399C116.113 59.9019 116.008 60.7069 116.285 61.3819C116.397 61.5589 116.508 61.7319 116.62 61.9049C116.927 62.2089 117.283 62.3659 117.691 62.3769C118.09 62.4439 118.752 62.2289 119.099 62.0329C119.157 62.0029 119.214 61.9639 119.275 61.9279C119.261 62.0979 119.295 62.2529 119.341 62.4209C119.381 62.5789 119.475 62.7199 119.576 62.8419C119.727 63.0259 119.936 63.0739 120.145 63.1119C120.291 63.1369 120.442 63.1029 120.588 63.0399C120.619 63.0509 120.651 63.054 120.683 63.055C120.889 63.065 121.091 62.9659 121.252 62.8329C121.559 62.5789 121.722 62.2249 121.735 61.7989C121.738 61.7169 121.732 61.635 121.721 61.555C121.741 61.312 121.703 61.0619 121.535 60.9129Z" fill="#007C8B"/>
<g opacity="0.4">
<path d="M117.028 81.8238C116.973 81.4208 116.798 81.0728 116.445 80.9188C116.118 80.7768 115.816 80.8508 115.509 80.9658C115.534 80.9678 115.578 80.9698 115.651 80.9668C115.593 80.9698 115.535 80.9708 115.475 80.9768C115.418 80.9998 115.361 81.0218 115.305 81.0428C115.372 81.0158 115.422 80.9938 115.459 80.9778C115.447 80.9788 115.434 80.9788 115.419 80.9798C115.079 81.0108 114.781 81.0598 114.467 81.2368C114.236 81.3668 114.015 81.5488 113.827 81.7638C113.497 81.6498 113.156 81.7918 112.85 81.9198C112.411 82.1058 112.05 82.5888 111.793 83.0108C111.502 83.4898 111.269 84.2928 111.527 84.8558C111.941 85.7518 112.984 85.1938 113.428 84.6618C113.491 84.5858 113.552 84.5058 113.609 84.4188C113.707 84.3248 113.797 84.2198 113.881 84.1078C113.963 84.1198 114.046 84.1258 114.132 84.1228C114.622 84.7168 115.447 84.4258 116.004 84.0008C116.608 83.5358 117.139 82.6848 117.028 81.8238Z" fill="#007C8B"/>
<path d="M115.494 80.9609C115.427 80.9379 115.645 80.8859 115.494 80.9609V80.9609Z" fill="#355675"/>
<path d="M115.507 80.9659C115.502 80.9619 115.496 80.9619 115.491 80.9609C115.483 80.9659 115.47 80.9699 115.457 80.9779C115.464 80.9769 115.468 80.977 115.473 80.977C115.484 80.971 115.496 80.9669 115.507 80.9659Z" fill="#355675"/>
</g>
<path opacity="0.4" d="M122.484 79.4369C121.846 79.4589 121.137 80.9469 121.961 80.9179C122.596 80.8969 123.306 79.4099 122.484 79.4369Z" fill="#355675"/>
<g opacity="0.4">
<path d="M108.896 83.1858L108.9 83.1748L108.898 83.1838L108.896 83.1858Z" fill="#355675"/>
<path d="M108.928 82.5216C108.877 82.4036 108.798 82.3176 108.686 82.2706C108.576 82.2006 108.403 82.2207 108.281 82.2547C107.89 82.3627 107.558 82.7147 107.411 83.1357C107.31 83.4217 107.31 83.7187 107.496 83.9577C107.675 84.1857 108.039 84.1067 108.244 83.9877C108.368 83.9187 108.476 83.8237 108.576 83.7217C108.576 83.7217 108.576 83.7196 108.578 83.7196C108.709 83.5796 108.816 83.4147 108.885 83.2267C108.89 83.2107 108.893 83.1987 108.898 83.1837C108.894 83.1837 108.894 83.1886 108.894 83.1886L108.898 83.1837V83.1827L108.9 83.1817C108.928 83.1097 108.947 83.0297 108.966 82.9247C108.988 82.7867 108.975 82.6526 108.928 82.5216Z" fill="#355675"/>
</g>
<path opacity="0.4" d="M139.888 56.005C139.857 55.868 139.822 55.734 139.792 55.599C139.687 55.345 139.514 55.166 139.281 55.062C139.027 54.966 138.772 54.953 138.511 55.027C138.207 55.11 137.929 55.256 137.675 55.469C137.522 55.62 137.367 55.769 137.22 55.924C136.781 56.39 136.455 57.178 136.522 57.864C136.579 58.473 136.982 58.896 137.524 58.922C138.168 58.952 138.785 58.525 139.207 58.019C139.447 57.732 139.635 57.409 139.767 57.045C139.881 56.734 139.928 56.411 139.905 56.079C139.9 56.052 139.892 56.028 139.888 56.005Z" fill="#007C8B"/>
<path opacity="0.4" d="M134.285 41.4139C134.161 41.2189 134.1 41.0869 133.89 40.9949C133.341 40.7569 132.704 41.1949 132.34 41.6269C132.134 41.8729 132.001 42.1389 131.91 42.4459C131.844 42.5499 131.8 42.6129 131.907 42.4599L131.909 42.4629C131.821 42.5799 131.747 42.7069 131.694 42.8529C131.608 43.0999 131.559 43.5159 131.78 43.7069C132.138 44.0159 132.548 43.9199 132.925 43.7229C133.262 43.6359 133.566 43.3539 133.795 43.0889C133.964 42.8909 134.143 42.5899 134.227 42.3269C134.261 42.2459 134.284 42.1619 134.296 42.0809C134.367 41.8509 134.398 41.6009 134.285 41.4139Z" fill="#355675"/>
<g opacity="0.4">
<path d="M138.405 37.2791C138.405 37.2791 138.403 37.2761 138.4 37.2761C138.036 37.1301 137.574 37.3801 137.346 37.6971C137.214 37.8801 137.108 38.0291 137.032 38.2571C136.943 38.5291 136.91 38.8791 137.122 39.1001C137.284 39.2751 137.502 39.2711 137.701 39.2101H137.7L137.704 39.2091C137.713 39.2071 137.721 39.2071 137.729 39.2031C137.723 39.2031 137.719 39.2031 137.715 39.2071C137.737 39.1981 137.763 39.1921 137.783 39.1821C137.912 39.1501 138.035 39.0951 138.148 38.9911C138.352 38.8061 138.577 38.5631 138.656 38.2701C138.715 38.1121 138.736 37.9471 138.724 37.7761C138.706 37.5611 138.594 37.3561 138.405 37.2791Z" fill="#355675"/>
<path d="M137.707 39.209L137.7 39.21L137.695 39.214L137.707 39.209Z" fill="#355675"/>
<path d="M137.701 39.21L137.704 39.209L137.701 39.21Z" fill="#355675"/>
</g>
</g>
<g opacity="0.7">
<path opacity="0.4" d="M92.2295 32.8933C91.7215 31.7853 90.8055 31.0353 89.7345 30.7573C89.2455 30.6283 88.5705 30.5863 88.1105 30.8753C87.4095 31.3173 87.5925 32.3673 87.8705 33.1213C87.8255 33.8103 88.0035 34.5753 88.3545 35.0613C88.8115 35.6893 89.5105 36.0083 90.2285 35.8793C90.6885 35.7953 91.2895 35.6643 91.6845 35.3573C92.0155 35.1003 92.2355 34.9323 92.3905 34.4943C92.5645 33.9853 92.4415 33.3563 92.2295 32.8933Z" fill="#007C8B"/>
<path opacity="0.4" d="M100.554 33.1907C100.514 33.2597 100.47 33.3237 100.429 33.3867C100.418 33.4097 100.411 33.4357 100.402 33.4577C100.398 33.5227 100.386 33.5907 100.361 33.6487C100.202 33.9887 99.8867 34.0237 99.5867 33.8887C99.2987 33.7647 99.0517 33.5017 98.9217 33.1857C98.9167 33.1857 98.9167 33.1867 98.9147 33.1897C98.9107 33.1707 98.9047 33.1517 98.8977 33.1317C98.8967 33.1257 98.8937 33.1167 98.8897 33.1067C98.8377 32.9447 98.7967 32.7877 98.8117 32.6097C98.8277 32.4937 98.8497 32.3667 98.8897 32.2577C98.8937 32.2477 98.8987 32.2397 98.9037 32.2317C98.9167 32.1297 98.9417 32.0287 98.9657 31.9297C98.9957 31.7947 99.0917 31.7357 99.2017 31.7247C99.2357 31.6917 99.2697 31.6607 99.3167 31.6367C99.4347 31.5837 99.5527 31.5697 99.6827 31.5957C100.084 31.6547 100.406 31.9967 100.582 32.3877C100.646 32.5287 100.678 32.6767 100.678 32.8307C100.675 32.9717 100.634 33.0907 100.554 33.1907Z" fill="#355675"/>
<path opacity="0.4" d="M102.469 43.5383C102.331 43.6623 102.178 43.7663 102.031 43.8413C101.258 44.2313 100.194 43.2544 100.069 42.4124C99.8622 41.0084 99.8792 37.8083 101.689 37.7453C103.082 37.6953 104.501 39.2313 104.865 40.6403C105.241 42.0913 103.796 43.9743 102.469 43.5383Z" fill="#355675"/>
<path opacity="0.4" d="M99.0282 26.487C99.0432 26.965 98.4952 26.741 98.3232 26.574C98.3022 26.553 98.2802 26.535 98.2602 26.514C97.4312 25.706 98.9892 25.242 99.0262 26.42C99.0282 26.442 99.0262 26.465 99.0282 26.487Z" fill="#355675"/>
<path opacity="0.4" d="M111.869 34.5978C111.437 33.4738 110.335 32.1528 109.181 32.0058C108.332 31.8968 107.477 32.3258 107.279 33.3478C107.25 33.4978 107.23 33.6428 107.214 33.7848C106.745 35.1088 107.016 37.1428 107.641 38.3238C108.14 39.2678 109.037 40.1168 110.068 39.7998C110.862 39.5588 111.399 38.5378 111.713 37.7518C112.121 36.7408 112.279 35.6508 111.869 34.5978Z" fill="#355675"/>
<path opacity="0.4" d="M114.91 24.4924C114.864 24.6324 114.768 24.6714 114.652 24.7034C114.621 24.7134 114.589 24.7204 114.556 24.7294C114.429 24.7664 114.252 24.6714 114.148 24.5994C114.011 24.4964 113.891 24.3574 113.82 24.1874C113.763 24.0574 113.734 23.8984 113.781 23.7574C113.843 23.5714 114.019 23.5164 114.179 23.5454C114.214 23.5494 114.251 23.5574 114.287 23.5664C114.538 23.6114 114.765 23.8274 114.869 24.0774C114.924 24.2054 114.959 24.3574 114.91 24.4924Z" fill="#355675"/>
<path opacity="0.4" d="M122.837 37.8014C122.625 38.0974 122.295 38.5104 121.971 38.6324C121.23 38.8964 120.484 38.1704 120.287 37.4044C120.159 36.8944 120.105 36.3984 120.137 35.8904C120.076 35.6234 120.071 35.3464 120.175 35.0914C120.961 33.1324 123.302 34.7454 123.366 36.4374C123.384 36.9504 123.106 37.4194 122.837 37.8014Z" fill="#355675"/>
<path opacity="0.4" d="M114.525 41.2079C114.39 41.0669 114.152 40.9019 113.96 40.9499C113.811 40.9889 113.663 41.0159 113.556 41.1539C113.408 41.3429 113.444 41.6049 113.532 41.8149C113.647 42.0879 113.862 42.3099 114.109 42.4219C114.296 42.5079 114.549 42.5309 114.698 42.3509C114.802 42.2239 114.815 42.0579 114.786 41.8969C114.788 41.8739 114.788 41.8479 114.791 41.8239C114.821 41.6029 114.658 41.3479 114.525 41.2079Z" fill="#355675"/>
<path opacity="0.4" d="M88.9595 44.7925C88.9565 44.8025 88.9495 44.8155 88.9435 44.8275C88.8735 45.0335 88.7505 45.1815 88.5725 45.2745C88.3785 45.3645 88.1795 45.3875 87.9735 45.3425C87.7285 45.3325 87.4385 45.1395 87.2325 45.0165C87.0265 44.8895 86.7785 44.6045 86.6385 44.3955C86.4925 44.1825 86.3915 43.9455 86.3305 43.6805C86.2705 43.4355 86.2935 43.2785 86.3465 43.0385C86.3695 42.9415 86.4365 42.8615 86.4875 42.7795C86.5125 42.7375 86.5515 42.7055 86.5885 42.6755C86.7875 42.4695 87.1275 42.4365 87.3715 42.4815C87.6435 42.5315 87.8525 42.6675 88.0935 42.8115C88.4195 43.0095 88.7065 43.4065 88.8655 43.7755C88.9885 44.0635 89.0865 44.4805 88.9595 44.7925Z" fill="#355675"/>
<path opacity="0.4" d="M105.47 45.5143C105.47 45.3793 105.446 45.2503 105.391 45.1293C105.241 44.7783 104.944 44.5183 104.605 44.4393C104.598 44.4363 104.59 44.4363 104.581 44.4333C104.447 44.4013 104.226 44.4263 104.138 44.5663C104.029 44.7403 104.001 44.8873 104.045 45.0963C104.102 45.4023 104.307 45.6443 104.525 45.8203C104.667 45.9293 104.885 46.0233 105.059 45.9913C105.084 45.9873 105.099 45.9763 105.121 45.9713C105.164 45.9623 105.206 45.9503 105.247 45.9233C105.385 45.8253 105.467 45.7103 105.47 45.5143Z" fill="#355675"/>
<path opacity="0.4" d="M91.9834 19.7022C91.3084 19.8702 90.6284 20.3042 90.4184 21.1002C90.2924 21.5792 90.2444 22.1632 90.3924 22.6472C90.4284 22.7572 90.4634 22.8622 90.5054 22.9642C90.4634 23.2352 90.4394 23.5162 90.4634 23.7872C90.4784 23.9752 90.4794 24.1762 90.5384 24.3582C90.6534 24.7182 90.6484 24.7362 90.8444 25.0652C90.5364 24.5502 90.8484 25.1032 90.9594 25.2622C91.4954 26.0682 92.4494 26.5832 93.3284 26.2862C93.7754 26.1392 94.1854 25.7702 94.5124 25.4052C95.0754 24.7742 95.6784 23.9152 95.7034 22.9782C95.7554 20.9712 93.6894 19.2672 91.9834 19.7022Z" fill="#007C8B"/>
<path opacity="0.4" d="M100.019 19.5923C99.8973 19.7383 99.7153 19.7023 99.5663 19.6463C99.5323 19.6353 99.4923 19.6233 99.4573 19.6103C99.2413 19.5343 99.0463 19.3033 98.9503 19.0823C98.8763 18.9023 98.8423 18.6573 98.9723 18.4973C99.2763 18.1313 99.8703 18.6113 99.9923 18.9623C100.008 19.0043 100.023 19.0433 100.035 19.0843C100.093 19.2483 100.139 19.4443 100.019 19.5923Z" fill="#355675"/>
<path opacity="0.4" d="M99.8233 11.051C99.6423 10.316 98.8673 9.49203 98.1493 9.62203C97.9773 9.65403 97.8313 9.71803 97.7043 9.81103C97.6073 9.82603 97.5093 9.86004 97.4093 9.91604C96.9963 10.142 96.9703 10.746 97.1783 11.159C97.2543 11.306 97.3203 11.459 97.4243 11.585C97.4633 11.64 97.5003 11.686 97.5293 11.726C97.5963 11.834 97.6733 11.936 97.7543 12.018C97.8283 12.097 97.9103 12.168 97.9963 12.233C98.3453 12.609 98.7693 12.915 99.2763 12.858C99.8363 12.797 99.9793 12.263 99.9113 11.722C99.9113 11.722 99.9113 11.72 99.9083 11.719C99.9113 11.693 99.9083 11.668 99.9113 11.64C99.9183 11.427 99.8843 11.242 99.8233 11.051Z" fill="#355675"/>
<path opacity="0.4" d="M108.866 14.5363C108.866 14.5223 108.866 14.5133 108.868 14.4993C108.844 14.5983 108.788 14.6653 108.704 14.6963C108.716 14.6953 108.723 14.6943 108.736 14.6943C108.507 14.8543 108.18 14.6583 108.008 14.4803C107.818 14.2813 107.603 13.8553 107.823 13.5873C108.043 13.3253 108.436 13.5393 108.627 13.7393C108.798 13.9173 108.994 14.2703 108.866 14.5363Z" fill="#355675"/>
<path opacity="0.4" d="M107.551 7.21377L107.546 7.33477C107.519 7.87677 107.207 8.25777 106.727 8.31777L106.574 8.33975C105.717 8.44875 104.849 7.76177 104.364 7.02877C103.943 6.39277 103.62 5.37177 104.154 4.70077C104.16 4.69277 104.167 4.68577 104.171 4.67977C104.569 4.17977 105.27 4.25877 105.771 4.48077C106.414 4.77177 107.054 5.38977 107.332 6.11877C107.466 6.48077 107.57 6.81177 107.551 7.21377Z" fill="#355675"/>
<path opacity="0.4" d="M108.786 21.3988C108.179 19.8848 106.604 18.8718 105.147 19.0408C104.304 19.1368 103.036 19.4958 102.825 20.5778C102.786 20.7918 102.786 21.0158 102.815 21.2418C102.756 21.3398 102.721 21.4678 102.718 21.6228C102.718 21.7298 102.711 21.8308 102.708 21.9378C102.707 21.9408 102.707 21.9708 102.699 22.0088C102.281 22.6028 102.508 23.4848 102.92 24.1118C103.415 24.8598 104.147 25.3338 104.982 25.3338C106.165 25.3338 107.323 25.9408 108.347 24.9368C109.265 24.0388 109.255 22.5618 108.786 21.3988ZM105.385 21.4068C105.394 21.3758 105.357 21.4008 105.311 21.4408C105.338 21.1768 105.513 21.1098 105.385 21.4068Z" fill="#355675"/>
<path opacity="0.4" d="M118.967 17.7232C118.96 17.7352 118.951 17.7492 118.942 17.7642C118.938 17.7742 118.931 17.7862 118.926 17.7952C118.853 17.9312 118.78 18.0652 118.706 18.1982C118.493 18.4362 118.236 18.5702 117.938 18.5972C117.202 18.6802 116.463 18.2352 115.937 17.6852C115.417 17.1382 114.971 16.3402 114.993 15.5122C114.995 15.1742 115.098 14.8752 115.295 14.6262C115.507 14.3862 115.763 14.2522 116.063 14.2242C116.828 14.0512 117.573 14.5942 118.126 15.1172C118.539 15.5052 118.869 16.1222 118.994 16.7142C119.074 17.0562 119.063 17.3922 118.967 17.7232Z" fill="#355675"/>
<g opacity="0.4">
<path d="M113.108 8.95703C113.057 9.11603 112.954 9.20305 112.827 9.25605C112.374 9.41805 111.943 9.06803 111.664 8.68903C111.493 8.45603 111.374 8.07803 111.474 7.78003C111.565 7.51003 111.855 7.37704 112.099 7.44904C112.285 7.50604 112.37 7.52404 112.538 7.64704C112.759 7.80104 112.912 8.01505 113.038 8.26905C113.041 8.27305 113.045 8.28004 113.045 8.28504C113.128 8.49304 113.185 8.73303 113.108 8.95703Z" fill="#355675"/>
<path d="M112.826 9.25708L112.827 9.25607C112.839 9.24907 112.85 9.24907 112.86 9.24707C112.849 9.24907 112.838 9.25508 112.826 9.25708Z" fill="#355675"/>
<path d="M112.682 9.29681C112.73 9.28181 112.776 9.27084 112.826 9.25684C112.782 9.27184 112.738 9.28584 112.69 9.29584C112.687 9.29584 112.687 9.29681 112.682 9.29681Z" fill="#355675"/>
</g>
<path opacity="0.4" d="M126.499 37.1406C125.451 37.2036 125.004 38.4926 125.257 39.5076C125.442 40.2676 126.043 40.9406 126.745 41.0686C126.885 41.0956 127.029 41.0846 127.161 41.0466C127.378 41.1826 127.613 41.2806 127.862 41.3246C128.554 41.4536 129.012 41.0556 129.115 40.3056C129.329 38.7326 127.888 37.0586 126.499 37.1406Z" fill="#355675"/>
<path opacity="0.4" d="M127.731 19.4821C127.135 19.4991 126.38 18.1551 127.154 18.1291C127.747 18.1121 128.503 19.4561 127.731 19.4821Z" fill="#355675"/>
<path opacity="0.4" d="M127.193 13.4229C127.064 13.9819 126.429 14.1519 125.997 14.0629C125.822 14.0259 125.658 13.9669 125.5 13.8939C125.468 14.0259 125.412 14.1449 125.328 14.2499C125.22 14.3799 125.082 14.4569 124.932 14.4969C124.628 14.6309 124.233 14.5739 123.946 14.4469C123.679 14.3269 123.443 14.1539 123.234 13.9329C123.136 13.8099 123.04 13.6879 122.939 13.5649C122.776 13.3259 122.666 13.0619 122.599 12.7729C122.589 12.7449 122.583 12.7149 122.574 12.6839C122.459 12.2649 122.586 11.6159 123.002 11.4609C123.083 11.4319 123.149 11.4069 123.21 11.3919C123.165 11.1579 123.171 10.9209 123.251 10.6979C123.643 9.60592 124.801 10.1499 125.533 10.6049C125.578 10.6229 125.626 10.6419 125.668 10.6639C125.723 10.6959 125.777 10.7269 125.836 10.7579C125.963 10.8159 126.089 10.8879 126.206 10.9779C126.978 11.4419 127.414 12.4869 127.193 13.4229Z" fill="#355675"/>
<path opacity="0.4" d="M132.982 29.1573C132.869 29.5023 132.555 29.7662 132.223 29.7752C131.8 29.7882 131.42 29.6633 131.062 29.4063C130.669 29.1243 130.336 28.7182 130.135 28.2452C129.974 27.8762 129.885 27.4233 130.018 27.0273C130.136 26.6813 130.446 26.4192 130.781 26.4092C131.206 26.3952 131.583 26.5223 131.941 26.7783C132.333 27.0603 132.671 27.4663 132.87 27.9363C133.029 28.3063 133.12 28.7623 132.982 29.1573Z" fill="#355675"/>
<path opacity="0.4" d="M136.399 34.8371C136.367 34.7671 136.331 34.7001 136.294 34.6361C136.283 34.5851 136.269 34.534 136.25 34.491C136.16 34.282 135.992 34.1131 135.802 34.0221C135.577 33.9171 135.298 33.9061 135.083 34.0321C134.842 34.1721 134.775 34.4561 134.831 34.7401C134.834 34.7491 134.835 34.7601 134.838 34.7701C134.958 35.3341 135.514 35.8951 136.05 35.8341C136.505 35.7851 136.585 35.2301 136.399 34.8371Z" fill="#355675"/>
<path opacity="0.4" d="M134.273 21.7926C134.27 21.8086 134.27 21.8236 134.266 21.8396C134.237 22.1036 134.125 22.2396 133.89 22.2896L133.849 22.2966C133.271 22.4276 132.31 21.3316 132.808 20.7306C133.307 20.1366 134.35 21.1326 134.273 21.7926Z" fill="#355675"/>
<path opacity="0.4" d="M126.574 26.6615C126.559 26.6775 126.547 26.6895 126.534 26.7015C126.475 26.8245 126.411 26.9425 126.339 27.0515C126.282 27.1805 126.194 27.2805 126.072 27.3445C126.047 27.3555 126.024 27.3635 125.998 27.3715C126.007 27.3815 126.014 27.3895 126.021 27.3995C126.316 27.8405 126.529 28.3305 126.651 28.8635C126.813 29.5535 126.693 30.1995 126.293 30.8025C126.149 30.9785 125.983 31.1045 125.798 31.1895C125.338 31.3995 125.011 31.3875 124.524 31.3215C124.025 31.2195 123.562 31.0155 123.137 30.7025C122.451 30.2085 121.862 29.4985 121.512 28.6715C121.232 28.0265 121.075 27.2325 121.308 26.5355C121.407 26.3535 121.506 26.1745 121.607 25.9925C121.892 25.6695 122.238 25.4915 122.646 25.4525C123.041 25.3595 123.712 25.5295 124.072 25.7025C124.135 25.7325 124.194 25.7645 124.252 25.7985C124.232 25.6305 124.255 25.4725 124.29 25.3005C124.32 25.1405 124.406 24.9915 124.496 24.8665C124.64 24.6715 124.841 24.6085 125.045 24.5575C125.19 24.5225 125.346 24.5465 125.498 24.5995C125.526 24.5905 125.556 24.5825 125.593 24.5775C125.793 24.5575 126 24.6435 126.17 24.7625C126.494 24.9975 126.682 25.3425 126.723 25.7635C126.73 25.8455 126.729 25.9305 126.721 26.0105C126.756 26.2495 126.731 26.5015 126.574 26.6615Z" fill="#007C8B"/>
<g opacity="0.4">
<path d="M120.714 6.08822C120.686 6.49222 120.535 6.85423 120.193 7.02923C119.875 7.19123 119.57 7.13722 119.255 7.04522C119.28 7.04022 119.324 7.03422 119.398 7.03222C119.337 7.03422 119.279 7.0342 119.221 7.0342C119.163 7.0162 119.104 7.00023 119.047 6.98123C119.117 7.00223 119.168 7.0222 119.209 7.0342C119.19 7.0342 119.18 7.0342 119.167 7.0342C118.821 7.0292 118.522 6.99623 118.201 6.83923C117.958 6.72623 117.725 6.56022 117.525 6.36022C117.204 6.49322 116.855 6.37522 116.543 6.26522C116.092 6.10722 115.697 5.65322 115.417 5.24322C115.095 4.78322 114.806 4.00121 115.027 3.42321C115.38 2.50121 116.462 2.99021 116.938 3.49121C117.007 3.56221 117.071 3.64123 117.132 3.72323C117.237 3.80923 117.335 3.90921 117.428 4.01321C117.509 3.99721 117.59 3.98723 117.677 3.98623C118.123 3.36123 118.97 3.59422 119.551 3.98422C120.186 4.40522 120.768 5.22122 120.714 6.08822Z" fill="#007C8B"/>
<path d="M119.239 7.04785C119.172 7.07585 119.395 7.11285 119.239 7.04785V7.04785Z" fill="#355675"/>
<path d="M119.255 7.0452C119.248 7.0462 119.247 7.04819 119.241 7.04819C119.232 7.04519 119.221 7.04018 119.209 7.03418C119.211 7.03418 119.219 7.03418 119.221 7.03418C119.234 7.03918 119.245 7.0432 119.255 7.0452Z" fill="#355675"/>
</g>
<g opacity="0.4">
<path d="M112.182 3.89258C112.186 3.89758 112.188 3.90159 112.19 3.90659C112.188 3.90159 112.186 3.89958 112.184 3.89758C112.184 3.89258 112.182 3.89258 112.182 3.89258Z" fill="#355675"/>
<path d="M112.268 4.14792C112.244 4.04592 112.22 3.96792 112.184 3.89692C112.184 3.89692 112.184 3.89291 112.182 3.89191C112.175 3.87691 112.175 3.86493 112.167 3.85193C112.089 3.66793 111.969 3.50991 111.831 3.37891C111.829 3.37791 111.828 3.37693 111.828 3.37693C111.721 3.27893 111.608 3.19691 111.481 3.13291C111.27 3.02791 110.899 2.97693 110.734 3.21393C110.562 3.46693 110.584 3.75992 110.703 4.03892C110.879 4.44892 111.232 4.77792 111.631 4.86292C111.752 4.88592 111.926 4.89492 112.035 4.81992C112.14 4.76492 112.214 4.67492 112.258 4.55292C112.297 4.41792 112.302 4.28592 112.268 4.14792Z" fill="#355675"/>
</g>
<path opacity="0.4" d="M140.54 44.6206C140.52 44.5356 140.494 44.4547 140.454 44.3777C140.353 44.1207 140.158 43.8336 139.973 43.6466C139.73 43.3946 139.406 43.1347 139.067 43.0707C138.679 42.8947 138.262 42.8307 137.925 43.1607C137.716 43.3697 137.793 43.7777 137.895 44.0187C137.956 44.1597 138.04 44.2827 138.133 44.3937V44.3957C138.015 44.2497 138.061 44.3127 138.136 44.4117C138.244 44.7107 138.397 44.9686 138.617 45.1986C139.009 45.6056 139.673 46.0047 140.204 45.7267C140.413 45.6227 140.461 45.4896 140.57 45.2846C140.673 45.0936 140.628 44.8436 140.54 44.6206Z" fill="#355675"/>
</g>
<path opacity="0.6" d="M114.115 0.413086C115.513 1.03709 116.85 1.7851 118.108 2.6781C121.006 4.7431 123.351 7.49411 125.305 10.4461C127.94 14.4241 130.314 18.5601 132.162 22.9641C133.915 27.1271 135.121 31.4421 135.803 35.9051C137.036 44.0261 136.935 52.6201 134.423 60.4981C132.018 68.0331 127.086 74.8871 119.833 78.3771C116.41 80.0241 112.602 80.8661 108.797 80.6421C104.78 80.4031 100.984 79.0011 97.5301 76.9781C94.3781 75.1301 91.5971 72.7271 89.3471 69.8471C87.1351 67.0081 85.4671 63.8051 83.8991 60.5771C82.9611 58.6491 82.0821 56.6761 81.3281 54.6591C83.6321 72.5881 97.1151 86.1431 112.933 85.6251C129.919 85.0691 143.159 68.5021 142.507 48.6151C141.911 30.3001 129.363 4.02509 114.115 0.413086Z" fill="white"/>
<path opacity="0.5" d="M89.3724 52.2257C86.9784 42.8397 86.2134 27.3027 97.1724 10.8867C97.1724 10.8867 81.7674 28.5487 85.1894 49.4807C85.1894 49.4807 85.4544 51.0057 86.2974 53.2147C87.3184 52.8777 88.3434 52.5477 89.3724 52.2257Z" fill="#B1C2D9"/>
</g>
<path d="M199.588 83.3575C199.622 82.1235 198.322 80.5345 197.01 80.5865C195.114 80.6625 193.862 81.6415 192.093 82.1585C189.088 83.0365 186.179 83.6235 183.191 83.8615C188.395 80.9005 194.4 75.7925 191.704 70.5555C191.057 69.3005 189.041 69.0255 187.875 69.6735C184.904 71.3265 182.448 73.0955 179.557 74.2795C182.111 71.3075 184.081 67.6485 178.993 66.8675C175.563 66.3395 171.122 67.2025 167.013 68.9645C166.992 68.2955 166.871 67.6325 166.6 66.9775C166.302 66.2625 165.436 65.7065 164.655 65.7515C161.627 65.9155 158.848 67.0725 156.287 68.6085C156.197 68.5545 156.108 68.5155 156.025 68.5025C151.81 67.7695 147.491 68.8725 143.72 70.9305C143.894 70.4995 144.057 70.0575 144.195 69.5785C144.393 68.8965 143.788 68.1275 143.14 67.9195C137.903 66.2285 134.218 70.3395 130.253 73.2955C130.984 70.5995 131.243 67.6425 128.653 66.6545C125.365 65.3985 122.867 68.1245 121.217 71.2855C118.643 68.4975 114.414 65.8325 111.396 66.1525C108.351 66.4745 109.018 69.2945 110.27 71.7625C107.723 70.2965 104.912 69.3195 102.168 68.0445C98.3233 66.2535 94.6993 64.7725 90.3923 65.0435C90.0873 65.0635 89.8203 65.3285 89.8343 65.6365C89.9413 67.9865 90.6843 70.0285 91.6243 72.0725C88.3293 70.2525 85.5603 67.8995 83.1273 64.8935C82.6983 64.3635 80.8953 63.2335 80.5433 64.4985C79.9523 66.6465 80.4073 68.8695 81.4153 71.0065C79.2623 69.9295 76.9553 69.0845 74.6083 68.1845C71.4443 66.9665 67.6593 65.2335 64.3243 66.6925C63.7743 66.9325 63.9973 67.6465 64.2663 68.0025C64.7133 68.5935 65.1833 69.1435 65.6643 69.6755C59.3073 67.1875 51.8283 65.6685 50.0393 69.2555C49.9853 69.3595 49.9503 69.4675 49.9223 69.5825C42.8563 67.2415 35.3453 66.0315 28.1503 67.2535C27.3153 67.3955 27.4893 68.2335 27.8373 68.7525C28.6693 69.9955 29.7973 71.1975 31.0963 72.3065C28.4513 71.7775 25.7523 71.4375 22.9663 71.2755C21.1443 71.1705 14.0963 70.2595 12.9173 72.5865C12.1383 74.1205 13.2593 75.7375 14.9953 77.2325C14.4123 77.0705 13.8223 76.9245 13.2313 76.7995C12.4193 76.6075 11.6003 76.4345 10.7623 76.3065C10.5713 76.2775 10.4073 76.3055 10.2723 76.3695C8.75928 76.3735 7.38028 76.9485 8.25128 78.9245C9.18928 81.0485 10.9973 82.9745 12.9773 84.4945C12.5623 84.4385 12.1493 84.3685 11.7333 84.3285C11.1453 84.2655 10.7773 84.6365 10.8983 85.2155C11.7243 89.1825 15.6993 91.9275 19.4813 93.9755C17.9673 94.3705 16.5013 94.8895 15.1103 95.5865C14.0733 96.1005 15.0413 97.4125 15.6503 97.8145C18.3093 99.5685 21.5463 101.457 24.9653 102.816C24.2113 103.242 23.4413 103.64 22.6313 103.958C21.4953 104.409 22.6563 105.848 23.1823 106.226C28.0573 109.733 34.7703 111.211 41.1273 110.583C40.2373 111.331 39.3603 112.093 38.5293 112.905C37.8183 113.609 38.9233 114.843 39.6083 115.058C44.7983 116.672 50.9593 115.953 55.7563 113.389L55.7623 113.386C55.9083 113.677 56.1443 113.936 56.3693 114.05C63.9493 117.881 74.0813 113.907 81.8673 110.991C81.4463 113.822 80.8423 116.626 80.3843 119.458C80.2953 120.005 81.1763 120.718 81.7013 120.454C85.6293 118.48 87.0933 115.129 88.3043 111.446C90.8563 115.283 94.9033 118.381 99.0893 119.306C99.7333 119.45 100.165 118.905 100.022 118.319C99.4893 116.157 98.5763 114.164 97.7123 112.138C102.971 116.433 109.962 120.828 116.233 117.866C116.952 117.527 116.455 116.611 116.062 116.239C114.785 115.019 113.387 113.988 112.07 112.819C109.569 110.831 109.612 110.539 112.195 111.944C114.846 113.146 117.468 114.251 120.251 115.127C123.323 116.095 127.02 116.371 130.577 116.246C133.745 118.51 137.655 119.824 141.363 119.688C142.061 119.662 142.149 118.852 141.891 118.373C140.816 116.411 139.593 114.544 138.394 112.658C142.665 115.455 148.124 117.472 152.417 116.368C158.105 114.9 154.638 111.851 151.065 109.355C153.793 110.163 156.607 111.072 159.432 111.716C163.968 112.199 168.394 111.54 172.803 110.687C172.796 110.379 172.665 110.054 172.487 109.859C172.1 109.434 171.686 109.059 171.262 108.716C173.337 108.664 175.177 108.511 176.208 108.409C181.4 107.891 186.952 107.055 191.53 104.422C191.589 104.371 191.648 104.316 191.705 104.263C191.918 103.908 191.274 103.377 190.912 103.384C190.74 103.386 190.565 103.413 190.391 103.421C187.61 102.706 184.843 102.029 182.143 101.135C183.24 101.043 184.348 100.937 185.433 100.773C185.496 100.632 185.611 100.51 185.791 100.439C188.223 99.4665 191.112 98.6715 193.237 97.1365C193.436 96.9915 193.63 96.8265 193.822 96.6595C191.598 95.7435 189.3 95.0405 186.876 94.6515C186.749 94.6315 186.653 94.5775 186.575 94.5105C184.76 94.6215 182.946 94.7905 181.168 94.6375C185.328 93.5435 189.441 92.9065 193.072 90.3075C195.177 88.8115 199.5 86.3415 199.588 83.3575Z" fill="#8B501B"/>
<path d="M207.413 76.2431C203.355 73.2811 198.755 72.5581 194.107 71.3091C196.094 71.1331 198.12 71.3251 200.152 71.4491C200.235 71.3791 200.343 71.3151 200.485 71.2921C203.197 70.8501 205.766 70.0471 208.253 69.0031C208.036 68.8181 207.823 68.6261 207.595 68.4591C205.22 66.7121 201.991 65.8021 199.27 64.6961C199.072 64.6151 198.946 64.4741 198.872 64.3151C197.66 64.1271 196.421 64.0051 195.196 63.9031C198.215 62.8831 201.306 62.1101 204.417 61.2981C204.611 61.3061 204.804 61.3321 204.999 61.3381C205.405 61.3451 206.122 60.7421 205.888 60.3371C205.821 60.2751 205.756 60.2151 205.69 60.1561C200.573 57.1521 194.368 56.1981 188.562 55.6091C187.407 55.4921 185.354 55.3191 183.032 55.2581C183.507 54.8691 183.97 54.4411 184.403 53.9541C184.603 53.7331 184.748 53.3661 184.755 53.0151C179.824 52.0371 174.878 51.2891 169.807 51.8371C166.65 52.5751 163.504 53.6101 160.455 54.5311C164.447 51.6831 168.324 48.2101 161.966 46.5361C157.169 45.2761 151.066 47.5791 146.287 50.7661C147.629 48.6191 148.997 46.4881 150.195 44.2501C150.488 43.7051 150.387 42.7801 149.606 42.7501C145.463 42.5951 141.092 44.0941 137.55 46.6741C133.574 46.5331 129.44 46.8481 126.005 47.9511C122.893 48.9501 119.964 50.2101 117.002 51.5791C114.114 53.1821 114.068 52.8471 116.861 50.5801C118.335 49.2461 119.896 48.0721 121.323 46.6841C121.762 46.2581 122.321 45.2141 121.515 44.8281C114.506 41.4511 106.688 46.4621 100.811 51.3581C101.778 49.0491 102.797 46.7781 103.392 44.3121C103.553 43.6431 103.07 43.0231 102.35 43.1841C97.6699 44.2391 93.1469 47.7721 90.2919 52.1461C88.9399 47.9491 87.3029 44.1261 82.9119 41.8781C82.3239 41.5771 81.3409 42.3901 81.4429 43.0171C81.9549 46.2431 82.6239 49.4371 83.0979 52.6661C74.3939 49.3401 63.0669 44.8121 54.5929 49.1781C54.3469 49.3081 54.0799 49.6061 53.9139 49.9331L53.9099 49.9311C48.5469 47.0091 41.6609 46.1901 35.8579 48.0311C35.0929 48.2751 33.8599 49.6791 34.6539 50.4811C35.5799 51.4111 36.5609 52.2781 37.5559 53.1321C30.4509 52.4161 22.9439 54.1001 17.4939 58.0991C16.9059 58.5301 15.6109 60.1671 16.8809 60.6811C17.7839 61.0461 18.6459 61.5001 19.4889 61.9841C15.6659 63.5351 12.0469 65.6901 9.07487 67.6891C8.39287 68.1461 7.30987 69.6401 8.47087 70.2301C10.0219 71.0211 11.6619 71.6141 13.3559 72.0651C9.12687 74.3971 4.68587 77.5271 3.75987 82.0541C3.62387 82.7081 4.03687 83.1301 4.69487 83.0641C5.16187 83.0151 5.61987 82.9361 6.08287 82.8691C3.87087 84.6061 1.85187 86.8011 0.803873 89.2211C-0.172127 91.4731 1.36987 92.1261 3.06187 92.1321C3.21187 92.2061 3.39587 92.2361 3.60787 92.2051C4.54487 92.0581 5.46087 91.8621 6.36987 91.6441C7.03087 91.5021 7.68987 91.3311 8.34387 91.1491C6.39987 92.8511 5.14987 94.7011 6.01687 96.4481C7.33787 99.0951 15.2169 98.0611 17.2539 97.9401C20.3669 97.7571 23.3829 97.3691 26.3409 96.7641C24.8849 98.0291 23.6269 99.3991 22.6979 100.814C22.3089 101.407 22.1109 102.363 23.0489 102.527C31.0909 103.919 39.4889 102.538 47.3849 99.8711C47.4179 99.9971 47.4559 100.125 47.5119 100.242C49.5149 104.331 57.8769 102.601 64.9859 99.7601C64.4449 100.371 63.9199 100.997 63.4209 101.67C63.1179 102.075 62.8719 102.89 63.4839 103.163C67.2129 104.826 71.4449 102.852 74.9809 101.462C77.6019 100.434 80.1809 99.4711 82.5919 98.2461C81.4649 100.682 80.9549 103.214 81.6159 105.664C82.0079 107.104 84.0239 105.816 84.5029 105.213C87.2239 101.788 90.3199 99.1071 94.0029 97.0301C92.9549 99.3591 92.1229 101.684 91.9979 104.365C91.9849 104.718 92.2829 105.02 92.6249 105.043C97.4389 105.352 101.493 103.662 105.79 101.623C108.854 100.17 112.001 99.0561 114.848 97.3851C113.445 100.198 112.699 103.414 116.106 103.781C119.48 104.147 124.208 101.106 127.085 97.9281C128.927 101.531 131.721 104.639 135.396 103.207C138.292 102.081 138.003 98.7111 137.184 95.6371C141.619 99.0081 145.738 103.693 151.589 101.763C152.311 101.527 152.992 100.65 152.769 99.8731C152.614 99.3271 152.434 98.8251 152.238 98.3311C156.456 100.68 161.284 101.938 165.994 101.102C166.088 101.084 166.188 101.043 166.289 100.981C169.15 102.73 172.259 104.047 175.643 104.237C176.516 104.289 177.484 103.656 177.816 102.841C178.119 102.093 178.255 101.336 178.279 100.576C182.872 102.579 187.834 103.565 191.672 102.963C197.36 102.075 195.154 97.9061 192.304 94.5181C195.534 95.8681 198.277 97.8821 201.6 99.7661C202.906 100.505 205.158 100.194 205.881 98.7581C208.896 92.7941 202.18 86.9681 196.363 83.5911C199.704 83.8681 202.957 84.5331 206.315 85.5351C208.293 86.1241 209.694 87.2421 211.809 87.3261C213.281 87.3871 214.733 85.5771 214.693 84.1681C214.592 80.7701 209.762 77.9541 207.413 76.2431Z" fill="#A55D23"/>
<path d="M212.461 85.6182C207.909 85.1082 203.629 83.3312 199.051 82.9622C197.373 82.8272 195.723 82.8122 194.09 82.8972C195.654 83.8332 197.074 85.0972 198.251 86.3142C201.434 89.6042 203.605 93.1672 204.032 97.8152C204.084 98.3762 203.507 99.0162 202.933 98.5952C200.364 96.7182 197.253 95.9282 194.36 94.6852C192.472 93.8752 190.606 93.1823 188.678 92.6543C189.713 93.9653 190.702 95.3002 191.556 96.7072C192.389 98.0832 193.773 101.199 190.991 101.42C186.347 101.782 181.205 99.6322 177.028 97.9252C176.23 97.5982 175.384 97.2342 174.526 96.8472C175.597 98.9412 176.768 101.696 175.343 102.433C173.272 103.511 169.131 100.646 167.428 99.7712C163.49 97.7482 159.849 95.2912 156.432 92.5132C157.342 95.0552 160.624 96.9473 162.601 98.4473C162.729 98.5472 162.865 98.6382 162.993 98.7342C161.781 98.5642 160.598 98.3202 159.436 98.0242C159.337 98.0732 159.216 98.1042 159.073 98.0902C155.972 97.7632 153.013 96.2362 150.27 94.8232C149.607 94.4852 147.863 93.3462 146.283 92.5672C146.559 92.9472 146.837 93.3282 147.109 93.7092C148.414 95.5402 150.09 97.0203 151.062 99.0683C151.319 99.6123 150.822 100.329 150.199 100.104C149.816 99.9712 149.452 99.8022 149.076 99.6572C147.512 99.4512 146.01 98.6692 144.547 97.6252C142.64 96.6432 140.778 95.5582 138.95 94.4072C137.546 93.5282 135.697 92.6302 134.177 91.4912C134.494 92.9772 134.803 94.4682 135.15 95.9742C135.513 97.5662 136.314 99.8242 134.989 101.152C133.029 103.123 129.166 98.6362 127.009 95.4582C126.371 96.1562 125.674 96.8053 124.907 97.3743C122.359 99.2643 119.159 101.365 115.971 101.823C115.477 101.896 115.106 101.577 115.078 101.081C114.963 98.7782 115.606 96.4522 116.754 94.4192C114.842 95.7052 112.735 96.7492 110.666 97.7092C106.119 99.8262 101.137 102.607 96.0395 103.072C92.1765 103.429 94.2695 97.3302 96.5625 93.0622C95.4365 93.6432 94.3375 94.2612 93.3165 94.8913C90.0495 96.9062 87.3665 100.081 84.0845 101.912C83.6195 102.17 82.9615 101.778 83.0135 101.233C83.1985 99.3802 83.6235 97.5352 84.2855 95.7822C82.3515 96.8842 80.3475 97.8412 78.4225 98.7212C74.7575 100.394 69.1685 103.949 65.1365 101.741C64.7175 101.509 64.6865 100.888 65.0235 100.58C67.1805 98.6042 69.8495 97.2152 72.2605 95.5742C72.7085 95.2672 73.1765 94.9082 73.6575 94.5452C71.7395 95.4022 69.7765 96.1273 67.9875 96.8353C62.0155 99.2033 55.8065 100.696 49.3565 99.8613C48.7095 99.7753 48.2965 98.7782 49.0455 98.4772C51.9525 97.3162 54.6945 95.8123 57.5105 94.4863C54.2185 95.5783 50.8815 96.5582 47.6215 97.6622C40.6605 100.018 32.9805 102.13 25.5835 101.151C25.1075 101.09 24.6045 100.505 24.9875 100.035C26.8735 97.7092 29.1005 95.7252 31.5315 94.0382C29.4115 94.5552 27.2645 94.9652 25.1195 95.2892C19.9745 96.0692 13.7915 97.5392 8.75347 95.6332C8.27447 95.4502 8.13547 94.9922 8.34347 94.5452C9.42947 92.2222 12.0315 89.4552 14.8395 87.6422C13.3295 88.0262 11.8135 88.4032 10.2875 88.7902C8.75847 89.1762 4.36747 90.9532 2.97547 89.4512C1.36947 87.7172 5.38147 84.2832 10.0925 81.2352C8.79447 81.3762 7.49047 81.4893 6.17947 81.5423C5.59947 81.5673 5.32547 80.8712 5.58147 80.4242C8.19747 75.8692 12.5775 73.2883 17.2535 71.3613C15.0165 70.9753 12.8095 70.3942 10.9555 69.2642C10.5555 69.0212 10.4855 68.4172 10.8425 68.1042C14.2795 65.0932 18.6705 63.5022 23.0675 62.4672C23.3255 62.4052 23.6265 62.3292 23.9425 62.2462C22.4525 61.1502 21.0235 60.0182 19.7135 58.8502C19.3775 58.5512 19.4975 57.8742 19.9125 57.7052C24.6595 55.7652 29.7425 55.2182 34.8385 55.2032C37.7965 55.1932 40.6965 55.2472 43.6215 55.6852C41.4855 53.8782 39.2235 52.1522 37.5505 49.9142C37.2945 49.5712 37.2665 48.9563 37.7495 48.7663C40.1975 47.8033 43.1585 48.5052 45.7095 48.8042C48.7775 49.1642 51.8665 50.3642 54.7645 51.3812C55.9975 51.8122 57.4395 52.2702 58.8945 52.8252C58.1335 52.0932 57.3805 51.3492 56.6725 50.5522C56.3415 50.1812 56.4555 49.6452 56.8685 49.4022C60.3585 47.3692 65.0575 48.6772 68.7295 49.5482C74.1075 50.8282 79.2735 52.2612 84.3095 54.5012C83.7835 51.3102 83.1815 48.1272 82.9585 44.8992C82.9125 44.2302 83.8265 44.0002 84.2295 44.4272C86.9065 47.2822 88.0455 50.9042 89.5925 54.3752C92.1675 50.5122 95.4915 47.1842 99.2355 45.7042C99.6885 45.5262 100.398 45.7802 100.308 46.3822C99.8575 49.3792 98.7475 52.1772 97.8755 55.0502C103.197 50.2342 109.556 46.5783 116.654 45.1973C117.171 45.0983 117.702 45.5922 117.512 46.1252C116.723 48.3782 115.155 50.1542 113.854 52.1292C113.423 52.7812 113.005 53.4432 112.582 54.1042C116.392 52.5012 120.303 51.2602 124.359 50.2022C128.745 49.0542 133.085 47.8892 137.583 48.2242C139.782 46.6632 142.144 45.4212 144.49 44.6332C146.45 43.9732 147.988 44.5482 147.08 46.7992C145.94 49.6362 143.83 51.9772 142.346 54.6232C144.599 53.2832 146.879 52.0062 149.432 51.0922C153.848 49.5162 158.288 48.5752 162.976 48.4062C163.558 48.3842 163.818 49.0762 163.57 49.5242C162.253 51.9192 160.183 53.3062 158.172 55.0792C157.628 55.5582 157.092 56.0472 156.56 56.5362C160.058 55.7122 163.611 55.1822 167.196 54.8132C171.878 53.5642 176.616 52.8462 181.022 54.2142C180.409 54.6432 179.739 54.9952 179.027 55.2972C176.381 55.4322 173.846 55.8262 172.203 56.6892C173.249 56.4992 174.303 56.3502 175.382 56.3212C178.413 56.2472 181.443 56.3122 184.472 56.4712C190.312 56.7842 196.136 57.3572 201.674 59.3382C202.385 59.5922 202.332 60.5492 201.619 60.7562C198.049 61.7922 193.963 63.5942 190.612 66.0102C195.317 66.4242 200.767 66.4832 204.647 69.2932C201.249 69.7202 197.835 68.9962 194.465 69.2422C194.404 69.3662 194.305 69.4802 194.132 69.5562C193.213 69.9512 192.321 70.3802 191.444 70.8372C195.779 71.7472 200.109 74.5152 203.622 76.3022C206.856 77.9482 213.279 80.4752 213.217 84.9142C213.213 85.2932 212.851 85.6602 212.461 85.6182Z" fill="#E0B136"/>
<path opacity="0.4" d="M203.626 76.3037C200.113 74.5167 195.783 71.7487 191.448 70.8387C192.325 70.3817 193.217 69.9517 194.136 69.5577C194.309 69.4827 194.407 69.3677 194.469 69.2437C197.839 68.9977 201.253 69.7217 204.651 69.2947C200.771 66.4837 195.321 66.4256 190.616 66.0116C193.967 63.5956 198.053 61.7936 201.623 60.7576C202.336 60.5506 202.389 59.5936 201.678 59.3396C196.14 57.3586 190.316 56.7847 184.476 56.4727C181.447 56.3137 178.417 56.2476 175.386 56.3226C174.307 56.3516 173.253 56.5007 172.207 56.6907C173.851 55.8287 176.386 55.4337 179.031 55.2987C179.743 54.9967 180.413 54.6446 181.026 54.2156C176.62 52.8476 171.881 53.5656 167.2 54.8146C163.615 55.1836 160.062 55.7126 156.564 56.5376C157.096 56.0486 157.632 55.5596 158.176 55.0806C160.188 53.3086 162.257 51.9216 163.574 49.5256C163.822 49.0776 163.562 48.3847 162.98 48.4077C158.292 48.5767 153.852 49.5166 149.436 51.0936C146.883 52.0076 144.603 53.2846 142.35 54.6246C143.834 51.9776 145.945 49.6376 147.084 46.8006C147.992 44.5496 146.454 43.9747 144.494 44.6347C142.147 45.4227 139.786 46.6647 137.587 48.2257C133.089 47.8907 128.749 49.0547 124.363 50.2037C120.306 51.2627 116.396 52.5037 112.586 54.1057C113.01 53.4457 113.428 52.7837 113.858 52.1307C115.159 50.1557 116.727 48.3797 117.516 46.1267C117.705 45.5937 117.174 45.1007 116.658 45.1987C109.56 46.5807 103.201 50.2356 97.8793 55.0516C98.7523 52.1786 99.8613 49.3806 100.312 46.3836C100.402 45.7816 99.6923 45.5286 99.2393 45.7056C95.4953 47.1856 92.1713 50.5137 89.5963 54.3767C88.0493 50.9047 86.9113 47.2837 84.2333 44.4287C83.8303 44.0007 82.9163 44.2316 82.9623 44.9006C83.1853 48.1286 83.7873 51.3117 84.3133 54.5027C79.2773 52.2627 74.1113 50.8297 68.7333 49.5497C65.0623 48.6787 60.3623 47.3697 56.8723 49.4037C56.4593 49.6467 56.3453 50.1827 56.6763 50.5537C57.3843 51.3517 58.1363 52.0946 58.8983 52.8266C57.4433 52.2706 56.0013 51.8126 54.7683 51.3826C51.8703 50.3646 48.7813 49.1656 45.7133 48.8056C43.1623 48.5066 40.2013 47.8047 37.7533 48.7677C37.2703 48.9577 37.2983 49.5737 37.5543 49.9157C39.2273 52.1537 41.4893 53.8807 43.6253 55.6867C40.7003 55.2487 37.8003 55.1957 34.8423 55.2047C29.7463 55.2197 24.6633 55.7676 19.9163 57.7066C19.5013 57.8756 19.3803 58.5527 19.7173 58.8517C21.0273 60.0197 22.4563 61.1517 23.9463 62.2477C23.6303 62.3307 23.3293 62.4066 23.0713 62.4686C18.6753 63.5036 14.2833 65.0947 10.8463 68.1057C10.4893 68.4197 10.5593 69.0227 10.9593 69.2657C12.8133 70.3957 15.0203 70.9767 17.2573 71.3627C12.5813 73.2897 8.20132 75.8706 5.58532 80.4256C5.32932 80.8726 5.60332 81.5687 6.18332 81.5437C7.49432 81.4907 8.79832 81.3776 10.0963 81.2366C5.38632 84.2846 1.37332 87.7186 2.97932 89.4526C4.37132 90.9546 8.76232 89.1777 10.2913 88.7917C11.8163 88.4037 13.3333 88.0267 14.8433 87.6437C12.0343 89.4567 9.43232 92.2236 8.34732 94.5466C8.13932 94.9936 8.27732 95.4517 8.75732 95.6347C13.7953 97.5407 19.9783 96.0707 25.1233 95.2907C27.2683 94.9667 29.4153 94.5567 31.5353 94.0397C29.1043 95.7277 26.8773 97.7107 24.9913 100.037C24.6083 100.508 25.1113 101.093 25.5873 101.153C32.9843 102.131 40.6653 100.02 47.6253 97.6636C50.8843 96.5596 54.2223 95.5797 57.5143 94.4877C54.6983 95.8137 51.9563 97.3176 49.0493 98.4786C48.3013 98.7796 48.7133 99.7767 49.3603 99.8627C55.8103 100.698 62.0193 99.2047 67.9913 96.8367C69.7803 96.1287 71.7433 95.4036 73.6613 94.5466C73.1803 94.9096 72.7123 95.2697 72.2643 95.5757C69.8523 97.2167 67.1843 98.6046 65.0273 100.582C64.6903 100.891 64.7213 101.512 65.1403 101.743C69.1723 103.951 74.7623 100.396 78.4263 98.7227C80.3503 97.8417 82.3553 96.8846 84.2893 95.7836C83.6273 97.5366 83.2013 99.3827 83.0173 101.235C82.9643 101.78 83.6223 102.171 84.0883 101.914C87.3703 100.084 90.0533 96.9076 93.3203 94.8927C94.3413 94.2626 95.4403 93.6446 96.5663 93.0636C94.2733 97.3306 92.1793 103.431 96.0433 103.074C101.141 102.609 106.123 99.8276 110.67 97.7106C112.739 96.7506 114.846 95.7067 116.758 94.4207C115.611 96.4537 114.967 98.7797 115.082 101.083C115.109 101.579 115.48 101.898 115.975 101.825C119.163 101.367 122.363 99.2647 124.911 97.3757C125.678 96.8067 126.375 96.1577 127.013 95.4597C129.169 98.6387 133.033 103.125 134.993 101.154C136.318 99.8257 135.517 97.5677 135.154 95.9757C134.807 94.4697 134.499 92.9787 134.181 91.4927C135.701 92.6317 137.549 93.5296 138.954 94.4086C140.782 95.5586 142.643 96.6447 144.551 97.6267C146.014 98.6707 147.516 99.4526 149.08 99.6586C149.456 99.8046 149.82 99.9727 150.203 100.106C150.826 100.331 151.323 99.6137 151.066 99.0697C150.094 97.0207 148.418 95.5416 147.113 93.7106C146.841 93.3286 146.563 92.9476 146.287 92.5686C147.867 93.3476 149.611 94.4867 150.274 94.8247C153.017 96.2367 155.976 97.7637 159.077 98.0917C159.221 98.1057 159.342 98.0736 159.44 98.0256C160.601 98.3216 161.785 98.5657 162.997 98.7357C162.869 98.6397 162.733 98.5476 162.605 98.4487C160.628 96.9487 157.346 95.0567 156.436 92.5147C159.853 95.2917 163.495 97.7487 167.432 99.7727C169.135 100.648 173.276 103.513 175.347 102.435C176.772 101.698 175.601 98.9426 174.53 96.8486C175.388 97.2356 176.234 97.5996 177.032 97.9266C181.209 99.6336 186.351 101.784 190.995 101.422C193.777 101.201 192.393 98.0847 191.56 96.7087C190.706 95.3017 189.717 93.9667 188.682 92.6557C190.61 93.1837 192.476 93.8777 194.364 94.6867C197.258 95.9297 200.368 96.7197 202.937 98.5967C203.51 99.0177 204.087 98.3767 204.036 97.8167C203.608 93.1687 201.437 89.6057 198.255 86.3157C197.078 85.0987 195.658 83.8347 194.094 82.8987C195.727 82.8127 197.377 82.8287 199.055 82.9637C203.633 83.3327 207.913 85.1096 212.465 85.6196C212.856 85.6616 213.218 85.2946 213.225 84.9176C213.284 80.4756 206.861 77.9497 203.626 76.3037ZM126.344 56.1217C121.959 60.3307 117.022 64.3766 111.42 66.8927C113.736 66.4717 116.085 66.1757 118.422 66.0617C120.65 65.9527 124.833 65.5766 126.218 67.8696C126.27 67.9556 126.264 68.1027 126.177 68.1657C123.943 69.9077 121.313 71.0577 118.67 72.0307C115.949 73.0287 113.172 74.0416 110.362 74.7586C106.789 75.6716 102.852 76.2257 99.1273 75.7007C97.3003 77.2927 95.2693 78.6987 93.3493 80.1697C91.6873 81.4437 89.9373 82.6746 88.0493 83.5906C86.4403 84.3666 84.5033 85.1756 82.7143 84.5646C82.5633 84.5126 82.4833 84.3516 82.5633 84.2056C83.1143 83.1976 83.9173 82.3877 84.8283 81.6777C82.4843 82.9677 80.1253 84.2297 77.6713 85.3037C73.7863 87.0027 69.5873 88.4216 65.2893 88.0386C65.1413 88.0256 64.9973 87.8917 65.0503 87.7297C65.5803 86.1307 66.8823 84.8527 68.1163 83.7647C69.2473 82.7677 70.4403 81.8546 71.6443 80.9516C68.6563 82.2976 65.6123 83.5146 62.4913 84.5296C59.0763 85.6366 55.5953 86.4277 52.0983 87.2247C49.8073 87.7507 46.9263 88.4897 44.7073 87.3457C44.5533 87.2657 44.5583 87.0736 44.6563 86.9556C46.6793 84.4816 49.2293 82.5607 51.8793 80.8037C49.8003 81.6537 47.6903 82.4247 45.5553 83.0967C42.2793 84.1227 38.9633 84.9026 35.5833 85.5177C32.4783 86.0816 29.2793 86.8067 26.1263 86.2127C25.9203 86.1767 25.9053 85.9336 26.0123 85.8006C28.2473 82.9836 31.5823 81.0657 34.7683 79.2467C34.0113 79.5047 33.2553 79.7517 32.4943 79.9857C28.9913 81.0707 25.4173 81.9777 21.7883 82.5287C18.7063 82.9997 15.3713 83.5226 12.2663 83.0816C12.1423 83.0606 12.0433 82.8937 12.0893 82.7787C12.7993 80.9057 14.8913 79.8196 16.6003 79.0246C17.1063 78.7896 17.6203 78.5727 18.1373 78.3627C16.1323 78.7737 14.1013 78.9037 12.0993 78.2947C11.9083 78.2367 11.8703 78.0277 11.9903 77.8817C14.8813 74.3037 19.3583 72.2066 23.5713 70.6166C23.9253 70.4837 24.2843 70.3577 24.6423 70.2297C21.8323 69.8587 19.0603 69.2337 16.3893 68.3937C16.2273 68.3457 16.1253 68.1087 16.2773 67.9797C19.9443 64.9517 25.0503 64.3027 29.6413 63.3937C28.3813 62.6497 27.1803 61.8527 26.0673 61.1107C25.9283 61.0207 25.8743 60.7586 26.0673 60.6806C32.4133 58.0926 39.5743 57.6947 46.3513 58.1537C45.6413 56.1947 44.7293 54.3116 43.7903 52.4396C43.7153 52.2856 43.8113 52.0537 44.0073 52.0677C51.1353 52.6457 56.2443 58.4387 59.2583 64.5327C58.8923 61.5067 58.3623 58.5076 57.7903 55.5126C57.7533 55.3046 57.9583 55.1316 58.1533 55.2366C60.4163 56.4566 62.5553 58.0277 64.0173 60.1237C63.8693 57.9627 63.3653 55.8207 63.2283 53.6347C63.2183 53.4827 63.3933 53.3547 63.5393 53.3987C69.1713 55.0947 69.8753 60.7186 70.5373 65.7876C71.6793 62.8426 73.5133 59.5246 73.8633 58.9736C74.4373 58.0726 75.0283 57.3067 75.9013 56.6607C76.9733 55.8657 77.2973 56.6606 77.7373 57.6466C78.4213 59.1856 78.7793 60.8286 78.9223 62.5036C79.2123 62.2766 79.4993 62.0487 79.7883 61.8247C81.8573 60.2017 84.9243 57.5236 87.7873 57.8616C88.6993 57.9706 89.2423 58.6057 89.5683 59.4057C89.7223 59.1577 89.8773 58.9107 90.0343 58.6657C91.4523 56.4677 92.9973 54.3347 94.6493 52.3077C94.8083 52.1157 95.1343 52.3207 95.0633 52.5457C94.2933 54.9947 93.8753 57.5126 93.5403 60.0426C94.4003 59.3506 95.2773 58.7216 96.0733 58.1496C97.7983 56.9116 99.5383 55.6876 101.304 54.5047C103.195 53.2396 105.194 51.9996 107.467 51.5816C107.653 51.5496 107.807 51.6967 107.769 51.8847C107.292 54.1687 106.062 56.1436 104.933 58.1496C104.31 59.2616 103.684 60.3727 103.039 61.4747C104.461 60.7847 105.901 60.1496 107.344 59.5166C110.328 58.2076 113.402 56.9986 116.557 56.1766C119.683 55.3636 123.07 54.7817 126.236 55.7047C126.407 55.7617 126.484 55.9907 126.344 56.1217Z" fill="#E0B136"/>
<path opacity="0.4" d="M203.627 76.3046C200.114 74.5176 195.784 71.7496 191.449 70.8396C192.326 70.3826 193.218 69.9526 194.137 69.5586C194.31 69.4836 194.408 69.3686 194.47 69.2446C197.84 68.9986 201.254 69.7226 204.652 69.2956C200.772 66.4846 195.322 66.4266 190.617 66.0126C193.968 63.5966 198.054 61.7946 201.624 60.7586C202.337 60.5516 202.39 59.5946 201.679 59.3406C196.141 57.3596 190.317 56.7856 184.477 56.4736C181.448 56.3146 178.418 56.2486 175.387 56.3236C174.308 56.3526 173.254 56.5016 172.208 56.6916C173.852 55.8296 176.387 55.4346 179.032 55.2996C179.744 54.9976 180.414 54.6456 181.027 54.2166C176.621 52.8486 171.882 53.5666 167.201 54.8156C163.616 55.1846 160.063 55.7136 156.565 56.5386C157.097 56.0496 157.633 55.5606 158.177 55.0816C160.189 53.3096 162.258 51.9226 163.575 49.5266C163.823 49.0786 163.563 48.3856 162.981 48.4086C158.293 48.5776 153.853 49.5176 149.437 51.0946C146.884 52.0086 144.604 53.2856 142.351 54.6256C143.835 51.9786 145.946 49.6386 147.085 46.8016C147.993 44.5506 146.455 43.9756 144.495 44.6356C142.148 45.4236 139.787 46.6656 137.588 48.2266C133.09 47.8916 128.75 49.0556 124.364 50.2046C123.163 50.5196 121.972 50.8516 120.795 51.2026C126.305 50.3746 131.77 48.0136 137.284 49.6096C137.432 49.6486 137.524 49.8306 137.439 49.9676C135.564 52.9556 133.366 55.6976 131.111 58.3976C133.9 56.3786 136.323 53.8676 139.409 52.2706C139.588 52.1786 139.846 52.3356 139.772 52.5486C138.264 57.0116 136.299 61.3686 133.963 65.5076C135.359 64.1216 136.868 62.8526 138.411 61.7056C142.566 58.6126 147.35 55.9696 152.504 55.0516C152.716 55.0136 152.882 55.2136 152.78 55.4116C151.038 58.8986 148.049 61.6156 144.88 63.9756C152.624 61.1326 160.768 59.4426 169.065 59.6616C169.313 59.6696 169.4 59.9966 169.187 60.1246C166.872 61.5236 164.484 62.8166 162.034 63.9696C165.511 63.1676 169.075 62.8856 172.709 62.8366C176.272 62.7946 181.637 62.5826 184.256 65.5086C184.352 65.6156 184.343 65.7496 184.256 65.8616C182.727 67.7296 179.924 68.2596 177.701 68.7996C176.253 69.1566 174.816 69.5506 173.375 69.9426C175.079 70.1486 176.771 70.3936 178.435 70.6206C184.597 71.4676 191.07 72.0536 196.574 75.2046C196.713 75.2856 196.743 75.4796 196.629 75.5946C194.878 77.3286 191.299 76.8826 189.092 76.7466C185.291 76.5206 181.498 76.3996 177.692 76.2676C177.345 76.2556 176.995 76.2386 176.647 76.2286C179.433 77.6206 182.124 79.2786 184.458 81.2886C185.792 82.4406 188.783 85.1096 187.333 87.1616C186.696 88.0606 184.748 87.8866 183.813 87.8936C183.134 87.8956 182.456 87.8836 181.776 87.8606C182.039 88.1636 182.294 88.4766 182.537 88.8006C183.316 89.8486 184.075 91.0586 183.997 92.4136C183.937 93.4656 183.175 94.1866 182.118 94.0116C181.251 93.8656 180.46 93.4946 179.639 93.1886C178.663 92.8256 177.65 92.5496 176.653 92.2476C174.629 91.6276 172.605 90.9986 170.633 90.2226C170.054 89.9956 169.481 89.7536 168.911 89.4986C169.026 89.8806 169.121 90.2696 169.188 90.6746C169.265 91.1556 169.586 92.0646 169.033 92.3806C168.43 92.7256 167.018 92.3566 166.39 92.2346C163.62 91.6956 161.558 90.0886 159.641 88.2466C159.707 88.5276 159.746 88.8156 159.743 89.1146C159.741 89.2766 159.589 89.3906 159.434 89.3556C153.954 88.0696 148.366 86.6436 143.145 84.4566C143.998 86.0686 144.475 87.7736 144.063 89.6726C144.034 89.8026 143.884 89.8856 143.76 89.8506C141.256 89.0896 139.01 87.7246 136.625 86.6786C135.381 86.1346 134.111 85.6626 132.862 85.1356C131.903 86.0206 130.938 86.8626 130.075 87.6716C128.524 89.1276 126.868 90.6056 124.99 91.6336C123.857 92.2516 122.283 92.9946 121.061 92.1806C120.189 91.6006 120.288 90.2466 120.45 89.3606C120.582 88.6436 120.787 87.9386 121.032 87.2476C119.229 88.2746 117.377 89.2226 115.486 90.0736C113.132 91.4016 110.584 92.4756 107.926 92.8536C106.888 93.1496 105.839 93.4136 104.781 93.6446C104.565 93.6906 104.411 93.4766 104.503 93.2826C106.011 90.1946 108.083 87.4806 110.425 84.9766C110.044 85.1876 109.661 85.3926 109.274 85.5916C107.556 86.4826 105.732 87.4386 103.824 87.8466C102.987 88.0276 101.571 88.2636 101.02 87.3696C100.539 86.5896 100.935 85.5586 101.291 84.8096C101.574 84.2126 101.908 83.6466 102.263 83.0896C100.954 84.1776 99.6003 85.2106 98.1773 86.1496C96.1663 87.4756 94.1373 88.7716 91.9103 89.7056C90.2413 90.4056 88.2843 90.9516 86.5073 90.3446C86.3623 90.2926 86.2693 90.1266 86.3553 89.9836C87.5233 88.0426 89.1933 86.4716 91.0153 85.1156C84.0113 88.8556 76.8163 92.1816 68.8553 93.2406C66.7753 93.5186 59.1673 94.8426 61.0303 90.3606C61.3633 89.5566 61.8303 88.7956 62.3603 88.0796C61.7053 88.3016 61.0473 88.5196 60.3863 88.7286C55.9703 90.1206 51.4853 91.2446 46.9713 92.2706C42.7523 93.2246 38.4503 94.0726 34.1053 93.9816C33.8873 93.9786 33.7793 93.7146 33.9273 93.5586C36.0303 91.3556 38.5283 89.5686 41.0323 87.8296C40.9783 87.8416 40.9243 87.8546 40.8733 87.8656C35.9773 88.8756 31.0253 89.6766 26.0423 90.0916C23.8523 90.2746 21.6553 90.4226 19.4623 90.5536C17.9053 90.6486 16.2153 90.6846 14.8433 89.8246C14.7363 89.7596 14.6703 89.6036 14.7513 89.4876C16.1933 87.3916 18.3153 85.7166 20.4163 84.2536C17.8923 84.9136 15.3693 85.5826 12.8033 85.9646C11.3563 86.1826 9.39727 86.5546 8.07927 85.7006C7.11527 85.0766 7.68727 83.9176 8.26027 83.2466C9.20627 82.1326 10.3593 81.1866 11.5973 80.3326C10.8153 80.6766 10.0223 81.0056 9.22627 81.3236C9.51727 81.2966 9.80727 81.2736 10.0983 81.2406C5.38827 84.2886 1.37527 87.7226 2.98127 89.4566C4.37327 90.9586 8.76427 89.1816 10.2933 88.7956C11.8183 88.4076 13.3353 88.0306 14.8453 87.6476C12.0363 89.4606 9.43427 92.2276 8.34927 94.5506C8.14127 94.9976 8.27927 95.4556 8.75927 95.6386C13.7973 97.5446 19.9803 96.0746 25.1253 95.2946C27.2703 94.9706 29.4173 94.5606 31.5373 94.0436C29.1063 95.7316 26.8793 97.7146 24.9933 100.041C24.6103 100.512 25.1133 101.097 25.5893 101.157C32.9863 102.135 40.6673 100.024 47.6273 97.6676C50.8863 96.5636 54.2243 95.5836 57.5163 94.4916C54.7003 95.8176 51.9583 97.3216 49.0513 98.4826C48.3033 98.7836 48.7153 99.7806 49.3623 99.8666C55.8123 100.702 62.0213 99.2086 67.9933 96.8406C69.7823 96.1326 71.7453 95.4076 73.6633 94.5506C73.1823 94.9136 72.7143 95.2736 72.2663 95.5796C69.8543 97.2206 67.1863 98.6086 65.0293 100.586C64.6923 100.895 64.7233 101.516 65.1423 101.747C69.1743 103.955 74.7643 100.4 78.4283 98.7266C80.3523 97.8456 82.3573 96.8886 84.2913 95.7876C83.6293 97.5406 83.2033 99.3866 83.0193 101.239C82.9663 101.784 83.6243 102.175 84.0903 101.918C87.3723 100.088 90.0553 96.9116 93.3223 94.8966C94.3433 94.2666 95.4423 93.6486 96.5683 93.0676C94.2753 97.3346 92.1813 103.435 96.0453 103.078C101.143 102.613 106.125 99.8316 110.672 97.7146C112.741 96.7546 114.848 95.7106 116.76 94.4246C115.613 96.4576 114.969 98.7836 115.084 101.087C115.111 101.583 115.482 101.902 115.977 101.829C119.165 101.371 122.365 99.2686 124.913 97.3796C125.68 96.8106 126.377 96.1616 127.015 95.4636C129.171 98.6426 133.035 103.129 134.995 101.158C136.32 99.8296 135.519 97.5716 135.156 95.9796C134.809 94.4736 134.501 92.9826 134.183 91.4966C135.703 92.6356 137.551 93.5336 138.956 94.4126C140.784 95.5626 142.645 96.6486 144.553 97.6306C146.016 98.6746 147.518 99.4566 149.082 99.6626C149.458 99.8086 149.822 99.9766 150.205 100.11C150.828 100.335 151.325 99.6176 151.068 99.0736C150.096 97.0246 148.42 95.5456 147.115 93.7146C146.843 93.3326 146.565 92.9516 146.289 92.5726C147.869 93.3516 149.613 94.4906 150.276 94.8286C153.019 96.2406 155.978 97.7676 159.079 98.0956C159.223 98.1096 159.344 98.0776 159.442 98.0296C160.603 98.3256 161.787 98.5696 162.999 98.7396C162.871 98.6436 162.735 98.5516 162.607 98.4526C160.63 96.9526 157.348 95.0606 156.438 92.5186C159.855 95.2956 163.497 97.7526 167.434 99.7766C169.137 100.652 173.278 103.517 175.349 102.439C176.774 101.702 175.603 98.9466 174.532 96.8526C175.39 97.2396 176.236 97.6036 177.034 97.9306C181.211 99.6376 186.353 101.788 190.997 101.426C193.779 101.205 192.395 98.0886 191.562 96.7126C190.708 95.3056 189.719 93.9706 188.684 92.6596C190.612 93.1876 192.478 93.8816 194.366 94.6906C197.26 95.9336 200.37 96.7236 202.939 98.6006C203.512 99.0216 204.089 98.3806 204.038 97.8206C203.61 93.1726 201.439 89.6096 198.257 86.3196C197.08 85.1026 195.66 83.8386 194.096 82.9026C195.729 82.8166 197.379 82.8326 199.057 82.9676C203.635 83.3366 207.915 85.1136 212.467 85.6236C212.858 85.6656 213.22 85.2986 213.227 84.9216C213.285 80.4766 206.862 77.9506 203.627 76.3046Z" fill="#E0B136"/>
<path d="M49.7062 57.0224C49.2382 56.2614 48.7592 55.5814 48.1022 54.9744C47.6212 54.5354 46.7902 53.9164 46.1012 54.0354C46.0002 54.0534 45.8202 54.2184 45.8912 54.3364C46.0242 54.5564 46.2402 54.6974 46.4302 54.8714C46.7342 55.1534 47.0022 55.4914 47.2632 55.8124C47.7862 56.4614 48.3532 57.0644 48.9162 57.6794C49.2052 58.0014 49.9182 57.3614 49.7062 57.0224Z" fill="#E0B136"/>
<path d="M25.4868 68.4575C24.0608 67.8535 22.2808 67.5245 20.6838 67.4405C20.7008 67.3645 20.6718 67.2955 20.5658 67.3405C20.4058 67.3635 20.2438 67.3915 20.0848 67.4145C19.8708 67.3795 19.5218 67.7535 19.7178 67.9415C21.0668 69.2305 23.2538 69.7605 25.0558 69.4425C25.3798 69.3875 26.0058 68.6755 25.4868 68.4575Z" fill="#E0B136"/>
<path d="M19.9422 73.967C19.0372 74.439 18.1062 74.876 17.1632 75.273C16.4962 75.556 14.6942 75.909 15.0892 76.992C15.1752 77.234 15.4522 77.285 15.6752 77.249C16.4642 77.116 17.2312 76.41 17.8582 75.948C18.5912 75.411 19.3142 74.859 20.0162 74.283C20.1462 74.177 20.1952 73.839 19.9422 73.967Z" fill="#E0B136"/>
<path d="M39.4047 79.4845C38.9687 78.7895 36.6467 80.0405 36.1717 80.2505C35.1367 80.7175 34.1337 81.2425 33.1477 81.7985C32.5057 82.1605 31.4407 82.6765 31.3557 83.5135C31.3287 83.7615 31.3577 84.0265 31.6257 84.1365C32.2157 84.3805 32.8757 83.7995 33.3327 83.4875C34.1067 82.9615 34.8917 82.4515 35.6707 81.9335C36.4607 81.4065 37.2567 80.8945 38.0567 80.3785C38.3477 80.1945 38.6347 80.0095 38.9377 79.8445C39.1107 79.7485 39.1567 79.7345 39.1597 79.7265C39.2697 79.7845 39.4717 79.5915 39.4047 79.4845Z" fill="#E0B136"/>
<path d="M55.2105 81.6285C53.4385 82.4275 50.8315 82.7385 49.7735 84.5855C49.2385 85.5175 50.1395 85.9955 50.8475 85.3045C52.2035 83.9755 53.9905 83.2445 55.3385 81.9235C55.4675 81.7985 55.4395 81.5245 55.2105 81.6285Z" fill="#E0B136"/>
<path d="M74.51 81.235C72.695 82.165 70.349 83.19 69.37 85.101C69.2 85.432 69.308 85.901 69.729 85.929C70.032 85.947 70.302 85.792 70.509 85.574C70.506 85.578 70.506 85.585 70.503 85.586C71.132 84.908 71.665 84.186 72.344 83.547C73.068 82.87 73.837 82.243 74.597 81.61C74.749 81.486 74.812 81.08 74.51 81.235Z" fill="#E0B136"/>
<path d="M87.142 80.0703C86.452 80.7253 85.3801 81.1623 85.1221 82.1633C85.0451 82.4543 85.2841 82.6503 85.5561 82.6033C85.6481 82.5823 85.7281 82.5593 85.8181 82.5323C86.0531 82.4573 86.59 81.9583 86.364 81.6943C86.446 81.5373 86.5431 81.3863 86.6761 81.2333C86.9441 80.9203 87.225 80.6243 87.449 80.2773C87.624 80.0093 87.34 79.8793 87.142 80.0703Z" fill="#E0B136"/>
<path d="M103.726 55.2322C102.769 55.3172 101.955 55.9492 101.227 56.5202C100.489 57.1002 99.776 57.7682 99.276 58.5652C99.061 58.9062 99.365 59.0852 99.63 58.9132C99.63 58.9162 99.63 58.9192 99.63 58.9212C100.338 58.5042 101.039 58.0732 101.759 57.6732C102.547 57.2372 103.335 56.8442 103.944 56.1612C104.248 55.8222 104.367 55.1742 103.726 55.2322Z" fill="#E0B136"/>
<path d="M114.086 84.2107C113.164 84.1587 112.105 85.2847 111.508 85.8637C110.667 86.6807 109.33 87.9507 109.301 89.2107C109.291 89.5947 109.695 89.7577 110.016 89.6947C110.469 89.6087 110.776 89.2657 110.986 88.8807C111.805 87.3897 112.53 85.4937 114.064 84.5577C114.163 84.4987 114.295 84.2247 114.086 84.2107Z" fill="#E0B136"/>
<path d="M124.506 84.3064C124.485 84.0154 124.062 84.2674 124.039 84.4534C123.891 85.7194 123.147 87.2444 123.656 88.4954C123.839 88.9384 124.393 88.3454 124.408 88.0774C124.446 87.4114 124.393 86.7494 124.453 86.0794C124.509 85.4844 124.549 84.9024 124.506 84.3064Z" fill="#E0B136"/>
<path d="M139.67 84.9785C138.784 83.8955 137.382 83.2625 136.232 82.5065C136.007 82.3605 135.624 82.7845 135.735 83.0035C136.375 84.2785 137.265 85.6695 138.691 86.1485C139.252 86.3385 140.106 85.5055 139.67 84.9785Z" fill="#E0B136"/>
<path d="M161.556 61.0305C158.818 61.1175 156.103 61.3535 153.46 62.1145C152.896 62.2805 152.343 62.5405 151.796 62.7685C151.48 62.8975 151.162 63.0305 150.851 63.1715C150.824 63.1835 150.809 63.1945 150.787 63.2025C150.787 63.2025 150.787 63.2025 150.784 63.2025C150.734 63.2145 150.686 63.2265 150.638 63.2345C150.493 63.2655 150.368 63.4185 150.408 63.5655C150.412 63.5895 150.418 63.6125 150.426 63.6345C150.443 63.7065 150.533 63.7105 150.588 63.7065C151.499 63.6065 152.413 63.1845 153.299 62.9405C155.867 62.2425 158.694 62.1595 161.325 61.7455C161.607 61.7035 161.998 61.0175 161.556 61.0305Z" fill="#E0B136"/>
<path d="M177.279 64.8445C173.14 64.0925 169.709 64.4485 165.642 65.1475C165.484 65.1755 165.247 65.5505 165.511 65.5605C167.197 65.6235 168.853 65.2475 170.543 65.2595C172.677 65.2765 174.805 65.5835 176.94 65.6135C177.297 65.6175 177.792 64.9385 177.279 64.8445Z" fill="#E0B136"/>
<path d="M191.455 73.7912C189.327 73.1992 187.031 72.9842 184.826 73.1752C184.64 73.1912 184.404 73.5892 184.683 73.6222C186.809 73.8722 188.923 74.3582 191.056 74.5032C191.339 74.5232 191.855 73.9002 191.455 73.7912Z" fill="#E0B136"/>
<path d="M183.459 82.7654C182.182 81.5724 180.61 80.6324 179.115 79.7404C178.941 79.6364 178.613 79.9934 178.78 80.1424C180.072 81.3134 181.262 82.7774 182.949 83.3744C183.221 83.4684 183.724 83.0114 183.459 82.7654Z" fill="#E0B136"/>
<defs>
<filter id="filter0_d_221_385" x="76.9805" y="0" width="69.5527" height="93.6396" filterUnits="userSpaceOnUse" color-interpolation-filters="sRGB">
<feFlood flood-opacity="0" result="BackgroundImageFix"/>
<feColorMatrix in="SourceAlpha" type="matrix" values="0 0 0 0 0 0 0 0 0 0 0 0 0 0 0 0 0 0 127 0" result="hardAlpha"/>
<feOffset dy="4"/>
<feGaussianBlur stdDeviation="2"/>
<feComposite in2="hardAlpha" operator="out"/>
<feColorMatrix type="matrix" values="0 0 0 0 0 0 0 0 0 0 0 0 0 0 0 0 0 0 0.45 0"/>
<feBlend mode="normal" in2="BackgroundImageFix" result="effect1_dropShadow_221_385"/>
<feBlend mode="normal" in="SourceGraphic" in2="effect1_dropShadow_221_385" result="shape"/>
</filter>
</defs>
</svg>
