<svg width="224" height="458" viewBox="0 0 224 458" fill="none" xmlns="http://www.w3.org/2000/svg">
<path fill-rule="evenodd" clip-rule="evenodd" d="M131.375 47.6056C120.644 57.4636 116.193 65.8554 115.309 68.819C128.786 50.3509 148.793 38.5587 157.112 34.9712C185.812 26.6106 189.66 33.2554 187.996 37.6228C179.76 46.1082 148.065 59.2522 133.247 64.7635V70.0173C139.665 70.7832 145.924 71.9089 152.023 73.3945C163.949 76.1468 173.047 79.74 179.316 84.1743C184.974 88.3027 190.019 94.1131 194.454 101.605C199.041 109.098 202.94 117.584 206.151 127.064C209.515 136.544 212.344 146.56 214.637 157.11C217.084 167.661 218.919 177.905 220.142 187.844C221.671 200.688 222.741 214.908 223.353 230.505C223.964 245.948 223.735 261.927 222.665 278.44C221.594 294.801 219.683 311.238 216.931 327.752C214.331 344.113 210.738 359.48 206.151 373.853C201.717 388.226 196.059 401.223 189.178 412.844C182.298 424.465 174.27 433.563 165.096 440.138C158.521 444.878 150.035 448.624 139.637 451.376C129.393 454.281 118.23 456.193 106.151 457.11C94.2243 458.027 81.9919 457.798 69.4537 456.422C56.9155 455.199 45.1418 453.058 34.1326 450C35.3559 448.777 36.8085 447.553 38.4904 446.33C40.3253 444.954 41.8543 443.96 43.0776 443.349L33.6739 431.193L70.3711 427.982L35.9675 402.523L36.4262 402.064C43.0011 402.676 49.9583 403.364 57.2977 404.128C64.6372 404.893 71.9766 405.352 79.3161 405.505C86.8084 405.657 94.0714 405.199 101.105 404.128C108.139 403.058 114.79 400.841 121.059 397.477C126.105 394.725 130.463 390.673 134.133 385.321C137.955 379.969 141.013 374.006 143.307 367.431C145.753 360.856 147.588 353.823 148.812 346.33C150.035 338.685 150.799 331.116 151.105 323.624C139.178 325.459 127.328 326.529 115.555 326.835C103.934 327.141 93.0011 326.835 82.7565 325.917C72.5118 325 63.5669 323.547 55.9216 321.56C48.2763 319.572 42.9247 317.125 39.8666 314.22C25.7993 301.988 15.3253 286.162 8.44454 266.743C8.41053 266.647 8.37663 266.551 8.34283 266.455L26.3455 260.533L51.0961 256.515L34.1784 255.916C26.0171 257.174 9.42285 259.586 8.33567 259.169C10.6373 257.142 12.2468 253.337 12.7638 251.687C11.422 251.173 7.93664 251.396 4.14501 251.881C0.505179 236.003 -0.737485 218.25 0.417014 198.624C0.722825 188.991 2.02252 178.823 4.3161 168.119C6.60967 157.263 9.74423 146.789 13.7198 136.697C17.6953 126.605 22.3589 117.278 27.7106 108.716C33.2152 100.153 39.2549 93.0428 45.8299 87.3853C53.628 80.8104 63.7198 76.0703 76.1051 73.1651C82.8662 71.4957 89.7413 70.3047 96.7303 69.5922C99.6932 54.712 115.187 32.7168 123.108 22.9606C131.583 13.1339 150.748 -4.95992 159.608 1.27931C170.682 9.07835 144.789 35.2831 131.375 47.6056ZM67.3895 162.615C64.0256 171.636 61.8084 181.269 60.7381 191.514C59.6678 201.605 59.8971 212.156 61.4262 223.165C62.9552 234.021 66.2427 244.648 71.2886 255.046C75.1112 262.538 80.3864 267.966 87.1143 271.33C93.995 274.541 101.258 276.147 108.903 276.147C116.701 276.147 124.041 274.771 130.922 272.018C137.802 269.113 143.154 265.214 146.977 260.321C151.717 253.746 155.004 245.336 156.839 235.092C158.674 224.847 159.286 214.144 158.674 202.982C158.062 191.667 156.457 180.581 153.857 169.725C151.411 158.716 148.276 149.083 144.454 140.826C142.619 136.391 138.72 133.027 132.756 130.734C126.793 128.44 120.371 127.141 113.49 126.835C106.61 126.529 99.9583 127.446 93.5363 129.587C87.1143 131.575 82.5271 134.557 79.7748 138.532C75.0348 145.413 70.9063 153.44 67.3895 162.615Z" fill="#D80026"/>
</svg>
