<svg width="252" height="140" viewBox="0 0 252 140" fill="none" xmlns="http://www.w3.org/2000/svg">
<path d="M1.184 18V6.8H6.256C6.928 6.8 7.53067 6.95467 8.064 7.264C8.59733 7.57333 9.01333 8.01067 9.312 8.576C9.61067 9.14133 9.76 9.792 9.76 10.528C9.76 11.264 9.61067 11.92 9.312 12.496C9.01333 13.0613 8.59733 13.4987 8.064 13.808C7.53067 14.1173 6.928 14.272 6.256 14.272H3.264V18H1.184ZM6.16 12.272C6.59733 12.272 6.96 12.1173 7.248 11.808C7.536 11.488 7.68 11.0667 7.68 10.544C7.68 10.0213 7.536 9.6 7.248 9.28C6.96 8.96 6.59733 8.8 6.16 8.8H3.264V12.272H6.16ZM16.7739 14.096L20.5179 18H17.9259L14.2939 14.128H13.6859V18H11.6059V6.8H16.7419C17.4139 6.8 18.0112 6.96 18.5339 7.28C19.0672 7.58933 19.4832 8.02667 19.7819 8.592C20.0805 9.14667 20.2299 9.78667 20.2299 10.512C20.2299 11.184 20.0859 11.7973 19.7979 12.352C19.5099 12.896 19.1205 13.3227 18.6299 13.632C18.1499 13.9413 17.6219 14.096 17.0459 14.096H16.7739ZM13.6859 12.224H16.6459C17.0725 12.224 17.4299 12.064 17.7179 11.744C18.0059 11.424 18.1499 11.008 18.1499 10.496C18.1499 9.984 18.0059 9.568 17.7179 9.248C17.4299 8.91733 17.0725 8.752 16.6459 8.752H13.6859V12.224ZM29.7505 18H22.2465V6.8H29.7505V8.704H24.3265V11.456H29.4305V13.312H24.3265V16.096H29.7505V18ZM35.6185 18.16C34.7012 18.16 33.9012 18 33.2185 17.68C32.5465 17.3493 32.0292 16.9067 31.6665 16.352C31.3145 15.7867 31.1385 15.1573 31.1385 14.464H33.2185C33.2185 14.9973 33.4265 15.44 33.8425 15.792C34.2692 16.1333 34.8612 16.304 35.6185 16.304C36.3758 16.304 36.9412 16.1653 37.3145 15.888C37.6878 15.6107 37.8745 15.2533 37.8745 14.816C37.8745 14.4427 37.7358 14.1387 37.4585 13.904C37.1812 13.6587 36.7438 13.4827 36.1465 13.376L34.2425 13.024C33.2718 12.8427 32.5518 12.5067 32.0825 12.016C31.6132 11.5147 31.3785 10.8373 31.3785 9.984C31.3785 9.35467 31.5385 8.78933 31.8585 8.288C32.1892 7.776 32.6585 7.376 33.2665 7.088C33.8852 6.78933 34.6158 6.64 35.4585 6.64C36.3758 6.64 37.1652 6.8 37.8265 7.12C38.4985 7.42933 39.0052 7.86667 39.3465 8.432C39.6985 8.98667 39.8745 9.62133 39.8745 10.336H37.7945C37.7945 9.824 37.5812 9.392 37.1545 9.04C36.7385 8.67733 36.1732 8.496 35.4585 8.496C34.8185 8.496 34.3225 8.64 33.9705 8.928C33.6292 9.20533 33.4585 9.55733 33.4585 9.984C33.4585 10.336 33.5758 10.6187 33.8105 10.832C34.0558 11.0347 34.4505 11.1893 34.9945 11.296L36.7545 11.616C37.8745 11.8187 38.6852 12.176 39.1865 12.688C39.6985 13.1893 39.9545 13.8987 39.9545 14.816C39.9545 15.456 39.7892 16.032 39.4585 16.544C39.1278 17.0453 38.6318 17.44 37.9705 17.728C37.3198 18.016 36.5358 18.16 35.6185 18.16ZM49.3443 18H41.8403V6.8H49.3443V8.704H43.9203V11.456H49.0243V13.312H43.9203V16.096H49.3443V18ZM53.4203 18H51.3403V6.8H54.0923L58.1883 14.624H58.5083V6.8H60.5883V18H57.8203L53.7403 10.176H53.4203V18ZM67.5256 18H65.4456V8.8H62.1176V6.8H70.8536V8.8H67.5256V18ZM79.8911 18H72.3871V6.8H79.8911V8.704H74.4671V11.456H79.5711V13.312H74.4671V16.096H79.8911V18ZM81.8871 18V6.8H85.8871C86.9005 6.8 87.8178 7.04533 88.6391 7.536C89.4711 8.016 90.1218 8.68267 90.5911 9.536C91.0711 10.3893 91.3111 11.344 91.3111 12.4C91.3111 13.456 91.0711 14.4107 90.5911 15.264C90.1218 16.1173 89.4711 16.7893 88.6391 17.28C87.8178 17.76 86.9005 18 85.8871 18H81.8871ZM85.8871 16C86.5058 16 87.0711 15.8507 87.5831 15.552C88.0951 15.2427 88.4951 14.816 88.7831 14.272C89.0818 13.728 89.2311 13.104 89.2311 12.4C89.2311 11.696 89.0818 11.072 88.7831 10.528C88.4951 9.984 88.0951 9.56267 87.5831 9.264C87.0711 8.95467 86.5058 8.8 85.8871 8.8H83.9671V16H85.8871ZM97.2621 18V6.8H102.462C103.081 6.8 103.63 6.93333 104.11 7.2C104.59 7.46667 104.963 7.84 105.23 8.32C105.507 8.78933 105.646 9.32267 105.646 9.92C105.646 10.464 105.518 10.9547 105.262 11.392C105.017 11.8187 104.745 12.128 104.446 12.32V12.4C104.787 12.5813 105.097 12.896 105.374 13.344C105.662 13.7813 105.806 14.2933 105.806 14.88C105.806 15.4773 105.667 16.016 105.39 16.496C105.123 16.9653 104.75 17.3333 104.27 17.6C103.79 17.8667 103.241 18 102.622 18H97.2621ZM102.206 11.488C102.59 11.488 102.91 11.3547 103.166 11.088C103.433 10.8213 103.566 10.48 103.566 10.064C103.566 9.65867 103.433 9.32267 103.166 9.056C102.91 8.78933 102.59 8.656 102.206 8.656H99.3421V11.488H102.206ZM102.366 16.144C102.75 16.144 103.07 16.0107 103.326 15.744C103.593 15.4773 103.726 15.1413 103.726 14.736C103.726 14.32 103.593 13.9787 103.326 13.712C103.07 13.4453 102.75 13.312 102.366 13.312H99.3421V16.144H102.366ZM112.329 18H110.249V14.16L106.168 6.8H108.473L111.129 11.664H111.449L114.089 6.8H116.409L112.329 14.16V18Z" fill="white"/>
<path d="M6.16 58.16C5.17867 58.16 4.27733 57.92 3.456 57.44C2.63467 56.9493 1.984 56.2667 1.504 55.392C1.03467 54.5173 0.8 53.52 0.8 52.4C0.8 51.28 1.03467 50.2827 1.504 49.408C1.984 48.5333 2.63467 47.856 3.456 47.376C4.27733 46.8853 5.17867 46.64 6.16 46.64C7.14133 46.64 8.04267 46.8853 8.864 47.376C9.68533 47.856 10.3307 48.5333 10.8 49.408C11.28 50.2827 11.52 51.28 11.52 52.4C11.52 53.52 11.28 54.5173 10.8 55.392C10.3307 56.2667 9.68533 56.9493 8.864 57.44C8.04267 57.92 7.14133 58.16 6.16 58.16ZM6.16 56.96C6.90667 56.96 7.58933 56.768 8.208 56.384C8.83733 56 9.33333 55.4613 9.696 54.768C10.0587 54.0747 10.24 53.2853 10.24 52.4C10.24 51.5147 10.0587 50.7253 9.696 50.032C9.33333 49.3387 8.83733 48.8 8.208 48.416C7.58933 48.032 6.90667 47.84 6.16 47.84C5.41333 47.84 4.72533 48.032 4.096 48.416C3.47733 48.8 2.98667 49.3387 2.624 50.032C2.26133 50.7253 2.08 51.5147 2.08 52.4C2.08 53.2853 2.26133 54.0747 2.624 54.768C2.98667 55.4613 3.47733 56 4.096 56.384C4.72533 56.768 5.41333 56.96 6.16 56.96ZM13.4325 61.2V50H14.4725L14.6325 51.12H14.7125C15.0432 50.704 15.4165 50.3893 15.8325 50.176C16.2485 49.952 16.7285 49.84 17.2725 49.84C17.9658 49.84 18.5898 50.016 19.1445 50.368C19.7098 50.72 20.1525 51.2107 20.4725 51.84C20.7925 52.4693 20.9525 53.1893 20.9525 54C20.9525 54.8107 20.7925 55.5307 20.4725 56.16C20.1525 56.7893 19.7098 57.28 19.1445 57.632C18.5898 57.984 17.9658 58.16 17.2725 58.16C16.7285 58.16 16.2485 58.0533 15.8325 57.84C15.4165 57.616 15.0432 57.296 14.7125 56.88H14.6325V61.2H13.4325ZM17.1925 57.04C17.6512 57.04 18.0725 56.912 18.4565 56.656C18.8512 56.4 19.1658 56.0427 19.4005 55.584C19.6352 55.1253 19.7525 54.5973 19.7525 54C19.7525 53.4027 19.6352 52.8747 19.4005 52.416C19.1658 51.9573 18.8512 51.6 18.4565 51.344C18.0725 51.088 17.6512 50.96 17.1925 50.96C16.7338 50.96 16.3072 51.088 15.9125 51.344C15.5285 51.6 15.2192 51.9573 14.9845 52.416C14.7498 52.8747 14.6325 53.4027 14.6325 54C14.6325 54.5973 14.7498 55.1253 14.9845 55.584C15.2192 56.0427 15.5285 56.4 15.9125 56.656C16.3072 56.912 16.7338 57.04 17.1925 57.04ZM26.0738 58.16C25.3591 58.16 24.7084 57.984 24.1218 57.632C23.5351 57.28 23.0711 56.7893 22.7298 56.16C22.3991 55.5307 22.2338 54.8107 22.2338 54C22.2338 53.1893 22.3991 52.4693 22.7298 51.84C23.0711 51.2107 23.5351 50.72 24.1218 50.368C24.7084 50.016 25.3591 49.84 26.0738 49.84C26.7564 49.84 27.3804 50.0053 27.9458 50.336C28.5111 50.6667 28.9538 51.1253 29.2738 51.712C29.5938 52.288 29.7538 52.944 29.7538 53.68C29.7538 54.1067 29.7271 54.4 29.6737 54.56H23.4338C23.5084 55.3067 23.7964 55.9093 24.2978 56.368C24.7991 56.816 25.3911 57.04 26.0738 57.04C26.5538 57.04 26.9804 56.928 27.3538 56.704C27.7378 56.48 28.0311 56.1653 28.2338 55.76H29.5138C29.2364 56.528 28.7991 57.12 28.2018 57.536C27.6151 57.952 26.9058 58.16 26.0738 58.16ZM28.5538 53.44C28.5111 52.7147 28.2551 52.1227 27.7858 51.664C27.3271 51.1947 26.7564 50.96 26.0738 50.96C25.3591 50.96 24.7618 51.1947 24.2818 51.664C23.8018 52.1227 23.5191 52.7147 23.4338 53.44H28.5538ZM31.5106 58V50H32.5506L32.7106 50.88H32.7906C33.004 50.6133 33.324 50.3733 33.7506 50.16C34.1773 49.9467 34.6573 49.84 35.1906 49.84C35.7986 49.84 36.3426 49.984 36.8226 50.272C37.3133 50.5493 37.6973 50.944 37.9746 51.456C38.252 51.968 38.3906 52.5493 38.3906 53.2V58H37.1906V53.2C37.1906 52.784 37.0946 52.4053 36.9026 52.064C36.7106 51.7227 36.4493 51.456 36.1186 51.264C35.788 51.0613 35.4253 50.96 35.0306 50.96C34.6146 50.96 34.2253 51.0667 33.8626 51.28C33.5106 51.4827 33.228 51.7547 33.0146 52.096C32.812 52.4373 32.7106 52.8053 32.7106 53.2V58H31.5106ZM48.1631 58.16C47.3098 58.16 46.5631 58.0053 45.9231 57.696C45.2831 57.376 44.7871 56.9547 44.4351 56.432C44.0938 55.9093 43.9231 55.3387 43.9231 54.72H45.2031C45.2031 55.1253 45.3151 55.4987 45.5391 55.84C45.7738 56.1813 46.1151 56.4533 46.5631 56.656C47.0111 56.8587 47.5445 56.96 48.1631 56.96C49.1125 56.96 49.8165 56.7787 50.2751 56.416C50.7338 56.0427 50.9631 55.5573 50.9631 54.96C50.9631 54.48 50.8031 54.0853 50.4831 53.776C50.1631 53.456 49.6831 53.2373 49.0431 53.12L46.8831 52.72C45.0698 52.3787 44.1631 51.4187 44.1631 49.84C44.1631 49.2213 44.3178 48.672 44.6271 48.192C44.9365 47.712 45.3791 47.3333 45.9551 47.056C46.5418 46.7787 47.2245 46.64 48.0031 46.64C48.8351 46.64 49.5658 46.7947 50.1951 47.104C50.8245 47.4027 51.3098 47.8133 51.6511 48.336C51.9925 48.8587 52.1631 49.44 52.1631 50.08H50.8831C50.8831 49.6747 50.7658 49.3013 50.5311 48.96C50.3071 48.6187 49.9765 48.3467 49.5391 48.144C49.1125 47.9413 48.6005 47.84 48.0031 47.84C47.1925 47.84 46.5631 48.0267 46.1151 48.4C45.6671 48.7733 45.4431 49.2533 45.4431 49.84C45.4431 50.288 45.5925 50.6667 45.8911 50.976C46.2005 51.2853 46.6645 51.4933 47.2831 51.6L49.0431 51.92C50.1525 52.1227 50.9631 52.4693 51.4751 52.96C51.9871 53.4507 52.2431 54.1173 52.2431 54.96C52.2431 55.5787 52.0831 56.1333 51.7631 56.624C51.4538 57.104 50.9898 57.4827 50.3711 57.76C49.7525 58.0267 49.0165 58.16 48.1631 58.16ZM57.5269 58.16C56.8122 58.16 56.1615 57.984 55.5749 57.632C54.9882 57.28 54.5242 56.7893 54.1829 56.16C53.8522 55.5307 53.6869 54.8107 53.6869 54C53.6869 53.1893 53.8522 52.4693 54.1829 51.84C54.5242 51.2107 54.9882 50.72 55.5749 50.368C56.1615 50.016 56.8122 49.84 57.5269 49.84C58.2415 49.84 58.8922 50.016 59.4789 50.368C60.0655 50.72 60.5242 51.2107 60.8549 51.84C61.1962 52.4693 61.3669 53.1893 61.3669 54C61.3669 54.8107 61.1962 55.5307 60.8549 56.16C60.5242 56.7893 60.0655 57.28 59.4789 57.632C58.8922 57.984 58.2415 58.16 57.5269 58.16ZM57.5269 57.04C58.0069 57.04 58.4495 56.9173 58.8549 56.672C59.2602 56.416 59.5802 56.0587 59.8149 55.6C60.0495 55.1307 60.1669 54.5973 60.1669 54C60.1669 53.4027 60.0495 52.8747 59.8149 52.416C59.5802 51.9467 59.2602 51.5893 58.8549 51.344C58.4495 51.088 58.0069 50.96 57.5269 50.96C57.0469 50.96 56.6042 51.088 56.1989 51.344C55.7935 51.5893 55.4735 51.9467 55.2389 52.416C55.0042 52.8747 54.8869 53.4027 54.8869 54C54.8869 54.5973 55.0042 55.1307 55.2389 55.6C55.4735 56.0587 55.7935 56.416 56.1989 56.672C56.6042 56.9173 57.0469 57.04 57.5269 57.04ZM66.32 58.16C65.712 58.16 65.1627 58.0213 64.672 57.744C64.192 57.456 63.8133 57.056 63.536 56.544C63.2587 56.032 63.12 55.4507 63.12 54.8V50H64.32V54.8C64.32 55.216 64.416 55.5947 64.608 55.936C64.8 56.2773 65.0613 56.5493 65.392 56.752C65.7227 56.944 66.0853 57.04 66.48 57.04C66.896 57.04 67.28 56.9387 67.632 56.736C67.9947 56.5227 68.2773 56.2453 68.48 55.904C68.6933 55.5627 68.8 55.1947 68.8 54.8V50H70V58H68.96L68.8 57.12H68.72C68.496 57.3973 68.1707 57.6427 67.744 57.856C67.328 58.0587 66.8533 58.16 66.32 58.16ZM72.245 58V50H73.285L73.445 50.8H73.525C73.7063 50.5227 73.9037 50.32 74.117 50.192C74.3303 50.064 74.6397 50 75.045 50H76.405V51.12H75.205C74.6503 51.12 74.2183 51.2747 73.909 51.584C73.5997 51.8827 73.445 52.3147 73.445 52.88V58H72.245ZM80.8863 58.16C80.1716 58.16 79.5209 57.984 78.9343 57.632C78.3476 57.28 77.8836 56.7893 77.5423 56.16C77.2116 55.5307 77.0463 54.8107 77.0463 54C77.0463 53.1893 77.2116 52.4693 77.5423 51.84C77.8836 51.2107 78.3476 50.72 78.9343 50.368C79.5209 50.016 80.1716 49.84 80.8863 49.84C81.7716 49.84 82.5289 50.0853 83.1583 50.576C83.7876 51.056 84.2036 51.7173 84.4062 52.56H83.2063C83.0463 52.048 82.7583 51.6533 82.3423 51.376C81.9369 51.0987 81.4516 50.96 80.8863 50.96C80.4063 50.96 79.9636 51.088 79.5583 51.344C79.1529 51.5893 78.8329 51.9467 78.5983 52.416C78.3636 52.8747 78.2463 53.4027 78.2463 54C78.2463 54.5973 78.3636 55.1307 78.5983 55.6C78.8329 56.0587 79.1529 56.416 79.5583 56.672C79.9636 56.9173 80.4063 57.04 80.8863 57.04C81.4623 57.04 81.9529 56.896 82.3583 56.608C82.7636 56.32 83.0463 55.904 83.2063 55.36H84.4062C84.2036 56.2347 83.7876 56.9227 83.1583 57.424C82.5289 57.9147 81.7716 58.16 80.8863 58.16ZM89.4488 58.16C88.7341 58.16 88.0834 57.984 87.4968 57.632C86.9101 57.28 86.4461 56.7893 86.1048 56.16C85.7741 55.5307 85.6088 54.8107 85.6088 54C85.6088 53.1893 85.7741 52.4693 86.1048 51.84C86.4461 51.2107 86.9101 50.72 87.4968 50.368C88.0834 50.016 88.7341 49.84 89.4488 49.84C90.1314 49.84 90.7554 50.0053 91.3208 50.336C91.8861 50.6667 92.3288 51.1253 92.6488 51.712C92.9688 52.288 93.1288 52.944 93.1288 53.68C93.1288 54.1067 93.1021 54.4 93.0487 54.56H86.8088C86.8834 55.3067 87.1714 55.9093 87.6728 56.368C88.1741 56.816 88.7661 57.04 89.4488 57.04C89.9288 57.04 90.3554 56.928 90.7288 56.704C91.1128 56.48 91.4061 56.1653 91.6088 55.76H92.8888C92.6114 56.528 92.1741 57.12 91.5768 57.536C90.9901 57.952 90.2808 58.16 89.4488 58.16ZM91.9288 53.44C91.8861 52.7147 91.6301 52.1227 91.1608 51.664C90.7021 51.1947 90.1314 50.96 89.4488 50.96C88.7341 50.96 88.1368 51.1947 87.6568 51.664C87.1768 52.1227 86.8941 52.7147 86.8088 53.44H91.9288ZM102.413 58.16C101.56 58.16 100.813 58.0053 100.173 57.696C99.5331 57.376 99.0371 56.9547 98.6851 56.432C98.3438 55.9093 98.1731 55.3387 98.1731 54.72H99.4531C99.4531 55.1253 99.5651 55.4987 99.7891 55.84C100.024 56.1813 100.365 56.4533 100.813 56.656C101.261 56.8587 101.794 56.96 102.413 56.96C103.362 56.96 104.066 56.7787 104.525 56.416C104.984 56.0427 105.213 55.5573 105.213 54.96C105.213 54.48 105.053 54.0853 104.733 53.776C104.413 53.456 103.933 53.2373 103.293 53.12L101.133 52.72C99.3198 52.3787 98.4131 51.4187 98.4131 49.84C98.4131 49.2213 98.5678 48.672 98.8771 48.192C99.1865 47.712 99.6291 47.3333 100.205 47.056C100.792 46.7787 101.474 46.64 102.253 46.64C103.085 46.64 103.816 46.7947 104.445 47.104C105.074 47.4027 105.56 47.8133 105.901 48.336C106.242 48.8587 106.413 49.44 106.413 50.08H105.133C105.133 49.6747 105.016 49.3013 104.781 48.96C104.557 48.6187 104.226 48.3467 103.789 48.144C103.362 47.9413 102.85 47.84 102.253 47.84C101.442 47.84 100.813 48.0267 100.365 48.4C99.9171 48.7733 99.6931 49.2533 99.6931 49.84C99.6931 50.288 99.8425 50.6667 100.141 50.976C100.45 51.2853 100.914 51.4933 101.533 51.6L103.293 51.92C104.402 52.1227 105.213 52.4693 105.725 52.96C106.237 53.4507 106.493 54.1173 106.493 54.96C106.493 55.5787 106.333 56.1333 106.013 56.624C105.704 57.104 105.24 57.4827 104.621 57.76C104.002 58.0267 103.266 58.16 102.413 58.16ZM111.777 58.16C111.062 58.16 110.412 57.984 109.825 57.632C109.238 57.28 108.774 56.7893 108.433 56.16C108.102 55.5307 107.937 54.8107 107.937 54C107.937 53.1893 108.102 52.4693 108.433 51.84C108.774 51.2107 109.238 50.72 109.825 50.368C110.412 50.016 111.062 49.84 111.777 49.84C112.492 49.84 113.142 50.016 113.729 50.368C114.316 50.72 114.774 51.2107 115.105 51.84C115.446 52.4693 115.617 53.1893 115.617 54C115.617 54.8107 115.446 55.5307 115.105 56.16C114.774 56.7893 114.316 57.28 113.729 57.632C113.142 57.984 112.492 58.16 111.777 58.16ZM111.777 57.04C112.257 57.04 112.7 56.9173 113.105 56.672C113.51 56.416 113.83 56.0587 114.065 55.6C114.3 55.1307 114.417 54.5973 114.417 54C114.417 53.4027 114.3 52.8747 114.065 52.416C113.83 51.9467 113.51 51.5893 113.105 51.344C112.7 51.088 112.257 50.96 111.777 50.96C111.297 50.96 110.854 51.088 110.449 51.344C110.044 51.5893 109.724 51.9467 109.489 52.416C109.254 52.8747 109.137 53.4027 109.137 54C109.137 54.5973 109.254 55.1307 109.489 55.6C109.724 56.0587 110.044 56.416 110.449 56.672C110.854 56.9173 111.297 57.04 111.777 57.04ZM117.774 58V51.12H116.494V50H117.774V48.48C117.774 48.0747 117.902 47.7493 118.158 47.504C118.424 47.248 118.776 47.12 119.214 47.12H120.654V48.24H119.454C119.134 48.24 118.974 48.4 118.974 48.72V50H120.654V51.12H118.974V58H117.774ZM124.167 58C123.73 58 123.378 57.8773 123.111 57.632C122.855 57.376 122.727 57.0453 122.727 56.64V51.12H121.447V50H122.727V47.76H123.927V50H125.767V51.12H123.927V56.4C123.927 56.72 124.087 56.88 124.407 56.88H125.767V58H124.167ZM130.808 58H128.728L126.568 50H127.848L129.608 56.72H129.928L131.688 50H133.608L135.368 56.72H135.688L137.448 50H138.728L136.568 58H134.488L132.808 51.52H132.488L130.808 58ZM142.413 58.16C141.581 58.16 140.903 57.9307 140.381 57.472C139.869 57.0027 139.613 56.4053 139.613 55.68C139.613 54.88 139.874 54.256 140.397 53.808C140.93 53.3493 141.735 53.12 142.812 53.12H144.973V52.88C144.973 52.2827 144.802 51.8133 144.461 51.472C144.119 51.1307 143.65 50.96 143.053 50.96C142.477 50.96 142.007 51.0933 141.645 51.36C141.293 51.616 141.095 51.936 141.053 52.32H139.853C139.885 51.8827 140.029 51.4773 140.285 51.104C140.541 50.72 140.903 50.416 141.373 50.192C141.853 49.9573 142.413 49.84 143.053 49.84C144.023 49.84 144.786 50.112 145.341 50.656C145.895 51.1893 146.173 51.9307 146.173 52.88V58H145.133L144.973 57.04H144.893C144.711 57.328 144.397 57.5893 143.949 57.824C143.511 58.048 142.999 58.16 142.413 58.16ZM142.413 57.04C143.213 57.04 143.837 56.8213 144.285 56.384C144.743 55.936 144.973 55.328 144.973 54.56V54.24H142.812C142.13 54.24 141.623 54.3733 141.293 54.64C140.973 54.9067 140.812 55.2533 140.812 55.68C140.812 56.0853 140.951 56.416 141.229 56.672C141.506 56.9173 141.901 57.04 142.413 57.04ZM148.417 58V50H149.457L149.617 50.8H149.697C149.878 50.5227 150.076 50.32 150.289 50.192C150.502 50.064 150.812 50 151.217 50H152.577V51.12H151.377C150.822 51.12 150.39 51.2747 150.081 51.584C149.772 51.8827 149.617 52.3147 149.617 52.88V58H148.417ZM157.058 58.16C156.343 58.16 155.693 57.984 155.106 57.632C154.519 57.28 154.055 56.7893 153.714 56.16C153.383 55.5307 153.218 54.8107 153.218 54C153.218 53.1893 153.383 52.4693 153.714 51.84C154.055 51.2107 154.519 50.72 155.106 50.368C155.693 50.016 156.343 49.84 157.058 49.84C157.741 49.84 158.365 50.0053 158.93 50.336C159.495 50.6667 159.938 51.1253 160.258 51.712C160.578 52.288 160.738 52.944 160.738 53.68C160.738 54.1067 160.711 54.4 160.658 54.56H154.418C154.493 55.3067 154.781 55.9093 155.282 56.368C155.783 56.816 156.375 57.04 157.058 57.04C157.538 57.04 157.965 56.928 158.338 56.704C158.722 56.48 159.015 56.1653 159.218 55.76H160.498C160.221 56.528 159.783 57.12 159.186 57.536C158.599 57.952 157.89 58.16 157.058 58.16ZM159.538 53.44C159.495 52.7147 159.239 52.1227 158.77 51.664C158.311 51.1947 157.741 50.96 157.058 50.96C156.343 50.96 155.746 51.1947 155.266 51.664C154.786 52.1227 154.503 52.7147 154.418 53.44H159.538ZM171.223 58.16C170.241 58.16 169.34 57.92 168.519 57.44C167.697 56.9493 167.047 56.2667 166.567 55.392C166.097 54.5173 165.863 53.52 165.863 52.4C165.863 51.28 166.097 50.2827 166.567 49.408C167.047 48.5333 167.697 47.856 168.519 47.376C169.34 46.8853 170.241 46.64 171.223 46.64C172.428 46.64 173.473 46.976 174.359 47.648C175.255 48.32 175.863 49.2373 176.183 50.4H174.823C174.545 49.6 174.087 48.976 173.447 48.528C172.807 48.0693 172.065 47.84 171.223 47.84C170.476 47.84 169.788 48.032 169.159 48.416C168.54 48.8 168.049 49.3387 167.687 50.032C167.324 50.7253 167.143 51.5147 167.143 52.4C167.143 53.2853 167.324 54.0747 167.687 54.768C168.049 55.4613 168.54 56 169.159 56.384C169.788 56.768 170.476 56.96 171.223 56.96C172.065 56.96 172.807 56.7307 173.447 56.272C174.087 55.8027 174.545 55.152 174.823 54.32H176.183C175.863 55.5147 175.255 56.4533 174.359 57.136C173.473 57.8187 172.428 58.16 171.223 58.16ZM179.15 58H177.95V46.8H179.15V58ZM184.664 58.16C184.056 58.16 183.506 58.0213 183.016 57.744C182.536 57.456 182.157 57.056 181.88 56.544C181.602 56.032 181.464 55.4507 181.464 54.8V50H182.664V54.8C182.664 55.216 182.76 55.5947 182.952 55.936C183.144 56.2773 183.405 56.5493 183.736 56.752C184.066 56.944 184.429 57.04 184.824 57.04C185.24 57.04 185.624 56.9387 185.976 56.736C186.338 56.5227 186.621 56.2453 186.824 55.904C187.037 55.5627 187.144 55.1947 187.144 54.8V50H188.344V58H187.304L187.144 57.12H187.064C186.84 57.3973 186.514 57.6427 186.088 57.856C185.672 58.0587 185.197 58.16 184.664 58.16ZM194.509 58.16C193.965 58.16 193.485 58.0533 193.069 57.84C192.653 57.616 192.279 57.296 191.949 56.88H191.869L191.709 58H190.669V46.8H191.869V51.12H191.949C192.279 50.704 192.653 50.3893 193.069 50.176C193.485 49.952 193.965 49.84 194.509 49.84C195.202 49.84 195.826 50.016 196.381 50.368C196.946 50.72 197.389 51.2107 197.709 51.84C198.029 52.4693 198.189 53.1893 198.189 54C198.189 54.8107 198.029 55.5307 197.709 56.16C197.389 56.7893 196.946 57.28 196.381 57.632C195.826 57.984 195.202 58.16 194.509 58.16ZM194.429 57.04C194.887 57.04 195.309 56.912 195.693 56.656C196.087 56.4 196.402 56.0427 196.637 55.584C196.871 55.1253 196.989 54.5973 196.989 54C196.989 53.4027 196.871 52.8747 196.637 52.416C196.402 51.9573 196.087 51.6 195.693 51.344C195.309 51.088 194.887 50.96 194.429 50.96C193.97 50.96 193.543 51.088 193.149 51.344C192.765 51.6 192.455 51.9573 192.221 52.416C191.986 52.8747 191.869 53.4027 191.869 54C191.869 54.5973 191.986 55.1253 192.221 55.584C192.455 56.0427 192.765 56.4 193.149 56.656C193.543 56.912 193.97 57.04 194.429 57.04Z" fill="white" fill-opacity="0.6"/>
<path d="M10.4 86H9.04L7.968 83.12H2.432L1.36 86H0L4.24 74.8H6.16L10.4 86ZM5.04 76.16L2.88 81.92H7.52L5.36 76.16H5.04ZM11.5263 86V78H12.5663L12.7263 78.8H12.8063C12.9876 78.5227 13.1849 78.32 13.3983 78.192C13.6116 78.064 13.9209 78 14.3263 78H15.6863V79.12H14.4863C13.9316 79.12 13.4996 79.2747 13.1903 79.584C12.8809 79.8827 12.7263 80.3147 12.7263 80.88V86H11.5263ZM16.9638 86V78H18.0038L18.1638 78.88H18.2438C18.4571 78.6133 18.7504 78.3733 19.1238 78.16C19.4971 77.9467 19.8971 77.84 20.3238 77.84C20.8891 77.84 21.3744 77.9787 21.7798 78.256C22.1958 78.5333 22.4838 78.848 22.6438 79.2H22.7238C22.9478 78.848 23.2944 78.5333 23.7638 78.256C24.2438 77.9787 24.7771 77.84 25.3638 77.84C25.9184 77.84 26.4144 77.9733 26.8518 78.24C27.2891 78.5067 27.6304 78.8747 27.8758 79.344C28.1211 79.8133 28.2438 80.352 28.2438 80.96V86H27.0438V80.96C27.0438 80.3627 26.8731 79.8827 26.5318 79.52C26.2011 79.1467 25.7584 78.96 25.2038 78.96C24.8624 78.96 24.5371 79.0507 24.2278 79.232C23.9184 79.4027 23.6678 79.6427 23.4758 79.952C23.2944 80.2613 23.2038 80.5973 23.2038 80.96V86H22.0038V80.96C22.0038 80.3627 21.8331 79.8827 21.4918 79.52C21.1611 79.1467 20.7184 78.96 20.1638 78.96C19.8224 78.96 19.4971 79.0507 19.1878 79.232C18.8784 79.4027 18.6278 79.6427 18.4358 79.952C18.2544 80.2613 18.1638 80.5973 18.1638 80.96V86H16.9638ZM35.6831 78H36.9631L33.3631 88.08C33.2245 88.464 33.0431 88.7467 32.8191 88.928C32.5951 89.1093 32.2698 89.2 31.8431 89.2H30.2431V88.08H31.7631C32.0298 88.08 32.2165 87.92 32.3231 87.6L32.6431 86.64L29.3631 78H30.6431L33.1231 84.64H33.4431L35.6831 78ZM43.06 86H41.78V74.8H43.06V86ZM45.4638 86V78H46.5038L46.6638 78.88H46.7438C46.9571 78.6133 47.2771 78.3733 47.7038 78.16C48.1304 77.9467 48.6104 77.84 49.1438 77.84C49.7518 77.84 50.2958 77.984 50.7758 78.272C51.2664 78.5493 51.6504 78.944 51.9278 79.456C52.2051 79.968 52.3438 80.5493 52.3438 81.2V86H51.1438V81.2C51.1438 80.784 51.0478 80.4053 50.8558 80.064C50.6638 79.7227 50.4024 79.456 50.0718 79.264C49.7411 79.0613 49.3784 78.96 48.9838 78.96C48.5678 78.96 48.1784 79.0667 47.8158 79.28C47.4638 79.4827 47.1811 79.7547 46.9678 80.096C46.7651 80.4373 46.6638 80.8053 46.6638 81.2V86H45.4638ZM57.1488 86.16C56.5088 86.16 55.9434 86.048 55.4528 85.824C54.9728 85.5893 54.5994 85.2853 54.3328 84.912C54.0768 84.528 53.9488 84.1173 53.9488 83.68H55.1488C55.1488 84.0533 55.3248 84.3733 55.6768 84.64C56.0394 84.9067 56.5301 85.04 57.1488 85.04C57.7568 85.04 58.2261 84.928 58.5568 84.704C58.8981 84.4693 59.0688 84.1813 59.0688 83.84C59.0688 83.52 58.9568 83.264 58.7328 83.072C58.5194 82.8693 58.1781 82.7253 57.7088 82.64L56.3488 82.4C54.8554 82.144 54.1088 81.3973 54.1088 80.16C54.1088 79.488 54.3594 78.9333 54.8608 78.496C55.3728 78.0587 56.1088 77.84 57.0688 77.84C57.6874 77.84 58.2314 77.9573 58.7008 78.192C59.1808 78.416 59.5488 78.72 59.8048 79.104C60.0608 79.488 60.1888 79.8933 60.1888 80.32H58.9888C58.9888 79.9467 58.8128 79.6267 58.4608 79.36C58.1088 79.0933 57.6448 78.96 57.0688 78.96C56.5034 78.96 56.0661 79.0773 55.7568 79.312C55.4581 79.536 55.3088 79.8187 55.3088 80.16C55.3088 80.4587 55.4048 80.6987 55.5968 80.88C55.7994 81.0613 56.1301 81.1947 56.5888 81.28L57.9488 81.52C58.7488 81.6587 59.3354 81.92 59.7088 82.304C60.0821 82.688 60.2688 83.2 60.2688 83.84C60.2688 84.512 59.9968 85.0667 59.4528 85.504C58.9194 85.9413 58.1514 86.16 57.1488 86.16ZM63.7919 86C63.3545 86 63.0025 85.8773 62.7359 85.632C62.4799 85.376 62.3519 85.0453 62.3519 84.64V79.12H61.0719V78H62.3519V75.76H63.5519V78H65.3919V79.12H63.5519V84.4C63.5519 84.72 63.7119 84.88 64.0319 84.88H65.3919V86H63.7919ZM68.4294 86H67.2294V78H68.4294V86ZM68.5254 76.32H67.1654V74.96H68.5254V76.32ZM72.6669 86C72.2295 86 71.8775 85.8773 71.6109 85.632C71.3549 85.376 71.2269 85.0453 71.2269 84.64V79.12H69.9469V78H71.2269V75.76H72.4269V78H74.2669V79.12H72.4269V84.4C72.4269 84.72 72.5869 84.88 72.9069 84.88H74.2669V86H72.6669ZM79.1481 86.16C78.5401 86.16 77.9908 86.0213 77.5001 85.744C77.0201 85.456 76.6415 85.056 76.3641 84.544C76.0868 84.032 75.9481 83.4507 75.9481 82.8V78H77.1481V82.8C77.1481 83.216 77.2441 83.5947 77.4361 83.936C77.6281 84.2773 77.8895 84.5493 78.2201 84.752C78.5508 84.944 78.9135 85.04 79.3081 85.04C79.7241 85.04 80.1081 84.9387 80.4601 84.736C80.8228 84.5227 81.1055 84.2453 81.3081 83.904C81.5215 83.5627 81.6281 83.1947 81.6281 82.8V78H82.8281V86H81.7881L81.6281 85.12H81.5481C81.3241 85.3973 80.9988 85.6427 80.5721 85.856C80.1561 86.0587 79.6815 86.16 79.1481 86.16ZM87.0731 86C86.6358 86 86.2838 85.8773 86.0171 85.632C85.7611 85.376 85.6331 85.0453 85.6331 84.64V79.12H84.3531V78H85.6331V75.76H86.8331V78H88.6731V79.12H86.8331V84.4C86.8331 84.72 86.9931 84.88 87.3131 84.88H88.6731V86H87.0731ZM93.5581 86.16C92.8435 86.16 92.1928 85.984 91.6061 85.632C91.0195 85.28 90.5555 84.7893 90.2141 84.16C89.8835 83.5307 89.7181 82.8107 89.7181 82C89.7181 81.1893 89.8835 80.4693 90.2141 79.84C90.5555 79.2107 91.0195 78.72 91.6061 78.368C92.1928 78.016 92.8435 77.84 93.5581 77.84C94.2408 77.84 94.8648 78.0053 95.4301 78.336C95.9955 78.6667 96.4381 79.1253 96.7581 79.712C97.0781 80.288 97.2381 80.944 97.2381 81.68C97.2381 82.1067 97.2115 82.4 97.1581 82.56H90.9181C90.9928 83.3067 91.2808 83.9093 91.7821 84.368C92.2835 84.816 92.8755 85.04 93.5581 85.04C94.0381 85.04 94.4648 84.928 94.8381 84.704C95.2221 84.48 95.5155 84.1653 95.7181 83.76H96.9981C96.7208 84.528 96.2835 85.12 95.6861 85.536C95.0995 85.952 94.3901 86.16 93.5581 86.16ZM96.0381 81.44C95.9955 80.7147 95.7395 80.1227 95.2701 79.664C94.8115 79.1947 94.2408 78.96 93.5581 78.96C92.8435 78.96 92.2461 79.1947 91.7661 79.664C91.2861 80.1227 91.0035 80.7147 90.9181 81.44H96.0381ZM106.043 86.16C105.328 86.16 104.677 85.984 104.091 85.632C103.504 85.28 103.04 84.7893 102.699 84.16C102.368 83.5307 102.203 82.8107 102.203 82C102.203 81.1893 102.368 80.4693 102.699 79.84C103.04 79.2107 103.504 78.72 104.091 78.368C104.677 78.016 105.328 77.84 106.043 77.84C106.757 77.84 107.408 78.016 107.995 78.368C108.581 78.72 109.04 79.2107 109.371 79.84C109.712 80.4693 109.883 81.1893 109.883 82C109.883 82.8107 109.712 83.5307 109.371 84.16C109.04 84.7893 108.581 85.28 107.995 85.632C107.408 85.984 106.757 86.16 106.043 86.16ZM106.043 85.04C106.523 85.04 106.965 84.9173 107.371 84.672C107.776 84.416 108.096 84.0587 108.331 83.6C108.565 83.1307 108.683 82.5973 108.683 82C108.683 81.4027 108.565 80.8747 108.331 80.416C108.096 79.9467 107.776 79.5893 107.371 79.344C106.965 79.088 106.523 78.96 106.043 78.96C105.563 78.96 105.12 79.088 104.715 79.344C104.309 79.5893 103.989 79.9467 103.755 80.416C103.52 80.8747 103.403 81.4027 103.403 82C103.403 82.5973 103.52 83.1307 103.755 83.6C103.989 84.0587 104.309 84.416 104.715 84.672C105.12 84.9173 105.563 85.04 106.043 85.04ZM112.039 86V79.12H110.759V78H112.039V76.48C112.039 76.0747 112.167 75.7493 112.423 75.504C112.69 75.248 113.042 75.12 113.479 75.12H114.919V76.24H113.719C113.399 76.24 113.239 76.4 113.239 76.72V78H114.919V79.12H113.239V86H112.039ZM123.407 86H122.127V76H118.447V74.8H127.087V76H123.407V86ZM130.683 86.16C129.968 86.16 129.318 85.984 128.731 85.632C128.144 85.28 127.68 84.7893 127.339 84.16C127.008 83.5307 126.843 82.8107 126.843 82C126.843 81.1893 127.008 80.4693 127.339 79.84C127.68 79.2107 128.144 78.72 128.731 78.368C129.318 78.016 129.968 77.84 130.683 77.84C131.366 77.84 131.99 78.0053 132.555 78.336C133.12 78.6667 133.563 79.1253 133.883 79.712C134.203 80.288 134.363 80.944 134.363 81.68C134.363 82.1067 134.336 82.4 134.283 82.56H128.043C128.118 83.3067 128.406 83.9093 128.907 84.368C129.408 84.816 130 85.04 130.683 85.04C131.163 85.04 131.59 84.928 131.963 84.704C132.347 84.48 132.64 84.1653 132.843 83.76H134.123C133.846 84.528 133.408 85.12 132.811 85.536C132.224 85.952 131.515 86.16 130.683 86.16ZM133.163 81.44C133.12 80.7147 132.864 80.1227 132.395 79.664C131.936 79.1947 131.366 78.96 130.683 78.96C129.968 78.96 129.371 79.1947 128.891 79.664C128.411 80.1227 128.128 80.7147 128.043 81.44H133.163ZM139.48 86.16C138.765 86.16 138.115 85.984 137.528 85.632C136.941 85.28 136.477 84.7893 136.136 84.16C135.805 83.5307 135.64 82.8107 135.64 82C135.64 81.1893 135.805 80.4693 136.136 79.84C136.477 79.2107 136.941 78.72 137.528 78.368C138.115 78.016 138.765 77.84 139.48 77.84C140.365 77.84 141.123 78.0853 141.752 78.576C142.381 79.056 142.797 79.7173 143 80.56H141.8C141.64 80.048 141.352 79.6533 140.936 79.376C140.531 79.0987 140.045 78.96 139.48 78.96C139 78.96 138.557 79.088 138.152 79.344C137.747 79.5893 137.427 79.9467 137.192 80.416C136.957 80.8747 136.84 81.4027 136.84 82C136.84 82.5973 136.957 83.1307 137.192 83.6C137.427 84.0587 137.747 84.416 138.152 84.672C138.557 84.9173 139 85.04 139.48 85.04C140.056 85.04 140.547 84.896 140.952 84.608C141.357 84.32 141.64 83.904 141.8 83.36H143C142.797 84.2347 142.381 84.9227 141.752 85.424C141.123 85.9147 140.365 86.16 139.48 86.16ZM144.763 86V74.8H145.963V78.88H146.043C146.256 78.6133 146.576 78.3733 147.003 78.16C147.429 77.9467 147.909 77.84 148.443 77.84C149.051 77.84 149.595 77.984 150.075 78.272C150.565 78.5493 150.949 78.944 151.227 79.456C151.504 79.968 151.642 80.5493 151.642 81.2V86H150.443V81.2C150.443 80.784 150.347 80.4053 150.155 80.064C149.963 79.7227 149.701 79.456 149.371 79.264C149.04 79.0613 148.677 78.96 148.283 78.96C147.867 78.96 147.477 79.0667 147.115 79.28C146.763 79.4827 146.48 79.7547 146.267 80.096C146.064 80.4373 145.963 80.8053 145.963 81.2V86H144.763ZM153.886 86V78H154.926L155.086 78.88H155.166C155.379 78.6133 155.699 78.3733 156.126 78.16C156.552 77.9467 157.032 77.84 157.566 77.84C158.174 77.84 158.718 77.984 159.198 78.272C159.688 78.5493 160.072 78.944 160.35 79.456C160.627 79.968 160.766 80.5493 160.766 81.2V86H159.566V81.2C159.566 80.784 159.47 80.4053 159.278 80.064C159.086 79.7227 158.824 79.456 158.494 79.264C158.163 79.0613 157.8 78.96 157.406 78.96C156.99 78.96 156.6 79.0667 156.238 79.28C155.886 79.4827 155.603 79.7547 155.39 80.096C155.187 80.4373 155.086 80.8053 155.086 81.2V86H153.886ZM166.371 86.16C165.656 86.16 165.005 85.984 164.419 85.632C163.832 85.28 163.368 84.7893 163.027 84.16C162.696 83.5307 162.531 82.8107 162.531 82C162.531 81.1893 162.696 80.4693 163.027 79.84C163.368 79.2107 163.832 78.72 164.419 78.368C165.005 78.016 165.656 77.84 166.371 77.84C167.085 77.84 167.736 78.016 168.323 78.368C168.909 78.72 169.368 79.2107 169.699 79.84C170.04 80.4693 170.211 81.1893 170.211 82C170.211 82.8107 170.04 83.5307 169.699 84.16C169.368 84.7893 168.909 85.28 168.323 85.632C167.736 85.984 167.085 86.16 166.371 86.16ZM166.371 85.04C166.851 85.04 167.293 84.9173 167.699 84.672C168.104 84.416 168.424 84.0587 168.659 83.6C168.893 83.1307 169.011 82.5973 169.011 82C169.011 81.4027 168.893 80.8747 168.659 80.416C168.424 79.9467 168.104 79.5893 167.699 79.344C167.293 79.088 166.851 78.96 166.371 78.96C165.891 78.96 165.448 79.088 165.043 79.344C164.637 79.5893 164.317 79.9467 164.083 80.416C163.848 80.8747 163.731 81.4027 163.731 82C163.731 82.5973 163.848 83.1307 164.083 83.6C164.317 84.0587 164.637 84.416 165.043 84.672C165.448 84.9173 165.891 85.04 166.371 85.04ZM173.244 86H172.044V74.8H173.244V86ZM178.918 86.16C178.203 86.16 177.552 85.984 176.966 85.632C176.379 85.28 175.915 84.7893 175.574 84.16C175.243 83.5307 175.078 82.8107 175.078 82C175.078 81.1893 175.243 80.4693 175.574 79.84C175.915 79.2107 176.379 78.72 176.966 78.368C177.552 78.016 178.203 77.84 178.918 77.84C179.632 77.84 180.283 78.016 180.87 78.368C181.456 78.72 181.915 79.2107 182.246 79.84C182.587 80.4693 182.758 81.1893 182.758 82C182.758 82.8107 182.587 83.5307 182.246 84.16C181.915 84.7893 181.456 85.28 180.87 85.632C180.283 85.984 179.632 86.16 178.918 86.16ZM178.918 85.04C179.398 85.04 179.84 84.9173 180.246 84.672C180.651 84.416 180.971 84.0587 181.206 83.6C181.44 83.1307 181.558 82.5973 181.558 82C181.558 81.4027 181.44 80.8747 181.206 80.416C180.971 79.9467 180.651 79.5893 180.246 79.344C179.84 79.088 179.398 78.96 178.918 78.96C178.438 78.96 177.995 79.088 177.59 79.344C177.184 79.5893 176.864 79.9467 176.63 80.416C176.395 80.8747 176.278 81.4027 176.278 82C176.278 82.5973 176.395 83.1307 176.63 83.6C176.864 84.0587 177.184 84.416 177.59 84.672C177.995 84.9173 178.438 85.04 178.918 85.04ZM187.951 89.36C187.236 89.36 186.612 89.232 186.079 88.976C185.545 88.72 185.129 88.384 184.831 87.968C184.543 87.552 184.383 87.1093 184.351 86.64H185.551C185.593 87.0773 185.823 87.4507 186.239 87.76C186.665 88.08 187.236 88.24 187.951 88.24C188.676 88.24 189.257 88.0373 189.695 87.632C190.132 87.2267 190.351 86.6827 190.351 86V84.56H190.271C189.951 84.9227 189.572 85.2 189.135 85.392C188.697 85.584 188.223 85.68 187.711 85.68C187.017 85.68 186.388 85.5147 185.823 85.184C185.268 84.8533 184.831 84.3893 184.511 83.792C184.191 83.1947 184.031 82.5173 184.031 81.76C184.031 81.0027 184.191 80.3253 184.511 79.728C184.831 79.1307 185.268 78.6667 185.823 78.336C186.388 78.0053 187.017 77.84 187.711 77.84C188.223 77.84 188.703 77.952 189.151 78.176C189.609 78.3893 189.983 78.6773 190.271 79.04H190.351L190.511 78H191.551V86C191.551 86.6613 191.407 87.2427 191.119 87.744C190.831 88.256 190.415 88.6507 189.871 88.928C189.327 89.216 188.687 89.36 187.951 89.36ZM187.791 84.56C188.271 84.56 188.703 84.4427 189.087 84.208C189.481 83.9733 189.791 83.6427 190.015 83.216C190.239 82.7893 190.351 82.304 190.351 81.76C190.351 81.216 190.239 80.7307 190.015 80.304C189.791 79.8773 189.481 79.5467 189.087 79.312C188.703 79.0773 188.271 78.96 187.791 78.96C187.311 78.96 186.873 79.0773 186.479 79.312C186.095 79.5467 185.791 79.8773 185.567 80.304C185.343 80.7307 185.231 81.216 185.231 81.76C185.231 82.304 185.343 82.7893 185.567 83.216C185.791 83.6427 186.095 83.9733 186.479 84.208C186.873 84.4427 187.311 84.56 187.791 84.56ZM199.152 78H200.432L196.832 88.08C196.693 88.464 196.512 88.7467 196.288 88.928C196.064 89.1093 195.739 89.2 195.312 89.2H193.712V88.08H195.232C195.499 88.08 195.685 87.92 195.792 87.6L196.112 86.64L192.832 78H194.112L196.592 84.64H196.912L199.152 78ZM205.249 86V74.8H210.129C210.715 74.8 211.249 74.9493 211.729 75.248C212.219 75.5467 212.609 75.9573 212.897 76.48C213.185 77.0027 213.329 77.5893 213.329 78.24C213.329 78.8907 213.185 79.4773 212.897 80C212.609 80.5227 212.219 80.9333 211.729 81.232C211.249 81.5307 210.715 81.68 210.129 81.68H206.529V86H205.249ZM210.129 80.48C210.662 80.48 211.115 80.272 211.489 79.856C211.862 79.44 212.049 78.9013 212.049 78.24C212.049 77.5787 211.862 77.04 211.489 76.624C211.115 76.208 210.662 76 210.129 76H206.529V80.48H210.129ZM218.133 86.16C217.525 86.16 216.975 86.0213 216.485 85.744C216.005 85.456 215.626 85.056 215.349 84.544C215.071 84.032 214.933 83.4507 214.933 82.8V78H216.133V82.8C216.133 83.216 216.229 83.5947 216.421 83.936C216.613 84.2773 216.874 84.5493 217.205 84.752C217.535 84.944 217.898 85.04 218.293 85.04C218.709 85.04 219.093 84.9387 219.445 84.736C219.807 84.5227 220.09 84.2453 220.293 83.904C220.506 83.5627 220.613 83.1947 220.613 82.8V78H221.812V86H220.773L220.613 85.12H220.533C220.309 85.3973 219.983 85.6427 219.557 85.856C219.141 86.0587 218.666 86.16 218.133 86.16ZM224.058 86V78H225.098L225.258 78.88H225.338C225.551 78.6133 225.871 78.3733 226.298 78.16C226.724 77.9467 227.204 77.84 227.738 77.84C228.346 77.84 228.89 77.984 229.37 78.272C229.86 78.5493 230.244 78.944 230.522 79.456C230.799 79.968 230.938 80.5493 230.938 81.2V86H229.738V81.2C229.738 80.784 229.642 80.4053 229.45 80.064C229.258 79.7227 228.996 79.456 228.666 79.264C228.335 79.0613 227.972 78.96 227.578 78.96C227.162 78.96 226.772 79.0667 226.41 79.28C226.058 79.4827 225.775 79.7547 225.562 80.096C225.359 80.4373 225.258 80.8053 225.258 81.2V86H224.058ZM236.543 86.16C235.828 86.16 235.177 85.984 234.591 85.632C234.004 85.28 233.54 84.7893 233.199 84.16C232.868 83.5307 232.703 82.8107 232.703 82C232.703 81.1893 232.868 80.4693 233.199 79.84C233.54 79.2107 234.004 78.72 234.591 78.368C235.177 78.016 235.828 77.84 236.543 77.84C237.225 77.84 237.849 78.0053 238.415 78.336C238.98 78.6667 239.423 79.1253 239.743 79.712C240.063 80.288 240.223 80.944 240.223 81.68C240.223 82.1067 240.196 82.4 240.142 82.56H233.903C233.977 83.3067 234.265 83.9093 234.767 84.368C235.268 84.816 235.86 85.04 236.543 85.04C237.023 85.04 237.449 84.928 237.823 84.704C238.207 84.48 238.5 84.1653 238.703 83.76H239.983C239.705 84.528 239.268 85.12 238.671 85.536C238.084 85.952 237.375 86.16 236.543 86.16ZM239.023 81.44C238.98 80.7147 238.724 80.1227 238.255 79.664C237.796 79.1947 237.225 78.96 236.543 78.96C235.828 78.96 235.231 79.1947 234.751 79.664C234.271 80.1227 233.988 80.7147 233.903 81.44H239.023Z" fill="white" fill-opacity="0.6"/>
<rect x="0.5" y="108.5" width="114" height="31" rx="3.5" fill="#E99C1A" fill-opacity="0.15"/>
<rect x="0.5" y="108.5" width="114" height="31" rx="3.5" stroke="#E99C1A"/>
<path d="M17.32 128.668C16.592 128.668 15.9433 128.537 15.374 128.276C14.8047 128.005 14.3193 127.641 13.918 127.184C13.526 126.717 13.2227 126.176 13.008 125.56C12.8027 124.944 12.7 124.286 12.7 123.586C12.7 122.625 12.882 121.766 13.246 121.01C13.6193 120.245 14.1513 119.643 14.842 119.204C15.5327 118.756 16.3587 118.532 17.32 118.532C18.0387 118.532 18.6827 118.663 19.252 118.924C19.8307 119.185 20.3207 119.549 20.722 120.016C21.1233 120.483 21.4267 121.019 21.632 121.626C21.8467 122.233 21.954 122.886 21.954 123.586C21.954 124.286 21.8467 124.944 21.632 125.56C21.4267 126.176 21.1233 126.717 20.722 127.184C20.3207 127.641 19.8353 128.005 19.266 128.276C18.6967 128.537 18.048 128.668 17.32 128.668ZM17.32 127.52C18.0387 127.52 18.6407 127.347 19.126 127.002C19.6113 126.657 19.9753 126.19 20.218 125.602C20.47 125.005 20.596 124.333 20.596 123.586C20.596 123.082 20.5213 122.597 20.372 122.13C20.2227 121.663 20.008 121.248 19.728 120.884C19.448 120.511 19.1027 120.217 18.692 120.002C18.2907 119.787 17.8333 119.68 17.32 119.68C16.6387 119.68 16.0507 119.853 15.556 120.198C15.0707 120.543 14.6973 121.01 14.436 121.598C14.184 122.186 14.058 122.849 14.058 123.586C14.058 124.09 14.128 124.58 14.268 125.056C14.4173 125.523 14.632 125.943 14.912 126.316C15.192 126.689 15.5327 126.983 15.934 127.198C16.3447 127.413 16.8067 127.52 17.32 127.52ZM26.3464 128.668C25.6651 128.668 25.0444 128.579 24.4844 128.402C23.9244 128.215 23.4531 127.973 23.0704 127.674L23.7424 126.554C24.0784 126.834 24.4564 127.063 24.8764 127.24C25.2964 127.417 25.7864 127.506 26.3464 127.506C27.0184 127.506 27.5504 127.366 27.9424 127.086C28.3344 126.806 28.5304 126.428 28.5304 125.952C28.5304 125.681 28.4744 125.443 28.3624 125.238C28.2504 125.023 28.0311 124.818 27.7044 124.622C27.3871 124.417 26.9157 124.197 26.2904 123.964C25.6184 123.703 25.0817 123.441 24.6804 123.18C24.2791 122.909 23.9897 122.606 23.8124 122.27C23.6444 121.925 23.5604 121.519 23.5604 121.052C23.5604 120.585 23.6864 120.165 23.9384 119.792C24.1997 119.409 24.5777 119.106 25.0724 118.882C25.5764 118.649 26.1831 118.532 26.8924 118.532C27.4711 118.532 27.9891 118.593 28.4464 118.714C28.9131 118.826 29.3657 118.989 29.8044 119.204L29.3144 120.338C28.9971 120.151 28.6237 119.997 28.1944 119.876C27.7744 119.745 27.3311 119.68 26.8644 119.68C26.2484 119.68 25.7631 119.801 25.4084 120.044C25.0537 120.287 24.8764 120.599 24.8764 120.982C24.8764 121.225 24.9277 121.439 25.0304 121.626C25.1331 121.813 25.3337 121.995 25.6324 122.172C25.9404 122.349 26.3977 122.55 27.0044 122.774C27.7324 123.045 28.3064 123.329 28.7264 123.628C29.1557 123.927 29.4591 124.253 29.6364 124.608C29.8137 124.953 29.9024 125.35 29.9024 125.798C29.9024 126.405 29.7484 126.923 29.4404 127.352C29.1417 127.781 28.7217 128.108 28.1804 128.332C27.6484 128.556 27.0371 128.668 26.3464 128.668ZM34.3034 128.668C33.6221 128.668 33.0014 128.579 32.4414 128.402C31.8814 128.215 31.4101 127.973 31.0274 127.674L31.6994 126.554C32.0354 126.834 32.4134 127.063 32.8334 127.24C33.2534 127.417 33.7434 127.506 34.3034 127.506C34.9754 127.506 35.5074 127.366 35.8994 127.086C36.2914 126.806 36.4874 126.428 36.4874 125.952C36.4874 125.681 36.4314 125.443 36.3194 125.238C36.2074 125.023 35.9881 124.818 35.6614 124.622C35.3441 124.417 34.8728 124.197 34.2474 123.964C33.5754 123.703 33.0388 123.441 32.6374 123.18C32.2361 122.909 31.9468 122.606 31.7694 122.27C31.6014 121.925 31.5174 121.519 31.5174 121.052C31.5174 120.585 31.6434 120.165 31.8954 119.792C32.1568 119.409 32.5348 119.106 33.0294 118.882C33.5334 118.649 34.1401 118.532 34.8494 118.532C35.4281 118.532 35.9461 118.593 36.4034 118.714C36.8701 118.826 37.3228 118.989 37.7614 119.204L37.2714 120.338C36.9541 120.151 36.5808 119.997 36.1514 119.876C35.7314 119.745 35.2881 119.68 34.8214 119.68C34.2054 119.68 33.7201 119.801 33.3654 120.044C33.0108 120.287 32.8334 120.599 32.8334 120.982C32.8334 121.225 32.8848 121.439 32.9874 121.626C33.0901 121.813 33.2908 121.995 33.5894 122.172C33.8974 122.349 34.3548 122.55 34.9614 122.774C35.6894 123.045 36.2634 123.329 36.6834 123.628C37.1128 123.927 37.4161 124.253 37.5934 124.608C37.7708 124.953 37.8594 125.35 37.8594 125.798C37.8594 126.405 37.7054 126.923 37.3974 127.352C37.0988 127.781 36.6788 128.108 36.1374 128.332C35.6054 128.556 34.9941 128.668 34.3034 128.668ZM47.7877 128.668C46.9384 128.668 46.1871 128.467 45.5337 128.066C44.8804 127.655 44.3717 127.077 44.0077 126.33C43.6437 125.574 43.4617 124.678 43.4617 123.642C43.4617 122.643 43.6437 121.761 44.0077 120.996C44.3811 120.221 44.9037 119.619 45.5757 119.19C46.2571 118.751 47.0504 118.532 47.9557 118.532C48.4224 118.532 48.8471 118.579 49.2297 118.672C49.6124 118.756 49.9717 118.877 50.3077 119.036L49.9017 120.156C49.6124 120.016 49.3137 119.904 49.0057 119.82C48.7071 119.736 48.3524 119.694 47.9417 119.694C47.3444 119.694 46.8077 119.848 46.3317 120.156C45.8651 120.464 45.4964 120.907 45.2257 121.486C44.9551 122.065 44.8197 122.765 44.8197 123.586C44.8197 124.37 44.9504 125.056 45.2117 125.644C45.4824 126.232 45.8511 126.689 46.3177 127.016C46.7937 127.343 47.3351 127.506 47.9417 127.506C48.3991 127.506 48.7957 127.45 49.1317 127.338C49.4677 127.226 49.7944 127.081 50.1117 126.904L50.5177 128.01C50.1724 128.197 49.7757 128.355 49.3277 128.486C48.8891 128.607 48.3757 128.668 47.7877 128.668ZM54.1328 128.668C53.7034 128.668 53.3161 128.589 52.9708 128.43C52.6254 128.262 52.3501 127.996 52.1448 127.632C51.9488 127.268 51.8508 126.797 51.8508 126.218V118.14H53.1108V126.092C53.1108 126.596 53.2134 126.969 53.4188 127.212C53.6334 127.455 53.9274 127.576 54.3008 127.576C54.4781 127.576 54.6508 127.557 54.8188 127.52C54.9961 127.473 55.1454 127.422 55.2668 127.366L55.5748 128.388C55.4068 128.463 55.1968 128.528 54.9448 128.584C54.7021 128.64 54.4314 128.668 54.1328 128.668ZM58.9355 128.668C58.5155 128.668 58.1189 128.579 57.7455 128.402C57.3722 128.225 57.0689 127.94 56.8355 127.548C56.6022 127.147 56.4855 126.615 56.4855 125.952V121.22H57.7455V125.784C57.7455 126.353 57.8669 126.792 58.1095 127.1C58.3522 127.399 58.7069 127.548 59.1735 127.548C59.5562 127.548 59.9249 127.473 60.2795 127.324C60.6435 127.165 60.9655 126.955 61.2455 126.694V121.22H62.5055V126.61C62.5055 127.011 62.5895 127.277 62.7575 127.408C62.9349 127.529 63.1262 127.59 63.3315 127.59L63.0655 128.57C62.1975 128.57 61.6609 128.225 61.4555 127.534C61.1289 127.87 60.7509 128.145 60.3215 128.36C59.8922 128.565 59.4302 128.668 58.9355 128.668ZM68.2808 128.668C67.8608 128.668 67.4641 128.593 67.0908 128.444C66.7268 128.285 66.4234 128.103 66.1808 127.898V128.5H65.0048V118.14H66.2648V121.976C66.4514 121.761 66.7221 121.556 67.0768 121.36C67.4408 121.155 67.8701 121.052 68.3648 121.052C68.9248 121.052 69.4474 121.201 69.9328 121.5C70.4274 121.789 70.8241 122.214 71.1228 122.774C71.4214 123.325 71.5708 123.997 71.5708 124.79C71.5708 125.369 71.4774 125.896 71.2908 126.372C71.1041 126.848 70.8521 127.259 70.5348 127.604C70.2268 127.94 69.8768 128.201 69.4848 128.388C69.0928 128.575 68.6914 128.668 68.2808 128.668ZM67.9448 127.548C68.4021 127.548 68.8034 127.436 69.1488 127.212C69.5034 126.988 69.7788 126.671 69.9748 126.26C70.1801 125.849 70.2828 125.373 70.2828 124.832C70.2828 124.272 70.1801 123.791 69.9748 123.39C69.7788 122.989 69.5128 122.681 69.1768 122.466C68.8501 122.251 68.4861 122.144 68.0848 122.144C67.6834 122.144 67.3194 122.247 66.9928 122.452C66.6754 122.648 66.4328 122.863 66.2648 123.096V126.988C66.4794 127.156 66.7314 127.291 67.0208 127.394C67.3101 127.497 67.6181 127.548 67.9448 127.548Z" fill="#FEA519"/>
<path d="M87.6973 128.124L88.8758 129.302L95.9469 122.231L97.1254 123.41L98.3039 122.231L97.1254 121.053L98.3039 119.874L97.1254 118.696L95.9469 119.874L94.7684 118.696L93.5898 119.874L94.7684 121.053L87.6973 128.124ZM91.2328 119.874L92.4113 118.696L93.5898 119.874L92.4113 121.053L91.2328 119.874ZM91.2328 119.874L90.0543 121.053L88.8758 119.874L90.0543 118.696L91.2328 119.874ZM97.1254 125.767L98.3039 124.588L97.1254 123.41L95.9469 124.588L97.1254 125.767ZM97.1254 125.767L95.9469 126.945L97.1254 128.124L98.3039 126.945L97.1254 125.767Z" fill="#FEA018"/>
</svg>
