<svg width="372" height="111" viewBox="0 0 372 111" fill="none" xmlns="http://www.w3.org/2000/svg">
<mask id="path-1-outside-1_1360_62264" maskUnits="userSpaceOnUse" x="0" y="0" width="372" height="111" fill="black">
<rect fill="white" width="372" height="111"/>
<path fill-rule="evenodd" clip-rule="evenodd" d="M363.587 6H185.794L37.3874 6L8 104.448H185.794H334.2L363.587 6Z"/>
</mask>
<path fill-rule="evenodd" clip-rule="evenodd" d="M363.587 6H185.794L37.3874 6L8 104.448H185.794H334.2L363.587 6Z" fill="#D9D9D9"/>
<path d="M185.794 6V0.122522V6ZM363.587 6L369.219 7.68117L371.476 0.122522H363.587V6ZM37.3874 6V0.122525H33.0081L31.7555 4.31884L37.3874 6ZM8 104.448L2.36809 102.767L0.111776 110.325H8V104.448ZM334.2 104.448V110.325H338.579L339.832 106.129L334.2 104.448ZM185.794 11.8775H363.587V0.122522H185.794V11.8775ZM37.3874 11.8775L185.794 11.8775V0.122522L37.3874 0.122525V11.8775ZM13.6319 106.129L43.0193 7.68117L31.7555 4.31884L2.36809 102.767L13.6319 106.129ZM185.794 98.5703H8V110.325H185.794V98.5703ZM334.2 98.5703H185.794V110.325H334.2V98.5703ZM357.956 4.31883L328.568 102.767L339.832 106.129L369.219 7.68117L357.956 4.31883Z" fill="#734F1F" mask="url(#path-1-outside-1_1360_62264)"/>
</svg>
